0
SECTION
2
HEADER
9
$INSUNITS
70
4
9
$ACADVER
1
AC1014
9
$HANDSEED
5
FFFF
0
ENDSEC
0
SECTION
2
TABLES
0
TABLE
2
VPORT
5
8
100
AcDbSymbolTable
0
ENDTAB
0
TABLE
2
LTYPE
5
5
100
AcDbSymbolTable
0
LTYPE
5
14
100
AcDbSymbolTableRecord
100
AcDbLinetypeTableRecord
2
BYBLOCK
70
0
0
LTYPE
5
15
100
AcDbSymbolTableRecord
100
AcDbLinetypeTableRecord
2
BYLAYER
70
0
0
ENDTAB
0
TABLE
2
LAYER
5
2
100
AcDbSymbolTable
70
2
0
LAYER
5
50
100
AcDbSymbolTableRecord
100
AcDbLayerTableRecord
2
0
70
0
6
CONTINUOUS
0
ENDTAB
0
TABLE
2
STYLE
5
3
100
AcDbSymbolTable
70
1
0
STYLE
5
11
100
AcDbSymbolTableRecord
100
AcDbTextStyleTableRecord
2
STANDARD
70
0
0
ENDTAB
0
TABLE
2
VIEW
5
6
100
AcDbSymbolTable
70
0
0
ENDTAB
0
TABLE
2
UCS
5
7
100
AcDbSymbolTable
70
0
0
ENDTAB
0
TABLE
2
APPID
5
9
100
AcDbSymbolTable
70
2
0
APPID
5
12
100
AcDbSymbolTableRecord
100
AcDbRegAppTableRecord
2
ACAD
70
0
0
ENDTAB
0
TABLE
2
DIMSTYLE
5
A
100
AcDbSymbolTable
70
1
0
ENDTAB
0
TABLE
2
BLOCK_RECORD
5
1
100
AcDbSymbolTable
70
1
0
BLOCK_RECORD
5
1F
100
AcDbSymbolTableRecord
100
AcDbBlockTableRecord
2
*MODEL_SPACE
0
BLOCK_RECORD
5
1B
100
AcDbSymbolTableRecord
100
AcDbBlockTableRecord
2
*PAPER_SPACE
0
ENDTAB
0
ENDSEC
0
SECTION
2
BLOCKS
0
BLOCK
5
20
100
AcDbEntity
100
AcDbBlockBegin
2
*MODEL_SPACE
0
ENDBLK
5
21
100
AcDbEntity
100
AcDbBlockEnd
0
BLOCK
5
1C
100
AcDbEntity
100
AcDbBlockBegin
2
*PAPER_SPACE
0
ENDBLK
5
1D
100
AcDbEntity
100
AcDbBlockEnd
0
ENDSEC
0
SECTION
2
ENTITIES
0
LWPOLYLINE
5
100
100
AcDbEntity
8
0
100
AcDbPolyline
90
11
70
1
43
0.0
10
179.41935622692364
20
-114.09724310056063
42
0.12136173351820223
10
70.859640143095703
20
-139.18547544534766
42
-0.40734695184931163
10
64.194605516762692
20
-137.08729083271228
10
53.56148887780941
20
-117.25957922290632
42
-0.12366161690819877
10
52.789990000990045
20
-114.18811345006657
10
52.789992604881718
20
-44.73411886825189
42
-0.46022881921067449
10
55.786346000000009
20
-41.300000000000082
10
82.364099999999951
20
-41.300000000000082
42
-0.11639821547423275
10
134.49281690755174
20
-30.186888103078001
42
-0.18150498696004858
10
184.4927787862087
20
-50.204631119669749
10
184.49150017219455
20
-109.09783005705
42
-0.41845416368031385
0
CIRCLE
5
101
100
AcDbEntity
8
0
100
AcDbCircle
10
74.634900000000002
20
-132.22499999999999
30
0
40
1.6000000000000003
210
0
220
0
230
1
0
CIRCLE
5
102
100
AcDbEntity
8
0
100
AcDbCircle
10
124.96899999999999
20
-115.03299999999999
30
0
40
1.6000000000000003
210
0
220
0
230
1
0
LWPOLYLINE
5
103
100
AcDbEntity
8
0
100
AcDbPolyline
90
26
70
1
43
0.0
10
176.00000262260437
20
-106.50000158697367
10
168.73890832894372
20
-106.50000158697367
42
0.11779325341937109
10
162.63684104378319
20
-107.9577935316636
10
159.46481885832344
20
-109.56513104956701
10
128.75271713979078
20
-111.33322466907016
10
124.73642858152687
20
-111.60622685422371
42
0.3996015444748518
10
121.53526198848357
20
-115.0938264793848
10
105.93011556298171
20
-117.42641842659091
42
-0.41421356237309503
10
102.5195784938373
20
-114.90288184076698
10
100.61010706266465
20
-102.12843094958039
42
0.37139316247211418
10
97.643070235180488
20
-99.571931191240594
10
90.278033705435917
20
-99.571931191240623
42
-0.41421356237308815
10
87.278033705435902
20
-96.571931191240608
10
87.278033705435902
20
-42.500000633299351
10
104.38267061050185
20
-42.500000633299351
42
0.41421356237309115
10
107.38267061050186
20
-39.500000633299351
10
107.38267061050186
20
-35.867463103764656
10
143.00000213086605
20
-33.876338621556435
10
143.00000213086605
20
-36.435946711340534
42
0.41421356237309076
10
146.00000213086605
20
-39.435946711340534
10
162.55192201872609
20
-39.435946711340534
10
171.28996151659308
20
-44.017913651586504
10
171.28996151659308
20
-49.0610344978193
42
0.41421356237309337
10
174.28996151659308
20
-52.061034497819293
10
181.49200000000002
20
-52.061034497819293
10
181.49199999999996
20
-102.05816016213754
42
-0.35377869799263661
0
CIRCLE
5
104
100
AcDbEntity
8
0
100
AcDbCircle
10
102.90600000000001
20
-38.5
30
0
40
1.6000000000000003
210
0
220
0
230
1
0
CIRCLE
5
105
100
AcDbEntity
8
0
100
AcDbCircle
10
148
20
-35.5
30
0
40
1.6000000000000003
210
0
220
0
230
1
0
LWPOLYLINE
5
106
100
AcDbEntity
8
0
100
AcDbPolyline
90
12
70
1
43
0.0
10
97.307735936768282
20
-119.51442339351476
10
80.551883520930545
20
-125.2790468667323
10
65.696133194399536
20
-133.54213993700159
10
57.848846964320003
20
-118.90670377886721
10
66.256646791724535
20
-114.39857630675314
42
0.27638735846277956
10
67.839017758742443
20
-111.75465347791595
10
67.839017758742443
20
-104.27847634503277
10
79.446944419243735
20
-104.27847634503277
10
80.020205916963519
20
-105.33028055874924
42
0.3618920631084076
10
83.589914402779883
20
-106.7449872210978
10
95.000001415610313
20
-103.0000015348196
10
99.182164623691662
20
-115.74206521770907
42
-0.41005668222808789
0
CIRCLE
5
107
100
AcDbEntity
8
0
100
AcDbCircle
10
83.390000000000001
20
-45.899999999999999
30
0
40
1.6000000000000003
210
0
220
0
230
1
0
CIRCLE
5
108
100
AcDbEntity
8
0
100
AcDbCircle
10
83.390000000000001
20
-90.029499999999999
30
0
40
1.6000000000000003
210
0
220
0
230
1
0
LWPOLYLINE
5
109
100
AcDbEntity
8
0
100
AcDbPolyline
90
13
70
1
43
0.0
10
81.081007127233633
20
-44.300000000000075
10
81.081007127233633
20
-96.00000147521817
42
-0.41421356237309764
10
78.081007127233562
20
-99.000001475218156
10
69.000000752201728
20
-99.000001475218639
42
0.27160373343240385
10
66.38172672900707
20
-100.53554214172294
10
62.796834845919165
20
-106.94489000053098
42
-0.26886320945855019
10
60.209208447039622
20
-108.48027411680475
10
54.961644169663579
20
-108.53388537393758
10
55.000000819563866
20
-94.510434717069273
10
59.638981267685374
20
-94.510434717069273
10
59.638981267685374
20
-44.300000000000075
42
-0.99999999999999989
10
63.359776807511459
20
-44.300000000000075
10
77.50712521031906
20
-44.300000000000075
42
-0.99999999999999989
0
CIRCLE
5
110
100
AcDbEntity
8
0
100
AcDbCircle
10
85.582100000000011
20
-102.60600000000002
30
0
40
1.6000000000000003
210
0
220
0
230
1
0
CIRCLE
5
111
100
AcDbEntity
8
0
100
AcDbCircle
10
63.766300000000001
20
-111.95500000000001
30
0
40
1.6000000000000003
210
0
220
0
230
1
0
CIRCLE
5
112
100
AcDbEntity
8
0
100
AcDbCircle
10
57.390000000000008
20
-90.029499999999999
30
0
40
1.6000000000000003
210
0
220
0
230
1
0
CIRCLE
5
113
100
AcDbEntity
8
0
100
AcDbCircle
10
57.390000000000008
20
-45.899999999999999
30
0
40
1.6000000000000003
210
0
220
0
230
1
0
LWPOLYLINE
5
114
100
AcDbEntity
8
0
100
AcDbPolyline
90
12
70
1
43
0.0
10
140.60525378330195
20
-205.85093995430788
10
157.36110619913964
20
-200.08631648109036
10
172.21685652567061
20
-191.82322341082107
10
180.06414275575014
20
-206.4586595689554
10
171.65634292834565
20
-210.96678704106949
42
0.2763873584627824
10
170.07397196132771
20
-213.61070986990669
10
170.07397196132771
20
-221.08688700278987
10
158.46604530082647
20
-221.08688700278987
10
157.89278380310665
20
-220.03508278907339
42
0.3618920631084096
10
154.32307531729032
20
-218.62037612672484
10
142.91298830445987
20
-222.36536181300301
10
138.7308250963786
20
-209.6232981301136
42
-0.410056682228089
0
LWPOLYLINE
5
115
100
AcDbEntity
8
0
100
AcDbPolyline
90
26
70
1
43
0.0
10
131.9828741570885
20
-207.93894492123172
10
116.37772773158666
20
-210.27153686843786
42
-0.39960154447485047
10
113.17656113854339
20
-213.75913649359893
10
109.1602725802795
20
-214.03213867875249
10
78.448170861746874
20
-215.80023229825565
10
75.276148676287107
20
-217.40756981615903
42
-0.1177932534193712
10
69.17408139112662
20
-218.86536176084894
10
61.91298709746598
20
-218.86536176084894
42
0.35377869799263734
10
56.420989720070395
20
-223.3072031856851
10
56.420989720070367
20
-273.30432885000329
10
63.623028203477261
20
-273.30432885000323
42
-0.41421356237309503
10
66.623028203477276
20
-276.30432885000323
10
66.623028203477276
20
-281.34744969623603
10
75.361067701344226
20
-285.92941663648202
10
91.912987589204249
20
-285.92941663648196
42
-0.41421356237308982
10
94.912987589204249
20
-288.92941663648196
10
94.912987589204249
20
-291.48902472626611
10
130.53031910956838
20
-289.49790024405786
10
130.53031910956838
20
-285.86536271452314
42
-0.41421356237308982
10
133.53031910956841
20
-282.86536271452314
10
150.63495601463433
20
-282.86536271452314
10
150.6349560146343
20
-228.79343215658201
42
0.41421356237309159
10
147.6349560146343
20
-225.79343215658199
10
140.26991948488973
20
-225.79343215658201
42
-0.37139316247211585
10
137.30288265740558
20
-223.23693239824223
10
135.3934112262329
20
-210.46248150705566
42
0.41421356237309309
0
LWPOLYLINE
5
116
100
AcDbEntity
8
0
100
AcDbPolyline
90
11
70
1
43
0.0
10
173.71838420330747
20
-188.27807251511041
42
0.40734695184931408
10
167.05334957697454
20
-186.17988790247497
42
-0.1213617335182022
10
58.493633493146724
20
-211.268120247262
42
0.41845416368031274
10
53.421489547875765
20
-216.26753329077263
10
53.420210933861682
20
-275.16073222815282
42
0.18150498696004858
10
103.42017281251854
20
-295.17847524474456
42
0.11639821547423276
10
155.54888972007029
20
-284.06536334782243
10
182.12664372007015
20
-284.06536334782243
42
0.46022881921067504
10
185.12299711518841
20
-280.63124447957063
10
185.1229997190801
20
-211.17724989775607
42
0.12366161690819867
10
184.35150084226075
20
-208.10578412491628
0
LWPOLYLINE
5
117
100
AcDbEntity
8
0
100
AcDbPolyline
90
13
70
1
43
0.0
10
178.27400845238481
20
-281.06536334782243
10
178.27400845238481
20
-230.85492863075331
10
182.91298890050629
20
-230.85492863075331
10
182.95134555040659
20
-216.83147797388503
10
177.70378127303053
20
-216.88508923101784
42
0.26886320945854947
10
175.1161548741506
20
-218.42047334729142
10
171.53126299106307
20
-224.82982120609964
42
-0.27160373343240357
10
168.91298896786847
20
-226.36536187260396
10
159.83198259283665
20
-226.36536187260447
42
0.41421356237309503
10
156.83198259283654
20
-229.36536187260444
10
156.83198259283657
20
-281.06536334782243
42
0.99999999999999989
10
160.40586450975113
20
-281.06536334782243
10
174.55321291255871
20
-281.06536334782243
42
0.99999999999999989
0
CIRCLE
5
118
100
AcDbEntity
8
0
100
AcDbCircle
10
180.52298972007014
20
-235.33586334782257
30
0
40
1.6000000000000003
210
0
220
0
230
1
0
CIRCLE
5
119
100
AcDbEntity
8
0
100
AcDbCircle
10
154.52298972007017
20
-235.3358633478226
30
0
40
1.6000000000000003
210
0
220
0
230
1
0
CIRCLE
5
120
100
AcDbEntity
8
0
100
AcDbCircle
10
152.33088972007019
20
-222.75936334782259
30
0
40
1.6000000000000003
210
0
220
0
230
1
0
CIRCLE
5
121
100
AcDbEntity
8
0
100
AcDbCircle
10
154.5229897200702
20
-279.46536334782252
30
0
40
1.6000000000000003
210
0
220
0
230
1
0
CIRCLE
5
122
100
AcDbEntity
8
0
100
AcDbCircle
10
163.27808972007017
20
-193.14036334782264
30
0
40
1.6000000000000003
210
0
220
0
230
1
0
CIRCLE
5
123
100
AcDbEntity
8
0
100
AcDbCircle
10
174.14668972007013
20
-213.4103633478226
30
0
40
1.6000000000000003
210
0
220
0
230
1
0
CIRCLE
5
124
100
AcDbEntity
8
0
100
AcDbCircle
10
112.94398972007025
20
-210.33236334782265
30
0
40
1.6000000000000003
210
0
220
0
230
1
0
CIRCLE
5
125
100
AcDbEntity
8
0
100
AcDbCircle
10
89.9129897200703
20
-289.86536334782249
30
0
40
1.6000000000000003
210
0
220
0
230
1
0
CIRCLE
5
126
100
AcDbEntity
8
0
100
AcDbCircle
10
180.52298972007014
20
-279.46536334782252
30
0
40
1.6000000000000003
210
0
220
0
230
1
0
CIRCLE
5
127
100
AcDbEntity
8
0
100
AcDbCircle
10
135.00698972007024
20
-286.86536334782255
30
0
40
1.6000000000000003
210
0
220
0
230
1
0
LWPOLYLINE
5
128
100
AcDbEntity
8
0
100
AcDbPolyline
90
4
70
1
43
0.0
10
0
20
0
10
200
20
0
10
200
20
-300
10
0
20
-300
0
LINE
5
129
100
AcDbEntity
8
0
100
AcDbLine
10
12.296417933005674
20
-102.13974977377762
30
0
11
42.917205293201135
21
-115.53159633941152
31
0
0
ARC
5
130
100
AcDbEntity
8
0
100
AcDbCircle
10
13.899216297082884
20
-98.47491179589764
30
0
40
4.0000000000000036
210
0
220
0
230
1
100
AcDbArc
50
180
51
246.37807942316257
0
ARC
5
131
100
AcDbEntity
8
0
100
AcDbCircle
10
13.899216297082848
20
-44.010022203637149
30
0
40
3.9999999999999947
210
0
220
-0
230
1
100
AcDbArc
50
90
51
180
0
LINE
5
132
100
AcDbEntity
8
0
100
AcDbLine
10
13.899216297082848
20
-40.010022203637156
30
0
11
40.478293053572528
21
-40.010022203637163
31
0
0
ARC
5
133
100
AcDbEntity
8
0
100
AcDbCircle
10
40.506093053572542
20
-43.00992220363716
30
0
40
3.0000799999999899
210
-0
220
0
230
1
100
AcDbArc
50
-8.3209999999998736
51
90.532000000000167
0
LINE
5
134
100
AcDbEntity
8
0
100
AcDbLine
10
43.474593053572519
20
-43.444122203637157
30
0
11
43.474593053572519
21
-112.89802220363704
31
0
0
ARC
5
135
100
AcDbEntity
8
0
100
AcDbCircle
10
36.974393053572513
20
-112.89802220363704
30
0
40
6.5002100000000063
210
-0
220
0
230
1
100
AcDbArc
50
336.09933724731223
51
359.9989999999629
0
LINE
5
136
100
AcDbEntity
8
0
100
AcDbLine
10
9.8992162970828534
20
-44.010022203637149
30
0
11
9.8992162970828801
21
-98.47491179589764
31
0
0
CIRCLE
5
137
100
AcDbEntity
8
0
100
AcDbCircle
10
12.874593053572578
20
-88.73952220363708
30
0
40
1.1000000000000019
210
0
220
-0
230
1
0
CIRCLE
5
138
100
AcDbEntity
8
0
100
AcDbCircle
10
38.874593053572525
20
-88.73952220363708
30
0
40
1.1000000000000019
210
0
220
-0
230
1
0
CIRCLE
5
139
100
AcDbEntity
8
0
100
AcDbCircle
10
38.874593053572525
20
-44.610022203637158
30
0
40
1.1000000000000019
210
0
220
-0
230
1
0
CIRCLE
5
140
100
AcDbEntity
8
0
100
AcDbCircle
10
12.874593053572578
20
-44.610022203637158
30
0
40
1.1000000000000019
210
0
220
-0
230
1
0
LINE
5
141
100
AcDbEntity
8
0
100
AcDbLine
10
40.894637460846809
20
-177.60181302536603
30
0
11
40.894637460846809
21
-247.05571302536569
31
0
0
ARC
5
142
100
AcDbEntity
8
0
100
AcDbCircle
10
34.394437460846824
20
-247.05571302536569
30
0
40
6.5002099999999716
210
-0
220
0
230
1
100
AcDbArc
50
336.09933724731223
51
359.9989999999629
0
LINE
5
143
100
AcDbEntity
8
0
100
AcDbLine
10
9.7164623402800672
20
-236.29744059550632
30
0
11
40.337249700475425
21
-249.68928716114016
31
0
0
ARC
5
144
100
AcDbEntity
8
0
100
AcDbCircle
10
11.319260704357269
20
-232.63260261762633
30
0
40
3.999999999999988
210
0
220
0
230
1
100
AcDbArc
50
180
51
246.37807942316269
0
LINE
5
145
100
AcDbEntity
8
0
100
AcDbLine
10
7.3192607043572808
20
-178.16771302536603
30
0
11
7.3192607043572817
21
-232.63260261762633
31
0
0
CIRCLE
5
146
100
AcDbEntity
8
0
100
AcDbCircle
10
10.294637460846969
20
-222.8972130253658
30
0
40
1.1000000000000019
210
0
220
-0
230
1
0
CIRCLE
5
147
100
AcDbEntity
8
0
100
AcDbCircle
10
36.294637460846822
20
-222.8972130253658
30
0
40
1.1000000000000019
210
0
220
-0
230
1
0
CIRCLE
5
148
100
AcDbEntity
8
0
100
AcDbCircle
10
36.294637460846822
20
-178.76771302536605
30
0
40
1.1000000000000019
210
0
220
-0
230
1
0
CIRCLE
5
149
100
AcDbEntity
8
0
100
AcDbCircle
10
10.294637460846969
20
-178.76771302536605
30
0
40
1.1000000000000019
210
0
220
-0
230
1
0
ARC
5
150
100
AcDbEntity
8
0
100
AcDbCircle
10
11.319260704357234
20
-178.16771302536603
30
0
40
3.9999999999999858
210
0
220
-0
230
1
100
AcDbArc
50
90
51
180
0
LINE
5
151
100
AcDbEntity
8
0
100
AcDbLine
10
11.319260704357234
20
-174.16771302536603
30
0
11
37.898337460846818
21
-174.16771302536603
31
0
0
ARC
5
152
100
AcDbEntity
8
0
100
AcDbCircle
10
37.926137460846832
20
-177.16761302536605
30
0
40
3.0000799999999819
210
-0
220
0
230
1
100
AcDbArc
50
-8.3209999999996196
51
90.532000000000167
0
ENDSEC
0
SECTION
2
OBJECTS
0
DICTIONARY
5
C
100
AcDbDictionary
3
ACAD_GROUP
350
D
3
ACAD_MLINESTYLE
350
17
0
DICTIONARY
5
D
100
AcDbDictionary
0
DICTIONARY
5
1A
330
C
100
AcDbDictionary
0
DICTIONARY
5
17
100
AcDbDictionary
0
ENDSEC
0
EOF
