0
SECTION
2
HEADER
9
$INSUNITS
70
4
9
$ACADVER
1
AC1014
9
$HANDSEED
5
FFFF
0
ENDSEC
0
SECTION
2
TABLES
0
TABLE
2
VPORT
5
8
100
AcDbSymbolTable
0
ENDTAB
0
TABLE
2
LTYPE
5
5
100
AcDbSymbolTable
0
LTYPE
5
14
100
AcDbSymbolTableRecord
100
AcDbLinetypeTableRecord
2
BYBLOCK
70
0
0
LTYPE
5
15
100
AcDbSymbolTableRecord
100
AcDbLinetypeTableRecord
2
BYLAYER
70
0
0
ENDTAB
0
TABLE
2
LAYER
5
2
100
AcDbSymbolTable
70
2
0
LAYER
5
50
100
AcDbSymbolTableRecord
100
AcDbLayerTableRecord
2
0
70
0
6
CONTINUOUS
0
ENDTAB
0
TABLE
2
STYLE
5
3
100
AcDbSymbolTable
70
1
0
STYLE
5
11
100
AcDbSymbolTableRecord
100
AcDbTextStyleTableRecord
2
STANDARD
70
0
0
ENDTAB
0
TABLE
2
VIEW
5
6
100
AcDbSymbolTable
70
0
0
ENDTAB
0
TABLE
2
UCS
5
7
100
AcDbSymbolTable
70
0
0
ENDTAB
0
TABLE
2
APPID
5
9
100
AcDbSymbolTable
70
2
0
APPID
5
12
100
AcDbSymbolTableRecord
100
AcDbRegAppTableRecord
2
ACAD
70
0
0
ENDTAB
0
TABLE
2
DIMSTYLE
5
A
100
AcDbSymbolTable
70
1
0
ENDTAB
0
TABLE
2
BLOCK_RECORD
5
1
100
AcDbSymbolTable
70
1
0
BLOCK_RECORD
5
1F
100
AcDbSymbolTableRecord
100
AcDbBlockTableRecord
2
*MODEL_SPACE
0
BLOCK_RECORD
5
1B
100
AcDbSymbolTableRecord
100
AcDbBlockTableRecord
2
*PAPER_SPACE
0
ENDTAB
0
ENDSEC
0
SECTION
2
BLOCKS
0
BLOCK
5
20
100
AcDbEntity
100
AcDbBlockBegin
2
*MODEL_SPACE
0
ENDBLK
5
21
100
AcDbEntity
100
AcDbBlockEnd
0
BLOCK
5
1C
100
AcDbEntity
100
AcDbBlockBegin
2
*PAPER_SPACE
0
ENDBLK
5
1D
100
AcDbEntity
100
AcDbBlockEnd
0
ENDSEC
0
SECTION
2
ENTITIES
0
LWPOLYLINE
5
100
100
AcDbEntity
8
0
100
AcDbPolyline
90
4
70
1
43
0.0
10
0
20
0
10
200
20
0
10
200
20
-300
10
0
20
-300
0
CIRCLE
5
101
100
AcDbEntity
8
0
100
AcDbCircle
10
172.5
20
-109.50000000000001
30
0
40
1.6000000000000003
210
0
220
0
230
1
0
CIRCLE
5
102
100
AcDbEntity
8
0
100
AcDbCircle
10
175
20
-48.500000000000007
30
0
40
1.6000000000000003
210
0
220
0
230
1
0
LWPOLYLINE
5
103
100
AcDbEntity
8
0
100
AcDbPolyline
90
11
70
1
43
0.0
10
52.789990000990045
20
-114.18811345006657
42
0.12366161690819873
10
53.56148887780941
20
-117.25957922290632
10
64.194605516762692
20
-137.08729083271231
42
0.4073469518493093
10
70.859640143095689
20
-139.18547544534766
42
-0.1213617335182022
10
179.41935622692364
20
-114.09724310056063
42
0.4184541636803128
10
184.49150017219461
20
-109.09783005705002
10
184.4927787862087
20
-50.204631119669756
42
0.18150498696004863
10
134.49281690755174
20
-30.186888103077969
42
0.11639821547423282
10
82.364099999999922
20
-41.300000000000097
10
55.786346000000009
20
-41.300000000000097
42
0.46022881921067371
10
52.789992604881711
20
-44.734118868251898
0
CIRCLE
5
104
100
AcDbEntity
8
0
100
AcDbCircle
10
57.390000000000008
20
-90.029499999999985
30
0
40
1.6000000000000003
210
0
220
0
230
1
0
LINE
5
105
100
AcDbEntity
8
0
100
AcDbLine
10
143.00000213086605
20
-36.435946711340534
30
0
11
143.00000213086605
21
-35.867463103764656
31
0
0
LINE
5
106
100
AcDbEntity
8
0
100
AcDbLine
10
100.61010706266465
20
-102.12843094958039
30
0
11
102.5195784938373
21
-114.90288184076697
31
0
0
LINE
5
107
100
AcDbEntity
8
0
100
AcDbLine
10
90.278033705435917
20
-99.571931191240637
30
0
11
97.643070235180488
21
-99.571931191240594
31
0
0
ARC
5
108
100
AcDbEntity
8
0
100
AcDbCircle
10
168.73890832894381
20
-120.00000158697415
30
0
40
13.500000000000476
210
0
220
0
230
1
100
AcDbArc
50
90.000000000000369
51
116.87239459278879
0
CIRCLE
5
109
100
AcDbEntity
8
0
100
AcDbCircle
10
57.390000000000008
20
-45.899999999999999
30
0
40
1.6000000000000003
210
0
220
0
230
1
0
ARC
5
110
100
AcDbEntity
8
0
100
AcDbCircle
10
104.38267061050183
20
-39.500000633299344
30
0
40
3.0000000000000071
210
0
220
0
230
1
100
AcDbArc
50
-89.999999999999744
51
0
0
LINE
5
111
100
AcDbEntity
8
0
100
AcDbLine
10
105.93011556298171
20
-117.4264184265909
30
0
11
121.53526198848357
21
-115.0938264793848
31
0
0
CIRCLE
5
112
100
AcDbEntity
8
0
100
AcDbCircle
10
63.766300000000001
20
-111.95500000000003
30
0
40
1.6000000000000003
210
0
220
0
230
1
0
CIRCLE
5
113
100
AcDbEntity
8
0
100
AcDbCircle
10
83.390000000000001
20
-90.029499999999985
30
0
40
1.6000000000000003
210
0
220
0
230
1
0
ARC
5
114
100
AcDbEntity
8
0
100
AcDbCircle
10
105.48661532132147
20
-114.45938159910675
30
0
40
2.9999999999999987
210
0
220
0
230
1
100
AcDbArc
50
188.5013905329786
51
278.50139053297914
0
ARC
5
115
100
AcDbEntity
8
0
100
AcDbCircle
10
146.00000213086608
20
-36.435946711340499
30
0
40
3.0000000000000249
210
0
220
0
230
1
100
AcDbArc
50
180
51
269.99999999999943
0
ARC
5
116
100
AcDbEntity
8
0
100
AcDbCircle
10
124.969356
20
-115.03295300000026
30
0
40
3.4346334972490382
210
0
220
0
230
1
100
AcDbArc
50
93.888627178619657
51
181.01553079220076
0
LINE
5
117
100
AcDbEntity
8
0
100
AcDbLine
10
162.63684104378319
20
-107.9577935316636
30
0
11
159.46481885832344
21
-109.56513104956701
31
0
0
CIRCLE
5
118
100
AcDbEntity
8
0
100
AcDbCircle
10
124.96899999999999
20
-115.03299999999999
30
0
40
1.6000000000000003
210
0
220
0
230
1
0
CIRCLE
5
119
100
AcDbEntity
8
0
100
AcDbCircle
10
85.582100000000011
20
-102.60600000000004
30
0
40
1.6000000000000003
210
0
220
0
230
1
0
LINE
5
120
100
AcDbEntity
8
0
100
AcDbLine
10
128.75271713979078
20
-111.33322466907018
30
0
11
159.46481885832344
21
-109.56513104956701
31
0
0
CIRCLE
5
121
100
AcDbEntity
8
0
100
AcDbCircle
10
102.90600000000001
20
-38.500000000000014
30
0
40
1.6000000000000003
210
0
220
0
230
1
0
CIRCLE
5
122
100
AcDbEntity
8
0
100
AcDbCircle
10
74.634900000000002
20
-132.22499999999999
30
0
40
1.6000000000000003
210
0
220
0
230
1
0
ARC
5
123
100
AcDbEntity
8
0
100
AcDbCircle
10
174.28996151659308
20
-49.061034497819271
30
0
40
3.0000000000000071
210
0
220
0
230
1
100
AcDbArc
50
180
51
270
0
ARC
5
124
100
AcDbEntity
8
0
100
AcDbCircle
10
97.64307023518046
20
-102.57193119124061
30
0
40
3.000000000000016
210
0
220
-0
230
1
100
AcDbArc
50
8.5013905329785437
51
89.99999999999946
0
ARC
5
125
100
AcDbEntity
8
0
100
AcDbCircle
10
176.00000262260434
20
-100.88386340633707
30
0
40
5.6161381806365895
210
0
220
0
230
1
100
AcDbArc
50
270.00000000000034
51
347.93077853407323
0
CIRCLE
5
126
100
AcDbEntity
8
0
100
AcDbCircle
10
148
20
-35.500000000000007
30
0
40
1.6000000000000003
210
0
220
0
230
1
0
ARC
5
127
100
AcDbEntity
8
0
100
AcDbCircle
10
90.278033705435945
20
-96.571931191240594
30
0
40
3.0000000000000426
210
0
220
0
230
1
100
AcDbArc
50
180
51
269.99999999999943
0
LINE
5
128
100
AcDbEntity
8
0
100
AcDbLine
10
124.73642858152687
20
-111.60622685422371
30
0
11
128.75271713979078
21
-111.33322466907018
31
0
0
LINE
5
129
100
AcDbEntity
8
0
100
AcDbLine
10
176.00000262260437
20
-106.50000158697367
30
0
11
168.73890832894372
21
-106.50000158697367
31
0
0
CIRCLE
5
130
100
AcDbEntity
8
0
100
AcDbCircle
10
83.390000000000001
20
-45.899999999999999
30
0
40
1.6000000000000003
210
0
220
0
230
1
0
ARC
5
131
100
AcDbEntity
8
0
100
AcDbCircle
10
126.96581194240261
20
-71.573357563681128
30
0
40
39.140850197492021
210
0
220
-0
230
1
100
AcDbArc
50
65.816923648867785
51
120.02149647636493
0
LINE
5
132
100
AcDbEntity
8
0
100
AcDbLine
10
107.38267061050186
20
-37.683731868532
30
0
11
107.38267061050186
21
-39.500000633299344
31
0
0
LINE
5
133
100
AcDbEntity
8
0
100
AcDbLine
10
60.300410200407569
20
-57.362236026662657
30
0
11
60.30041020040759
21
-92.194272780842368
31
0
0
LINE
5
134
100
AcDbEntity
8
0
100
AcDbLine
10
60.300410200407555
20
-43.9886262416384
30
0
11
60.300410200407569
21
-57.362236026662657
31
0
0
CIRCLE
5
135
100
AcDbEntity
8
0
100
AcDbCircle
10
56.662002478180185
20
-52.831586897758015
30
0
40
2.7348967803986164
210
0
220
0
230
1
0
ARC
5
136
100
AcDbEntity
8
0
100
AcDbCircle
10
61.5
20
-44.020000000000095
30
0
40
1.2000000000000015
210
0
220
-0
230
1
100
AcDbArc
50
1.4981573287494345
51
178.50184267124521
0
LINE
5
137
100
AcDbEntity
8
0
100
AcDbLine
10
78.080410200411251
20
-43.988626241639224
30
0
11
62.699589799592445
21
-43.988626241638514
31
0
0
ARC
5
138
100
AcDbEntity
8
0
100
AcDbCircle
10
79.280000000000015
20
-44.020000000000088
30
0
40
1.199999999996286
210
0
220
-0
230
1
100
AcDbArc
50
1.498157328714399
51
178.50184267128097
0
LINE
5
139
100
AcDbEntity
8
0
100
AcDbLine
10
80.479589799588766
20
-43.988626241639331
30
0
11
80.519639667507391
21
-95.70105204671755
31
0
0
ARC
5
140
100
AcDbEntity
8
0
100
AcDbCircle
10
77.519640567247535
20
-95.703375464316593
30
0
40
2.999999999971541
210
0
220
0
230
1
100
AcDbArc
50
-89.955625988072782
51
0.044374011917756258
0
LINE
5
141
100
AcDbEntity
8
0
100
AcDbLine
10
77.521963984846593
20
-98.70337456457645
30
0
11
69.003602292916611
21
-98.709971803711781
31
0
0
ARC
5
142
100
AcDbEntity
8
0
100
AcDbCircle
10
69.005925710515953
20
-101.70997090441222
30
0
40
2.9999999999994826
210
0
220
0
230
1
100
AcDbArc
50
90.044374011926266
51
150.78281961369024
0
LINE
5
143
100
AcDbEntity
8
0
100
AcDbLine
10
66.387598456891737
20
-100.24560674446923
30
0
11
62.797509040259321
21
-106.66479482636176
31
0
0
ARC
5
144
100
AcDbEntity
8
0
100
AcDbCircle
10
60.179181786634345
20
-105.2004306664183
30
0
40
3.0000000000003735
210
0
220
0
230
1
100
AcDbArc
50
270.58533669011524
51
330.78281961368953
0
LINE
5
145
100
AcDbEntity
8
0
100
AcDbLine
10
60.209829410949744
20
-108.20027411618796
30
0
11
56.98822250348843
21
-108.23318736644418
31
0
0
ARC
5
146
100
AcDbEntity
8
0
100
AcDbCircle
10
56.967790753944847
20
-106.23329173326465
30
0
40
2.0000000000000133
210
0
220
0
230
1
100
AcDbArc
50
179.84328229337217
51
270.58533669011484
0
LINE
5
147
100
AcDbEntity
8
0
100
AcDbLine
10
54.995257429924216
20
-96.18880230770985
30
0
11
54.9677982354779
21
-106.22782126013215
31
0
0
ARC
5
148
100
AcDbEntity
8
0
100
AcDbCircle
10
56.995249948391162
20
-96.194272780842368
30
0
40
2.0000000000000107
210
0
220
0
230
1
100
AcDbArc
50
90.000000000001208
51
179.84328229336754
0
ARC
5
149
100
AcDbEntity
8
0
100
AcDbCircle
10
58.300410200407569
20
-92.19427278084234
30
0
40
2.0000000000000107
210
0
220
0
230
1
100
AcDbArc
50
270.0000000000004
51
360
0
LINE
5
150
100
AcDbEntity
8
0
100
AcDbLine
10
58.300410200407583
20
-94.19427278084234
30
0
11
56.99524994839112
21
-94.194272780842354
31
0
0
LINE
5
151
100
AcDbEntity
8
0
100
AcDbLine
10
87.278033705435902
20
-44.500000633299351
30
0
11
87.278033705435902
21
-96.571931191240608
31
0
0
ARC
5
152
100
AcDbEntity
8
0
100
AcDbCircle
10
89.278033705435888
20
-44.500000633299344
30
0
40
1.999999999999984
210
0
220
-0
230
1
100
AcDbArc
50
90
51
180
0
LINE
5
153
100
AcDbEntity
8
0
100
AcDbLine
10
104.38267061050185
20
-42.500000633299351
30
0
11
89.278033705435888
21
-42.500000633299358
31
0
0
LINE
5
154
100
AcDbEntity
8
0
100
AcDbLine
10
162.05935752646775
20
-39.435946711340534
30
0
11
146.00000213086605
21
-39.435946711340534
31
0
0
LINE
5
155
100
AcDbEntity
8
0
100
AcDbLine
10
162.98815061736411
20
-39.664691959955753
30
0
11
170.21875460748947
21
-43.456204741381427
31
0
0
ARC
5
156
100
AcDbEntity
8
0
100
AcDbCircle
10
162.05935752646775
20
-41.435946711340605
30
0
40
2.0000000000000715
210
0
220
-0
230
1
100
AcDbArc
50
62.328825502411718
51
90
0
ARC
5
157
100
AcDbEntity
8
0
100
AcDbCircle
10
169.28996151659302
20
-45.227459492766229
30
0
40
2.0000000000000639
210
0
220
-0
230
1
100
AcDbArc
50
0
51
62.32882550240889
0
LINE
5
158
100
AcDbEntity
8
0
100
AcDbLine
10
171.28996151659308
20
-49.0610344978193
30
0
11
171.28996151659308
21
-45.227459492766194
31
0
0
LINE
5
159
100
AcDbEntity
8
0
100
AcDbLine
10
179.49200000000002
20
-52.061034497819293
30
0
11
174.28996151659308
21
-52.061034497819293
31
0
0
ARC
5
160
100
AcDbEntity
8
0
100
AcDbCircle
10
179.49200000000002
20
-54.061034497819307
30
0
40
1.9999999999999929
210
0
220
-0
230
1
100
AcDbArc
50
0
51
90
0
LINE
5
161
100
AcDbEntity
8
0
100
AcDbLine
10
181.49200000000002
20
-54.0610344978193
30
0
11
181.49200000000002
21
-102.05816016213754
31
0
0
LWPOLYLINE
5
162
100
AcDbEntity
8
0
100
AcDbPolyline
90
16
70
1
43
0.0
10
66.256646791724535
20
-114.39857630675314
10
59.611462183544752
20
-117.96161775687914
42
0.41421356237309798
10
58.793932986308015
20
-120.66931899809194
10
64.736347493932172
20
-131.75210935409294
42
0.41874117842243525
10
67.471138364011722
20
-132.55484326101205
10
80.551883520930545
20
-125.2790468667323
10
97.307735936768282
20
-119.51442339351476
42
0.41005668222808789
10
99.182164623691662
20
-115.74206521770907
10
95.623700254389519
20
-104.90026461095025
42
0.41421356237310081
10
93.099738339479671
20
-103.62370037359882
10
83.589914402779868
20
-106.74498722109776
42
-0.3624669284619137
10
80.017292881255088
20
-105.32492284978039
42
0.27509338924351101
10
78.259244039017773
20
-104.27847634503277
10
69.839017758742443
20
-104.27847634503277
42
0.41421356237309503
10
67.839017758742443
20
-106.27847634503276
10
67.839017758742429
20
-111.75465347791595
42
-0.27638735846277956
0
LINE
5
163
100
AcDbEntity
8
0
100
AcDbLine
10
60.300410200407569
20
-187.36223602666263
30
0
11
60.30041020040759
21
-222.19427278084237
31
0
0
LWPOLYLINE
5
164
100
AcDbEntity
8
0
100
AcDbPolyline
90
11
70
1
43
0.0
10
184.4927787862087
20
-180.20463111966976
42
0.18150498696004863
10
134.49281690755174
20
-160.18688810307796
42
0.11639821547423282
10
82.364099999999922
20
-171.3000000000001
10
55.786346000000009
20
-171.3000000000001
42
0.46022881921067371
10
52.789992604881711
20
-174.7341188682519
10
52.789990000990045
20
-244.18811345006657
42
0.12366161690819873
10
53.56148887780941
20
-247.25957922290632
10
64.194605516762692
20
-267.08729083271231
42
0.4073469518493093
10
70.859640143095689
20
-269.18547544534766
42
-0.1213617335182022
10
179.41935622692364
20
-244.09724310056063
42
0.4184541636803128
10
184.49150017219461
20
-239.09783005705003
0
LINE
5
165
100
AcDbEntity
8
0
100
AcDbLine
10
100.61010706266465
20
-232.12843094958038
30
0
11
102.5195784938373
21
-244.90288184076695
31
0
0
CIRCLE
5
166
100
AcDbEntity
8
0
100
AcDbCircle
10
74.634900000000002
20
-262.22500000000002
30
0
40
1.6000000000000003
210
0
220
0
230
1
0
LINE
5
167
100
AcDbEntity
8
0
100
AcDbLine
10
60.209829410949744
20
-238.20027411618796
30
0
11
56.98822250348843
21
-238.23318736644416
31
0
0
LINE
5
168
100
AcDbEntity
8
0
100
AcDbLine
10
162.05935752646775
20
-169.43594671134053
30
0
11
146.00000213086605
21
-169.43594671134053
31
0
0
LINE
5
169
100
AcDbEntity
8
0
100
AcDbLine
10
54.995257429924216
20
-226.18880230770984
30
0
11
54.9677982354779
21
-236.22782126013215
31
0
0
ARC
5
170
100
AcDbEntity
8
0
100
AcDbCircle
10
60.179181786634345
20
-235.2004306664183
30
0
40
3.0000000000003557
210
0
220
0
230
1
100
AcDbArc
50
270.58533669011524
51
330.78281961368924
0
LWPOLYLINE
5
171
100
AcDbEntity
8
0
100
AcDbPolyline
90
16
70
1
43
0.0
10
64.736347493932172
20
-261.75210935409291
42
0.41874117842243647
10
67.471138364011722
20
-262.55484326101202
10
80.551883520930545
20
-255.2790468667323
10
97.307735936768282
20
-249.51442339351476
42
0.410056682228089
10
99.182164623691662
20
-245.74206521770907
10
95.623700254389519
20
-234.90026461095025
42
0.41421356237310331
10
93.099738339479671
20
-233.62370037359881
10
83.589914402779897
20
-236.74498722109777
42
-0.3624669284619142
10
80.017292881255088
20
-235.32492284978042
42
0.27509338924351517
10
78.259244039017773
20
-234.27847634503277
10
69.839017758742443
20
-234.27847634503277
42
0.41421356237309503
10
67.839017758742443
20
-236.27847634503274
10
67.839017758742429
20
-241.75465347791595
42
-0.27638735846277956
10
66.256646791724535
20
-244.39857630675311
10
59.611462183544752
20
-247.96161775687915
42
0.41421356237309798
10
58.793932986308015
20
-250.66931899809194
0
ARC
5
172
100
AcDbEntity
8
0
100
AcDbCircle
10
58.300410200407569
20
-222.19427278084231
30
0
40
2.0000000000000284
210
0
220
0
230
1
100
AcDbArc
50
270.0000000000004
51
360
0
ARC
5
173
100
AcDbEntity
8
0
100
AcDbCircle
10
69.005925710515953
20
-231.70997090441222
30
0
40
2.9999999999994649
210
0
220
0
230
1
100
AcDbArc
50
90.044374011926266
51
150.78281961369024
0
LINE
5
174
100
AcDbEntity
8
0
100
AcDbLine
10
58.300410200407583
20
-224.19427278084237
30
0
11
56.99524994839112
21
-224.19427278084237
31
0
0
ARC
5
175
100
AcDbEntity
8
0
100
AcDbCircle
10
162.05935752646775
20
-171.43594671134059
30
0
40
2.0000000000000715
210
0
220
-0
230
1
100
AcDbArc
50
62.328825502411611
51
90
0
CIRCLE
5
176
100
AcDbEntity
8
0
100
AcDbCircle
10
57.390000000000008
20
-220.02949999999998
30
0
40
1.6000000000000003
210
0
220
0
230
1
0
ARC
5
177
100
AcDbEntity
8
0
100
AcDbCircle
10
146.00000213086608
20
-166.43594671134051
30
0
40
3.0000000000000249
210
0
220
0
230
1
100
AcDbArc
50
180
51
269.99999999999943
0
LINE
5
178
100
AcDbEntity
8
0
100
AcDbLine
10
66.387598456891737
20
-230.24560674446923
30
0
11
62.797509040259321
21
-236.66479482636177
31
0
0
ARC
5
179
100
AcDbEntity
8
0
100
AcDbCircle
10
61.5
20
-174.0200000000001
30
0
40
1.2000000000000013
210
0
220
-0
230
1
100
AcDbArc
50
1.4981573287494345
51
178.50184267124521
0
LINE
5
180
100
AcDbEntity
8
0
100
AcDbLine
10
162.98815061736411
20
-169.66469195995575
30
0
11
170.21875460748947
21
-173.45620474138144
31
0
0
ARC
5
181
100
AcDbEntity
8
0
100
AcDbCircle
10
89.278033705435888
20
-174.50000063329935
30
0
40
1.9999999999999929
210
0
220
-0
230
1
100
AcDbArc
50
90
51
180
0
CIRCLE
5
182
100
AcDbEntity
8
0
100
AcDbCircle
10
175
20
-178.5
30
0
40
1.6000000000000003
210
0
220
0
230
1
0
ARC
5
183
100
AcDbEntity
8
0
100
AcDbCircle
10
79.280000000000015
20
-174.0200000000001
30
0
40
1.1999999999962863
210
0
220
-0
230
1
100
AcDbArc
50
1.4981573287146421
51
178.50184267128122
0
ARC
5
184
100
AcDbEntity
8
0
100
AcDbCircle
10
174.28996151659308
20
-179.06103449781926
30
0
40
3.0000000000000071
210
0
220
0
230
1
100
AcDbArc
50
180
51
270
0
LINE
5
185
100
AcDbEntity
8
0
100
AcDbLine
10
179.49200000000002
20
-182.06103449781926
30
0
11
174.28996151659308
21
-182.06103449781926
31
0
0
CIRCLE
5
186
100
AcDbEntity
8
0
100
AcDbCircle
10
148
20
-165.5
30
0
40
1.6000000000000003
210
0
220
0
230
1
0
ARC
5
187
100
AcDbEntity
8
0
100
AcDbCircle
10
169.28996151659302
20
-175.22745949276623
30
0
40
2.0000000000000639
210
0
220
-0
230
1
100
AcDbArc
50
0
51
62.328825502408698
0
ARC
5
188
100
AcDbEntity
8
0
100
AcDbCircle
10
56.967790753944847
20
-236.23329173326465
30
0
40
2.0000000000000133
210
0
220
0
230
1
100
AcDbArc
50
179.84328229337217
51
270.58533669011484
0
ARC
5
189
100
AcDbEntity
8
0
100
AcDbCircle
10
56.995249948391162
20
-226.19427278084237
30
0
40
2.0000000000000284
210
0
220
0
230
1
100
AcDbArc
50
90.000000000001208
51
179.84328229336754
0
LINE
5
190
100
AcDbEntity
8
0
100
AcDbLine
10
77.521963984846593
20
-228.70337456457645
30
0
11
69.003602292916611
21
-228.70997180371177
31
0
0
LINE
5
191
100
AcDbEntity
8
0
100
AcDbLine
10
124.73642858152687
20
-241.60622685422371
30
0
11
128.75271713979078
21
-241.33322466907018
31
0
0
CIRCLE
5
192
100
AcDbEntity
8
0
100
AcDbCircle
10
57.390000000000008
20
-175.90000000000001
30
0
40
1.6000000000000003
210
0
220
0
230
1
0
LINE
5
193
100
AcDbEntity
8
0
100
AcDbLine
10
171.28996151659308
20
-179.06103449781932
30
0
11
171.28996151659308
21
-175.22745949276617
31
0
0
CIRCLE
5
194
100
AcDbEntity
8
0
100
AcDbCircle
10
63.766300000000001
20
-241.95500000000004
30
0
40
1.6000000000000003
210
0
220
0
230
1
0
LINE
5
195
100
AcDbEntity
8
0
100
AcDbLine
10
78.080410200411251
20
-173.98862624163922
30
0
11
62.699589799592445
21
-173.98862624163851
31
0
0
LINE
5
196
100
AcDbEntity
8
0
100
AcDbLine
10
105.93011556298171
20
-247.42641842659089
30
0
11
121.53526198848357
21
-245.0938264793848
31
0
0
ARC
5
197
100
AcDbEntity
8
0
100
AcDbCircle
10
179.49200000000002
20
-184.06103449781932
30
0
40
1.9999999999999929
210
0
220
-0
230
1
100
AcDbArc
50
0
51
90
0
ARC
5
198
100
AcDbEntity
8
0
100
AcDbCircle
10
176.00000262260434
20
-230.88386340633707
30
0
40
5.6161381806365895
210
0
220
0
230
1
100
AcDbArc
50
270.00000000000034
51
347.93077853407306
0
CIRCLE
5
199
100
AcDbEntity
8
0
100
AcDbCircle
10
85.582100000000011
20
-232.60600000000005
30
0
40
1.6000000000000003
210
0
220
0
230
1
0
ARC
5
200
100
AcDbEntity
8
0
100
AcDbCircle
10
168.73890832894381
20
-250.00000158697415
30
0
40
13.500000000000476
210
0
220
0
230
1
100
AcDbArc
50
90.000000000000369
51
116.87239459278875
0
LINE
5
201
100
AcDbEntity
8
0
100
AcDbLine
10
143.00000213086605
20
-166.43594671134053
30
0
11
143.00000213086605
21
-165.86746310376466
31
0
0
CIRCLE
5
202
100
AcDbEntity
8
0
100
AcDbCircle
10
83.390000000000001
20
-175.90000000000001
30
0
40
1.6000000000000003
210
0
220
0
230
1
0
LINE
5
203
100
AcDbEntity
8
0
100
AcDbLine
10
162.63684104378319
20
-237.95779353166358
30
0
11
159.46481885832344
21
-239.56513104956701
31
0
0
CIRCLE
5
204
100
AcDbEntity
8
0
100
AcDbCircle
10
56.662002478180185
20
-182.83158689775803
30
0
40
2.7348967803986164
210
0
220
0
230
1
0
LINE
5
205
100
AcDbEntity
8
0
100
AcDbLine
10
104.38267061050185
20
-172.50000063329935
30
0
11
89.278033705435888
21
-172.50000063329935
31
0
0
LINE
5
206
100
AcDbEntity
8
0
100
AcDbLine
10
90.278033705435917
20
-229.57193119124065
30
0
11
97.643070235180488
21
-229.57193119124059
31
0
0
LINE
5
207
100
AcDbEntity
8
0
100
AcDbLine
10
181.49200000000002
20
-184.06103449781932
30
0
11
181.49200000000002
21
-232.05816016213754
31
0
0
LINE
5
208
100
AcDbEntity
8
0
100
AcDbLine
10
80.479589799588766
20
-173.98862624163934
30
0
11
80.519639667507391
21
-225.70105204671756
31
0
0
LINE
5
209
100
AcDbEntity
8
0
100
AcDbLine
10
87.278033705435902
20
-174.50000063329935
30
0
11
87.278033705435902
21
-226.57193119124059
31
0
0
ARC
5
210
100
AcDbEntity
8
0
100
AcDbCircle
10
90.278033705435945
20
-226.57193119124059
30
0
40
3.0000000000000426
210
0
220
0
230
1
100
AcDbArc
50
180
51
269.99999999999943
0
ARC
5
211
100
AcDbEntity
8
0
100
AcDbCircle
10
126.96581194240261
20
-201.57335756368113
30
0
40
39.140850197492021
210
0
220
-0
230
1
100
AcDbArc
50
65.816923648867785
51
120.02149647636493
0
LINE
5
212
100
AcDbEntity
8
0
100
AcDbLine
10
128.75271713979078
20
-241.33322466907018
30
0
11
159.46481885832344
21
-239.56513104956701
31
0
0
LINE
5
213
100
AcDbEntity
8
0
100
AcDbLine
10
107.38267061050186
20
-167.68373186853199
30
0
11
107.38267061050186
21
-169.50000063329935
31
0
0
LINE
5
214
100
AcDbEntity
8
0
100
AcDbLine
10
60.300410200407555
20
-173.9886262416384
30
0
11
60.300410200407569
21
-187.36223602666263
31
0
0
ARC
5
215
100
AcDbEntity
8
0
100
AcDbCircle
10
105.48661532132147
20
-244.45938159910673
30
0
40
2.9999999999999987
210
0
220
0
230
1
100
AcDbArc
50
188.5013905329786
51
278.50139053297914
0
ARC
5
216
100
AcDbEntity
8
0
100
AcDbCircle
10
104.38267061050183
20
-169.50000063329935
30
0
40
3.0000000000000071
210
0
220
0
230
1
100
AcDbArc
50
-89.999999999999744
51
0
0
CIRCLE
5
217
100
AcDbEntity
8
0
100
AcDbCircle
10
83.390000000000001
20
-220.02949999999998
30
0
40
1.6000000000000003
210
0
220
0
230
1
0
CIRCLE
5
218
100
AcDbEntity
8
0
100
AcDbCircle
10
102.90600000000001
20
-168.5
30
0
40
1.6000000000000003
210
0
220
0
230
1
0
ARC
5
219
100
AcDbEntity
8
0
100
AcDbCircle
10
77.519640567247535
20
-225.70337546431659
30
0
40
2.999999999971541
210
0
220
0
230
1
100
AcDbArc
50
-89.955625988072782
51
0.044374011917756258
0
CIRCLE
5
220
100
AcDbEntity
8
0
100
AcDbCircle
10
172.5
20
-239.50000000000003
30
0
40
1.6000000000000003
210
0
220
0
230
1
0
LINE
5
221
100
AcDbEntity
8
0
100
AcDbLine
10
176.00000262260437
20
-236.50000158697367
30
0
11
168.73890832894372
21
-236.50000158697367
31
0
0
CIRCLE
5
222
100
AcDbEntity
8
0
100
AcDbCircle
10
124.96899999999999
20
-245.03299999999999
30
0
40
1.6000000000000003
210
0
220
0
230
1
0
ARC
5
223
100
AcDbEntity
8
0
100
AcDbCircle
10
97.64307023518046
20
-232.57193119124059
30
0
40
3.000000000000016
210
0
220
-0
230
1
100
AcDbArc
50
8.5013905329785437
51
89.99999999999946
0
ARC
5
224
100
AcDbEntity
8
0
100
AcDbCircle
10
124.969356
20
-245.03295300000025
30
0
40
3.4346334972490382
210
0
220
0
230
1
100
AcDbArc
50
93.888627178619672
51
181.01553079220113
0
ENDSEC
0
SECTION
2
OBJECTS
0
DICTIONARY
5
C
100
AcDbDictionary
3
ACAD_GROUP
350
D
3
ACAD_MLINESTYLE
350
17
0
DICTIONARY
5
D
100
AcDbDictionary
0
DICTIONARY
5
1A
330
C
100
AcDbDictionary
0
DICTIONARY
5
17
100
AcDbDictionary
0
ENDSEC
0
EOF
