999
FreeCAD v0.20 29410 (Git)
  0
SECTION
  2
HEADER
  9
$ACADVER
  1
AC1014
  9
$ACADMAINTVER
 70
     9
  9
$DWGCODEPAGE
  3
ANSI_1252
  9
$TEXTSTYLE
  7
STANDARD
  9
$DIMSTYLE
  2
STANDARD
  9
$DIMTXSTY
  7
STANDARD
  9
$CMLSTYLE
  2
STANDARD
  9
$LUNITS
 70
2
  9
$INSUNITS
 70
4
  9
$PEXTMAX
 10
50
 20
50
 30
50
  9
$PEXTMIN
 10
0
 20
0
 30
0
  9
$HANDSEED
  5
FFFF
  0
ENDSEC
  0
SECTION
  2
CLASSES
  0
CLASS
  1
ACDBDICTIONARYWDFLT
  2
AcDbDictionaryWithDefault
  3
ObjectDBX Classes
 90
        0
280
     0
281
     0
  0
CLASS
  1
XRECORD
  2
AcDbXrecord
  3
ObjectDBX Classes
 90
        0
280
     0
281
     0
  0
CLASS
  1
LWPOLYLINE
  2
AcDbPolyline
  3
ObjectDBX Classes
 90
        0
280
     0
281
     1
  0
ENDSEC
  0
SECTION
  2
TABLES
  0
TABLE
  2
VPORT
  5
20
330
0
100
AcDbSymbolTable
 70
     1
  0
VPORT
  5
21
330
20
100
AcDbSymbolTableRecord
100
AcDbViewportTableRecord
  2
*ACTIVE
 70
     0
  0
ENDTAB
  0
TABLE
  2
LTYPE
  5
22
330
0
100
AcDbSymbolTable
 70
     1
  0
LTYPE
  5
23
330
21
100
AcDbSymbolTableRecord
100
AcDbLinetypeTableRecord
  2
BYBLOCK
 70
     0
  3

 72
    65
 73
     0
 40
0.0
  0
LTYPE
  5
24
330
21
100
AcDbSymbolTableRecord
100
AcDbLinetypeTableRecord
  2
BYLAYER
 70
     0
  3

 72
    65
 73
     0
 40
0.0
  0
LTYPE
  5
25
330
21
100
AcDbSymbolTableRecord
100
AcDbLinetypeTableRecord
  2
CONTINUOUS
 70
     0
  3
Solid line
 72
    65
 73
     0
 40
0.0
  0
ENDTAB
  0
TABLE
  2
LAYER
  5
A7E
330
0
100
AcDbSymbolTable
 70
3
  0
LAYER
  5
A7F
330
A7E
100
AcDbSymbolTableRecord
100
AcDbLayerTableRecord
  2
0
 70
   0
 62
   7
  6
CONTINUOUS
  0
LAYER
  5
A80
330
A7E
100
AcDbSymbolTableRecord
100
AcDbLayerTableRecord
  2
none
 70
    0
 62
    7
  6
CONTINUOUS
  0
LAYER
  5
A81
330
A7E
100
AcDbSymbolTableRecord
100
AcDbLayerTableRecord
  2
Sketch001
 70
    0
 62
    7
  6
CONTINUOUS
  0
ENDTAB
  0
TABLE
  2
STYLE
  5
70
330
0
100
AcDbSymbolTable
 70
     2
  0
STYLE
  5
71
330
70
100
AcDbSymbolTableRecord
100
AcDbTextStyleTableRecord
  2
STANDARD
 70
     0
 40
0.0
 41
1.0
 50
0.0
 71
     0
 42
2.5
  3
arial.ttf
  4

  0
STYLE
  5
72
330
70
100
AcDbSymbolTableRecord
100
AcDbTextStyleTableRecord
  2
ANNOTATIVE
 70
     0
 40
0.0
 41
1.0
 50
0.0
 71
     0
 42
2.5
  3
arial.ttf
  4

  0
ENDTAB
  0
TABLE
  2
VIEW
  5
73
330
0
100
AcDbSymbolTable
 70
     0
  0
ENDTAB
  0
TABLE
  2
UCS
  5
74
330
0
100
AcDbSymbolTable
 70
     0
  0
ENDTAB
  0
TABLE
  2
APPID
  5
75
330
0
100
AcDbSymbolTable
 70
     2
  0
APPID
  5
76
330
75
100
AcDbSymbolTableRecord
100
AcDbRegAppTableRecord
  2
ACAD
 70
     0
  0
APPID
  5
77
330
75
100
AcDbSymbolTableRecord
100
AcDbRegAppTableRecord
  2
ACADANNOTATIVE
 70
     0
  0
ENDTAB
  0
TABLE
  2
DIMSTYLE
  5
78
330
0
100
AcDbSymbolTable
 70
     2
  0
DIMSTYLE
105
79
330
78
100
AcDbSymbolTableRecord
100
AcDbDimStyleTableRecord
  2
STANDARD
 70
     0
  3

  4

  5

  6

  7

 40
0.0
 41
2.5
 42
0.625
 43
3.75
 44
1.25
 45
0.0
 46
0.0
 47
0.0
 48
0.0
140
2.5
141
2.5
142
0.0
143
0.03937007874016
144
1.0
145
0.0
146
1.0
147
0.625
 71
     0
 72
     0
 73
     0
 74
     0
 75
     0
 76
     0
 77
     1
 78
     8
170
     0
171
     3
172
     1
173
     0
174
     0
175
     0
176
     0
177
     0
178
     0
270
     2
271
     2
272
     2
273
     2
274
     3
340
71
275
     0
280
     0
281
     0
282
     0
283
     0
284
     8
285
     0
286
     0
287
     3
288
     0
  0
ENDTAB
  0
TABLE
  2
BLOCK_RECORD
  5
A01
330
0
100
AcDbSymbolTable
  70
5
  0
BLOCK_RECORD
  5
A02
330
A01
100
AcDbSymbolTableRecord
100
AcDbBlockTableRecord
  2
*MODEL_SPACE
  0
BLOCK_RECORD
  5
A03
330
A01
100
AcDbSymbolTableRecord
100
AcDbBlockTableRecord
  2
*PAPER_SPACE
  0
ENDTAB
  0
ENDSEC
  0
SECTION
  2
BLOCKS
  0
BLOCK
  5
A04
330
A02
100
AcDbEntity
  8
0
100
AcDbBlockBegin
  2
*MODEL_SPACE
 70
   0
 10
0
 20
0
 30
0
  3
*MODEL_SPACE
  1
 
  0
ENDBLK
  5
A05
330
A02
100
AcDbEntity
  8
0
100
AcDbBlockEnd
  0
BLOCK
  5
A06
330
A03
100
AcDbEntity
 67
1
  8
0
100
AcDbBlockBegin
  2
*PAPER_SPACE
 70
   0
 10
0
 20
0
 30
0
  3
*PAPER_SPACE
  1
 
  0
ENDBLK
  5
A07
330
A03
100
AcDbEntity
 67
    1
  8
0
100
AcDbBlockEnd
  0
ENDSEC
  0
SECTION
  2
ENTITIES
  0
LINE
  5
A08
330
A02
100
AcDbEntity
  8
Sketch001
100
AcDbLine
 10
8.14368
 20
-10.0017
 30
0
 11
81.6437
 21
-10.0017
 31
0
  0
ARC
  5
A09
330
A02
100
AcDbEntity
  8
Sketch001
100
AcDbCircle
 10
81.6437
 20
-8.00172
 30
0
 40
2
100
AcDbArc
 50
-90
 51
0
  0
LINE
  5
A0A
330
A02
100
AcDbEntity
  8
Sketch001
100
AcDbLine
 10
83.6437
 20
-8.00172
 30
0
 11
83.6437
 21
-7.15172
 31
0
  0
ARC
  5
A0B
330
A02
100
AcDbEntity
  8
Sketch001
100
AcDbCircle
 10
85.6437
 20
-7.15172
 30
0
 40
2
100
AcDbArc
 50
90
 51
180
  0
LINE
  5
A0C
330
A02
100
AcDbEntity
  8
Sketch001
100
AcDbLine
 10
85.6437
 20
-5.15172
 30
0
 11
102.644
 21
-5.15172
 31
0
  0
ARC
  5
A0D
330
A02
100
AcDbEntity
  8
Sketch001
100
AcDbCircle
 10
102.644
 20
-7.15172
 30
0
 40
2
100
AcDbArc
 50
0
 51
90
  0
LINE
  5
A0E
330
A02
100
AcDbEntity
  8
Sketch001
100
AcDbLine
 10
104.644
 20
-7.15172
 30
0
 11
104.644
 21
-8.00172
 31
0
  0
ARC
  5
A0F
330
A02
100
AcDbEntity
  8
Sketch001
100
AcDbCircle
 10
106.644
 20
-8.00172
 30
0
 40
2
100
AcDbArc
 50
180
 51
-90
  0
LINE
  5
A10
330
A02
100
AcDbEntity
  8
Sketch001
100
AcDbLine
 10
106.644
 20
-10.0017
 30
0
 11
121.644
 21
-10.0017
 31
0
  0
ARC
  5
A11
330
A02
100
AcDbEntity
  8
Sketch001
100
AcDbCircle
 10
121.644
 20
-12.0017
 30
0
 40
2
100
AcDbArc
 50
0
 51
90
  0
LINE
  5
A12
330
A02
100
AcDbEntity
  8
Sketch001
100
AcDbLine
 10
123.644
 20
-12.0017
 30
0
 11
123.644
 21
-20.0017
 31
0
  0
ARC
  5
A13
330
A02
100
AcDbEntity
  8
Sketch001
100
AcDbCircle
 10
125.644
 20
-20.0017
 30
0
 40
2
100
AcDbArc
 50
180
 51
-90
  0
LINE
  5
A14
330
A02
100
AcDbEntity
  8
Sketch001
100
AcDbLine
 10
125.644
 20
-22.0017
 30
0
 11
140.644
 21
-22.0017
 31
0
  0
ARC
  5
A15
330
A02
100
AcDbEntity
  8
Sketch001
100
AcDbCircle
 10
140.644
 20
-24.0017
 30
0
 40
2
100
AcDbArc
 50
0
 51
90
  0
LINE
  5
A16
330
A02
100
AcDbEntity
  8
Sketch001
100
AcDbLine
 10
142.644
 20
-24.0017
 30
0
 11
142.644
 21
-79.0017
 31
0
  0
ARC
  5
A17
330
A02
100
AcDbEntity
  8
Sketch001
100
AcDbCircle
 10
140.644
 20
-79.0017
 30
0
 40
2
100
AcDbArc
 50
-90
 51
0
  0
LINE
  5
A18
330
A02
100
AcDbEntity
  8
Sketch001
100
AcDbLine
 10
140.644
 20
-81.0017
 30
0
 11
123.644
 21
-81.0017
 31
0
  0
ARC
  5
A19
330
A02
100
AcDbEntity
  8
Sketch001
100
AcDbCircle
 10
123.644
 20
-83.0017
 30
0
 40
2
100
AcDbArc
 50
90
 51
180
  0
LINE
  5
A1A
330
A02
100
AcDbEntity
  8
Sketch001
100
AcDbLine
 10
121.644
 20
-83.0017
 30
0
 11
121.644
 21
-84.0017
 31
0
  0
ARC
  5
A1B
330
A02
100
AcDbEntity
  8
Sketch001
100
AcDbCircle
 10
120.144
 20
-84.0017
 30
0
 40
1.5
100
AcDbArc
 50
-90
 51
0
  0
LINE
  5
A1C
330
A02
100
AcDbEntity
  8
Sketch001
100
AcDbLine
 10
120.144
 20
-85.5017
 30
0
 11
81.6437
 21
-85.5017
 31
0
  0
ARC
  5
A1D
330
A02
100
AcDbEntity
  8
Sketch001
100
AcDbCircle
 10
81.6437
 20
-87.5017
 30
0
 40
2
100
AcDbArc
 50
90
 51
180
  0
LINE
  5
A1E
330
A02
100
AcDbEntity
  8
Sketch001
100
AcDbLine
 10
79.6437
 20
-87.5017
 30
0
 11
79.6437
 21
-90.5017
 31
0
  0
ARC
  5
A1F
330
A02
100
AcDbEntity
  8
Sketch001
100
AcDbCircle
 10
77.6437
 20
-90.5017
 30
0
 40
2
100
AcDbArc
 50
-90
 51
0
  0
ARC
  5
A20
330
A02
100
AcDbEntity
  8
Sketch001
100
AcDbCircle
 10
71.1404
 20
-203.281
 30
0
 40
110.97
100
AcDbArc
 50
86.6403
 51
117.109
  0
ARC
  5
A21
330
A02
100
AcDbEntity
  8
Sketch001
100
AcDbCircle
 10
20.249
 20
-101.117
 30
0
 40
3.4
100
AcDbArc
 50
-155.971
 51
-84.5209
  0
LINE
  5
A22
330
A02
100
AcDbEntity
  8
Sketch001
100
AcDbLine
 10
7.14368
 20
-81.5017
 30
0
 11
17.1437
 21
-102.502
 31
0
  0
ARC
  5
A23
330
A02
100
AcDbEntity
  8
Sketch001
100
AcDbCircle
 10
16.3646
 20
-77.0715
 30
0
 40
10.23
100
AcDbArc
 50
-177.59
 51
-154.338
  0
LINE
  5
A24
330
A02
100
AcDbEntity
  8
Sketch001
100
AcDbLine
 10
6.14368
 20
-77.5017
 30
0
 11
6.14368
 21
-12.0017
 31
0
  0
ARC
  5
A25
330
A02
100
AcDbEntity
  8
Sketch001
100
AcDbCircle
 10
8.14368
 20
-12.0017
 30
0
 40
2
100
AcDbArc
 50
90
 51
180
  0
CIRCLE
  5
A26
330
A02
100
AcDbEntity
  8
Sketch001
100
AcDbCircle
 10
12.1437
 20
-61.0017
 40
1.1
  0
CIRCLE
  5
A27
330
A02
100
AcDbEntity
  8
Sketch001
100
AcDbCircle
 10
43.6437
 20
-13.5017
 40
1.1
  0
CIRCLE
  5
A28
330
A02
100
AcDbEntity
  8
Sketch001
100
AcDbCircle
 10
43.6437
 20
-61.0017
 40
1.1
  0
CIRCLE
  5
A29
330
A02
100
AcDbEntity
  8
Sketch001
100
AcDbCircle
 10
122.644
 20
-23.0017
 40
1.1
  0
CIRCLE
  5
A2A
330
A02
100
AcDbEntity
  8
Sketch001
100
AcDbCircle
 10
35.6437
 20
-87.0017
 40
1.1
  0
LINE
  5
A2B
330
A02
100
AcDbEntity
  8
Sketch001
100
AcDbLine
 10
24.5237
 20
-21.6317
 30
0
 11
33.7637
 21
-21.6317
 31
0
  0
LINE
  5
A2C
330
A02
100
AcDbEntity
  8
Sketch001
100
AcDbLine
 10
33.7637
 20
-21.6317
 30
0
 11
33.7637
 21
-30.0017
 31
0
  0
LINE
  5
A2D
330
A02
100
AcDbEntity
  8
Sketch001
100
AcDbLine
 10
33.7637
 20
-30.0017
 30
0
 11
24.5237
 21
-30.0017
 31
0
  0
LINE
  5
A2E
330
A02
100
AcDbEntity
  8
Sketch001
100
AcDbLine
 10
24.5237
 20
-30.0017
 30
0
 11
24.5237
 21
-21.6317
 31
0
  0
CIRCLE
  5
A2F
330
A02
100
AcDbEntity
  8
Sketch001
100
AcDbCircle
 10
121.144
 20
-79.5017
 40
1.1
  0
CIRCLE
  5
A30
330
A02
100
AcDbEntity
  8
Sketch001
100
AcDbCircle
 10
43.6437
 20
-33.0017
 40
1.1
  0
CIRCLE
  5
A31
330
A02
100
AcDbEntity
  8
Sketch001
100
AcDbCircle
 10
12.1437
 20
-33.0017
 40
1.1
  0
LINE
  5
A32
330
A02
100
AcDbEntity
  8
Sketch001
100
AcDbLine
 10
13.9912
 20
-82.4017
 30
0
 11
13.0674
 21
-80.8017
 31
0
  0
LINE
  5
A33
330
A02
100
AcDbEntity
  8
Sketch001
100
AcDbLine
 10
13.0674
 20
-80.8017
 30
0
 11
11.2199
 21
-80.8017
 31
0
  0
LINE
  5
A34
330
A02
100
AcDbEntity
  8
Sketch001
100
AcDbLine
 10
11.2199
 20
-80.8017
 30
0
 11
10.2962
 21
-82.4017
 31
0
  0
LINE
  5
A35
330
A02
100
AcDbEntity
  8
Sketch001
100
AcDbLine
 10
10.2962
 20
-82.4017
 30
0
 11
11.2199
 21
-84.0017
 31
0
  0
LINE
  5
A36
330
A02
100
AcDbEntity
  8
Sketch001
100
AcDbLine
 10
11.2199
 20
-84.0017
 30
0
 11
13.0674
 21
-84.0017
 31
0
  0
LINE
  5
A37
330
A02
100
AcDbEntity
  8
Sketch001
100
AcDbLine
 10
13.0674
 20
-84.0017
 30
0
 11
13.9912
 21
-82.4017
 31
0
  0
LINE
  5
A38
330
A02
100
AcDbEntity
  8
Sketch001
100
AcDbLine
 10
13.9912
 20
-13.5017
 30
0
 11
13.0674
 21
-11.9017
 31
0
  0
LINE
  5
A39
330
A02
100
AcDbEntity
  8
Sketch001
100
AcDbLine
 10
13.0674
 20
-11.9017
 30
0
 11
11.2199
 21
-11.9017
 31
0
  0
LINE
  5
A3A
330
A02
100
AcDbEntity
  8
Sketch001
100
AcDbLine
 10
11.2199
 20
-11.9017
 30
0
 11
10.2962
 21
-13.5017
 31
0
  0
LINE
  5
A3B
330
A02
100
AcDbEntity
  8
Sketch001
100
AcDbLine
 10
10.2962
 20
-13.5017
 30
0
 11
11.2199
 21
-15.1017
 31
0
  0
LINE
  5
A3C
330
A02
100
AcDbEntity
  8
Sketch001
100
AcDbLine
 10
11.2199
 20
-15.1017
 30
0
 11
13.0674
 21
-15.1017
 31
0
  0
LINE
  5
A3D
330
A02
100
AcDbEntity
  8
Sketch001
100
AcDbLine
 10
13.0674
 20
-15.1017
 30
0
 11
13.9912
 21
-13.5017
 31
0
  0
CIRCLE
  5
A3E
330
A02
100
AcDbEntity
  8
Sketch001
100
AcDbCircle
 10
154.881
 20
-13.5017
 40
1.1
  0
CIRCLE
  5
A3F
330
A02
100
AcDbEntity
  8
Sketch001
100
AcDbCircle
 10
186.381
 20
-13.5017
 40
1.1
  0
CIRCLE
  5
A40
330
A02
100
AcDbEntity
  8
Sketch001
100
AcDbCircle
 10
154.881
 20
-61.0017
 40
1.1
  0
CIRCLE
  5
A41
330
A02
100
AcDbEntity
  8
Sketch001
100
AcDbCircle
 10
186.381
 20
-61.0017
 40
1.1
  0
ARC
  5
A42
330
A02
100
AcDbEntity
  8
Sketch001
100
AcDbCircle
 10
187.381
 20
-62.0017
 30
0
 40
2
100
AcDbArc
 50
-90
 51
0
  0
LINE
  5
A43
330
A02
100
AcDbEntity
  8
Sketch001
100
AcDbLine
 10
189.381
 20
-12.5017
 30
0
 11
189.381
 21
-62.0017
 31
0
  0
ARC
  5
A44
330
A02
100
AcDbEntity
  8
Sketch001
100
AcDbCircle
 10
187.381
 20
-12.5017
 30
0
 40
2
100
AcDbArc
 50
0
 51
90
  0
LINE
  5
A45
330
A02
100
AcDbEntity
  8
Sketch001
100
AcDbLine
 10
150.881
 20
-10.5017
 30
0
 11
187.381
 21
-10.5017
 31
0
  0
ARC
  5
A46
330
A02
100
AcDbEntity
  8
Sketch001
100
AcDbCircle
 10
150.881
 20
-12.5017
 30
0
 40
2
100
AcDbArc
 50
90
 51
180
  0
LINE
  5
A47
330
A02
100
AcDbEntity
  8
Sketch001
100
AcDbLine
 10
148.881
 20
-74.0017
 30
0
 11
148.881
 21
-12.5017
 31
0
  0
ARC
  5
A48
330
A02
100
AcDbEntity
  8
Sketch001
100
AcDbCircle
 10
150.881
 20
-74.0017
 30
0
 40
2
100
AcDbArc
 50
180
 51
-90
  0
LINE
  5
A49
330
A02
100
AcDbEntity
  8
Sketch001
100
AcDbLine
 10
161.881
 20
-76.0017
 30
0
 11
150.881
 21
-76.0017
 31
0
  0
ARC
  5
A4A
330
A02
100
AcDbEntity
  8
Sketch001
100
AcDbCircle
 10
161.881
 20
-74.0017
 30
0
 40
2
100
AcDbArc
 50
-90
 51
0
  0
LINE
  5
A4B
330
A02
100
AcDbEntity
  8
Sketch001
100
AcDbLine
 10
163.881
 20
-66.0017
 30
0
 11
163.881
 21
-74.0017
 31
0
  0
ARC
  5
A4C
330
A02
100
AcDbEntity
  8
Sketch001
100
AcDbCircle
 10
165.881
 20
-66.0017
 30
0
 40
2
100
AcDbArc
 50
90
 51
180
  0
LINE
  5
A4D
330
A02
100
AcDbEntity
  8
Sketch001
100
AcDbLine
 10
187.381
 20
-64.0017
 30
0
 11
165.881
 21
-64.0017
 31
0
  0
CIRCLE
  5
A4E
330
A02
100
AcDbEntity
  8
Sketch001
100
AcDbCircle
 10
181.381
 20
-45.5017
 40
4
  0
CIRCLE
  5
A4F
330
A02
100
AcDbEntity
  8
Sketch001
100
AcDbCircle
 10
173.444
 20
-36.0017
 40
1.1
  0
CIRCLE
  5
A50
330
A02
100
AcDbEntity
  8
Sketch001
100
AcDbCircle
 10
173.444
 20
-55.0017
 40
1.1
  0
CIRCLE
  5
A51
330
A02
100
AcDbEntity
  8
Sketch001
100
AcDbCircle
 10
181.381
 20
-35.0017
 40
1.1
  0
CIRCLE
  5
A52
330
A02
100
AcDbEntity
  8
Sketch001
100
AcDbCircle
 10
181.381
 20
-56.0017
 40
1.1
  0
CIRCLE
  5
A53
330
A02
100
AcDbEntity
  8
Sketch001
100
AcDbCircle
 10
164.156
 20
-169.722
 40
1.1
  0
CIRCLE
  5
A54
330
A02
100
AcDbEntity
  8
Sketch001
100
AcDbCircle
 10
160.906
 20
-168.722
 40
1.1
  0
CIRCLE
  5
A55
330
A02
100
AcDbEntity
  8
Sketch001
100
AcDbCircle
 10
160.906
 20
-189.722
 40
1.1
  0
CIRCLE
  5
A56
330
A02
100
AcDbEntity
  8
Sketch001
100
AcDbCircle
 10
164.156
 20
-188.722
 40
1.1
  0
CIRCLE
  5
A57
330
A02
100
AcDbEntity
  8
Sketch001
100
AcDbCircle
 10
137.656
 20
-147.222
 40
1.1
  0
CIRCLE
  5
A58
330
A02
100
AcDbEntity
  8
Sketch001
100
AcDbCircle
 10
169.156
 20
-147.222
 40
1.1
  0
CIRCLE
  5
A59
330
A02
100
AcDbEntity
  8
Sketch001
100
AcDbCircle
 10
137.656
 20
-194.722
 40
1.1
  0
CIRCLE
  5
A5A
330
A02
100
AcDbEntity
  8
Sketch001
100
AcDbCircle
 10
169.156
 20
-194.722
 40
1.1
  0
ARC
  5
A5B
330
A02
100
AcDbEntity
  8
Sketch001
100
AcDbCircle
 10
170.156
 20
-195.722
 30
0
 40
2
100
AcDbArc
 50
-90
 51
0
  0
LINE
  5
A5C
330
A02
100
AcDbEntity
  8
Sketch001
100
AcDbLine
 10
172.156
 20
-146.222
 30
0
 11
172.156
 21
-195.722
 31
0
  0
ARC
  5
A5D
330
A02
100
AcDbEntity
  8
Sketch001
100
AcDbCircle
 10
170.156
 20
-146.222
 30
0
 40
2
100
AcDbArc
 50
0
 51
90
  0
LINE
  5
A5E
330
A02
100
AcDbEntity
  8
Sketch001
100
AcDbLine
 10
133.656
 20
-144.222
 30
0
 11
170.156
 21
-144.222
 31
0
  0
ARC
  5
A5F
330
A02
100
AcDbEntity
  8
Sketch001
100
AcDbCircle
 10
133.656
 20
-146.222
 30
0
 40
2
100
AcDbArc
 50
90
 51
180
  0
LINE
  5
A60
330
A02
100
AcDbEntity
  8
Sketch001
100
AcDbLine
 10
131.656
 20
-207.722
 30
0
 11
131.656
 21
-146.222
 31
0
  0
ARC
  5
A61
330
A02
100
AcDbEntity
  8
Sketch001
100
AcDbCircle
 10
133.656
 20
-207.722
 30
0
 40
2
100
AcDbArc
 50
180
 51
-90
  0
LINE
  5
A62
330
A02
100
AcDbEntity
  8
Sketch001
100
AcDbLine
 10
144.656
 20
-209.722
 30
0
 11
133.656
 21
-209.722
 31
0
  0
ARC
  5
A63
330
A02
100
AcDbEntity
  8
Sketch001
100
AcDbCircle
 10
144.656
 20
-207.722
 30
0
 40
2
100
AcDbArc
 50
-90
 51
0
  0
LINE
  5
A64
330
A02
100
AcDbEntity
  8
Sketch001
100
AcDbLine
 10
146.656
 20
-199.722
 30
0
 11
146.656
 21
-207.722
 31
0
  0
ARC
  5
A65
330
A02
100
AcDbEntity
  8
Sketch001
100
AcDbCircle
 10
148.656
 20
-199.722
 30
0
 40
2
100
AcDbArc
 50
90
 51
180
  0
LINE
  5
A66
330
A02
100
AcDbEntity
  8
Sketch001
100
AcDbLine
 10
170.156
 20
-197.722
 30
0
 11
148.656
 21
-197.722
 31
0
  0
CIRCLE
  5
A67
330
A02
100
AcDbEntity
  8
Sketch001
100
AcDbCircle
 10
164.156
 20
-179.222
 40
4
  0
CIRCLE
  5
A68
330
A02
100
AcDbEntity
  8
Sketch001
100
AcDbCircle
 10
71.4575
 20
-170.841
 40
1.1
  0
CIRCLE
  5
A69
330
A02
100
AcDbEntity
  8
Sketch001
100
AcDbCircle
 10
52.486
 20
-171.881
 40
1.1
  0
CIRCLE
  5
A6A
330
A02
100
AcDbEntity
  8
Sketch001
100
AcDbCircle
 10
47.4575
 20
-147.222
 40
1.1
  0
CIRCLE
  5
A6B
330
A02
100
AcDbEntity
  8
Sketch001
100
AcDbCircle
 10
78.9575
 20
-147.222
 40
1.1
  0
CIRCLE
  5
A6C
330
A02
100
AcDbEntity
  8
Sketch001
100
AcDbCircle
 10
47.4575
 20
-194.722
 40
1.1
  0
CIRCLE
  5
A6D
330
A02
100
AcDbEntity
  8
Sketch001
100
AcDbCircle
 10
78.9575
 20
-194.722
 40
1.1
  0
ARC
  5
A6E
330
A02
100
AcDbEntity
  8
Sketch001
100
AcDbCircle
 10
82.9575
 20
-207.722
 30
0
 40
2
100
AcDbArc
 50
-90
 51
0
  0
LINE
  5
A6F
330
A02
100
AcDbEntity
  8
Sketch001
100
AcDbLine
 10
84.9575
 20
-146.222
 30
0
 11
84.9575
 21
-207.722
 31
0
  0
ARC
  5
A70
330
A02
100
AcDbEntity
  8
Sketch001
100
AcDbCircle
 10
82.9575
 20
-146.222
 30
0
 40
2
100
AcDbArc
 50
0
 51
90
  0
LINE
  5
A71
330
A02
100
AcDbEntity
  8
Sketch001
100
AcDbLine
 10
46.4575
 20
-144.222
 30
0
 11
82.9575
 21
-144.222
 31
0
  0
ARC
  5
A72
330
A02
100
AcDbEntity
  8
Sketch001
100
AcDbCircle
 10
46.4575
 20
-146.222
 30
0
 40
2
100
AcDbArc
 50
90
 51
180
  0
LINE
  5
A73
330
A02
100
AcDbEntity
  8
Sketch001
100
AcDbLine
 10
44.4575
 20
-195.722
 30
0
 11
44.4575
 21
-146.222
 31
0
  0
ARC
  5
A74
330
A02
100
AcDbEntity
  8
Sketch001
100
AcDbCircle
 10
46.4575
 20
-195.722
 30
0
 40
2
100
AcDbArc
 50
180
 51
-90
  0
LINE
  5
A75
330
A02
100
AcDbEntity
  8
Sketch001
100
AcDbLine
 10
67.9575
 20
-197.722
 30
0
 11
46.4575
 21
-197.722
 31
0
  0
ARC
  5
A76
330
A02
100
AcDbEntity
  8
Sketch001
100
AcDbCircle
 10
67.9575
 20
-199.722
 30
0
 40
2
100
AcDbArc
 50
0
 51
90
  0
LINE
  5
A77
330
A02
100
AcDbEntity
  8
Sketch001
100
AcDbLine
 10
69.9575
 20
-207.722
 30
0
 11
69.9575
 21
-199.722
 31
0
  0
ARC
  5
A78
330
A02
100
AcDbEntity
  8
Sketch001
100
AcDbCircle
 10
71.9575
 20
-207.722
 30
0
 40
2
100
AcDbArc
 50
180
 51
-90
  0
LINE
  5
A79
330
A02
100
AcDbEntity
  8
Sketch001
100
AcDbLine
 10
82.9575
 20
-209.722
 30
0
 11
71.9575
 21
-209.722
 31
0
  0
CIRCLE
  5
A7A
330
A02
100
AcDbEntity
  8
Sketch001
100
AcDbCircle
 10
62.4575
 20
-180.222
 40
9
  0
CIRCLE
  5
A7B
330
A02
100
AcDbEntity
  8
Sketch001
100
AcDbCircle
 10
154.881
 20
-33.0017
 40
1.1
  0
CIRCLE
  5
A7C
330
A02
100
AcDbEntity
  8
Sketch001
100
AcDbCircle
 10
78.9575
 20
-166.722
 40
1.1
  0
CIRCLE
  5
A7D
330
A02
100
AcDbEntity
  8
Sketch001
100
AcDbCircle
 10
137.656
 20
-166.722
 40
1.1
  0
ENDSEC
  0
SECTION
  2
OBJECTS
  0
DICTIONARY
  5
F000
330
0
100
AcDbDictionary
  3
ACAD_GROUP
350
F001
  0
DICTIONARY
  5
F001
330
F000
100
AcDbDictionary
  0
ENDSEC
  0
EOF