  0
SECTION
  2
HEADER
  9
$ANGBASE
  50
0.0
  9
$ANGDIR
  70
1
  9
$MEASUREMENT
  70
1
  0
ENDSEC
  0
SECTION
  2
TABLES
  0
TABLE
  2
LTYPE
  70
4
  0
LTYPE
  5
40F
  2
CONTINUOUS
  70
0
  3
Solid line
  72
65
  73
0
  40
0.0
  0
LTYPE
  5
410
  2
DASHDOT
 70
0
  3
Dash Dot ____ _ ____ _
 72
65
 73
4
 40
2.0
 49
1.25
 49
-0.25
 49
0.25
 49
-0.25
  0
LTYPE
  5
411
  2
DASHED
 70
0
  3
Dashed __ __ __ __ __
 72
65
 73
2
 40
0.75
 49
0.5
 49
-0.25
  0
LTYPE
  5
43B
  2
DOTTED
 70
0
  3
Dotted .  .  .  .
 72
65
 73
2
 40
0.2
 49
0.0
 49
-0.2
  0
ENDTAB
  0
TABLE
  2
STYLE
  70
4
  0
STYLE
  2
KICAD
  70
0
  40
0
  41
1
  42
1
  50
0
  71
0
  3
isocp.shx
  0
STYLE
  2
KICADB
  70
0
  40
0
  41
1
  42
1
  50
0
  71
0
  3
isocp.shx
  0
STYLE
  2
KICADI
  70
0
  40
0
  41
1
  42
1
  50
15
  71
0
  3
isocp.shx
  0
STYLE
  2
KICADBI
  70
0
  40
0
  41
1
  42
1
  50
15
  71
0
  3
isocp.shx
  0
ENDTAB
  0
TABLE
  2
LAYER
  70
1
  0
LAYER
  2
BLACK
  70
0
  62
7
  6
CONTINUOUS
  0
ENDTAB
  0
ENDSEC
  0
SECTION
  2
ENTITIES
0
CIRCLE
8
BLACK
10
84
20
-58
40
1.1
0
ARC
8
BLACK
10
197.5
20
-64.5
40
2
50
-180
51
-90
0
CIRCLE
8
BLACK
10
84
20
-105.5
40
1.1
0
ARC
8
BLACK
10
149.5
20
-135
40
2
50
-90
51
-0
0
CIRCLE
8
BLACK
10
84
20
-126.9
40
1.1
0
LINE
8
BLACK
6
CONTINUOUS
10
96.5
20
-61.42
11
105.5
21
-61.42
0
ARC
8
BLACK
10
107.5
20
-56.5
40
2
50
90
51
180
0
LINE
8
BLACK
6
CONTINUOUS
10
78
20
-56.5
11
78
21
-122
0
LINE
8
BLACK
6
CONTINUOUS
10
94.5
20
-54.5
11
80
21
-54.5
0
LINE
8
BLACK
6
CONTINUOUS
10
195.5
20
-64.5
11
195.5
21
-56.5
0
ARC
8
BLACK
10
92.1036
20
-145.619
40
3.39682
50
-156.019
51
-84.3983
0
ARC
8
BLACK
10
195.5
20
-127.5
40
2
50
90
51
180
0
CIRCLE
8
BLACK
10
115.5
20
-58
40
1.1
0
LINE
8
BLACK
6
CONTINUOUS
10
153.5
20
-54.5
11
107.5
21
-54.5
0
LINE
8
BLACK
6
CONTINUOUS
10
193.5
20
-127.5
11
193.5
21
-128.5
0
ARC
8
BLACK
10
94.5
20
-56.5
40
2
50
-0
51
90
0
LINE
8
BLACK
6
CONTINUOUS
10
193.5
20
-54.5
11
178.5
21
-54.5
0
LINE
8
BLACK
6
CONTINUOUS
10
79
20
-126
11
89
21
-147
0
LINE
8
BLACK
6
CONTINUOUS
10
176.5
20
-52.5
11
176.5
21
-51.5
0
ARC
8
BLACK
10
178.5
20
-52.5
40
2
50
-180
51
-90
0
ARC
8
BLACK
10
157.5
20
-51.5
40
2
50
90
51
180
0
LINE
8
BLACK
6
CONTINUOUS
10
214.5
20
-123.5
11
214.5
21
-68.5
0
ARC
8
BLACK
10
212.5
20
-68.5
40
2
50
-0
51
90
0
CIRCLE
8
BLACK
10
115.5
20
-105.5
40
1.1
0
ARC
8
BLACK
10
143.001
20
-247.779
40
110.97
50
86.6427
51
117.108
0
CIRCLE
8
BLACK
10
194.5
20
-67.5
40
1.1
0
ARC
8
BLACK
10
192
20
-128.5
40
1.5
50
-90
51
-0
0
LINE
8
BLACK
6
CONTINUOUS
10
155.5
20
-51.5
11
155.5
21
-52.5
0
LINE
8
BLACK
6
CONTINUOUS
10
153.5
20
-130
11
192
21
-130
0
LINE
8
BLACK
6
CONTINUOUS
10
212.5
20
-125.5
11
195.5
21
-125.5
0
ARC
8
BLACK
10
193.5
20
-56.5
40
2
50
-0
51
90
0
LINE
8
BLACK
6
CONTINUOUS
10
96.5
20
-56.5
11
96.5
21
-61.42
0
LINE
8
BLACK
6
CONTINUOUS
10
197.5
20
-66.5
11
212.5
21
-66.5
0
LINE
8
BLACK
6
CONTINUOUS
10
105.5
20
-61.42
11
105.5
21
-56.5
0
ARC
8
BLACK
10
88.2161
20
-121.571
40
10.2251
50
-177.595
51
-154.332
0
CIRCLE
8
BLACK
10
107.5
20
-131.5
40
1.1
0
LINE
8
BLACK
6
CONTINUOUS
10
174.5
20
-49.5
11
157.5
21
-49.49
0
ARC
8
BLACK
10
80
20
-56.5
40
2
50
90
51
180
0
ARC
8
BLACK
10
174.5
20
-51.5
40
2
50
-0
51
90
0
LINE
8
BLACK
6
CONTINUOUS
10
96.38
20
-66.13
11
105.62
21
-66.13
0
LINE
8
BLACK
6
CONTINUOUS
10
105.62
20
-66.13
11
105.62
21
-74.5
0
LINE
8
BLACK
6
CONTINUOUS
10
105.62
20
-74.5
11
96.38
21
-74.5
0
LINE
8
BLACK
6
CONTINUOUS
10
96.38
20
-74.5
11
96.38
21
-66.13
0
ARC
8
BLACK
10
153.5
20
-52.5
40
2
50
-90
51
-0
0
CIRCLE
8
BLACK
10
193
20
-124
40
1.1
0
LINE
8
BLACK
6
CONTINUOUS
10
151.5
20
-135
11
151.5
21
-132
0
CIRCLE
8
BLACK
10
115.5
20
-77.5
40
1.1
0
ARC
8
BLACK
10
212.5
20
-123.5
40
2
50
-90
51
-0
0
ARC
8
BLACK
10
153.5
20
-132
40
2
50
90
51
180
0
CIRCLE
8
BLACK
10
84
20
-77.5
40
1.1
  0
ENDSEC
  0
EOF
