0
SECTION
2
HEADER
9
$INSUNITS
70
4
9
$ACADVER
1
AC1014
9
$HANDSEED
5
FFFF
0
ENDSEC
0
SECTION
2
TABLES
0
TABLE
2
VPORT
5
8
100
AcDbSymbolTable
0
ENDTAB
0
TABLE
2
LTYPE
5
5
100
AcDbSymbolTable
0
LTYPE
5
14
100
AcDbSymbolTableRecord
100
AcDbLinetypeTableRecord
2
BYBLOCK
70
0
0
LTYPE
5
15
100
AcDbSymbolTableRecord
100
AcDbLinetypeTableRecord
2
BYLAYER
70
0
0
ENDTAB
0
TABLE
2
LAYER
5
2
100
AcDbSymbolTable
70
2
0
LAYER
5
50
100
AcDbSymbolTableRecord
100
AcDbLayerTableRecord
2
0
70
0
6
CONTINUOUS
0
ENDTAB
0
TABLE
2
STYLE
5
3
100
AcDbSymbolTable
70
1
0
STYLE
5
11
100
AcDbSymbolTableRecord
100
AcDbTextStyleTableRecord
2
STANDARD
70
0
0
ENDTAB
0
TABLE
2
VIEW
5
6
100
AcDbSymbolTable
70
0
0
ENDTAB
0
TABLE
2
UCS
5
7
100
AcDbSymbolTable
70
0
0
ENDTAB
0
TABLE
2
APPID
5
9
100
AcDbSymbolTable
70
2
0
APPID
5
12
100
AcDbSymbolTableRecord
100
AcDbRegAppTableRecord
2
ACAD
70
0
0
ENDTAB
0
TABLE
2
DIMSTYLE
5
A
100
AcDbSymbolTable
70
1
0
ENDTAB
0
TABLE
2
BLOCK_RECORD
5
1
100
AcDbSymbolTable
70
1
0
BLOCK_RECORD
5
1F
100
AcDbSymbolTableRecord
100
AcDbBlockTableRecord
2
*MODEL_SPACE
0
BLOCK_RECORD
5
1B
100
AcDbSymbolTableRecord
100
AcDbBlockTableRecord
2
*PAPER_SPACE
0
ENDTAB
0
ENDSEC
0
SECTION
2
BLOCKS
0
BLOCK
5
20
100
AcDbEntity
100
AcDbBlockBegin
2
*MODEL_SPACE
0
ENDBLK
5
21
100
AcDbEntity
100
AcDbBlockEnd
0
BLOCK
5
1C
100
AcDbEntity
100
AcDbBlockBegin
2
*PAPER_SPACE
0
ENDBLK
5
1D
100
AcDbEntity
100
AcDbBlockEnd
0
ENDSEC
0
SECTION
2
ENTITIES
0
LWPOLYLINE
5
100
100
AcDbEntity
8
0
100
AcDbPolyline
90
4
70
1
43
0.0
10
235.93261148832241
20
-67.392793893779114
10
249.93261148832244
20
-67.392793893779114
10
249.93261148832244
20
-81.3927938937791
10
235.93261148832241
20
-81.3927938937791
0
CIRCLE
5
101
100
AcDbEntity
8
0
100
AcDbCircle
10
237.53261148832252
20
-86.99279389377908
30
0
40
1.1000000000000001
210
0
220
0
230
1
0
LWPOLYLINE
5
102
100
AcDbEntity
8
0
100
AcDbPolyline
90
4
70
1
43
0.0
10
230.93261148832241
20
-55.392793893779157
10
230.93261148832241
20
-69.392793893779128
10
216.93261148832249
20
-69.392793893779128
10
216.93261148832249
20
-55.392793893779157
0
LWPOLYLINE
5
103
100
AcDbEntity
8
0
100
AcDbPolyline
90
4
70
1
43
0.0
10
249.93261148832244
20
-62.392793893779128
10
235.93261148832241
20
-62.392793893779128
10
235.93261148832241
20
-48.392793893779178
10
249.93261148832244
20
-48.392793893779178
0
LWPOLYLINE
5
104
100
AcDbEntity
8
0
100
AcDbPolyline
90
4
70
1
43
0.0
10
197.93261148832244
20
-26.392793893779217
10
197.93261148832244
20
-12.39279389377926
10
211.93261148832249
20
-12.39279389377926
10
211.93261148832249
20
-26.392793893779217
0
LWPOLYLINE
5
105
100
AcDbEntity
8
0
100
AcDbPolyline
90
4
70
1
43
0.0
10
197.93261148832244
20
-50.392793893779171
10
211.93261148832249
20
-50.392793893779171
10
211.93261148832249
20
-64.392793893779128
10
197.93261148832244
20
-64.392793893779128
0
LWPOLYLINE
5
106
100
AcDbEntity
8
0
100
AcDbPolyline
90
4
70
1
43
0.0
10
216.93261148832249
20
-17.392793893779253
10
230.93261148832241
20
-17.392793893779253
10
230.93261148832241
20
-31.392793893779203
10
216.93261148832249
20
-31.392793893779203
0
ARC
5
107
100
AcDbEntity
8
0
100
AcDbCircle
10
217.83686067666665
20
-56.338908567451
30
0
40
48.955581612557957
210
0
220
-0
230
1
100
AcDbArc
50
40.734369511397539
51
88.873196185261094
0
LWPOLYLINE
5
108
100
AcDbEntity
8
0
100
AcDbPolyline
90
4
70
1
43
0.0
10
249.93261148832244
20
-43.392793893779185
10
235.93261148832241
20
-43.392793893779185
10
235.93261148832241
20
-29.392793893779224
10
249.93261148832244
20
-29.392793893779224
0
LWPOLYLINE
5
109
100
AcDbEntity
8
0
100
AcDbPolyline
90
4
70
1
43
0.0
10
150.96061148832263
20
-84.708793893779102
10
164.11631148832257
20
-79.920793893779091
10
168.90461148832259
20
-93.076793893779083
10
155.74891148832265
20
-97.86479389377908
0
LWPOLYLINE
5
110
100
AcDbEntity
8
0
100
AcDbPolyline
90
4
70
1
43
0.0
10
152.54511148832265
20
-59.892793893779128
42
0.99999999999999989
10
157.54511148832265
20
-59.892793893779128
10
157.54511148832265
20
-40.892793893779185
42
0.99999999999999989
10
152.54511148832265
20
-40.892793893779185
0
LWPOLYLINE
5
111
100
AcDbEntity
8
0
100
AcDbPolyline
90
4
70
1
43
0.0
10
188.04161148832236
20
-89.37079389377908
10
174.25461148832255
20
-91.801793893779092
10
171.82361148832257
20
-78.014793893779114
10
185.61061148832238
20
-75.58359389377911
0
ARC
5
112
100
AcDbEntity
8
0
100
AcDbCircle
10
156.03187325039926
20
-81.392795458401025
30
0
40
10.986761762076611
210
0
220
0
230
1
100
AcDbArc
50
180
51
207.22336102662177
0
LWPOLYLINE
5
113
100
AcDbEntity
8
0
100
AcDbPolyline
90
4
70
1
43
0.0
10
211.93261148832249
20
-45.392793893779178
10
197.93261148832244
20
-45.392793893779178
10
197.93261148832244
20
-31.392793893779203
10
211.93261148832249
20
-31.392793893779203
0
CIRCLE
5
114
100
AcDbEntity
8
0
100
AcDbCircle
10
154.93261148832261
20
-79.592793893779103
30
0
40
1.1000000000000001
210
0
220
0
230
1
0
LWPOLYLINE
5
115
100
AcDbEntity
8
0
100
AcDbPolyline
90
4
70
1
43
0.0
10
192.93261148832244
20
-17.392793893779253
10
192.93261148832244
20
-31.392793893779203
10
178.93261148832252
20
-31.392793893779203
10
178.93261148832252
20
-17.392793893779253
0
LWPOLYLINE
5
116
100
AcDbEntity
8
0
100
AcDbPolyline
90
4
70
1
43
0.0
10
192.93261148832244
20
-36.392793893779192
10
192.93261148832244
20
-50.392793893779171
10
178.93261148832252
20
-50.392793893779171
10
178.93261148832252
20
-36.392793893779192
0
LWPOLYLINE
5
117
100
AcDbEntity
8
0
100
AcDbPolyline
90
4
70
1
43
0.0
10
173.93261148832252
20
-71.392793893779128
10
159.93261148832261
20
-71.392793893779128
10
159.93261148832261
20
-57.392793893779142
10
173.93261148832252
20
-57.392793893779142
0
LINE
5
118
100
AcDbEntity
8
0
100
AcDbLine
10
151.05041587669689
20
-99.574805294804008
30
0
11
146.26211587669701
21
-86.418805294804017
31
0
0
ARC
5
119
100
AcDbEntity
8
0
100
AcDbCircle
10
155.26610259099087
20
-98.900146840434857
30
0
40
4.2693299829278306
210
0
220
0
230
1
100
AcDbArc
50
189.09224586995805
51
300.90630961881277
0
CIRCLE
5
120
100
AcDbEntity
8
0
100
AcDbCircle
10
168.03261148832263
20
-79.592793893779103
30
0
40
1.1000000000000001
210
0
220
0
230
1
0
LWPOLYLINE
5
121
100
AcDbEntity
8
0
100
AcDbPolyline
90
4
70
1
43
0.0
10
216.93261148832249
20
-50.392793893779171
10
216.93261148832249
20
-36.392793893779192
10
230.93261148832241
20
-36.392793893779192
10
230.93261148832241
20
-50.392793893779171
0
LWPOLYLINE
5
122
100
AcDbEntity
8
0
100
AcDbPolyline
90
4
70
1
43
0.0
10
178.93261148832252
20
-69.392793893779128
10
178.93261148832252
20
-55.392793893779157
10
192.93261148832244
20
-55.392793893779157
10
192.93261148832244
20
-69.392793893779128
0
LINE
5
123
100
AcDbEntity
8
0
100
AcDbLine
10
147.04511148832253
20
-34.892793893779206
30
0
11
147.04511148832253
21
-67.892793893779128
31
0
0
LWPOLYLINE
5
124
100
AcDbEntity
8
0
100
AcDbPolyline
90
4
70
1
43
0.0
10
159.93261148832261
20
-52.392793893779171
10
159.93261148832261
20
-38.392793893779199
10
173.93261148832252
20
-38.392793893779199
10
173.93261148832252
20
-52.392793893779171
0
LINE
5
125
100
AcDbEntity
8
0
100
AcDbLine
10
254.93261148832227
20
-86.392793893779071
30
0
11
254.9326114883221
21
-24.392793893779242
31
0
0
LWPOLYLINE
5
126
100
AcDbEntity
8
0
100
AcDbPolyline
90
4
70
1
43
0.0
10
159.93261148832261
20
-19.392793893779242
10
173.93261148832252
20
-19.392793893779242
10
173.93261148832252
20
-33.392793893779206
10
159.93261148832261
20
-33.392793893779206
0
ARC
5
127
100
AcDbEntity
8
0
100
AcDbCircle
10
147.04785148575723
20
-9.3955338903774024
30
0
40
2.0027399957368219
210
0
220
-0
230
1
100
AcDbArc
50
89.999999997967237
51
180
0
CIRCLE
5
128
100
AcDbEntity
8
0
100
AcDbCircle
10
154.93261148832261
20
-21.392793893779238
30
0
40
1.1000000000000001
210
0
220
0
230
1
0
CIRCLE
5
129
100
AcDbEntity
8
0
100
AcDbCircle
10
168.03261148832263
20
-13.392793893779256
30
0
40
1.1000000000000001
210
0
220
0
230
1
0
LINE
5
130
100
AcDbEntity
8
0
100
AcDbLine
10
145.04511148832265
20
-81.392795458401025
30
0
11
145.04511148917152
21
-9.3955338903774024
31
0
0
ARC
5
131
100
AcDbEntity
8
0
100
AcDbCircle
10
190.38925225709548
20
-174.47919159471073
30
0
40
79.096793566368063
210
0
220
-0
230
1
100
AcDbArc
50
75.3272907319176
51
114.60302210533936
0
LWPOLYLINE
5
132
100
AcDbEntity
8
0
100
AcDbPolyline
90
4
70
1
43
0.0
10
213.93261148832238
20
-91.892793893779086
10
213.93261148832238
20
-74.392793893779128
10
231.43261148832238
20
-74.392793893779128
10
231.43261148832238
20
-91.892793893779086
0
LWPOLYLINE
5
133
100
AcDbEntity
8
0
100
AcDbPolyline
90
4
70
1
43
0.0
10
207.79561148832244
20
-90.375793893779075
10
193.84961148832247
20
-89.155793893779077
10
195.06961148832247
20
-75.209293893779105
10
209.01561148832243
20
-76.42979389377912
0
CIRCLE
5
134
100
AcDbEntity
8
0
100
AcDbCircle
10
237.53261148832252
20
-25.792793893779219
30
0
40
1.1000000000000001
210
0
220
0
230
1
0
ARC
5
135
100
AcDbEntity
8
0
100
AcDbCircle
10
208.27483863427574
20
1.7078382195233435
30
0
40
99.692874100726243
210
0
220
0
230
1
100
AcDbArc
50
271.23541059499149
51
297.90553090570984
0
LINE
5
136
100
AcDbEntity
8
0
100
AcDbLine
10
147.04785148582829
20
-7.3927938929303485
30
0
11
218.79958045708534
21
-7.3927938954771024
31
0
0
LWPOLYLINE
5
137
100
AcDbEntity
8
0
100
AcDbPolyline
90
4
70
1
43
0.0
10
108.27877391351689
20
-67.007836216109467
10
122.2787739135168
20
-67.007836216109467
10
122.2787739135168
20
-81.007836216109425
10
108.27877391351689
20
-81.007836216109425
0
CIRCLE
5
138
100
AcDbEntity
8
0
100
AcDbCircle
10
109.87877391351691
20
-86.607836216109433
30
0
40
1.1000000000000001
210
0
220
0
230
1
0
LWPOLYLINE
5
139
100
AcDbEntity
8
0
100
AcDbPolyline
90
4
70
1
43
0.0
10
103.27877391351689
20
-55.007836216109524
10
103.27877391351689
20
-69.007836216109467
10
89.278773913516972
20
-69.007836216109467
10
89.278773913516972
20
-55.007836216109524
0
LWPOLYLINE
5
140
100
AcDbEntity
8
0
100
AcDbPolyline
90
4
70
1
43
0.0
10
122.2787739135168
20
-62.007836216109489
10
108.27877391351689
20
-62.007836216109489
10
108.27877391351689
20
-48.007836216109538
10
122.2787739135168
20
-48.007836216109538
0
LWPOLYLINE
5
141
100
AcDbEntity
8
0
100
AcDbPolyline
90
4
70
1
43
0.0
10
70.278773913516986
20
-26.007836216109617
10
70.278773913516986
20
-12.007836216109659
10
84.278773913516972
20
-12.007836216109659
10
84.278773913516972
20
-26.007836216109617
0
LWPOLYLINE
5
142
100
AcDbEntity
8
0
100
AcDbPolyline
90
4
70
1
43
0.0
10
70.278773913516986
20
-50.007836216109538
10
84.278773913516972
20
-50.007836216109538
10
84.278773913516972
20
-64.007836216109467
10
70.278773913516986
20
-64.007836216109467
0
LWPOLYLINE
5
143
100
AcDbEntity
8
0
100
AcDbPolyline
90
4
70
1
43
0.0
10
89.278773913516972
20
-17.007836216109649
10
103.27877391351689
20
-17.007836216109649
10
103.27877391351689
20
-31.007836216109595
10
89.278773913516972
20
-31.007836216109595
0
ARC
5
144
100
AcDbEntity
8
0
100
AcDbCircle
10
90.183023101861266
20
-55.95395088978136
30
0
40
48.955581612557985
210
0
220
-0
230
1
100
AcDbArc
50
40.734369511397482
51
88.873196185261207
0
LWPOLYLINE
5
145
100
AcDbEntity
8
0
100
AcDbPolyline
90
4
70
1
43
0.0
10
122.2787739135168
20
-43.007836216109553
10
108.27877391351689
20
-43.007836216109553
10
108.27877391351689
20
-29.007836216109606
10
122.2787739135168
20
-29.007836216109606
0
LWPOLYLINE
5
146
100
AcDbEntity
8
0
100
AcDbPolyline
90
4
70
1
43
0.0
10
23.306773913517127
20
-84.323836216109441
10
36.46247391351713
20
-79.535836216109459
10
41.250773913517151
20
-92.691836216109408
10
28.095073913517147
20
-97.479836216109405
0
LWPOLYLINE
5
147
100
AcDbEntity
8
0
100
AcDbPolyline
90
4
70
1
43
0.0
10
60.387773913517066
20
-88.985836216109419
10
46.600773913517116
20
-91.416836216109402
10
44.169773913517133
20
-77.629836216109481
10
57.956773913517083
20
-75.198636216109463
0
ARC
5
148
100
AcDbEntity
8
0
100
AcDbCircle
10
28.378035675593758
20
-81.00783778073135
30
0
40
10.986761762076608
210
0
220
0
230
1
100
AcDbArc
50
180
51
207.22336102662186
0
LWPOLYLINE
5
149
100
AcDbEntity
8
0
100
AcDbPolyline
90
4
70
1
43
0.0
10
84.278773913516972
20
-45.007836216109553
10
70.278773913516986
20
-45.007836216109553
10
70.278773913516986
20
-31.007836216109595
10
84.278773913516972
20
-31.007836216109595
0
CIRCLE
5
150
100
AcDbEntity
8
0
100
AcDbCircle
10
27.278773913517178
20
-79.207836216109456
30
0
40
1.1000000000000001
210
0
220
0
230
1
0
LWPOLYLINE
5
151
100
AcDbEntity
8
0
100
AcDbPolyline
90
4
70
1
43
0.0
10
65.278773913516986
20
-17.007836216109649
10
65.278773913516986
20
-31.007836216109595
10
51.278773913517156
20
-31.007836216109595
10
51.278773913517156
20
-17.007836216109649
0
LWPOLYLINE
5
152
100
AcDbEntity
8
0
100
AcDbPolyline
90
4
70
1
43
0.0
10
65.278773913516986
20
-36.007836216109574
10
65.278773913516986
20
-50.007836216109538
10
51.278773913517156
20
-50.007836216109538
10
51.278773913517156
20
-36.007836216109574
0
LWPOLYLINE
5
153
100
AcDbEntity
8
0
100
AcDbPolyline
90
4
70
1
43
0.0
10
46.278773913517156
20
-71.007836216109453
10
32.278773913517107
20
-71.007836216109453
10
32.278773913517107
20
-57.00783621610951
10
46.278773913517156
20
-57.00783621610951
0
LINE
5
154
100
AcDbEntity
8
0
100
AcDbLine
10
23.39657830189153
20
-99.189847617134333
30
0
11
18.608278301891509
21
-86.033847617134356
31
0
0
ARC
5
155
100
AcDbEntity
8
0
100
AcDbCircle
10
27.612265016185439
20
-98.515189162765182
30
0
40
4.2693299829277613
210
0
220
0
230
1
100
AcDbArc
50
189.09224586995816
51
300.90630961881203
0
CIRCLE
5
156
100
AcDbEntity
8
0
100
AcDbCircle
10
40.378773913517122
20
-79.207836216109456
30
0
40
1.1000000000000001
210
0
220
0
230
1
0
LWPOLYLINE
5
157
100
AcDbEntity
8
0
100
AcDbPolyline
90
4
70
1
43
0.0
10
89.278773913516972
20
-50.007836216109538
10
89.278773913516972
20
-36.007836216109574
10
103.27877391351689
20
-36.007836216109574
10
103.27877391351689
20
-50.007836216109538
0
LWPOLYLINE
5
158
100
AcDbEntity
8
0
100
AcDbPolyline
90
4
70
1
43
0.0
10
51.278773913517156
20
-69.007836216109467
10
51.278773913517156
20
-55.007836216109524
10
65.278773913516986
20
-55.007836216109524
10
65.278773913516986
20
-69.007836216109467
0
LWPOLYLINE
5
159
100
AcDbEntity
8
0
100
AcDbPolyline
90
4
70
1
43
0.0
10
32.278773913517107
20
-52.007836216109531
10
32.278773913517107
20
-38.007836216109567
10
46.278773913517156
20
-38.007836216109567
10
46.278773913517156
20
-52.007836216109531
0
LINE
5
160
100
AcDbEntity
8
0
100
AcDbLine
10
127.27877391351677
20
-86.007836216109425
30
0
11
127.27877391351677
21
-24.007836216109631
31
0
0
LWPOLYLINE
5
161
100
AcDbEntity
8
0
100
AcDbPolyline
90
4
70
1
43
0.0
10
32.278773913517107
20
-19.007836216109641
10
46.278773913517156
20
-19.007836216109641
10
46.278773913517156
20
-33.007836216109588
10
32.278773913517107
20
-33.007836216109588
0
ARC
5
162
100
AcDbEntity
8
0
100
AcDbCircle
10
19.394013910951806
20
-9.0105762127078108
30
0
40
2.0027399957368255
210
0
220
-0
230
1
100
AcDbArc
50
89.99999999796519
51
180
0
CIRCLE
5
163
100
AcDbEntity
8
0
100
AcDbCircle
10
27.278773913517178
20
-21.007836216109631
30
0
40
1.1000000000000001
210
0
220
0
230
1
0
CIRCLE
5
164
100
AcDbEntity
8
0
100
AcDbCircle
10
40.378773913517122
20
-13.007836216109661
30
0
40
1.1000000000000001
210
0
220
0
230
1
0
LINE
5
165
100
AcDbEntity
8
0
100
AcDbLine
10
17.39127391351715
20
-81.00783778073135
30
0
11
17.39127391351715
21
-9.0105762127078108
31
0
0
ARC
5
166
100
AcDbEntity
8
0
100
AcDbCircle
10
62.735414682290113
20
-174.09423391704098
30
0
40
79.096793566367978
210
0
220
-0
230
1
100
AcDbArc
50
75.327290731917657
51
114.60302210533948
0
LWPOLYLINE
5
167
100
AcDbEntity
8
0
100
AcDbPolyline
90
4
70
1
43
0.0
10
86.278773913517
20
-91.507836216109411
10
86.278773913517
20
-74.007836216109453
10
103.77877391351691
20
-74.007836216109453
10
103.77877391351691
20
-91.507836216109411
0
LWPOLYLINE
5
168
100
AcDbEntity
8
0
100
AcDbPolyline
90
4
70
1
43
0.0
10
80.141773913516971
20
-89.990836216109415
10
66.195773913517016
20
-88.770836216109416
10
67.415773913517015
20
-74.824336216109458
10
81.36177391351697
20
-76.044836216109474
0
CIRCLE
5
169
100
AcDbEntity
8
0
100
AcDbCircle
10
109.87877391351691
20
-25.407836216109622
30
0
40
1.1000000000000001
210
0
220
0
230
1
0
ARC
5
170
100
AcDbEntity
8
0
100
AcDbCircle
10
80.621001059470274
20
2.0927958971929232
30
0
40
99.692874100726129
210
0
220
0
230
1
100
AcDbArc
50
271.23541059499149
51
297.90553090570984
0
LINE
5
171
100
AcDbEntity
8
0
100
AcDbLine
10
19.394013911022931
20
-7.0078362152607543
30
0
11
91.145742882279876
21
-7.0078362178075082
31
0
0
LINE
5
172
100
AcDbEntity
8
0
100
AcDbLine
10
904.38374929124984
20
-29.318045134490323
30
0
11
904.38374928852136
21
-106.19113898157914
31
0
0
CIRCLE
5
173
100
AcDbEntity
8
0
100
AcDbCircle
10
898.38374929085512
20
-40.441792006410878
30
0
40
1.1000000000000001
210
0
220
-0
230
1
0
ARC
5
174
100
AcDbEntity
8
0
100
AcDbCircle
10
878.68799847919945
20
-70.987906680082617
30
0
40
48.955581612557957
210
0
220
-0
230
1
100
AcDbArc
50
58.339910174362139
51
88.873196185261108
0
ARC
5
175
100
AcDbEntity
8
0
100
AcDbCircle
10
869.12597643680851
20
-12.941159893108338
30
0
40
99.692874100726101
210
-0
220
0
230
1
100
AcDbArc
50
271.23541059499155
51
290.71158145066994
0
CIRCLE
5
176
100
AcDbEntity
8
0
100
AcDbCircle
10
898.38374929085512
20
-101.64179200641064
30
0
40
1.1000000000000001
210
0
220
-0
230
1
0
LINE
5
177
100
AcDbEntity
8
0
100
AcDbLine
10
807.89898928836124
20
-22.041792005562009
30
0
11
879.65071825961809
21
-22.041792008108771
31
0
0
ARC
5
178
100
AcDbEntity
8
0
100
AcDbCircle
10
851.24039005962823
20
-189.12818970734213
30
0
40
79.096793566367921
210
0
220
-0
230
1
100
AcDbArc
50
75.3272907319175
51
114.60302210533936
0
CIRCLE
5
179
100
AcDbEntity
8
0
100
AcDbCircle
10
815.78374929085544
20
-94.241792006410691
30
0
40
1.3999999999999999
210
0
220
0
230
1
0
ARC
5
180
100
AcDbEntity
8
0
100
AcDbCircle
10
807.89898928829018
20
-24.044532003009067
30
0
40
2.0027399957368353
210
0
220
-0
230
1
100
AcDbArc
50
89.999999997967237
51
180
0
CIRCLE
5
181
100
AcDbEntity
8
0
100
AcDbCircle
10
828.88374929085535
20
-94.241792006410691
30
0
40
1.1000000000000001
210
0
220
-0
230
1
0
LINE
5
182
100
AcDbEntity
8
0
100
AcDbLine
10
811.90155367922989
20
-114.22380340743557
30
0
11
807.11325367922984
21
-101.0678034074356
31
0
0
ARC
5
183
100
AcDbEntity
8
0
100
AcDbCircle
10
816.11724039352362
20
-113.54914495306639
30
0
40
4.2693299829276929
210
0
220
0
230
1
100
AcDbArc
50
189.09224586995899
51
300.90630961881351
0
CIRCLE
5
184
100
AcDbEntity
8
0
100
AcDbCircle
10
815.78374929085544
20
-36.041792006410901
30
0
40
1.3999999999999999
210
0
220
0
230
1
0
LINE
5
185
100
AcDbEntity
8
0
100
AcDbLine
10
805.89624929085539
20
-96.041793571032613
30
0
11
805.89624929085539
21
-24.044532003009049
31
0
0
CIRCLE
5
186
100
AcDbEntity
8
0
100
AcDbCircle
10
828.88374929085535
20
-28.041792006410908
30
0
40
1.1000000000000001
210
0
220
-0
230
1
0
ARC
5
187
100
AcDbEntity
8
0
100
AcDbCircle
10
816.88301105293203
20
-96.041793571032613
30
0
40
10.986761762076611
210
0
220
0
230
1
100
AcDbArc
50
180
51
207.22336102662194
0
LWPOLYLINE
5
188
100
AcDbEntity
8
0
100
AcDbPolyline
90
4
70
1
43
0.0
10
0
20
0
10
300
20
-9.8607613152626476e-31
10
300
20
-200
10
0
20
-200
0
ARC
5
189
100
AcDbEntity
8
0
100
AcDbCircle
10
179.66651490328886
20
-143.58350492812522
30
0
40
48.955581612557566
210
0
220
0
230
1
100
AcDbArc
50
238.3399101743621
51
268.87319618526112
0
ARC
5
190
100
AcDbEntity
8
0
100
AcDbCircle
10
242.23727298896421
20
-101.02226665514169
30
0
40
4.2693299829275819
210
0
220
-0
230
1
100
AcDbArc
50
9.0922458699583739
51
120.90630961881344
0
ARC
5
191
100
AcDbEntity
8
0
100
AcDbCircle
10
207.11412332285974
20
-25.443221900866494
30
0
40
79.09679356636741
210
0
220
0
230
1
100
AcDbArc
50
255.32729073191763
51
294.60302210533945
0
ARC
5
192
100
AcDbEntity
8
0
100
AcDbCircle
10
189.22853694567976
20
-201.63025171509906
30
0
40
99.692874100725376
210
0
220
0
230
1
100
AcDbArc
50
91.235410594991578
51
110.71158145066998
0
LINE
5
193
100
AcDbEntity
8
0
100
AcDbLine
10
250.45552409412662
20
-192.52961960264545
30
0
11
178.70379512287025
21
-192.5296196000987
31
0
0
LINE
5
194
100
AcDbEntity
8
0
100
AcDbLine
10
252.45826409163229
20
-118.52961803717535
30
0
11
252.45826409163237
21
-190.52687960519845
31
0
0
CIRCLE
5
195
100
AcDbEntity
8
0
100
AcDbCircle
10
242.57076409163247
20
-120.32961960179722
30
0
40
1.3999999999999999
210
0
220
0
230
1
0
CIRCLE
5
196
100
AcDbEntity
8
0
100
AcDbCircle
10
159.97076409163336
20
-174.12961960179669
30
0
40
1.1000000000000001
210
0
220
0
230
1
0
CIRCLE
5
197
100
AcDbEntity
8
0
100
AcDbCircle
10
159.9707640916333
20
-112.92961960179741
30
0
40
1.1000000000000001
210
0
220
0
230
1
0
ARC
5
198
100
AcDbEntity
8
0
100
AcDbCircle
10
250.45552409419767
20
-190.52687960519842
30
0
40
2.0027399957368175
210
0
220
0
230
1
100
AcDbArc
50
-90.000000002032749
51
0
0
CIRCLE
5
199
100
AcDbEntity
8
0
100
AcDbCircle
10
229.47076409163282
20
-186.52961960179655
30
0
40
1.1000000000000001
210
0
220
0
230
1
0
LINE
5
200
100
AcDbEntity
8
0
100
AcDbLine
10
153.97076409123864
20
-185.25336647371719
30
0
11
153.97076409396706
21
-108.38027262662894
31
0
0
CIRCLE
5
201
100
AcDbEntity
8
0
100
AcDbCircle
10
242.57076409163247
20
-178.52961960179667
30
0
40
1.3999999999999999
210
0
220
0
230
1
0
ARC
5
202
100
AcDbEntity
8
0
100
AcDbCircle
10
241.47150232955582
20
-118.52961803717535
30
0
40
10.986761762076469
210
-0
220
0
230
1
100
AcDbArc
50
0
51
27.223361026621667
0
LINE
5
203
100
AcDbEntity
8
0
100
AcDbLine
10
246.45295970325793
20
-100.34760820077256
30
0
11
251.24125970325795
21
-113.50360820077245
31
0
0
CIRCLE
5
204
100
AcDbEntity
8
0
100
AcDbCircle
10
229.47076409163273
20
-120.32961960179722
30
0
40
1.1000000000000001
210
0
220
0
230
1
0
ARC
5
205
100
AcDbEntity
8
0
100
AcDbCircle
10
50.463661088638574
20
-143.72170311651593
30
0
40
48.955581612557715
210
0
220
0
230
1
100
AcDbArc
50
238.33991017436216
51
268.87319618526112
0
ARC
5
206
100
AcDbEntity
8
0
100
AcDbCircle
10
121.25267027954774
20
-190.66507779358938
30
0
40
2.0027399957368175
210
0
220
0
230
1
100
AcDbArc
50
-90.000000002032749
51
0
0
CIRCLE
5
207
100
AcDbEntity
8
0
100
AcDbCircle
10
100.26791027698265
20
-186.66781779018754
30
0
40
1.1000000000000001
210
0
220
0
230
1
0
CIRCLE
5
208
100
AcDbEntity
8
0
100
AcDbCircle
10
30.767910276983027
20
-174.26781779018754
30
0
40
1.1000000000000001
210
0
220
0
230
1
0
LINE
5
209
100
AcDbEntity
8
0
100
AcDbLine
10
121.25267027947669
20
-192.66781779103638
30
0
11
49.500941308219879
21
-192.66781778848957
31
0
0
CIRCLE
5
210
100
AcDbEntity
8
0
100
AcDbCircle
10
113.36791027698251
20
-178.6678177901876
30
0
40
1.3999999999999999
210
0
220
0
230
1
0
LINE
5
211
100
AcDbEntity
8
0
100
AcDbLine
10
24.767910276588321
20
-185.39156466210807
30
0
11
24.767910279316823
21
-108.51847081501946
31
0
0
ARC
5
212
100
AcDbEntity
8
0
100
AcDbCircle
10
112.26864851490589
20
-118.66781622556601
30
0
40
10.986761762076576
210
-0
220
0
230
1
100
AcDbArc
50
0
51
27.223361026621728
0
CIRCLE
5
213
100
AcDbEntity
8
0
100
AcDbCircle
10
30.767910276983045
20
-113.06781779018797
30
0
40
1.1000000000000001
210
0
220
0
230
1
0
ARC
5
214
100
AcDbEntity
8
0
100
AcDbCircle
10
113.03441917431428
20
-101.16046484353228
30
0
40
4.2693299829276929
210
0
220
-0
230
1
100
AcDbArc
50
9.0922458699585338
51
120.90630961881297
0
ARC
5
215
100
AcDbEntity
8
0
100
AcDbCircle
10
77.911269508209742
20
-25.581420089256714
30
0
40
79.096793566367751
210
0
220
0
230
1
100
AcDbArc
50
255.32729073191754
51
294.60302210533939
0
LINE
5
216
100
AcDbEntity
8
0
100
AcDbLine
10
117.25010588860812
20
-100.48580638916312
30
0
11
122.03840588860814
21
-113.64180638916304
31
0
0
CIRCLE
5
217
100
AcDbEntity
8
0
100
AcDbCircle
10
100.26791027698268
20
-120.46781779018792
30
0
40
1.1000000000000001
210
0
220
0
230
1
0
ARC
5
218
100
AcDbEntity
8
0
100
AcDbCircle
10
60.025683131029467
20
-201.76844990349002
30
0
40
99.692874100725817
210
0
220
0
230
1
100
AcDbArc
50
91.235410594991507
51
110.71158145066985
0
CIRCLE
5
219
100
AcDbEntity
8
0
100
AcDbCircle
10
113.36791027698254
20
-120.46781779018792
30
0
40
1.3999999999999999
210
0
220
0
230
1
0
LINE
5
220
100
AcDbEntity
8
0
100
AcDbLine
10
123.25541027698247
20
-118.66781622556601
30
0
11
123.25541027698243
21
-190.66507779358938
31
0
0
ENDSEC
0
SECTION
2
OBJECTS
0
DICTIONARY
5
C
100
AcDbDictionary
3
ACAD_GROUP
350
D
3
ACAD_MLINESTYLE
350
17
0
DICTIONARY
5
D
100
AcDbDictionary
0
DICTIONARY
5
1A
330
C
100
AcDbDictionary
0
DICTIONARY
5
17
100
AcDbDictionary
0
ENDSEC
0
EOF
