0
SECTION
2
HEADER
9
$INSUNITS
70
4
9
$ACADVER
1
AC1014
9
$HANDSEED
5
FFFF
0
ENDSEC
0
SECTION
2
TABLES
0
TABLE
2
VPORT
5
8
100
AcDbSymbolTable
0
ENDTAB
0
TABLE
2
LTYPE
5
5
100
AcDbSymbolTable
0
LTYPE
5
14
100
AcDbSymbolTableRecord
100
AcDbLinetypeTableRecord
2
BYBLOCK
70
0
0
LTYPE
5
15
100
AcDbSymbolTableRecord
100
AcDbLinetypeTableRecord
2
BYLAYER
70
0
0
ENDTAB
0
TABLE
2
LAYER
5
2
100
AcDbSymbolTable
70
2
0
LAYER
5
50
100
AcDbSymbolTableRecord
100
AcDbLayerTableRecord
2
0
70
0
6
CONTINUOUS
0
ENDTAB
0
TABLE
2
STYLE
5
3
100
AcDbSymbolTable
70
1
0
STYLE
5
11
100
AcDbSymbolTableRecord
100
AcDbTextStyleTableRecord
2
STANDARD
70
0
0
ENDTAB
0
TABLE
2
VIEW
5
6
100
AcDbSymbolTable
70
0
0
ENDTAB
0
TABLE
2
UCS
5
7
100
AcDbSymbolTable
70
0
0
ENDTAB
0
TABLE
2
APPID
5
9
100
AcDbSymbolTable
70
2
0
APPID
5
12
100
AcDbSymbolTableRecord
100
AcDbRegAppTableRecord
2
ACAD
70
0
0
ENDTAB
0
TABLE
2
DIMSTYLE
5
A
100
AcDbSymbolTable
70
1
0
ENDTAB
0
TABLE
2
BLOCK_RECORD
5
1
100
AcDbSymbolTable
70
1
0
BLOCK_RECORD
5
1F
100
AcDbSymbolTableRecord
100
AcDbBlockTableRecord
2
*MODEL_SPACE
0
BLOCK_RECORD
5
1B
100
AcDbSymbolTableRecord
100
AcDbBlockTableRecord
2
*PAPER_SPACE
0
ENDTAB
0
ENDSEC
0
SECTION
2
BLOCKS
0
BLOCK
5
20
100
AcDbEntity
100
AcDbBlockBegin
2
*MODEL_SPACE
0
ENDBLK
5
21
100
AcDbEntity
100
AcDbBlockEnd
0
BLOCK
5
1C
100
AcDbEntity
100
AcDbBlockBegin
2
*PAPER_SPACE
0
ENDBLK
5
1D
100
AcDbEntity
100
AcDbBlockEnd
0
ENDSEC
0
SECTION
2
ENTITIES
0
LWPOLYLINE
5
100
100
AcDbEntity
8
0
100
AcDbPolyline
90
4
70
1
43
0.0
10
0
20
0
10
300
20
9.8607613152626476e-31
10
300
20
-200
10
0
20
-200
0
LWPOLYLINE
5
101
100
AcDbEntity
8
0
100
AcDbPolyline
90
12
70
1
43
0.0
10
98.356692858652423
20
-95.646606093790055
42
0.17434404411933899
10
135.86489858362637
20
-87.957940610999401
42
0.26158077829110321
10
139.7011225111103
20
-81.126910760584181
10
139.70112251107687
20
-21.411547643196528
42
0.38206456282140738
10
120.7011225110769
20
-4.4115476431965153
10
33.151122511076892
20
-4.411547643196525
42
0.41421356237309503
10
28.151122511076892
20
-9.4115476431965241
10
28.151122511076892
20
-68.411547643196513
42
0.094953419877078282
10
31.030626899451235
20
-83.437559044221473
10
35.818926899451235
20
-96.59355904422145
42
0.51299502339724823
10
42.227494088075602
20
-99.582021353476264
42
-0.17557897881932494
10
95.962872809847084
20
-95.150913339567325
42
0.030586129296990162
0
CIRCLE
5
102
100
AcDbEntity
8
0
100
AcDbCircle
10
122.3011225110769
20
-22.811547643196523
30
0
40
1.1000000000000001
210
0
220
-0
230
1
0
LWPOLYLINE
5
103
100
AcDbEntity
8
0
100
AcDbPolyline
90
4
70
1
43
0.0
10
134.70112251107687
20
-40.411547643196513
10
120.70112251107689
20
-40.411547643196513
10
120.70112251107689
20
-26.411547643196528
10
134.70112251107687
20
-26.411547643196528
0
LWPOLYLINE
5
104
100
AcDbEntity
8
0
100
AcDbPolyline
90
4
70
1
43
0.0
10
134.70112251107687
20
-45.411547643196513
10
134.70112251107687
20
-59.411547643196513
10
120.70112251107689
20
-59.411547643196521
10
120.70112251107689
20
-45.411547643196528
0
LWPOLYLINE
5
105
100
AcDbEntity
8
0
100
AcDbPolyline
90
4
70
1
43
0.0
10
120.70112251107689
20
-64.411547643196513
10
134.70112251107687
20
-64.411547643196513
10
134.70112251107687
20
-78.411547643196513
10
120.70112251107689
20
-78.411547643196528
0
LWPOLYLINE
5
106
100
AcDbEntity
8
0
100
AcDbPolyline
90
8
70
1
43
0.0
10
116.2011225110769
20
-79.411547643196542
10
116.20112251107692
20
-88.911547643196528
42
-0.41421356237309115
10
112.2011225110769
20
-92.911547643196542
10
102.7011225110769
20
-92.911547643196513
42
-0.41421356237309115
10
98.701122511076903
20
-88.911547643196528
10
98.701122511076903
20
-79.411547643196542
42
-0.41421356237309115
10
102.7011225110769
20
-75.411547643196556
10
112.2011225110769
20
-75.411547643196556
42
-0.41421356237309115
0
CIRCLE
5
107
100
AcDbEntity
8
0
100
AcDbCircle
10
122.3011225110769
20
-84.011547643196536
30
0
40
1.1000000000000001
210
0
220
-0
230
1
0
LWPOLYLINE
5
108
100
AcDbEntity
8
0
100
AcDbPolyline
90
4
70
1
43
0.0
10
93.784122511076887
20
-73.448547643196548
10
92.564122511076889
20
-87.394547643196518
10
78.618122511076905
20
-86.174547643196519
10
79.838122511076904
20
-72.228047643196533
0
LWPOLYLINE
5
109
100
AcDbEntity
8
0
100
AcDbPolyline
90
4
70
1
43
0.0
10
115.70112251107689
20
-66.411547643196528
10
101.70112251107689
20
-66.411547643196528
10
101.70112251107689
20
-52.411547643196528
10
115.70112251107689
20
-52.411547643196528
0
LWPOLYLINE
5
110
100
AcDbEntity
8
0
100
AcDbPolyline
90
4
70
1
43
0.0
10
115.70112251107689
20
-47.411547643196528
10
101.70112251107689
20
-47.411547643196528
10
101.70112251107689
20
-33.411547643196521
10
115.70112251107689
20
-33.411547643196521
0
LWPOLYLINE
5
111
100
AcDbEntity
8
0
100
AcDbPolyline
90
4
70
1
43
0.0
10
115.70112251107689
20
-14.411547643196524
10
115.70112251107689
20
-28.411547643196521
10
101.70112251107689
20
-28.411547643196521
10
101.70112251107689
20
-14.411547643196528
0
LWPOLYLINE
5
112
100
AcDbEntity
8
0
100
AcDbPolyline
90
4
70
1
43
0.0
10
82.701122511076889
20
-9.4115476431965224
10
96.701122511076889
20
-9.4115476431965224
10
96.701122511076889
20
-23.411547643196521
10
82.701122511076889
20
-23.411547643196521
0
LWPOLYLINE
5
113
100
AcDbEntity
8
0
100
AcDbPolyline
90
4
70
1
43
0.0
10
82.701122511076889
20
-28.411547643196521
10
96.701122511076889
20
-28.411547643196521
10
96.701122511076889
20
-42.411547643196528
10
82.701122511076889
20
-42.411547643196528
0
LWPOLYLINE
5
114
100
AcDbEntity
8
0
100
AcDbPolyline
90
4
70
1
43
0.0
10
82.701122511076889
20
-47.411547643196528
10
96.701122511076889
20
-47.411547643196528
10
96.701122511076889
20
-61.411547643196528
10
82.701122511076889
20
-61.411547643196528
0
LWPOLYLINE
5
115
100
AcDbEntity
8
0
100
AcDbPolyline
90
4
70
1
43
0.0
10
77.701122511076889
20
-52.411547643196528
10
77.701122511076889
20
-66.411547643196528
10
63.701122511076903
20
-66.411547643196528
10
63.701122511076903
20
-52.411547643196528
0
LWPOLYLINE
5
116
100
AcDbEntity
8
0
100
AcDbPolyline
90
4
70
1
43
0.0
10
77.701122511076889
20
-47.411547643196528
10
63.701122511076903
20
-47.411547643196528
10
63.701122511076903
20
-33.411547643196528
10
77.701122511076889
20
-33.411547643196528
0
LWPOLYLINE
5
117
100
AcDbEntity
8
0
100
AcDbPolyline
90
4
70
1
43
0.0
10
77.701122511076889
20
-28.411547643196524
10
63.701122511076903
20
-28.411547643196524
10
63.701122511076903
20
-14.411547643196528
10
77.701122511076889
20
-14.411547643196528
0
CIRCLE
5
118
100
AcDbEntity
8
0
100
AcDbCircle
10
52.801122511076883
20
-10.411547643196526
30
0
40
1.1000000000000001
210
0
220
-0
230
1
0
LWPOLYLINE
5
119
100
AcDbEntity
8
0
100
AcDbPolyline
90
4
70
1
43
0.0
10
58.701122511076903
20
-16.411547643196521
10
58.701122511076903
20
-30.411547643196528
10
44.701122511076896
20
-30.411547643196528
10
44.701122511076896
20
-16.411547643196521
0
LWPOLYLINE
5
120
100
AcDbEntity
8
0
100
AcDbPolyline
90
4
70
1
43
0.0
10
44.701122511076896
20
-35.411547643196528
10
58.701122511076903
20
-35.411547643196528
10
58.701122511076903
20
-49.411547643196528
10
44.701122511076896
20
-49.411547643196528
0
LWPOLYLINE
5
121
100
AcDbEntity
8
0
100
AcDbPolyline
90
4
70
1
43
0.0
10
41.651122511076899
20
-56.911547643196521
10
41.651122511076899
20
-37.911547643196528
42
0.99999999999999989
10
36.651122511076899
20
-37.911547643196528
10
36.651122511076899
20
-56.911547643196521
42
0.99999999999999989
0
CIRCLE
5
122
100
AcDbEntity
8
0
100
AcDbCircle
10
52.801122511076883
20
-76.611547643196531
30
0
40
1.1000000000000001
210
0
220
-0
230
1
0
LWPOLYLINE
5
123
100
AcDbEntity
8
0
100
AcDbPolyline
90
4
70
1
43
0.0
10
59.023122511076892
20
-88.820547643196534
10
56.592122511076894
20
-75.033547643196542
10
70.379122511076901
20
-72.602347643196538
10
72.810122511076884
20
-86.389547643196522
0
LWPOLYLINE
5
124
100
AcDbEntity
8
0
100
AcDbPolyline
90
4
70
1
43
0.0
10
58.701122511076903
20
-54.411547643196521
10
58.701122511076903
20
-68.411547643196528
10
44.701122511076896
20
-68.411547643196528
10
44.701122511076896
20
-54.411547643196521
0
LWPOLYLINE
5
125
100
AcDbEntity
8
0
100
AcDbPolyline
90
4
70
1
43
0.0
10
48.884822511076891
20
-76.939547643196533
10
53.673122511076897
20
-90.095547643196525
10
40.517422511076887
20
-94.883547643196536
10
35.729122511076895
20
-81.727547643196544
0
CIRCLE
5
126
100
AcDbEntity
8
0
100
AcDbCircle
10
39.701122511076896
20
-76.611547643196531
30
0
40
1.1000000000000001
210
0
220
-0
230
1
0
CIRCLE
5
127
100
AcDbEntity
8
0
100
AcDbCircle
10
39.701122511076896
20
-18.411547643196524
30
0
40
1.1000000000000001
210
0
220
-0
230
1
0
CIRCLE
5
128
100
AcDbEntity
8
0
100
AcDbCircle
10
179.82026695243863
20
-75.324495129614419
30
0
40
1.4000000000000024
210
0
220
0
230
1
0
ARC
5
129
100
AcDbEntity
8
0
100
AcDbCircle
10
261.42026695243658
20
-86.698496833544141
30
0
40
5.9999999999999565
210
-0
220
0
230
1
100
AcDbArc
50
-72.887970009629555
51
0
0
CIRCLE
5
130
100
AcDbEntity
8
0
100
AcDbCircle
10
262.42026695243669
20
-82.724495129614368
30
0
40
1.1000000000000001
210
0
220
0
230
1
0
LINE
5
131
100
AcDbEntity
8
0
100
AcDbLine
10
175.938071340813
20
-95.30650653063887
30
0
11
171.14977134081317
21
-82.150506530639262
31
0
0
CIRCLE
5
132
100
AcDbEntity
8
0
100
AcDbCircle
10
242.88267471254159
20
-124.74707334750738
30
0
40
1.1000000000000001
210
0
220
-0
230
1
0
LINE
5
133
100
AcDbEntity
8
0
100
AcDbLine
10
267.53267471254111
20
-191.94707334750598
30
0
11
267.53267471254111
21
-132.9470733475072
31
0
0
LINE
5
134
100
AcDbEntity
8
0
100
AcDbLine
10
259.86487032416699
20
-104.76506194648289
30
0
11
264.65317032416681
21
-117.92106194648257
31
0
0
ARC
5
135
100
AcDbEntity
8
0
100
AcDbCircle
10
241.32675090865689
20
-74.563789094004775
30
0
40
19.999999999929031
210
0
220
0
230
1
100
AcDbArc
50
254.79717951946776
51
261.80481930370746
0
ARC
5
136
100
AcDbEntity
8
0
100
AcDbCircle
10
226.88808234945355
20
-132.9470733475072
30
0
40
40.644592363087568
210
0
220
-0
230
1
100
AcDbArc
50
0
51
21.696670053635383
0
LINE
5
137
100
AcDbEntity
8
0
100
AcDbLine
10
168.38267471254309
20
-193.25874635028265
30
0
11
168.38267471254318
21
-113.37307164357767
31
0
0
ARC
5
138
100
AcDbEntity
8
0
100
AcDbCircle
10
194.47619075632289
20
-125.50777938311705
30
0
40
19.999999999929084
210
0
220
-0
230
1
100
AcDbArc
50
74.797179519467576
51
81.80481930370749
0
CIRCLE
5
139
100
AcDbEntity
8
0
100
AcDbCircle
10
255.98267471254132
20
-124.74707334750738
30
0
40
1.4000000000000024
210
0
220
-0
230
1
0
CIRCLE
5
140
100
AcDbEntity
8
0
100
AcDbCircle
10
192.92026695243834
20
-9.1244951296160259
30
0
40
1.1000000000000001
210
0
220
0
230
1
0
CIRCLE
5
141
100
AcDbEntity
8
0
100
AcDbCircle
10
255.98267471254132
20
-182.94707334750612
30
0
40
1.4000000000000024
210
0
220
-0
230
1
0
ARC
5
142
100
AcDbEntity
8
0
100
AcDbCircle
10
220.47383576522478
20
-29.839162765819125
30
0
40
79.138094350711
210
0
220
0
230
1
100
AcDbArc
50
254.79717951946793
51
294.63089810242525
0
ARC
5
143
100
AcDbEntity
8
0
100
AcDbCircle
10
189.26301679758399
20
-161.70626803598168
30
0
40
56.571953235706943
210
0
220
-0
230
1
100
AcDbArc
50
81.804819303707603
51
107.1120299903699
0
ARC
5
144
100
AcDbEntity
8
0
100
AcDbCircle
10
180.21546813812608
20
-94.499514731450489
30
0
40
4.3528564329209942
210
0
220
0
230
1
100
AcDbArc
50
190.68408199608965
51
299.31447349262356
0
ARC
5
145
100
AcDbEntity
8
0
100
AcDbCircle
10
264.42026695243669
20
-6.8128221268394107
30
0
40
2.9999999999999716
210
0
220
-0
230
1
100
AcDbArc
50
0
51
79.902058294495006
0
CIRCLE
5
146
100
AcDbEntity
8
0
100
AcDbCircle
10
173.38267471254309
20
-117.34707334750745
30
0
40
1.1000000000000001
210
0
220
-0
230
1
0
CIRCLE
5
147
100
AcDbEntity
8
0
100
AcDbCircle
10
242.88267471254159
20
-190.94707334750595
30
0
40
1.1000000000000001
210
0
220
-0
230
1
0
ARC
5
148
100
AcDbEntity
8
0
100
AcDbCircle
10
171.38267471254318
20
-193.25874635028256
30
0
40
3.0000000000000782
210
0
220
0
230
1
100
AcDbArc
50
180
51
259.90205829449451
0
ARC
5
149
100
AcDbEntity
8
0
100
AcDbCircle
10
255.58747352685387
20
-105.57205374567127
30
0
40
4.3528564329209942
210
0
220
-0
230
1
100
AcDbArc
50
10.684081996089599
51
119.31447349262358
0
CIRCLE
5
150
100
AcDbEntity
8
0
100
AcDbCircle
10
179.82026695243863
20
-17.124495129615838
30
0
40
1.4000000000000024
210
0
220
0
230
1
0
ARC
5
151
100
AcDbEntity
8
0
100
AcDbCircle
10
174.38267471254312
20
-113.37307164357765
30
0
40
5.9999999999999352
210
0
220
0
230
1
100
AcDbArc
50
107.11202999036942
51
180
0
CIRCLE
5
152
100
AcDbEntity
8
0
100
AcDbCircle
10
173.38267471254309
20
-178.54707334750623
30
0
40
1.1000000000000001
210
0
220
-0
230
1
0
LINE
5
153
100
AcDbEntity
8
0
100
AcDbLine
10
262.53267471254117
20
-196.94707334750589
30
0
11
175.24772463118612
21
-196.94707334750581
31
0
0
ARC
5
154
100
AcDbEntity
8
0
100
AcDbCircle
10
260.55521703379338
20
-6.124495129618257
30
0
40
3.0000000000020681
210
0
220
-0
230
1
100
AcDbArc
50
79.902058294496328
51
89.999999999993491
0
LINE
5
155
100
AcDbEntity
8
0
100
AcDbLine
10
173.27026695243876
20
-3.1244951296161005
30
0
11
260.55521703379372
21
-3.1244951296161538
31
0
0
LINE
5
156
100
AcDbEntity
8
0
100
AcDbLine
10
168.27026695243885
20
-8.1244951296160295
30
0
11
168.27026695243885
21
-67.12449512961463
31
0
0
CIRCLE
5
157
100
AcDbEntity
8
0
100
AcDbCircle
10
192.92026695243834
20
-75.324495129614419
30
0
40
1.1000000000000001
210
0
220
0
230
1
0
ARC
5
158
100
AcDbEntity
8
0
100
AcDbCircle
10
208.91485931552637
20
-67.124495129614644
30
0
40
40.644592363087533
210
0
220
0
230
1
100
AcDbArc
50
180
51
201.69667005363539
0
ARC
5
159
100
AcDbEntity
8
0
100
AcDbCircle
10
175.2477246311864
20
-193.9470733475037
30
0
40
3.0000000000020681
210
0
220
0
230
1
100
AcDbArc
50
259.90205829449684
51
269.99999999999454
0
CIRCLE
5
160
100
AcDbEntity
8
0
100
AcDbCircle
10
262.42026695243669
20
-21.524495129615726
30
0
40
1.1000000000000001
210
0
220
0
230
1
0
ARC
5
161
100
AcDbEntity
8
0
100
AcDbCircle
10
246.53992486739583
20
-38.365300441140221
30
0
40
56.571953235706843
210
0
220
0
230
1
100
AcDbArc
50
261.80481930370757
51
287.11202999036993
0
ARC
5
162
100
AcDbEntity
8
0
100
AcDbCircle
10
262.53267471254117
20
-191.94707334750598
30
0
40
4.9999999999999289
210
0
220
0
230
1
100
AcDbArc
50
-90
51
0
0
LINE
5
163
100
AcDbEntity
8
0
100
AcDbLine
10
264.9462610284495
20
-3.8592936891906682
30
0
11
261.08121110980647
21
-3.170966691967525
31
0
0
LINE
5
164
100
AcDbEntity
8
0
100
AcDbLine
10
267.42026695243669
20
-6.8128221268393396
30
0
11
267.42026695243652
21
-86.698496833544141
31
0
0
ARC
5
165
100
AcDbEntity
8
0
100
AcDbCircle
10
215.32910589975515
20
-170.23240571130253
30
0
40
79.13809435071083
210
0
220
-0
230
1
100
AcDbArc
50
74.797179519467946
51
114.63089810242525
0
ARC
5
166
100
AcDbEntity
8
0
100
AcDbCircle
10
173.27026695243876
20
-8.1244951296160295
30
0
40
4.9999999999999289
210
0
220
-0
230
1
100
AcDbArc
50
90
51
180
0
LINE
5
167
100
AcDbEntity
8
0
100
AcDbLine
10
170.85668063653034
20
-196.21227478793131
30
0
11
174.72173055517334
21
-196.90060178515444
31
0
0
LWPOLYLINE
5
168
100
AcDbEntity
8
0
100
AcDbPolyline
90
12
70
1
43
0.0
10
31.952120732075461
20
-114.55098457860376
42
0.26158077829110299
10
28.115896804591568
20
-121.38201442901891
10
28.115896804624963
20
-181.09737754640594
42
0.38206456282140711
10
47.115896804624725
20
-198.0973775464058
10
134.66589680462383
20
-198.09737754640588
42
0.41421356237309503
10
139.66589680462374
20
-193.09737754640591
10
139.6658968046238
20
-134.09737754640653
42
0.094953419877078435
10
136.78639241624947
20
-119.07136614538172
10
131.99809241624953
20
-105.91536614538187
42
0.51299502339724656
10
125.5895252276253
20
-102.9269038361271
42
-0.17557897881932494
10
71.854146505854359
20
-107.35801185003595
42
0.030586129296990391
10
69.460326457049035
20
-106.86231909581323
42
0.17434404411933896
0
LWPOLYLINE
5
169
100
AcDbEntity
8
0
100
AcDbPolyline
90
4
70
1
43
0.0
10
71.115896804624512
20
-160.09737754640616
10
85.115896804624356
20
-160.09737754640616
10
85.115896804624356
20
-174.09737754640605
10
71.115896804624512
20
-174.09737754640605
0
LWPOLYLINE
5
170
100
AcDbEntity
8
0
100
AcDbPolyline
90
4
70
1
43
0.0
10
87.978896804624355
20
-130.28087754640654
10
74.0328968046245
20
-129.06037754640653
10
75.252896804624498
20
-115.11437754640669
10
89.198896804624354
20
-116.33437754640667
0
LWPOLYLINE
5
171
100
AcDbEntity
8
0
100
AcDbPolyline
90
4
70
1
43
0.0
10
33.115896804624924
20
-157.09737754640622
10
33.115896804624946
20
-143.09737754640639
10
47.115896804624796
20
-143.09737754640636
10
47.115896804624775
20
-157.09737754640622
0
LWPOLYLINE
5
172
100
AcDbEntity
8
0
100
AcDbPolyline
90
4
70
1
43
0.0
10
114.14389680462408
20
-112.41337754640671
10
127.29959680462395
20
-107.62537754640675
10
132.08789680462385
20
-120.78137754640663
10
118.93219680462403
20
-125.56937754640659
0
LWPOLYLINE
5
173
100
AcDbEntity
8
0
100
AcDbPolyline
90
4
70
1
43
0.0
10
71.115896804624512
20
-155.09737754640625
10
71.115896804624555
20
-141.09737754640639
10
85.115896804624384
20
-141.09737754640639
10
85.115896804624356
20
-155.09737754640625
0
LWPOLYLINE
5
174
100
AcDbEntity
8
0
100
AcDbPolyline
90
4
70
1
43
0.0
10
85.115896804624327
20
-193.09737754640588
10
71.115896804624469
20
-193.09737754640588
10
71.115896804624512
20
-179.09737754640602
10
85.115896804624356
20
-179.09737754640602
0
LWPOLYLINE
5
175
100
AcDbEntity
8
0
100
AcDbPolyline
90
4
70
1
43
0.0
10
108.79389680462411
20
-113.68837754640668
10
111.22489680462409
20
-127.47537754640658
10
97.437896804624245
20
-129.90657754640654
10
95.00689680462429
20
-116.11937754640667
0
LWPOLYLINE
5
176
100
AcDbEntity
8
0
100
AcDbPolyline
90
8
70
1
43
0.0
10
69.115896804624555
20
-113.59737754640669
10
69.115896804624555
20
-123.09737754640658
42
-0.41421356237309115
10
65.115896804624583
20
-127.09737754640653
10
55.615896804624697
20
-127.09737754640651
42
-0.41421356237309115
10
51.615896804624732
20
-123.09737754640656
10
51.615896804624732
20
-113.59737754640668
42
-0.41421356237309115
10
55.615896804624718
20
-109.5973775464067
10
65.115896804624612
20
-109.59737754640676
42
-0.41421356237309115
0
LWPOLYLINE
5
177
100
AcDbEntity
8
0
100
AcDbPolyline
90
4
70
1
43
0.0
10
52.115896804624725
20
-174.09737754640602
10
66.115896804624569
20
-174.09737754640605
10
66.115896804624555
20
-188.09737754640591
10
52.115896804624704
20
-188.09737754640588
0
CIRCLE
5
178
100
AcDbEntity
8
0
100
AcDbCircle
10
45.515896804624788
20
-118.49737754640663
30
0
40
1.1000000000000001
210
0
220
0
230
1
0
LWPOLYLINE
5
179
100
AcDbEntity
8
0
100
AcDbPolyline
90
4
70
1
43
0.0
10
66.115896804624583
20
-155.09737754640625
10
66.115896804624569
20
-169.09737754640611
10
52.115896804624725
20
-169.09737754640611
10
52.11589680462474
20
-155.09737754640622
0
LWPOLYLINE
5
180
100
AcDbEntity
8
0
100
AcDbPolyline
90
4
70
1
43
0.0
10
33.115896804624946
20
-138.09737754640645
10
33.115896804624946
20
-124.09737754640656
10
47.115896804624796
20
-124.09737754640658
10
47.115896804624796
20
-138.09737754640642
0
CIRCLE
5
181
100
AcDbEntity
8
0
100
AcDbCircle
10
128.11589680462393
20
-125.89737754640659
30
0
40
1.1000000000000001
210
0
220
0
230
1
0
LWPOLYLINE
5
182
100
AcDbEntity
8
0
100
AcDbPolyline
90
4
70
1
43
0.0
10
104.11589680462414
20
-169.09737754640611
10
90.115896804624327
20
-169.09737754640614
10
90.115896804624327
20
-155.09737754640628
10
104.11589680462414
20
-155.09737754640628
0
LWPOLYLINE
5
183
100
AcDbEntity
8
0
100
AcDbPolyline
90
4
70
1
43
0.0
10
109.11589680462407
20
-148.09737754640634
10
109.11589680462411
20
-134.09737754640651
10
123.11589680462399
20
-134.09737754640651
10
123.11589680462396
20
-148.09737754640636
0
LWPOLYLINE
5
184
100
AcDbEntity
8
0
100
AcDbPolyline
90
4
70
1
43
0.0
10
52.11589680462474
20
-150.09737754640628
10
52.11589680462474
20
-136.09737754640645
10
66.115896804624583
20
-136.09737754640645
10
66.115896804624583
20
-150.09737754640628
0
LWPOLYLINE
5
185
100
AcDbEntity
8
0
100
AcDbPolyline
90
4
70
1
43
0.0
10
104.11589680462419
20
-136.09737754640648
10
104.11589680462414
20
-150.09737754640631
10
90.115896804624327
20
-150.09737754640631
10
90.115896804624356
20
-136.09737754640648
0
LWPOLYLINE
5
186
100
AcDbEntity
8
0
100
AcDbPolyline
90
4
70
1
43
0.0
10
90.115896804624327
20
-174.09737754640611
10
104.11589680462414
20
-174.09737754640605
10
104.11589680462411
20
-188.09737754640594
10
90.115896804624285
20
-188.09737754640594
0
LWPOLYLINE
5
187
100
AcDbEntity
8
0
100
AcDbPolyline
90
4
70
1
43
0.0
10
47.115896804624775
20
-162.09737754640616
10
47.115896804624775
20
-176.09737754640602
10
33.115896804624924
20
-176.09737754640599
10
33.115896804624924
20
-162.09737754640614
0
LWPOLYLINE
5
188
100
AcDbEntity
8
0
100
AcDbPolyline
90
4
70
1
43
0.0
10
123.11589680462396
20
-153.09737754640631
10
123.11589680462396
20
-167.09737754640614
10
109.11589680462407
20
-167.09737754640614
10
109.11589680462407
20
-153.09737754640628
0
CIRCLE
5
189
100
AcDbEntity
8
0
100
AcDbCircle
10
115.01589680462401
20
-192.09737754640594
30
0
40
1.1000000000000001
210
0
220
0
230
1
0
LWPOLYLINE
5
190
100
AcDbEntity
8
0
100
AcDbPolyline
90
4
70
1
43
0.0
10
123.11589680462396
20
-186.09737754640599
10
109.11589680462407
20
-186.09737754640594
10
109.11589680462407
20
-172.09737754640611
10
123.11589680462396
20
-172.09737754640614
0
CIRCLE
5
191
100
AcDbEntity
8
0
100
AcDbCircle
10
115.01589680462408
20
-125.89737754640659
30
0
40
1.1000000000000001
210
0
220
0
230
1
0
CIRCLE
5
192
100
AcDbEntity
8
0
100
AcDbCircle
10
128.11589680462387
20
-184.09737754640594
30
0
40
1.1000000000000001
210
0
220
0
230
1
0
CIRCLE
5
193
100
AcDbEntity
8
0
100
AcDbCircle
10
45.515896804624759
20
-179.69737754640596
30
0
40
1.1000000000000001
210
0
220
0
230
1
0
ENDSEC
0
SECTION
2
OBJECTS
0
DICTIONARY
5
C
100
AcDbDictionary
3
ACAD_GROUP
350
D
3
ACAD_MLINESTYLE
350
17
0
DICTIONARY
5
D
100
AcDbDictionary
0
DICTIONARY
5
1A
330
C
100
AcDbDictionary
0
DICTIONARY
5
17
100
AcDbDictionary
0
ENDSEC
0
EOF
