0
SECTION
2
HEADER
9
$INSUNITS
70
4
9
$ACADVER
1
AC1014
9
$HANDSEED
5
FFFF
0
ENDSEC
0
SECTION
2
TABLES
0
TABLE
2
VPORT
5
8
100
AcDbSymbolTable
0
ENDTAB
0
TABLE
2
LTYPE
5
5
100
AcDbSymbolTable
0
LTYPE
5
14
100
AcDbSymbolTableRecord
100
AcDbLinetypeTableRecord
2
BYBLOCK
70
0
0
LTYPE
5
15
100
AcDbSymbolTableRecord
100
AcDbLinetypeTableRecord
2
BYLAYER
70
0
0
ENDTAB
0
TABLE
2
LAYER
5
2
100
AcDbSymbolTable
70
2
0
LAYER
5
50
100
AcDbSymbolTableRecord
100
AcDbLayerTableRecord
2
0
70
0
6
CONTINUOUS
0
ENDTAB
0
TABLE
2
STYLE
5
3
100
AcDbSymbolTable
70
1
0
STYLE
5
11
100
AcDbSymbolTableRecord
100
AcDbTextStyleTableRecord
2
STANDARD
70
0
0
ENDTAB
0
TABLE
2
VIEW
5
6
100
AcDbSymbolTable
70
0
0
ENDTAB
0
TABLE
2
UCS
5
7
100
AcDbSymbolTable
70
0
0
ENDTAB
0
TABLE
2
APPID
5
9
100
AcDbSymbolTable
70
2
0
APPID
5
12
100
AcDbSymbolTableRecord
100
AcDbRegAppTableRecord
2
ACAD
70
0
0
ENDTAB
0
TABLE
2
DIMSTYLE
5
A
100
AcDbSymbolTable
70
1
0
ENDTAB
0
TABLE
2
BLOCK_RECORD
5
1
100
AcDbSymbolTable
70
1
0
BLOCK_RECORD
5
1F
100
AcDbSymbolTableRecord
100
AcDbBlockTableRecord
2
*MODEL_SPACE
0
BLOCK_RECORD
5
1B
100
AcDbSymbolTableRecord
100
AcDbBlockTableRecord
2
*PAPER_SPACE
0
ENDTAB
0
ENDSEC
0
SECTION
2
BLOCKS
0
BLOCK
5
20
100
AcDbEntity
100
AcDbBlockBegin
2
*MODEL_SPACE
0
ENDBLK
5
21
100
AcDbEntity
100
AcDbBlockEnd
0
BLOCK
5
1C
100
AcDbEntity
100
AcDbBlockBegin
2
*PAPER_SPACE
0
ENDBLK
5
1D
100
AcDbEntity
100
AcDbBlockEnd
0
ENDSEC
0
SECTION
2
ENTITIES
0
LWPOLYLINE
5
100
100
AcDbEntity
8
0
100
AcDbPolyline
90
4
70
1
43
0.0
10
93.5
20
-95
10
93.5
20
-81
10
107.5
20
-81
10
107.5
20
-95
0
LWPOLYLINE
5
101
100
AcDbEntity
8
0
100
AcDbPolyline
90
4
70
1
43
0.0
10
161.50000000000003
20
-93
10
147.5
20
-93
10
147.5
20
-79
10
161.50000000000003
20
-79
0
LWPOLYLINE
5
102
100
AcDbEntity
8
0
100
AcDbPolyline
90
4
70
1
43
0.0
10
125.5
20
-93
10
111.5
20
-93
10
111.5
20
-79
10
125.5
20
-79
0
CIRCLE
5
103
100
AcDbEntity
8
0
100
AcDbCircle
10
84.512500000000003
20
-74
30
0
40
5.0010000000000012
210
0
220
0
230
1
0
LWPOLYLINE
5
104
100
AcDbEntity
8
0
100
AcDbPolyline
90
4
70
1
43
0.0
10
125.5
20
-57
10
111.5
20
-57
10
111.5
20
-43
10
125.5
20
-43
0
LWPOLYLINE
5
105
100
AcDbEntity
8
0
100
AcDbPolyline
90
4
70
1
43
0.0
10
179.5
20
-91
10
179.5
20
-105
10
165.5
20
-105
10
165.5
20
-91
0
LWPOLYLINE
5
106
100
AcDbEntity
8
0
100
AcDbPolyline
90
4
70
1
43
0.0
10
107.5
20
-77
10
93.5
20
-77
10
93.5
20
-63.000000000000007
10
107.5
20
-63.000000000000007
0
LWPOLYLINE
5
107
100
AcDbEntity
8
0
100
AcDbPolyline
90
4
70
1
43
0.0
10
117.60899999999999
20
-112.97800000000001
10
103.822
20
-115.40900000000001
10
101.39100000000001
20
-101.62200000000001
10
115.17800000000001
20
-99.19080000000001
0
LWPOLYLINE
5
108
100
AcDbEntity
8
0
100
AcDbPolyline
90
4
70
1
43
0.0
10
93.5
20
-45
10
107.5
20
-45
10
107.5
20
-59
10
93.5
20
-59
0
CIRCLE
5
109
100
AcDbEntity
8
0
100
AcDbCircle
10
84.612499999999997
20
-84.500000000000014
30
0
40
1.1000000000000001
210
0
220
0
230
1
0
CIRCLE
5
110
100
AcDbEntity
8
0
100
AcDbCircle
10
84.682500000000005
20
-63.490000000000002
30
0
40
1.1000000000000001
210
0
220
0
230
1
0
LINE
5
111
100
AcDbEntity
8
0
100
AcDbLine
10
179.5
20
-55
30
0
11
179.5
21
-69
31
0
0
LINE
5
112
100
AcDbEntity
8
0
100
AcDbLine
10
179.5
20
-69
30
0
11
165.5
21
-69
31
0
0
LWPOLYLINE
5
113
100
AcDbEntity
8
0
100
AcDbPolyline
90
4
70
1
43
0.0
10
161.50000000000003
20
-75
10
147.5
20
-75
10
147.5
20
-61.000000000000007
10
161.50000000000003
20
-61.000000000000007
0
LWPOLYLINE
5
114
100
AcDbEntity
8
0
100
AcDbPolyline
90
4
70
1
43
0.0
10
85.316299999999998
20
-121.47200000000001
10
80.52800000000002
20
-108.31600000000002
10
93.683700000000002
20
-103.52800000000001
10
98.472000000000008
20
-116.684
0
LWPOLYLINE
5
115
100
AcDbEntity
8
0
100
AcDbPolyline
90
4
70
1
43
0.0
10
125.5
20
-75
10
111.5
20
-75
10
111.5
20
-61.000000000000007
10
125.5
20
-61.000000000000007
0
LWPOLYLINE
5
116
100
AcDbEntity
8
0
100
AcDbPolyline
90
4
70
1
43
0.0
10
124.63700000000001
20
-98.816500000000005
10
138.583
20
-100.03700000000002
10
137.363
20
-113.98299999999999
10
123.41700000000002
20
-112.76299999999999
0
LWPOLYLINE
5
117
100
AcDbEntity
8
0
100
AcDbPolyline
90
4
70
1
43
0.0
10
179.5
20
-87.000000000000014
10
165.5
20
-87.000000000000014
10
165.5
20
-73
10
179.5
20
-73
0
LWPOLYLINE
5
118
100
AcDbEntity
8
0
100
AcDbPolyline
90
4
70
1
43
0.0
10
147.5
20
-43
10
161.50000000000003
20
-43
10
161.50000000000003
20
-57
10
147.5
20
-57
0
LWPOLYLINE
5
119
100
AcDbEntity
8
0
100
AcDbPolyline
90
4
70
1
43
0.0
10
129.5
20
-52
10
129.5
20
-38
10
143.5
20
-38
10
143.5
20
-52
0
LWPOLYLINE
5
120
100
AcDbEntity
8
0
100
AcDbPolyline
90
4
70
1
43
0.0
10
129.5
20
-70
10
129.5
20
-56.000000000000007
10
143.5
20
-56.000000000000007
10
143.5
20
-70
0
LINE
5
121
100
AcDbEntity
8
0
100
AcDbLine
10
165.5
20
-55
30
0
11
179.5
21
-55
31
0
0
LWPOLYLINE
5
122
100
AcDbEntity
8
0
100
AcDbPolyline
90
4
70
1
43
0.0
10
129.5
20
-74
10
143.5
20
-74
10
143.5
20
-88
10
129.5
20
-88
0
LINE
5
123
100
AcDbEntity
8
0
100
AcDbLine
10
165.5
20
-69
30
0
11
165.5
21
-55
31
0
0
ARC
5
124
100
AcDbEntity
8
0
100
AcDbCircle
10
148.06884948942644
20
-74.108349456897869
30
0
40
41.138275929977823
210
0
220
-0
230
1
100
AcDbArc
50
27.677270527528549
51
92.186092925586081
0
LINE
5
125
100
AcDbEntity
8
0
100
AcDbLine
10
77.532916237994172
20
-33.000013773819028
30
0
11
146.49961914996078
21
-33.00001377381902
31
0
0
CIRCLE
5
126
100
AcDbEntity
8
0
100
AcDbCircle
10
97.599999999999994
20
-103.2
30
0
40
1.1000000000000001
210
0
220
0
230
1
0
ARC
5
127
100
AcDbEntity
8
0
100
AcDbCircle
10
77.532916237994172
20
-35.002643773819024
30
0
40
2.0026300000000008
210
0
220
-0
230
1
100
AcDbArc
50
90
51
148.27561608601675
0
ARC
5
128
100
AcDbEntity
8
0
100
AcDbCircle
10
126.08018625107252
20
-217.02383901817271
30
0
40
99.007241861917535
210
0
220
-0
230
1
100
AcDbArc
50
81.91778495248542
51
114.27746557748742
0
LINE
5
129
100
AcDbEntity
8
0
100
AcDbLine
10
184.5
20
-112.00000000000001
30
0
11
184.5
21
-55
31
0
0
CIRCLE
5
130
100
AcDbEntity
8
0
100
AcDbCircle
10
84.500000000000014
20
-37
30
0
40
1.1000000000000001
210
0
220
0
230
1
0
ARC
5
131
100
AcDbEntity
8
0
100
AcDbCircle
10
84.459344805998597
20
-123.3047309774127
30
0
40
3.5858575580953458
210
0
220
0
230
1
100
AcDbArc
50
205.7355773362099
51
284.75770408435415
0
ARC
5
132
100
AcDbEntity
8
0
100
AcDbCircle
10
146.7191260516567
20
-16.76803950902184
30
0
40
102.45252917940013
210
0
220
0
230
1
100
AcDbArc
50
266.23968334230136
51
291.63945194462917
0
CIRCLE
5
133
100
AcDbEntity
8
0
100
AcDbCircle
10
97.599999999999994
20
-37
30
0
40
1.1000000000000001
210
0
220
0
230
1
0
CIRCLE
5
134
100
AcDbEntity
8
0
100
AcDbCircle
10
167.10000000000002
20
-49.400000000000006
30
0
40
1.1000000000000001
210
0
220
0
230
1
0
CIRCLE
5
135
100
AcDbEntity
8
0
100
AcDbCircle
10
167.10000000000002
20
-110.60000000000001
30
0
40
1.1000000000000001
210
0
220
0
230
1
0
ARC
5
136
100
AcDbEntity
8
0
100
AcDbCircle
10
84.500000000000014
20
-74
30
0
40
4.999999999999992
210
0
220
0
230
1
100
AcDbArc
50
-138.13254779848245
51
90
0
LINE
5
137
100
AcDbEntity
8
0
100
AcDbLine
10
81.229177170444615
20
-124.86177672920331
30
0
11
75.82950438837436
21
-110.02601140102493
31
0
0
CIRCLE
5
138
100
AcDbEntity
8
0
100
AcDbCircle
10
84.500000000000014
20
-103.2
30
0
40
1.1000000000000001
210
0
220
0
230
1
0
LINE
5
139
100
AcDbEntity
8
0
100
AcDbLine
10
75.829504388374346
20
-33.949593448585333
30
0
11
75.82950438837436
21
-110.02601140102493
31
0
0
LWPOLYLINE
5
140
100
AcDbEntity
8
0
100
AcDbPolyline
90
4
70
1
43
0.0
10
143.5
20
-98
10
161
20
-98
10
161
20
-115.50000000000003
10
143.5
20
-115.50000000000003
0
LWPOLYLINE
5
141
100
AcDbEntity
8
0
100
AcDbPolyline
90
4
70
1
43
0.0
10
64.215271519116754
20
-26.271443317257379
10
464.21527151911675
20
-26.271443317257379
10
464.21527151911675
20
-226.27144331725736
10
64.215271519116754
20
-226.27144331725736
0
LWPOLYLINE
5
142
100
AcDbEntity
8
0
100
AcDbPolyline
90
4
70
1
43
0.0
10
253.41700000000003
20
-112.76299999999999
10
254.63700000000003
20
-98.816500000000005
10
268.58299999999997
20
-100.03700000000002
10
267.363
20
-113.98299999999999
0
LWPOLYLINE
5
143
100
AcDbEntity
8
0
100
AcDbPolyline
90
4
70
1
43
0.0
10
259.5
20
-56.000000000000007
10
273.5
20
-56.000000000000007
10
273.5
20
-70
10
259.5
20
-70
0
LWPOLYLINE
5
144
100
AcDbEntity
8
0
100
AcDbPolyline
90
4
70
1
43
0.0
10
259.5
20
-38
10
273.5
20
-38
10
273.5
20
-52
10
259.5
20
-52
0
LWPOLYLINE
5
145
100
AcDbEntity
8
0
100
AcDbPolyline
90
4
70
1
43
0.0
10
259.5
20
-74
10
273.5
20
-74
10
273.5
20
-88
10
259.5
20
-88
0
LWPOLYLINE
5
146
100
AcDbEntity
8
0
100
AcDbPolyline
90
4
70
1
43
0.0
10
237.5
20
-95
10
223.5
20
-95
10
223.5
20
-81
10
237.5
20
-81
0
LWPOLYLINE
5
147
100
AcDbEntity
8
0
100
AcDbPolyline
90
4
70
1
43
0.0
10
215.31630000000001
20
-121.47200000000001
10
210.52800000000002
20
-108.31600000000002
10
223.68369999999999
20
-103.52800000000001
10
228.47200000000001
20
-116.684
0
ARC
5
148
100
AcDbEntity
8
0
100
AcDbCircle
10
256.08018625107252
20
-217.02383901817271
30
0
40
99.007241861917535
210
0
220
-0
230
1
100
AcDbArc
50
81.91778495248542
51
114.27746557748742
0
LWPOLYLINE
5
149
100
AcDbEntity
8
0
100
AcDbPolyline
90
4
70
1
43
0.0
10
247.60899999999998
20
-112.97800000000001
10
233.822
20
-115.40900000000001
10
231.39099999999999
20
-101.62200000000001
10
245.178
20
-99.19080000000001
0
LWPOLYLINE
5
150
100
AcDbEntity
8
0
100
AcDbPolyline
90
4
70
1
43
0.0
10
255.5
20
-61.000000000000007
10
255.5
20
-75
10
241.5
20
-75
10
241.5
20
-61.000000000000007
0
ARC
5
151
100
AcDbEntity
8
0
100
AcDbCircle
10
278.06884948942644
20
-74.108349456897869
30
0
40
41.138275929977837
210
0
220
-0
230
1
100
AcDbArc
50
27.677270527528549
51
92.186092925586081
0
LWPOLYLINE
5
152
100
AcDbEntity
8
0
100
AcDbPolyline
90
4
70
1
43
0.0
10
291.5
20
-93
10
277.5
20
-93
10
277.5
20
-79
10
291.5
20
-79
0
LWPOLYLINE
5
153
100
AcDbEntity
8
0
100
AcDbPolyline
90
4
70
1
43
0.0
10
277.5
20
-57
10
277.5
20
-43
10
291.5
20
-43
10
291.5
20
-57
0
LWPOLYLINE
5
154
100
AcDbEntity
8
0
100
AcDbPolyline
90
4
70
1
43
0.0
10
255.5
20
-43
10
255.5
20
-57
10
241.5
20
-57
10
241.5
20
-43
0
LWPOLYLINE
5
155
100
AcDbEntity
8
0
100
AcDbPolyline
90
4
70
1
43
0.0
10
223.5
20
-59
10
223.5
20
-45
10
237.5
20
-45
10
237.5
20
-59
0
LINE
5
156
100
AcDbEntity
8
0
100
AcDbLine
10
207.53291623799416
20
-33.000013773819028
30
0
11
276.49961914996078
21
-33.00001377381902
31
0
0
LWPOLYLINE
5
157
100
AcDbEntity
8
0
100
AcDbPolyline
90
4
70
1
43
0.0
10
241.5
20
-79
10
255.5
20
-79
10
255.5
20
-93
10
241.5
20
-93
0
CIRCLE
5
158
100
AcDbEntity
8
0
100
AcDbCircle
10
214.50000000000003
20
-37
30
0
40
1.1000000000000001
210
0
220
0
230
1
0
CIRCLE
5
159
100
AcDbEntity
8
0
100
AcDbCircle
10
227.59999999999997
20
-37
30
0
40
1.1000000000000001
210
0
220
0
230
1
0
LWPOLYLINE
5
160
100
AcDbEntity
8
0
100
AcDbPolyline
90
4
70
1
43
0.0
10
223.5
20
-77
10
223.5
20
-63.000000000000007
10
237.5
20
-63.000000000000007
10
237.5
20
-77
0
LINE
5
161
100
AcDbEntity
8
0
100
AcDbLine
10
205.82950438837435
20
-33.949593448585333
30
0
11
205.82950438837435
21
-110.02601140102493
31
0
0
LWPOLYLINE
5
162
100
AcDbEntity
8
0
100
AcDbPolyline
90
4
70
1
43
0.0
10
273.5
20
-98
10
291
20
-98
10
291
20
-115.50000000000003
10
273.5
20
-115.50000000000003
0
ARC
5
163
100
AcDbEntity
8
0
100
AcDbCircle
10
276.7191260516567
20
-16.76803950902184
30
0
40
102.45252917940013
210
0
220
0
230
1
100
AcDbArc
50
266.23968334230136
51
291.63945194462917
0
CIRCLE
5
164
100
AcDbEntity
8
0
100
AcDbCircle
10
214.51250000000002
20
-74
30
0
40
5.0010000000000012
210
0
220
0
230
1
0
ARC
5
165
100
AcDbEntity
8
0
100
AcDbCircle
10
207.53291623799416
20
-35.002643773819024
30
0
40
2.0026300000000008
210
0
220
-0
230
1
100
AcDbArc
50
90
51
148.27561608601656
0
LWPOLYLINE
5
166
100
AcDbEntity
8
0
100
AcDbPolyline
90
4
70
1
43
0.0
10
277.5
20
-75
10
277.5
20
-61.000000000000007
10
291.5
20
-61.000000000000007
10
291.5
20
-75
0
CIRCLE
5
167
100
AcDbEntity
8
0
100
AcDbCircle
10
214.6825
20
-63.490000000000002
30
0
40
1.1000000000000001
210
0
220
0
230
1
0
ARC
5
168
100
AcDbEntity
8
0
100
AcDbCircle
10
214.50000000000003
20
-74
30
0
40
5.0000000000000187
210
0
220
0
230
1
100
AcDbArc
50
-138.13254779848279
51
90
0
LINE
5
169
100
AcDbEntity
8
0
100
AcDbLine
10
309.5
20
-69
30
0
11
295.5
21
-69
31
0
0
LINE
5
170
100
AcDbEntity
8
0
100
AcDbLine
10
309.5
20
-55
30
0
11
309.5
21
-69
31
0
0
LINE
5
171
100
AcDbEntity
8
0
100
AcDbLine
10
314.5
20
-112.00000000000001
30
0
11
314.5
21
-55
31
0
0
LWPOLYLINE
5
172
100
AcDbEntity
8
0
100
AcDbPolyline
90
4
70
1
43
0.0
10
309.5
20
-91
10
309.5
20
-105
10
295.5
20
-105
10
295.5
20
-91
0
LWPOLYLINE
5
173
100
AcDbEntity
8
0
100
AcDbPolyline
90
4
70
1
43
0.0
10
295.5
20
-73
10
309.5
20
-73
10
309.5
20
-87.000000000000014
10
295.5
20
-87.000000000000014
0
CIRCLE
5
174
100
AcDbEntity
8
0
100
AcDbCircle
10
297.10000000000002
20
-110.60000000000001
30
0
40
1.1000000000000001
210
0
220
0
230
1
0
LINE
5
175
100
AcDbEntity
8
0
100
AcDbLine
10
295.5
20
-55
30
0
11
309.5
21
-55
31
0
0
CIRCLE
5
176
100
AcDbEntity
8
0
100
AcDbCircle
10
297.10000000000002
20
-49.400000000000006
30
0
40
1.1000000000000001
210
0
220
0
230
1
0
LINE
5
177
100
AcDbEntity
8
0
100
AcDbLine
10
295.5
20
-69
30
0
11
295.5
21
-55
31
0
0
ARC
5
178
100
AcDbEntity
8
0
100
AcDbCircle
10
214.4593448059986
20
-123.3047309774127
30
0
40
3.5858575580953458
210
0
220
0
230
1
100
AcDbArc
50
205.7355773362099
51
284.75770408435415
0
LINE
5
179
100
AcDbEntity
8
0
100
AcDbLine
10
211.22917717044461
20
-124.86177672920331
30
0
11
205.82950438837435
21
-110.02601140102493
31
0
0
CIRCLE
5
180
100
AcDbEntity
8
0
100
AcDbCircle
10
227.59999999999997
20
-103.2
30
0
40
1.1000000000000001
210
0
220
0
230
1
0
CIRCLE
5
181
100
AcDbEntity
8
0
100
AcDbCircle
10
214.61250000000001
20
-84.500000000000014
30
0
40
1.1000000000000001
210
0
220
0
230
1
0
CIRCLE
5
182
100
AcDbEntity
8
0
100
AcDbCircle
10
214.50000000000003
20
-103.2
30
0
40
1.1000000000000001
210
0
220
0
230
1
0
LWPOLYLINE
5
183
100
AcDbEntity
8
0
100
AcDbPolyline
90
4
70
1
43
0.0
10
367.5
20
-81
10
367.5
20
-95
10
353.5
20
-95
10
353.5
20
-81
0
CIRCLE
5
184
100
AcDbEntity
8
0
100
AcDbCircle
10
427.10000000000002
20
-110.60000000000001
30
0
40
1.1000000000000001
210
0
220
0
230
1
0
LWPOLYLINE
5
185
100
AcDbEntity
8
0
100
AcDbPolyline
90
4
70
1
43
0.0
10
403.5
20
-70
10
389.5
20
-70
10
389.5
20
-56.000000000000007
10
403.5
20
-56.000000000000007
0
CIRCLE
5
186
100
AcDbEntity
8
0
100
AcDbCircle
10
357.59999999999997
20
-37
30
0
40
1.1000000000000001
210
0
220
0
230
1
0
LWPOLYLINE
5
187
100
AcDbEntity
8
0
100
AcDbPolyline
90
4
70
1
43
0.0
10
407.5
20
-61.000000000000007
10
421.50000000000006
20
-61.000000000000007
10
421.50000000000006
20
-75
10
407.5
20
-75
0
LINE
5
188
100
AcDbEntity
8
0
100
AcDbLine
10
425.5
20
-55
30
0
11
439.5
21
-55
31
0
0
LWPOLYLINE
5
189
100
AcDbEntity
8
0
100
AcDbPolyline
90
4
70
1
43
0.0
10
403.5
20
-52
10
389.5
20
-52
10
389.5
20
-38
10
403.5
20
-38
0
LWPOLYLINE
5
190
100
AcDbEntity
8
0
100
AcDbPolyline
90
4
70
1
43
0.0
10
407.5
20
-57
10
407.5
20
-43
10
421.50000000000006
20
-43
10
421.50000000000006
20
-57
0
LINE
5
191
100
AcDbEntity
8
0
100
AcDbLine
10
335.82950438837435
20
-33.949593448585333
30
0
11
335.82950438837435
21
-110.02601140102493
31
0
0
CIRCLE
5
192
100
AcDbEntity
8
0
100
AcDbCircle
10
427.10000000000002
20
-49.400000000000006
30
0
40
1.1000000000000001
210
0
220
0
230
1
0
LWPOLYLINE
5
193
100
AcDbEntity
8
0
100
AcDbPolyline
90
4
70
1
43
0.0
10
385.5
20
-61.000000000000007
10
385.5
20
-75
10
371.5
20
-75
10
371.5
20
-61.000000000000007
0
LWPOLYLINE
5
194
100
AcDbEntity
8
0
100
AcDbPolyline
90
4
70
1
43
0.0
10
385.5
20
-57
10
371.5
20
-57
10
371.5
20
-43
10
385.5
20
-43
0
LINE
5
195
100
AcDbEntity
8
0
100
AcDbLine
10
439.5
20
-69
30
0
11
425.5
21
-69
31
0
0
ARC
5
196
100
AcDbEntity
8
0
100
AcDbCircle
10
408.06884948942644
20
-74.108349456897869
30
0
40
41.138275929977837
210
0
220
-0
230
1
100
AcDbArc
50
27.677270527528549
51
92.186092925586081
0
LWPOLYLINE
5
197
100
AcDbEntity
8
0
100
AcDbPolyline
90
4
70
1
43
0.0
10
367.5
20
-63.000000000000007
10
367.5
20
-77
10
353.5
20
-77
10
353.5
20
-63.000000000000007
0
LINE
5
198
100
AcDbEntity
8
0
100
AcDbLine
10
439.5
20
-55
30
0
11
439.5
21
-69
31
0
0
LWPOLYLINE
5
199
100
AcDbEntity
8
0
100
AcDbPolyline
90
4
70
1
43
0.0
10
398.58299999999997
20
-100.03700000000002
10
397.363
20
-113.98299999999999
10
383.41700000000003
20
-112.76299999999999
10
384.63700000000006
20
-98.816500000000005
0
LWPOLYLINE
5
200
100
AcDbEntity
8
0
100
AcDbPolyline
90
4
70
1
43
0.0
10
385.5
20
-93
10
371.5
20
-93
10
371.5
20
-79
10
385.5
20
-79
0
LWPOLYLINE
5
201
100
AcDbEntity
8
0
100
AcDbPolyline
90
4
70
1
43
0.0
10
425.5
20
-105
10
425.5
20
-91
10
439.5
20
-91
10
439.5
20
-105
0
LWPOLYLINE
5
202
100
AcDbEntity
8
0
100
AcDbPolyline
90
4
70
1
43
0.0
10
421
20
-98
10
421
20
-115.50000000000003
10
403.5
20
-115.50000000000003
10
403.5
20
-98
0
ARC
5
203
100
AcDbEntity
8
0
100
AcDbCircle
10
406.71912605165676
20
-16.76803950902184
30
0
40
102.45252917940013
210
0
220
0
230
1
100
AcDbArc
50
266.23968334230136
51
291.63945194462917
0
LWPOLYLINE
5
204
100
AcDbEntity
8
0
100
AcDbPolyline
90
4
70
1
43
0.0
10
403.5
20
-74
10
403.5
20
-88
10
389.5
20
-88
10
389.5
20
-74
0
LWPOLYLINE
5
205
100
AcDbEntity
8
0
100
AcDbPolyline
90
4
70
1
43
0.0
10
425.5
20
-73
10
439.5
20
-73
10
439.5
20
-87.000000000000014
10
425.5
20
-87.000000000000014
0
LINE
5
206
100
AcDbEntity
8
0
100
AcDbLine
10
425.5
20
-69
30
0
11
425.5
21
-55
31
0
0
LINE
5
207
100
AcDbEntity
8
0
100
AcDbLine
10
444.5
20
-112.00000000000001
30
0
11
444.5
21
-55
31
0
0
LWPOLYLINE
5
208
100
AcDbEntity
8
0
100
AcDbPolyline
90
4
70
1
43
0.0
10
367.5
20
-45
10
367.5
20
-59
10
353.5
20
-59
10
353.5
20
-45
0
LWPOLYLINE
5
209
100
AcDbEntity
8
0
100
AcDbPolyline
90
4
70
1
43
0.0
10
363.822
20
-115.40900000000001
10
361.39099999999996
20
-101.62200000000001
10
375.178
20
-99.19080000000001
10
377.60899999999998
20
-112.97800000000001
0
LWPOLYLINE
5
210
100
AcDbEntity
8
0
100
AcDbPolyline
90
4
70
1
43
0.0
10
353.68369999999999
20
-103.52800000000001
10
358.47199999999998
20
-116.684
10
345.31630000000001
20
-121.47200000000001
10
340.52800000000002
20
-108.31600000000002
0
LWPOLYLINE
5
211
100
AcDbEntity
8
0
100
AcDbPolyline
90
4
70
1
43
0.0
10
407.5
20
-79
10
421.50000000000006
20
-79
10
421.50000000000006
20
-93
10
407.5
20
-93
0
CIRCLE
5
212
100
AcDbEntity
8
0
100
AcDbCircle
10
357.59999999999997
20
-103.2
30
0
40
1.1000000000000001
210
0
220
0
230
1
0
LINE
5
213
100
AcDbEntity
8
0
100
AcDbLine
10
341.22917717044459
20
-124.86177672920331
30
0
11
335.82950438837435
21
-110.02601140102493
31
0
0
CIRCLE
5
214
100
AcDbEntity
8
0
100
AcDbCircle
10
344.5
20
-103.2
30
0
40
1.1000000000000001
210
0
220
0
230
1
0
CIRCLE
5
215
100
AcDbEntity
8
0
100
AcDbCircle
10
344.61250000000001
20
-84.500000000000014
30
0
40
1.1000000000000001
210
0
220
0
230
1
0
ARC
5
216
100
AcDbEntity
8
0
100
AcDbCircle
10
386.08018625107252
20
-217.02383901817271
30
0
40
99.007241861917535
210
0
220
-0
230
1
100
AcDbArc
50
81.91778495248542
51
114.27746557748742
0
ARC
5
217
100
AcDbEntity
8
0
100
AcDbCircle
10
344.45934480599863
20
-123.3047309774127
30
0
40
3.5858575580953778
210
0
220
0
230
1
100
AcDbArc
50
205.73557733620956
51
284.75770408435454
0
CIRCLE
5
218
100
AcDbEntity
8
0
100
AcDbCircle
10
344.6825
20
-63.490000000000002
30
0
40
1.1000000000000001
210
0
220
0
230
1
0
LINE
5
219
100
AcDbEntity
8
0
100
AcDbLine
10
337.53291623799413
20
-33.000013773819028
30
0
11
406.49961914996078
21
-33.00001377381902
31
0
0
ARC
5
220
100
AcDbEntity
8
0
100
AcDbCircle
10
344.5
20
-74
30
0
40
5.0000000000000187
210
0
220
0
230
1
100
AcDbArc
50
-138.13254779848259
51
90
0
CIRCLE
5
221
100
AcDbEntity
8
0
100
AcDbCircle
10
344.5
20
-37
30
0
40
1.1000000000000001
210
0
220
0
230
1
0
CIRCLE
5
222
100
AcDbEntity
8
0
100
AcDbCircle
10
344.51250000000005
20
-74
30
0
40
5.0010000000000012
210
0
220
0
230
1
0
ARC
5
223
100
AcDbEntity
8
0
100
AcDbCircle
10
337.53291623799413
20
-35.002643773819024
30
0
40
2.0026300000000008
210
0
220
-0
230
1
100
AcDbArc
50
90
51
148.2756160860161
0
LWPOLYLINE
5
224
100
AcDbEntity
8
0
100
AcDbPolyline
90
4
70
1
43
0.0
10
340.52800000000002
20
-108.31600000000002
10
353.68369999999999
20
-103.52800000000001
10
358.47199999999998
20
-116.684
10
345.31630000000001
20
-121.47200000000001
0
CIRCLE
5
225
100
AcDbEntity
8
0
100
AcDbCircle
10
344.61250000000001
20
-84.500000000000014
30
0
40
1.1000000000000001
210
0
220
0
230
1
0
LWPOLYLINE
5
226
100
AcDbEntity
8
0
100
AcDbPolyline
90
4
70
1
43
0.0
10
277.5
20
-79
10
291.5
20
-79
10
291.5
20
-93
10
277.5
20
-93
0
CIRCLE
5
227
100
AcDbEntity
8
0
100
AcDbCircle
10
344.5
20
-103.2
30
0
40
1.1000000000000001
210
0
220
0
230
1
0
LWPOLYLINE
5
228
100
AcDbEntity
8
0
100
AcDbPolyline
90
4
70
1
43
0.0
10
295.5
20
-91
10
309.5
20
-91
10
309.5
20
-105
10
295.5
20
-105
0
CIRCLE
5
229
100
AcDbEntity
8
0
100
AcDbCircle
10
357.59999999999997
20
-103.2
30
0
40
1.1000000000000001
210
0
220
0
230
1
0
LWPOLYLINE
5
230
100
AcDbEntity
8
0
100
AcDbPolyline
90
4
70
1
43
0.0
10
93.5
20
-45
10
107.5
20
-45
10
107.5
20
-59
10
93.5
20
-59
0
LWPOLYLINE
5
231
100
AcDbEntity
8
0
100
AcDbPolyline
90
4
70
1
43
0.0
10
93.5
20
-81
10
107.5
20
-81
10
107.5
20
-95
10
93.5
20
-95
0
CIRCLE
5
232
100
AcDbEntity
8
0
100
AcDbCircle
10
84.512500000000003
20
-74
30
0
40
5.0010000000000012
210
0
220
0
230
1
0
LWPOLYLINE
5
233
100
AcDbEntity
8
0
100
AcDbPolyline
90
4
70
1
43
0.0
10
143.5
20
-70
10
129.5
20
-70
10
129.5
20
-56.000000000000007
10
143.5
20
-56.000000000000007
0
LWPOLYLINE
5
234
100
AcDbEntity
8
0
100
AcDbPolyline
90
4
70
1
43
0.0
10
93.683700000000002
20
-103.52800000000001
10
98.472000000000008
20
-116.684
10
85.316299999999998
20
-121.47200000000001
10
80.52800000000002
20
-108.31600000000002
0
LWPOLYLINE
5
235
100
AcDbEntity
8
0
100
AcDbPolyline
90
4
70
1
43
0.0
10
129.5
20
-38
10
143.5
20
-38
10
143.5
20
-52
10
129.5
20
-52
0
LWPOLYLINE
5
236
100
AcDbEntity
8
0
100
AcDbPolyline
90
4
70
1
43
0.0
10
111.5
20
-57
10
111.5
20
-43
10
125.5
20
-43
10
125.5
20
-57
0
LWPOLYLINE
5
237
100
AcDbEntity
8
0
100
AcDbPolyline
90
4
70
1
43
0.0
10
147.5
20
-75
10
147.5
20
-61.000000000000007
10
161.50000000000003
20
-61.000000000000007
10
161.50000000000003
20
-75
0
ARC
5
238
100
AcDbEntity
8
0
100
AcDbCircle
10
84.500000000000014
20
-74
30
0
40
4.999999999999992
210
0
220
0
230
1
100
AcDbArc
50
-138.13254779848245
51
90
0
LWPOLYLINE
5
239
100
AcDbEntity
8
0
100
AcDbPolyline
90
4
70
1
43
0.0
10
111.5
20
-75
10
111.5
20
-61.000000000000007
10
125.5
20
-61.000000000000007
10
125.5
20
-75
0
LWPOLYLINE
5
240
100
AcDbEntity
8
0
100
AcDbPolyline
90
4
70
1
43
0.0
10
93.5
20
-63.000000000000007
10
107.5
20
-63.000000000000007
10
107.5
20
-77
10
93.5
20
-77
0
LWPOLYLINE
5
241
100
AcDbEntity
8
0
100
AcDbPolyline
90
4
70
1
43
0.0
10
103.822
20
-115.40900000000001
10
101.39100000000001
20
-101.62200000000001
10
115.17800000000001
20
-99.19080000000001
10
117.60899999999999
20
-112.97800000000001
0
ARC
5
242
100
AcDbEntity
8
0
100
AcDbCircle
10
77.532916237994172
20
-35.002643773819024
30
0
40
2.0026300000000008
210
0
220
-0
230
1
100
AcDbArc
50
90
51
148.27561608601675
0
CIRCLE
5
243
100
AcDbEntity
8
0
100
AcDbCircle
10
97.599999999999994
20
-37
30
0
40
1.1000000000000001
210
0
220
0
230
1
0
CIRCLE
5
244
100
AcDbEntity
8
0
100
AcDbCircle
10
84.682500000000005
20
-63.490000000000002
30
0
40
1.1000000000000001
210
0
220
0
230
1
0
CIRCLE
5
245
100
AcDbEntity
8
0
100
AcDbCircle
10
84.500000000000014
20
-37
30
0
40
1.1000000000000001
210
0
220
0
230
1
0
CIRCLE
5
246
100
AcDbEntity
8
0
100
AcDbCircle
10
227.59999999999997
20
-103.2
30
0
40
1.1000000000000001
210
0
220
0
230
1
0
LWPOLYLINE
5
247
100
AcDbEntity
8
0
100
AcDbPolyline
90
4
70
1
43
0.0
10
259.5
20
-38
10
273.5
20
-38
10
273.5
20
-52
10
259.5
20
-52
0
CIRCLE
5
248
100
AcDbEntity
8
0
100
AcDbCircle
10
214.50000000000003
20
-103.2
30
0
40
1.1000000000000001
210
0
220
0
230
1
0
LWPOLYLINE
5
249
100
AcDbEntity
8
0
100
AcDbPolyline
90
4
70
1
43
0.0
10
291.5
20
-43
10
291.5
20
-57
10
277.5
20
-57
10
277.5
20
-43
0
LINE
5
250
100
AcDbEntity
8
0
100
AcDbLine
10
309.5
20
-69
30
0
11
295.5
21
-69
31
0
0
LWPOLYLINE
5
251
100
AcDbEntity
8
0
100
AcDbPolyline
90
4
70
1
43
0.0
10
277.5
20
-75
10
277.5
20
-61.000000000000007
10
291.5
20
-61.000000000000007
10
291.5
20
-75
0
LWPOLYLINE
5
252
100
AcDbEntity
8
0
100
AcDbPolyline
90
4
70
1
43
0.0
10
241.5
20
-57
10
241.5
20
-43
10
255.5
20
-43
10
255.5
20
-57
0
LWPOLYLINE
5
253
100
AcDbEntity
8
0
100
AcDbPolyline
90
4
70
1
43
0.0
10
223.68369999999999
20
-103.52800000000001
10
228.47200000000001
20
-116.684
10
215.31630000000001
20
-121.47200000000001
10
210.52800000000002
20
-108.31600000000002
0
LWPOLYLINE
5
254
100
AcDbEntity
8
0
100
AcDbPolyline
90
4
70
1
43
0.0
10
241.5
20
-61.000000000000007
10
255.5
20
-61.000000000000007
10
255.5
20
-75
10
241.5
20
-75
0
LWPOLYLINE
5
255
100
AcDbEntity
8
0
100
AcDbPolyline
90
4
70
1
43
0.0
10
165.5
20
-105
10
165.5
20
-91
10
179.5
20
-91
10
179.5
20
-105
0
LWPOLYLINE
5
256
100
AcDbEntity
8
0
100
AcDbPolyline
90
4
70
1
43
0.0
10
237.5
20
-45
10
237.5
20
-59
10
223.5
20
-59
10
223.5
20
-45
0
LWPOLYLINE
5
257
100
AcDbEntity
8
0
100
AcDbPolyline
90
4
70
1
43
0.0
10
295.5
20
-73
10
309.5
20
-73
10
309.5
20
-87.000000000000014
10
295.5
20
-87.000000000000014
0
LINE
5
258
100
AcDbEntity
8
0
100
AcDbLine
10
295.5
20
-55
30
0
11
309.5
21
-55
31
0
0
ARC
5
259
100
AcDbEntity
8
0
100
AcDbCircle
10
256.08018625107252
20
-217.02383901817271
30
0
40
99.007241861917535
210
0
220
-0
230
1
100
AcDbArc
50
81.91778495248542
51
114.27746557748742
0
LWPOLYLINE
5
260
100
AcDbEntity
8
0
100
AcDbPolyline
90
4
70
1
43
0.0
10
223.5
20
-81
10
237.5
20
-81
10
237.5
20
-95
10
223.5
20
-95
0
LWPOLYLINE
5
261
100
AcDbEntity
8
0
100
AcDbPolyline
90
4
70
1
43
0.0
10
273.5
20
-56.000000000000007
10
273.5
20
-70
10
259.5
20
-70
10
259.5
20
-56.000000000000007
0
LWPOLYLINE
5
262
100
AcDbEntity
8
0
100
AcDbPolyline
90
4
70
1
43
0.0
10
384.63700000000006
20
-98.816500000000005
10
398.58299999999997
20
-100.03700000000002
10
397.363
20
-113.98299999999999
10
383.41700000000003
20
-112.76299999999999
0
ARC
5
263
100
AcDbEntity
8
0
100
AcDbCircle
10
406.71912605165676
20
-16.76803950902184
30
0
40
102.45252917940013
210
0
220
0
230
1
100
AcDbArc
50
266.23968334230136
51
291.63945194462917
0
LWPOLYLINE
5
264
100
AcDbEntity
8
0
100
AcDbPolyline
90
4
70
1
43
0.0
10
439.5
20
-91
10
439.5
20
-105
10
425.5
20
-105
10
425.5
20
-91
0
LWPOLYLINE
5
265
100
AcDbEntity
8
0
100
AcDbPolyline
90
4
70
1
43
0.0
10
439.5
20
-87.000000000000014
10
425.5
20
-87.000000000000014
10
425.5
20
-73
10
439.5
20
-73
0
LWPOLYLINE
5
266
100
AcDbEntity
8
0
100
AcDbPolyline
90
4
70
1
43
0.0
10
421.50000000000006
20
-93
10
407.5
20
-93
10
407.5
20
-79
10
421.50000000000006
20
-79
0
LWPOLYLINE
5
267
100
AcDbEntity
8
0
100
AcDbPolyline
90
4
70
1
43
0.0
10
385.5
20
-93
10
371.5
20
-93
10
371.5
20
-79
10
385.5
20
-79
0
LWPOLYLINE
5
268
100
AcDbEntity
8
0
100
AcDbPolyline
90
4
70
1
43
0.0
10
421
20
-98
10
421
20
-115.50000000000003
10
403.5
20
-115.50000000000003
10
403.5
20
-98
0
ARC
5
269
100
AcDbEntity
8
0
100
AcDbCircle
10
276.7191260516567
20
-16.76803950902184
30
0
40
102.45252917940013
210
0
220
0
230
1
100
AcDbArc
50
266.23968334230136
51
291.63945194462917
0
LWPOLYLINE
5
270
100
AcDbEntity
8
0
100
AcDbPolyline
90
4
70
1
43
0.0
10
161
20
-98
10
161
20
-115.50000000000003
10
143.5
20
-115.50000000000003
10
143.5
20
-98
0
LWPOLYLINE
5
271
100
AcDbEntity
8
0
100
AcDbPolyline
90
4
70
1
43
0.0
10
161.50000000000003
20
-79
10
161.50000000000003
20
-93
10
147.5
20
-93
10
147.5
20
-79
0
CIRCLE
5
272
100
AcDbEntity
8
0
100
AcDbCircle
10
214.61250000000001
20
-84.500000000000014
30
0
40
1.1000000000000001
210
0
220
0
230
1
0
LWPOLYLINE
5
273
100
AcDbEntity
8
0
100
AcDbPolyline
90
4
70
1
43
0.0
10
179.5
20
-87.000000000000014
10
165.5
20
-87.000000000000014
10
165.5
20
-73
10
179.5
20
-73
0
CIRCLE
5
274
100
AcDbEntity
8
0
100
AcDbCircle
10
167.10000000000002
20
-110.60000000000001
30
0
40
1.1000000000000001
210
0
220
0
230
1
0
LINE
5
275
100
AcDbEntity
8
0
100
AcDbLine
10
211.22917717044461
20
-124.86177672920331
30
0
11
205.82950438837435
21
-110.02601140102493
31
0
0
LWPOLYLINE
5
276
100
AcDbEntity
8
0
100
AcDbPolyline
90
4
70
1
43
0.0
10
273.5
20
-98
10
291
20
-98
10
291
20
-115.50000000000003
10
273.5
20
-115.50000000000003
0
ARC
5
277
100
AcDbEntity
8
0
100
AcDbCircle
10
214.4593448059986
20
-123.3047309774127
30
0
40
3.5858575580953458
210
0
220
0
230
1
100
AcDbArc
50
205.7355773362099
51
284.75770408435415
0
LWPOLYLINE
5
278
100
AcDbEntity
8
0
100
AcDbPolyline
90
4
70
1
43
0.0
10
367.5
20
-45
10
367.5
20
-59
10
353.5
20
-59
10
353.5
20
-45
0
LWPOLYLINE
5
279
100
AcDbEntity
8
0
100
AcDbPolyline
90
4
70
1
43
0.0
10
371.5
20
-61.000000000000007
10
385.5
20
-61.000000000000007
10
385.5
20
-75
10
371.5
20
-75
0
CIRCLE
5
280
100
AcDbEntity
8
0
100
AcDbCircle
10
427.10000000000002
20
-49.400000000000006
30
0
40
1.1000000000000001
210
0
220
0
230
1
0
LWPOLYLINE
5
281
100
AcDbEntity
8
0
100
AcDbPolyline
90
4
70
1
43
0.0
10
421.50000000000006
20
-57
10
407.5
20
-57
10
407.5
20
-43
10
421.50000000000006
20
-43
0
LWPOLYLINE
5
282
100
AcDbEntity
8
0
100
AcDbPolyline
90
4
70
1
43
0.0
10
385.5
20
-57
10
371.5
20
-57
10
371.5
20
-43
10
385.5
20
-43
0
LWPOLYLINE
5
283
100
AcDbEntity
8
0
100
AcDbPolyline
90
4
70
1
43
0.0
10
389.5
20
-52
10
389.5
20
-38
10
403.5
20
-38
10
403.5
20
-52
0
LWPOLYLINE
5
284
100
AcDbEntity
8
0
100
AcDbPolyline
90
4
70
1
43
0.0
10
367.5
20
-63.000000000000007
10
367.5
20
-77
10
353.5
20
-77
10
353.5
20
-63.000000000000007
0
ARC
5
285
100
AcDbEntity
8
0
100
AcDbCircle
10
408.06884948942644
20
-74.108349456897869
30
0
40
41.138275929977837
210
0
220
-0
230
1
100
AcDbArc
50
27.677270527528549
51
92.186092925586081
0
LWPOLYLINE
5
286
100
AcDbEntity
8
0
100
AcDbPolyline
90
4
70
1
43
0.0
10
403.5
20
-56.000000000000007
10
403.5
20
-70
10
389.5
20
-70
10
389.5
20
-56.000000000000007
0
LINE
5
287
100
AcDbEntity
8
0
100
AcDbLine
10
439.5
20
-69
30
0
11
425.5
21
-69
31
0
0
LWPOLYLINE
5
288
100
AcDbEntity
8
0
100
AcDbPolyline
90
4
70
1
43
0.0
10
421.50000000000006
20
-61.000000000000007
10
421.50000000000006
20
-75
10
407.5
20
-75
10
407.5
20
-61.000000000000007
0
LINE
5
289
100
AcDbEntity
8
0
100
AcDbLine
10
439.5
20
-55
30
0
11
439.5
21
-69
31
0
0
LWPOLYLINE
5
290
100
AcDbEntity
8
0
100
AcDbPolyline
90
4
70
1
43
0.0
10
125.5
20
-79
10
125.5
20
-93
10
111.5
20
-93
10
111.5
20
-79
0
CIRCLE
5
291
100
AcDbEntity
8
0
100
AcDbCircle
10
84.612499999999997
20
-84.500000000000014
30
0
40
1.1000000000000001
210
0
220
0
230
1
0
LWPOLYLINE
5
292
100
AcDbEntity
8
0
100
AcDbPolyline
90
4
70
1
43
0.0
10
129.5
20
-74
10
143.5
20
-74
10
143.5
20
-88
10
129.5
20
-88
0
LINE
5
293
100
AcDbEntity
8
0
100
AcDbLine
10
75.829504388374346
20
-33.949593448585333
30
0
11
75.82950438837436
21
-110.02601140102493
31
0
0
LWPOLYLINE
5
294
100
AcDbEntity
8
0
100
AcDbPolyline
90
4
70
1
43
0.0
10
124.63700000000001
20
-98.816500000000005
10
138.583
20
-100.03700000000002
10
137.363
20
-113.98299999999999
10
123.41700000000002
20
-112.76299999999999
0
LINE
5
295
100
AcDbEntity
8
0
100
AcDbLine
10
77.532916237994172
20
-33.000013773819028
30
0
11
146.49961914996078
21
-33.00001377381902
31
0
0
LWPOLYLINE
5
296
100
AcDbEntity
8
0
100
AcDbPolyline
90
4
70
1
43
0.0
10
273.5
20
-74
10
273.5
20
-88
10
259.5
20
-88
10
259.5
20
-74
0
LINE
5
297
100
AcDbEntity
8
0
100
AcDbLine
10
335.82950438837435
20
-33.949593448585333
30
0
11
335.82950438837435
21
-110.02601140102493
31
0
0
CIRCLE
5
298
100
AcDbEntity
8
0
100
AcDbCircle
10
84.500000000000014
20
-103.2
30
0
40
1.1000000000000001
210
0
220
0
230
1
0
LINE
5
299
100
AcDbEntity
8
0
100
AcDbLine
10
81.229177170444615
20
-124.86177672920331
30
0
11
75.82950438837436
21
-110.02601140102493
31
0
0
LINE
5
300
100
AcDbEntity
8
0
100
AcDbLine
10
205.82950438837435
20
-33.949593448585333
30
0
11
205.82950438837435
21
-110.02601140102493
31
0
0
LWPOLYLINE
5
301
100
AcDbEntity
8
0
100
AcDbPolyline
90
4
70
1
43
0.0
10
147.5
20
-57
10
147.5
20
-43
10
161.50000000000003
20
-43
10
161.50000000000003
20
-57
0
ARC
5
302
100
AcDbEntity
8
0
100
AcDbCircle
10
126.08018625107252
20
-217.02383901817271
30
0
40
99.007241861917535
210
0
220
-0
230
1
100
AcDbArc
50
81.91778495248542
51
114.27746557748742
0
ARC
5
303
100
AcDbEntity
8
0
100
AcDbCircle
10
84.459344805998597
20
-123.3047309774127
30
0
40
3.5858575580953458
210
0
220
0
230
1
100
AcDbArc
50
205.7355773362099
51
284.75770408435415
0
CIRCLE
5
304
100
AcDbEntity
8
0
100
AcDbCircle
10
97.599999999999994
20
-103.2
30
0
40
1.1000000000000001
210
0
220
0
230
1
0
LWPOLYLINE
5
305
100
AcDbEntity
8
0
100
AcDbPolyline
90
4
70
1
43
0.0
10
268.58299999999997
20
-100.03700000000002
10
267.363
20
-113.98299999999999
10
253.41700000000003
20
-112.76299999999999
10
254.63700000000003
20
-98.816500000000005
0
LWPOLYLINE
5
306
100
AcDbEntity
8
0
100
AcDbPolyline
90
4
70
1
43
0.0
10
247.60899999999998
20
-112.97800000000001
10
233.822
20
-115.40900000000001
10
231.39099999999999
20
-101.62200000000001
10
245.178
20
-99.19080000000001
0
LWPOLYLINE
5
307
100
AcDbEntity
8
0
100
AcDbPolyline
90
4
70
1
43
0.0
10
255.5
20
-93
10
241.5
20
-93
10
241.5
20
-79
10
255.5
20
-79
0
CIRCLE
5
308
100
AcDbEntity
8
0
100
AcDbCircle
10
214.51250000000002
20
-74
30
0
40
5.0010000000000012
210
0
220
0
230
1
0
LINE
5
309
100
AcDbEntity
8
0
100
AcDbLine
10
444.5
20
-112.00000000000001
30
0
11
444.5
21
-55
31
0
0
CIRCLE
5
310
100
AcDbEntity
8
0
100
AcDbCircle
10
344.51250000000005
20
-74
30
0
40
5.0010000000000012
210
0
220
0
230
1
0
ARC
5
311
100
AcDbEntity
8
0
100
AcDbCircle
10
214.50000000000003
20
-74
30
0
40
5.0000000000000187
210
0
220
0
230
1
100
AcDbArc
50
-138.13254779848279
51
90
0
LWPOLYLINE
5
312
100
AcDbEntity
8
0
100
AcDbPolyline
90
4
70
1
43
0.0
10
389.5
20
-88
10
389.5
20
-74
10
403.5
20
-74
10
403.5
20
-88
0
LINE
5
313
100
AcDbEntity
8
0
100
AcDbLine
10
184.5
20
-112.00000000000001
30
0
11
184.5
21
-55
31
0
0
ARC
5
314
100
AcDbEntity
8
0
100
AcDbCircle
10
344.5
20
-74
30
0
40
5.0000000000000187
210
0
220
0
230
1
100
AcDbArc
50
-138.13254779848259
51
90
0
ARC
5
315
100
AcDbEntity
8
0
100
AcDbCircle
10
148.06884948942644
20
-74.108349456897869
30
0
40
41.138275929977823
210
0
220
-0
230
1
100
AcDbArc
50
27.677270527528549
51
92.186092925586081
0
LINE
5
316
100
AcDbEntity
8
0
100
AcDbLine
10
314.5
20
-112.00000000000001
30
0
11
314.5
21
-55
31
0
0
CIRCLE
5
317
100
AcDbEntity
8
0
100
AcDbCircle
10
167.10000000000002
20
-49.400000000000006
30
0
40
1.1000000000000001
210
0
220
0
230
1
0
LINE
5
318
100
AcDbEntity
8
0
100
AcDbLine
10
425.5
20
-55
30
0
11
439.5
21
-55
31
0
0
ARC
5
319
100
AcDbEntity
8
0
100
AcDbCircle
10
207.53291623799416
20
-35.002643773819024
30
0
40
2.0026300000000008
210
0
220
-0
230
1
100
AcDbArc
50
90
51
148.27561608601656
0
LINE
5
320
100
AcDbEntity
8
0
100
AcDbLine
10
425.5
20
-69
30
0
11
425.5
21
-55
31
0
0
LINE
5
321
100
AcDbEntity
8
0
100
AcDbLine
10
337.53291623799413
20
-33.000013773819028
30
0
11
406.49961914996078
21
-33.00001377381902
31
0
0
CIRCLE
5
322
100
AcDbEntity
8
0
100
AcDbCircle
10
214.6825
20
-63.490000000000002
30
0
40
1.1000000000000001
210
0
220
0
230
1
0
LINE
5
323
100
AcDbEntity
8
0
100
AcDbLine
10
165.5
20
-69
30
0
11
165.5
21
-55
31
0
0
LWPOLYLINE
5
324
100
AcDbEntity
8
0
100
AcDbPolyline
90
4
70
1
43
0.0
10
237.5
20
-77
10
223.5
20
-77
10
223.5
20
-63.000000000000007
10
237.5
20
-63.000000000000007
0
LINE
5
325
100
AcDbEntity
8
0
100
AcDbLine
10
179.5
20
-69
30
0
11
165.5
21
-69
31
0
0
LINE
5
326
100
AcDbEntity
8
0
100
AcDbLine
10
165.5
20
-55
30
0
11
179.5
21
-55
31
0
0
LINE
5
327
100
AcDbEntity
8
0
100
AcDbLine
10
179.5
20
-55
30
0
11
179.5
21
-69
31
0
0
LINE
5
328
100
AcDbEntity
8
0
100
AcDbLine
10
207.53291623799416
20
-33.000013773819028
30
0
11
276.49961914996078
21
-33.00001377381902
31
0
0
CIRCLE
5
329
100
AcDbEntity
8
0
100
AcDbCircle
10
214.50000000000003
20
-37
30
0
40
1.1000000000000001
210
0
220
0
230
1
0
CIRCLE
5
330
100
AcDbEntity
8
0
100
AcDbCircle
10
227.59999999999997
20
-37
30
0
40
1.1000000000000001
210
0
220
0
230
1
0
LINE
5
331
100
AcDbEntity
8
0
100
AcDbLine
10
309.5
20
-55
30
0
11
309.5
21
-69
31
0
0
CIRCLE
5
332
100
AcDbEntity
8
0
100
AcDbCircle
10
297.10000000000002
20
-49.400000000000006
30
0
40
1.1000000000000001
210
0
220
0
230
1
0
ARC
5
333
100
AcDbEntity
8
0
100
AcDbCircle
10
278.06884948942644
20
-74.108349456897869
30
0
40
41.138275929977837
210
0
220
-0
230
1
100
AcDbArc
50
27.677270527528549
51
92.186092925586081
0
ARC
5
334
100
AcDbEntity
8
0
100
AcDbCircle
10
146.7191260516567
20
-16.76803950902184
30
0
40
102.45252917940013
210
0
220
0
230
1
100
AcDbArc
50
266.23968334230136
51
291.63945194462917
0
LINE
5
335
100
AcDbEntity
8
0
100
AcDbLine
10
295.5
20
-69
30
0
11
295.5
21
-55
31
0
0
LINE
5
336
100
AcDbEntity
8
0
100
AcDbLine
10
341.22917717044459
20
-124.86177672920331
30
0
11
335.82950438837435
21
-110.02601140102493
31
0
0
CIRCLE
5
337
100
AcDbEntity
8
0
100
AcDbCircle
10
297.10000000000002
20
-110.60000000000001
30
0
40
1.1000000000000001
210
0
220
0
230
1
0
LWPOLYLINE
5
338
100
AcDbEntity
8
0
100
AcDbPolyline
90
4
70
1
43
0.0
10
363.822
20
-115.40900000000001
10
361.39099999999996
20
-101.62200000000001
10
375.178
20
-99.19080000000001
10
377.60899999999998
20
-112.97800000000001
0
ARC
5
339
100
AcDbEntity
8
0
100
AcDbCircle
10
344.45934480599863
20
-123.3047309774127
30
0
40
3.5858575580953778
210
0
220
0
230
1
100
AcDbArc
50
205.73557733620956
51
284.75770408435454
0
LWPOLYLINE
5
340
100
AcDbEntity
8
0
100
AcDbPolyline
90
4
70
1
43
0.0
10
353.5
20
-95
10
353.5
20
-81
10
367.5
20
-81
10
367.5
20
-95
0
CIRCLE
5
341
100
AcDbEntity
8
0
100
AcDbCircle
10
344.6825
20
-63.490000000000002
30
0
40
1.1000000000000001
210
0
220
0
230
1
0
CIRCLE
5
342
100
AcDbEntity
8
0
100
AcDbCircle
10
344.5
20
-37
30
0
40
1.1000000000000001
210
0
220
0
230
1
0
ARC
5
343
100
AcDbEntity
8
0
100
AcDbCircle
10
337.53291623799413
20
-35.002643773819024
30
0
40
2.0026300000000008
210
0
220
-0
230
1
100
AcDbArc
50
90
51
148.2756160860161
0
CIRCLE
5
344
100
AcDbEntity
8
0
100
AcDbCircle
10
357.59999999999997
20
-37
30
0
40
1.1000000000000001
210
0
220
0
230
1
0
ARC
5
345
100
AcDbEntity
8
0
100
AcDbCircle
10
386.08018625107252
20
-217.02383901817271
30
0
40
99.007241861917535
210
0
220
-0
230
1
100
AcDbArc
50
81.91778495248542
51
114.27746557748742
0
CIRCLE
5
346
100
AcDbEntity
8
0
100
AcDbCircle
10
427.10000000000002
20
-110.60000000000001
30
0
40
1.1000000000000001
210
0
220
0
230
1
0
LWPOLYLINE
5
347
100
AcDbEntity
8
0
100
AcDbPolyline
90
4
70
1
43
0.0
10
394.8473810098431
20
-172.00890485200443
10
394.8473810098431
20
-158.00890485200449
10
408.84738100984305
20
-158.00890485200449
10
408.84738100984305
20
-172.00890485200443
0
CIRCLE
5
348
100
AcDbEntity
8
0
100
AcDbCircle
10
435.84738100984305
20
-147.80890485200445
30
0
40
1.1000000000000001
210
0
220
0
230
1
0
LWPOLYLINE
5
349
100
AcDbEntity
8
0
100
AcDbPolyline
90
4
70
1
43
0.0
10
390.84738100984305
20
-163.00890485200449
10
390.84738100984305
20
-177.00890485200443
10
376.8473810098431
20
-177.00890485200443
10
376.8473810098431
20
-163.00890485200449
0
LWPOLYLINE
5
350
100
AcDbEntity
8
0
100
AcDbPolyline
90
4
70
1
43
0.0
10
372.84738100984305
20
-158.00890485200449
10
372.84738100984305
20
-172.00890485200443
10
358.84738100984299
20
-172.00890485200443
10
358.84738100984299
20
-158.00890485200449
0
LWPOLYLINE
5
351
100
AcDbEntity
8
0
100
AcDbPolyline
90
4
70
1
43
0.0
10
376.8473810098431
20
-135.50890485200443
10
376.8473810098431
20
-153.00890485200449
10
359.3473810098431
20
-153.00890485200449
10
359.3473810098431
20
-135.50890485200443
0
LINE
5
352
100
AcDbEntity
8
0
100
AcDbLine
10
444.5178766214687
20
-217.05931140341909
30
0
11
444.5178766214687
21
-140.98289345097953
31
0
0
LWPOLYLINE
5
353
100
AcDbEntity
8
0
100
AcDbPolyline
90
4
70
1
43
0.0
10
340.8473810098431
20
-178.00890485200443
10
340.8473810098431
20
-164.00890485200446
10
354.8473810098431
20
-164.00890485200446
10
354.8473810098431
20
-178.00890485200443
0
LWPOLYLINE
5
354
100
AcDbEntity
8
0
100
AcDbPolyline
90
4
70
1
43
0.0
10
426.84738100984305
20
-156.00890485200443
10
426.84738100984305
20
-170.00890485200446
10
412.84738100984305
20
-170.00890485200446
10
412.84738100984305
20
-156.00890485200443
0
LINE
5
355
100
AcDbEntity
8
0
100
AcDbLine
10
335.8473810098431
20
-139.00890485200446
30
0
11
335.8473810098431
21
-196.00890485200443
31
0
0
CIRCLE
5
356
100
AcDbEntity
8
0
100
AcDbCircle
10
422.74738100984308
20
-147.80890485200445
30
0
40
1.1000000000000001
210
0
220
0
230
1
0
LWPOLYLINE
5
357
100
AcDbEntity
8
0
100
AcDbPolyline
90
4
70
1
43
0.0
10
421.87538100984307
20
-134.32490485200447
10
435.03108100984309
20
-129.53690485200445
10
439.81938100984303
20
-142.69290485200443
10
426.66368100984306
20
-147.48090485200447
0
LWPOLYLINE
5
358
100
AcDbEntity
8
0
100
AcDbPolyline
90
4
70
1
43
0.0
10
426.84738100984305
20
-156.00890485200443
10
426.84738100984305
20
-170.00890485200446
10
412.84738100984305
20
-170.00890485200446
10
412.84738100984305
20
-156.00890485200443
0
LWPOLYLINE
5
359
100
AcDbEntity
8
0
100
AcDbPolyline
90
4
70
1
43
0.0
10
416.5253810098431
20
-135.59990485200444
10
418.95638100984308
20
-149.38690485200448
10
405.16938100984305
20
-151.81810485200444
10
402.73838100984307
20
-138.03090485200445
0
LINE
5
360
100
AcDbEntity
8
0
100
AcDbLine
10
439.11820383939846
20
-126.14712812280118
30
0
11
444.5178766214687
21
-140.98289345097953
31
0
0
ARC
5
361
100
AcDbEntity
8
0
100
AcDbCircle
10
435.88803620384448
20
-127.70417387459176
30
0
40
3.5858575580953698
210
0
220
-0
230
1
100
AcDbArc
50
25.73557733620952
51
104.75770408435463
0
CIRCLE
5
362
100
AcDbEntity
8
0
100
AcDbCircle
10
422.74738100984308
20
-147.80890485200445
30
0
40
1.1000000000000001
210
0
220
0
230
1
0
LWPOLYLINE
5
363
100
AcDbEntity
8
0
100
AcDbPolyline
90
4
70
1
43
0.0
10
421.87538100984307
20
-134.32490485200447
10
435.03108100984309
20
-129.53690485200445
10
439.81938100984303
20
-142.69290485200443
10
426.66368100984306
20
-147.48090485200447
0
CIRCLE
5
364
100
AcDbEntity
8
0
100
AcDbCircle
10
353.24738100984297
20
-140.40890485200447
30
0
40
1.1000000000000001
210
0
220
0
230
1
0
LWPOLYLINE
5
365
100
AcDbEntity
8
0
100
AcDbPolyline
90
4
70
1
43
0.0
10
340.8473810098431
20
-160.00890485200446
10
340.8473810098431
20
-146.00890485200443
10
354.8473810098431
20
-146.00890485200443
10
354.8473810098431
20
-160.00890485200446
0
CIRCLE
5
366
100
AcDbEntity
8
0
100
AcDbCircle
10
353.24738100984297
20
-140.40890485200447
30
0
40
1.1000000000000001
210
0
220
0
230
1
0
LWPOLYLINE
5
367
100
AcDbEntity
8
0
100
AcDbPolyline
90
4
70
1
43
0.0
10
354.8473810098431
20
-146.00890485200443
10
354.8473810098431
20
-160.00890485200446
10
340.8473810098431
20
-160.00890485200446
10
340.8473810098431
20
-146.00890485200443
0
ARC
5
368
100
AcDbEntity
8
0
100
AcDbCircle
10
373.62825495818635
20
-234.24086534298254
30
0
40
102.45252917940006
210
0
220
-0
230
1
100
AcDbArc
50
86.23968334230139
51
111.63945194462919
0
LWPOLYLINE
5
369
100
AcDbEntity
8
0
100
AcDbPolyline
90
4
70
1
43
0.0
10
359.3473810098431
20
-135.50890485200443
10
376.8473810098431
20
-135.50890485200443
10
376.8473810098431
20
-153.00890485200449
10
359.3473810098431
20
-153.00890485200449
0
LWPOLYLINE
5
370
100
AcDbEntity
8
0
100
AcDbPolyline
90
4
70
1
43
0.0
10
358.84738100984299
20
-172.00890485200443
10
358.84738100984299
20
-158.00890485200449
10
372.84738100984305
20
-158.00890485200449
10
372.84738100984305
20
-172.00890485200443
0
LWPOLYLINE
5
371
100
AcDbEntity
8
0
100
AcDbPolyline
90
4
70
1
43
0.0
10
340.8473810098431
20
-164.00890485200446
10
354.8473810098431
20
-164.00890485200446
10
354.8473810098431
20
-178.00890485200443
10
340.8473810098431
20
-178.00890485200443
0
ARC
5
372
100
AcDbEntity
8
0
100
AcDbCircle
10
373.62825495818635
20
-234.24086534298254
30
0
40
102.45252917940006
210
0
220
-0
230
1
100
AcDbArc
50
86.23968334230139
51
111.63945194462919
0
ARC
5
373
100
AcDbEntity
8
0
100
AcDbCircle
10
394.26719475877042
20
-33.985065833831818
30
0
40
99.00724186191745
210
0
220
0
230
1
100
AcDbArc
50
261.91778495248548
51
294.27746557748748
0
LWPOLYLINE
5
374
100
AcDbEntity
8
0
100
AcDbPolyline
90
4
70
1
43
0.0
10
412.84738100984305
20
-206.00890485200441
10
412.84738100984305
20
-192.00890485200443
10
426.84738100984305
20
-192.00890485200443
10
426.84738100984305
20
-206.00890485200441
0
ARC
5
375
100
AcDbEntity
8
0
100
AcDbCircle
10
394.26719475877042
20
-33.985065833831818
30
0
40
99.00724186191745
210
0
220
0
230
1
100
AcDbArc
50
261.91778495248548
51
294.27746557748748
0
LWPOLYLINE
5
376
100
AcDbEntity
8
0
100
AcDbPolyline
90
4
70
1
43
0.0
10
402.73838100984307
20
-138.03090485200445
10
416.5253810098431
20
-135.59990485200444
10
418.95638100984308
20
-149.38690485200448
10
405.16938100984305
20
-151.81810485200444
0
LWPOLYLINE
5
377
100
AcDbEntity
8
0
100
AcDbPolyline
90
4
70
1
43
0.0
10
376.8473810098431
20
-177.00890485200443
10
376.8473810098431
20
-163.00890485200449
10
390.84738100984305
20
-163.00890485200449
10
390.84738100984305
20
-177.00890485200443
0
LWPOLYLINE
5
378
100
AcDbEntity
8
0
100
AcDbPolyline
90
4
70
1
43
0.0
10
396.93038100984302
20
-138.24590485200446
10
395.71038100984305
20
-152.19240485200444
10
381.76438100984308
20
-150.97190485200443
10
382.98438100984305
20
-137.02590485200446
0
LWPOLYLINE
5
379
100
AcDbEntity
8
0
100
AcDbPolyline
90
4
70
1
43
0.0
10
408.84738100984305
20
-172.00890485200443
10
394.8473810098431
20
-172.00890485200443
10
394.8473810098431
20
-158.00890485200449
10
408.84738100984305
20
-158.00890485200449
0
CIRCLE
5
380
100
AcDbEntity
8
0
100
AcDbCircle
10
435.84738100984305
20
-147.80890485200445
30
0
40
1.1000000000000001
210
0
220
0
230
1
0
ARC
5
381
100
AcDbEntity
8
0
100
AcDbCircle
10
435.88803620384448
20
-127.70417387459176
30
0
40
3.5858575580953698
210
0
220
-0
230
1
100
AcDbArc
50
25.73557733620952
51
104.75770408435463
0
LINE
5
382
100
AcDbEntity
8
0
100
AcDbLine
10
439.11820383939846
20
-126.14712812280118
30
0
11
444.5178766214687
21
-140.98289345097953
31
0
0
LWPOLYLINE
5
383
100
AcDbEntity
8
0
100
AcDbPolyline
90
4
70
1
43
0.0
10
426.84738100984305
20
-206.00890485200441
10
412.84738100984305
20
-206.00890485200441
10
412.84738100984305
20
-192.00890485200443
10
426.84738100984305
20
-192.00890485200443
0
CIRCLE
5
384
100
AcDbEntity
8
0
100
AcDbCircle
10
422.74738100984308
20
-214.00890485200443
30
0
40
1.1000000000000001
210
0
220
0
230
1
0
LWPOLYLINE
5
385
100
AcDbEntity
8
0
100
AcDbPolyline
90
4
70
1
43
0.0
10
412.84738100984305
20
-174.00890485200443
10
426.84738100984305
20
-174.00890485200443
10
426.84738100984305
20
-188.00890485200443
10
412.84738100984305
20
-188.00890485200443
0
CIRCLE
5
386
100
AcDbEntity
8
0
100
AcDbCircle
10
422.74738100984308
20
-214.00890485200443
30
0
40
1.1000000000000001
210
0
220
0
230
1
0
LWPOLYLINE
5
387
100
AcDbEntity
8
0
100
AcDbPolyline
90
4
70
1
43
0.0
10
412.84738100984305
20
-174.00890485200443
10
426.84738100984305
20
-174.00890485200443
10
426.84738100984305
20
-188.00890485200443
10
412.84738100984305
20
-188.00890485200443
0
CIRCLE
5
388
100
AcDbEntity
8
0
100
AcDbCircle
10
435.84738100984305
20
-214.00890485200443
30
0
40
1.1000000000000001
210
0
220
0
230
1
0
ARC
5
389
100
AcDbEntity
8
0
100
AcDbCircle
10
442.81446477184892
20
-216.00626107818539
30
0
40
2.0026300000000319
210
-0
220
0
230
1
100
AcDbArc
50
270
51
328.27561608601593
0
LWPOLYLINE
5
390
100
AcDbEntity
8
0
100
AcDbPolyline
90
4
70
1
43
0.0
10
408.84738100984305
20
-194.00890485200443
10
408.84738100984305
20
-208.00890485200443
10
394.8473810098431
20
-208.00890485200443
10
394.8473810098431
20
-194.00890485200443
0
CIRCLE
5
391
100
AcDbEntity
8
0
100
AcDbCircle
10
435.84738100984305
20
-214.00890485200443
30
0
40
1.1000000000000001
210
0
220
0
230
1
0
ARC
5
392
100
AcDbEntity
8
0
100
AcDbCircle
10
442.81446477184892
20
-216.00626107818539
30
0
40
2.0026300000000319
210
-0
220
0
230
1
100
AcDbArc
50
270
51
328.27561608601593
0
LWPOLYLINE
5
393
100
AcDbEntity
8
0
100
AcDbPolyline
90
4
70
1
43
0.0
10
394.8473810098431
20
-190.00890485200443
10
394.8473810098431
20
-176.00890485200441
10
408.84738100984305
20
-176.00890485200441
10
408.84738100984305
20
-190.00890485200443
0
LWPOLYLINE
5
394
100
AcDbEntity
8
0
100
AcDbPolyline
90
4
70
1
43
0.0
10
390.84738100984305
20
-181.00890485200441
10
390.84738100984305
20
-195.00890485200443
10
376.8473810098431
20
-195.00890485200443
10
376.8473810098431
20
-181.00890485200441
0
LWPOLYLINE
5
395
100
AcDbEntity
8
0
100
AcDbPolyline
90
4
70
1
43
0.0
10
396.93038100984302
20
-138.24590485200446
10
395.71038100984305
20
-152.19240485200444
10
381.76438100984308
20
-150.97190485200443
10
382.98438100984305
20
-137.02590485200446
0
LWPOLYLINE
5
396
100
AcDbEntity
8
0
100
AcDbPolyline
90
4
70
1
43
0.0
10
372.84738100984305
20
-176.00890485200441
10
372.84738100984305
20
-190.00890485200443
10
358.84738100984299
20
-190.00890485200443
10
358.84738100984299
20
-176.00890485200441
0
LWPOLYLINE
5
397
100
AcDbEntity
8
0
100
AcDbPolyline
90
4
70
1
43
0.0
10
376.8473810098431
20
-213.00890485200443
10
376.8473810098431
20
-199.00890485200443
10
390.84738100984305
20
-199.00890485200443
10
390.84738100984305
20
-213.00890485200443
0
LWPOLYLINE
5
398
100
AcDbEntity
8
0
100
AcDbPolyline
90
4
70
1
43
0.0
10
376.8473810098431
20
-195.00890485200443
10
376.8473810098431
20
-181.00890485200441
10
390.84738100984305
20
-181.00890485200441
10
390.84738100984305
20
-195.00890485200443
0
LWPOLYLINE
5
399
100
AcDbEntity
8
0
100
AcDbPolyline
90
4
70
1
43
0.0
10
372.84738100984305
20
-194.00890485200443
10
372.84738100984305
20
-208.00890485200443
10
358.84738100984299
20
-208.00890485200443
10
358.84738100984299
20
-194.00890485200446
0
LWPOLYLINE
5
400
100
AcDbEntity
8
0
100
AcDbPolyline
90
4
70
1
43
0.0
10
358.84738100984299
20
-194.00890485200446
10
372.84738100984305
20
-194.00890485200443
10
372.84738100984305
20
-208.00890485200443
10
358.84738100984299
20
-208.00890485200443
0
LINE
5
401
100
AcDbEntity
8
0
100
AcDbLine
10
354.8473810098431
20
-196.00890485200443
30
0
11
340.8473810098431
21
-196.00890485200443
31
0
0
LINE
5
402
100
AcDbEntity
8
0
100
AcDbLine
10
354.8473810098431
20
-196.00890485200443
30
0
11
340.8473810098431
21
-196.00890485200443
31
0
0
LWPOLYLINE
5
403
100
AcDbEntity
8
0
100
AcDbPolyline
90
4
70
1
43
0.0
10
358.84738100984299
20
-190.00890485200443
10
358.84738100984299
20
-176.00890485200441
10
372.84738100984305
20
-176.00890485200441
10
372.84738100984305
20
-190.00890485200443
0
LINE
5
404
100
AcDbEntity
8
0
100
AcDbLine
10
340.8473810098431
20
-182.00890485200443
30
0
11
354.8473810098431
21
-182.00890485200443
31
0
0
LINE
5
405
100
AcDbEntity
8
0
100
AcDbLine
10
354.8473810098431
20
-182.00890485200443
30
0
11
354.8473810098431
21
-196.00890485200443
31
0
0
ARC
5
406
100
AcDbEntity
8
0
100
AcDbCircle
10
372.27853152041666
20
-176.90055539510655
30
0
40
41.138275929977851
210
0
220
0
230
1
100
AcDbArc
50
207.67727052752855
51
272.18609292558591
0
LINE
5
407
100
AcDbEntity
8
0
100
AcDbLine
10
340.8473810098431
20
-196.00890485200443
30
0
11
340.8473810098431
21
-182.00890485200443
31
0
0
LINE
5
408
100
AcDbEntity
8
0
100
AcDbLine
10
354.8473810098431
20
-182.00890485200443
30
0
11
354.8473810098431
21
-196.00890485200443
31
0
0
LWPOLYLINE
5
409
100
AcDbEntity
8
0
100
AcDbPolyline
90
4
70
1
43
0.0
10
394.8473810098431
20
-176.00890485200441
10
408.84738100984305
20
-176.00890485200441
10
408.84738100984305
20
-190.00890485200443
10
394.8473810098431
20
-190.00890485200443
0
LWPOLYLINE
5
410
100
AcDbEntity
8
0
100
AcDbPolyline
90
4
70
1
43
0.0
10
376.8473810098431
20
-199.00890485200443
10
390.84738100984305
20
-199.00890485200443
10
390.84738100984305
20
-213.00890485200443
10
376.8473810098431
20
-213.00890485200443
0
LWPOLYLINE
5
411
100
AcDbEntity
8
0
100
AcDbPolyline
90
4
70
1
43
0.0
10
408.84738100984305
20
-194.00890485200443
10
408.84738100984305
20
-208.00890485200443
10
394.8473810098431
20
-208.00890485200443
10
394.8473810098431
20
-194.00890485200443
0
LINE
5
412
100
AcDbEntity
8
0
100
AcDbLine
10
442.81446477184892
20
-218.0088910781854
30
0
11
373.84776185988221
21
-218.0088910781854
31
0
0
LINE
5
413
100
AcDbEntity
8
0
100
AcDbLine
10
340.8473810098431
20
-196.00890485200443
30
0
11
340.8473810098431
21
-182.00890485200443
31
0
0
LINE
5
414
100
AcDbEntity
8
0
100
AcDbLine
10
335.8473810098431
20
-139.00890485200446
30
0
11
335.8473810098431
21
-196.00890485200443
31
0
0
LINE
5
415
100
AcDbEntity
8
0
100
AcDbLine
10
444.5178766214687
20
-217.05931140341909
30
0
11
444.5178766214687
21
-140.98289345097953
31
0
0
CIRCLE
5
416
100
AcDbEntity
8
0
100
AcDbCircle
10
353.24738100984297
20
-201.60890485200443
30
0
40
1.1000000000000001
210
0
220
0
230
1
0
CIRCLE
5
417
100
AcDbEntity
8
0
100
AcDbCircle
10
353.24738100984297
20
-201.60890485200443
30
0
40
1.1000000000000001
210
0
220
0
230
1
0
LINE
5
418
100
AcDbEntity
8
0
100
AcDbLine
10
442.81446477184892
20
-218.0088910781854
30
0
11
373.84776185988221
21
-218.0088910781854
31
0
0
LINE
5
419
100
AcDbEntity
8
0
100
AcDbLine
10
340.8473810098431
20
-182.00890485200443
30
0
11
354.8473810098431
21
-182.00890485200443
31
0
0
ARC
5
420
100
AcDbEntity
8
0
100
AcDbCircle
10
372.27853152041666
20
-176.90055539510655
30
0
40
41.138275929977851
210
0
220
0
230
1
100
AcDbArc
50
207.67727052752855
51
272.18609292558591
0
LWPOLYLINE
5
421
100
AcDbEntity
8
0
100
AcDbPolyline
90
4
70
1
43
0.0
10
340.8473810098431
20
-160.00890485200446
10
340.8473810098431
20
-146.00890485200443
10
354.8473810098431
20
-146.00890485200443
10
354.8473810098431
20
-160.00890485200446
0
CIRCLE
5
422
100
AcDbEntity
8
0
100
AcDbCircle
10
353.24738100984297
20
-140.40890485200447
30
0
40
1.1000000000000001
210
0
220
0
230
1
0
LWPOLYLINE
5
423
100
AcDbEntity
8
0
100
AcDbPolyline
90
4
70
1
43
0.0
10
340.8473810098431
20
-146.00890485200443
10
354.8473810098431
20
-146.00890485200443
10
354.8473810098431
20
-160.00890485200446
10
340.8473810098431
20
-160.00890485200446
0
LWPOLYLINE
5
424
100
AcDbEntity
8
0
100
AcDbPolyline
90
4
70
1
43
0.0
10
390.84738100984305
20
-199.00890485200443
10
390.84738100984305
20
-213.00890485200443
10
376.8473810098431
20
-213.00890485200443
10
376.8473810098431
20
-199.00890485200443
0
LWPOLYLINE
5
425
100
AcDbEntity
8
0
100
AcDbPolyline
90
4
70
1
43
0.0
10
390.84738100984305
20
-195.00890485200443
10
376.8473810098431
20
-195.00890485200443
10
376.8473810098431
20
-181.00890485200441
10
390.84738100984305
20
-181.00890485200441
0
LWPOLYLINE
5
426
100
AcDbEntity
8
0
100
AcDbPolyline
90
4
70
1
43
0.0
10
358.84738100984299
20
-194.00890485200446
10
372.84738100984305
20
-194.00890485200443
10
372.84738100984305
20
-208.00890485200443
10
358.84738100984299
20
-208.00890485200443
0
LWPOLYLINE
5
427
100
AcDbEntity
8
0
100
AcDbPolyline
90
4
70
1
43
0.0
10
372.84738100984305
20
-190.00890485200443
10
358.84738100984299
20
-190.00890485200443
10
358.84738100984299
20
-176.00890485200441
10
372.84738100984305
20
-176.00890485200441
0
LWPOLYLINE
5
428
100
AcDbEntity
8
0
100
AcDbPolyline
90
4
70
1
43
0.0
10
358.84738100984299
20
-194.00890485200446
10
372.84738100984305
20
-194.00890485200443
10
372.84738100984305
20
-208.00890485200443
10
358.84738100984299
20
-208.00890485200443
0
LWPOLYLINE
5
429
100
AcDbEntity
8
0
100
AcDbPolyline
90
4
70
1
43
0.0
10
381.76438100984308
20
-150.97190485200443
10
382.98438100984305
20
-137.02590485200446
10
396.93038100984302
20
-138.24590485200446
10
395.71038100984305
20
-152.19240485200444
0
LWPOLYLINE
5
430
100
AcDbEntity
8
0
100
AcDbPolyline
90
4
70
1
43
0.0
10
412.84738100984305
20
-156.00890485200443
10
426.84738100984305
20
-156.00890485200443
10
426.84738100984305
20
-170.00890485200446
10
412.84738100984305
20
-170.00890485200446
0
LWPOLYLINE
5
431
100
AcDbEntity
8
0
100
AcDbPolyline
90
4
70
1
43
0.0
10
416.5253810098431
20
-135.59990485200444
10
418.95638100984308
20
-149.38690485200448
10
405.16938100984305
20
-151.81810485200444
10
402.73838100984307
20
-138.03090485200445
0
CIRCLE
5
432
100
AcDbEntity
8
0
100
AcDbCircle
10
422.74738100984308
20
-147.80890485200445
30
0
40
1.1000000000000001
210
0
220
0
230
1
0
LWPOLYLINE
5
433
100
AcDbEntity
8
0
100
AcDbPolyline
90
4
70
1
43
0.0
10
359.3473810098431
20
-135.50890485200443
10
376.8473810098431
20
-135.50890485200443
10
376.8473810098431
20
-153.00890485200449
10
359.3473810098431
20
-153.00890485200449
0
LWPOLYLINE
5
434
100
AcDbEntity
8
0
100
AcDbPolyline
90
4
70
1
43
0.0
10
426.66368100984306
20
-147.48090485200447
10
421.87538100984307
20
-134.32490485200447
10
435.03108100984309
20
-129.53690485200445
10
439.81938100984303
20
-142.69290485200443
0
LWPOLYLINE
5
435
100
AcDbEntity
8
0
100
AcDbPolyline
90
4
70
1
43
0.0
10
435.03108100984309
20
-129.53690485200445
10
439.81938100984303
20
-142.69290485200443
10
426.66368100984306
20
-147.48090485200447
10
421.87538100984307
20
-134.32490485200447
0
LINE
5
436
100
AcDbEntity
8
0
100
AcDbLine
10
439.11820383939846
20
-126.14712812280118
30
0
11
444.5178766214687
21
-140.98289345097953
31
0
0
ARC
5
437
100
AcDbEntity
8
0
100
AcDbCircle
10
435.88803620384448
20
-127.70417387459176
30
0
40
3.5858575580953698
210
0
220
-0
230
1
100
AcDbArc
50
25.73557733620952
51
104.75770408435463
0
LWPOLYLINE
5
438
100
AcDbEntity
8
0
100
AcDbPolyline
90
4
70
1
43
0.0
10
396.93038100984302
20
-138.24590485200446
10
395.71038100984305
20
-152.19240485200444
10
381.76438100984308
20
-150.97190485200443
10
382.98438100984305
20
-137.02590485200446
0
LWPOLYLINE
5
439
100
AcDbEntity
8
0
100
AcDbPolyline
90
4
70
1
43
0.0
10
376.8473810098431
20
-135.50890485200443
10
376.8473810098431
20
-153.00890485200449
10
359.3473810098431
20
-153.00890485200449
10
359.3473810098431
20
-135.50890485200443
0
ARC
5
440
100
AcDbEntity
8
0
100
AcDbCircle
10
435.88803620384448
20
-127.70417387459176
30
0
40
3.5858575580953698
210
0
220
-0
230
1
100
AcDbArc
50
25.73557733620952
51
104.75770408435463
0
CIRCLE
5
441
100
AcDbEntity
8
0
100
AcDbCircle
10
435.84738100984305
20
-147.80890485200445
30
0
40
1.1000000000000001
210
0
220
0
230
1
0
CIRCLE
5
442
100
AcDbEntity
8
0
100
AcDbCircle
10
435.84738100984305
20
-147.80890485200445
30
0
40
1.1000000000000001
210
0
220
0
230
1
0
LWPOLYLINE
5
443
100
AcDbEntity
8
0
100
AcDbPolyline
90
4
70
1
43
0.0
10
412.84738100984305
20
-156.00890485200443
10
426.84738100984305
20
-156.00890485200443
10
426.84738100984305
20
-170.00890485200446
10
412.84738100984305
20
-170.00890485200446
0
LWPOLYLINE
5
444
100
AcDbEntity
8
0
100
AcDbPolyline
90
4
70
1
43
0.0
10
416.5253810098431
20
-135.59990485200444
10
418.95638100984308
20
-149.38690485200448
10
405.16938100984305
20
-151.81810485200444
10
402.73838100984307
20
-138.03090485200445
0
LINE
5
445
100
AcDbEntity
8
0
100
AcDbLine
10
439.11820383939846
20
-126.14712812280118
30
0
11
444.5178766214687
21
-140.98289345097953
31
0
0
CIRCLE
5
446
100
AcDbEntity
8
0
100
AcDbCircle
10
422.74738100984308
20
-147.80890485200445
30
0
40
1.1000000000000001
210
0
220
0
230
1
0
LINE
5
447
100
AcDbEntity
8
0
100
AcDbLine
10
335.8473810098431
20
-139.00890485200446
30
0
11
335.8473810098431
21
-196.00890485200443
31
0
0
LINE
5
448
100
AcDbEntity
8
0
100
AcDbLine
10
335.8473810098431
20
-139.00890485200446
30
0
11
335.8473810098431
21
-196.00890485200443
31
0
0
LWPOLYLINE
5
449
100
AcDbEntity
8
0
100
AcDbPolyline
90
4
70
1
43
0.0
10
376.8473810098431
20
-199.00890485200443
10
390.84738100984305
20
-199.00890485200443
10
390.84738100984305
20
-213.00890485200443
10
376.8473810098431
20
-213.00890485200443
0
LWPOLYLINE
5
450
100
AcDbEntity
8
0
100
AcDbPolyline
90
4
70
1
43
0.0
10
376.8473810098431
20
-181.00890485200441
10
390.84738100984305
20
-181.00890485200441
10
390.84738100984305
20
-195.00890485200443
10
376.8473810098431
20
-195.00890485200443
0
LINE
5
451
100
AcDbEntity
8
0
100
AcDbLine
10
340.8473810098431
20
-182.00890485200443
30
0
11
354.8473810098431
21
-182.00890485200443
31
0
0
CIRCLE
5
452
100
AcDbEntity
8
0
100
AcDbCircle
10
353.24738100984297
20
-140.40890485200447
30
0
40
1.1000000000000001
210
0
220
0
230
1
0
LWPOLYLINE
5
453
100
AcDbEntity
8
0
100
AcDbPolyline
90
4
70
1
43
0.0
10
340.8473810098431
20
-178.00890485200443
10
340.8473810098431
20
-164.00890485200446
10
354.8473810098431
20
-164.00890485200446
10
354.8473810098431
20
-178.00890485200443
0
LWPOLYLINE
5
454
100
AcDbEntity
8
0
100
AcDbPolyline
90
4
70
1
43
0.0
10
354.8473810098431
20
-178.00890485200443
10
340.8473810098431
20
-178.00890485200443
10
340.8473810098431
20
-164.00890485200446
10
354.8473810098431
20
-164.00890485200446
0
LINE
5
455
100
AcDbEntity
8
0
100
AcDbLine
10
354.8473810098431
20
-196.00890485200443
30
0
11
340.8473810098431
21
-196.00890485200443
31
0
0
LINE
5
456
100
AcDbEntity
8
0
100
AcDbLine
10
354.8473810098431
20
-182.00890485200443
30
0
11
354.8473810098431
21
-196.00890485200443
31
0
0
CIRCLE
5
457
100
AcDbEntity
8
0
100
AcDbCircle
10
353.24738100984297
20
-201.60890485200443
30
0
40
1.1000000000000001
210
0
220
0
230
1
0
CIRCLE
5
458
100
AcDbEntity
8
0
100
AcDbCircle
10
353.24738100984297
20
-201.60890485200443
30
0
40
1.1000000000000001
210
0
220
0
230
1
0
LINE
5
459
100
AcDbEntity
8
0
100
AcDbLine
10
354.8473810098431
20
-182.00890485200443
30
0
11
354.8473810098431
21
-196.00890485200443
31
0
0
LINE
5
460
100
AcDbEntity
8
0
100
AcDbLine
10
354.8473810098431
20
-196.00890485200443
30
0
11
340.8473810098431
21
-196.00890485200443
31
0
0
LINE
5
461
100
AcDbEntity
8
0
100
AcDbLine
10
340.8473810098431
20
-182.00890485200443
30
0
11
354.8473810098431
21
-182.00890485200443
31
0
0
LINE
5
462
100
AcDbEntity
8
0
100
AcDbLine
10
340.8473810098431
20
-196.00890485200443
30
0
11
340.8473810098431
21
-182.00890485200443
31
0
0
LINE
5
463
100
AcDbEntity
8
0
100
AcDbLine
10
340.8473810098431
20
-196.00890485200443
30
0
11
340.8473810098431
21
-182.00890485200443
31
0
0
CIRCLE
5
464
100
AcDbEntity
8
0
100
AcDbCircle
10
422.74738100984308
20
-214.00890485200443
30
0
40
1.1000000000000001
210
0
220
0
230
1
0
LWPOLYLINE
5
465
100
AcDbEntity
8
0
100
AcDbPolyline
90
4
70
1
43
0.0
10
412.84738100984305
20
-206.00890485200441
10
412.84738100984305
20
-192.00890485200443
10
426.84738100984305
20
-192.00890485200443
10
426.84738100984305
20
-206.00890485200441
0
LWPOLYLINE
5
466
100
AcDbEntity
8
0
100
AcDbPolyline
90
4
70
1
43
0.0
10
408.84738100984305
20
-194.00890485200443
10
408.84738100984305
20
-208.00890485200443
10
394.8473810098431
20
-208.00890485200443
10
394.8473810098431
20
-194.00890485200443
0
LWPOLYLINE
5
467
100
AcDbEntity
8
0
100
AcDbPolyline
90
4
70
1
43
0.0
10
408.84738100984305
20
-190.00890485200443
10
394.8473810098431
20
-190.00890485200443
10
394.8473810098431
20
-176.00890485200441
10
408.84738100984305
20
-176.00890485200441
0
CIRCLE
5
468
100
AcDbEntity
8
0
100
AcDbCircle
10
435.84738100984305
20
-214.00890485200443
30
0
40
1.1000000000000001
210
0
220
0
230
1
0
LWPOLYLINE
5
469
100
AcDbEntity
8
0
100
AcDbPolyline
90
4
70
1
43
0.0
10
426.84738100984305
20
-188.00890485200443
10
412.84738100984305
20
-188.00890485200443
10
412.84738100984305
20
-174.00890485200443
10
426.84738100984305
20
-174.00890485200443
0
LWPOLYLINE
5
470
100
AcDbEntity
8
0
100
AcDbPolyline
90
4
70
1
43
0.0
10
426.84738100984305
20
-192.00890485200443
10
426.84738100984305
20
-206.00890485200441
10
412.84738100984305
20
-206.00890485200441
10
412.84738100984305
20
-192.00890485200443
0
LWPOLYLINE
5
471
100
AcDbEntity
8
0
100
AcDbPolyline
90
4
70
1
43
0.0
10
394.8473810098431
20
-194.00890485200443
10
408.84738100984305
20
-194.00890485200443
10
408.84738100984305
20
-208.00890485200443
10
394.8473810098431
20
-208.00890485200443
0
ARC
5
472
100
AcDbEntity
8
0
100
AcDbCircle
10
442.81446477184892
20
-216.00626107818539
30
0
40
2.0026300000000319
210
-0
220
0
230
1
100
AcDbArc
50
270
51
328.27561608601593
0
CIRCLE
5
473
100
AcDbEntity
8
0
100
AcDbCircle
10
435.84738100984305
20
-214.00890485200443
30
0
40
1.1000000000000001
210
0
220
0
230
1
0
ARC
5
474
100
AcDbEntity
8
0
100
AcDbCircle
10
442.81446477184892
20
-216.00626107818539
30
0
40
2.0026300000000319
210
-0
220
0
230
1
100
AcDbArc
50
270
51
328.27561608601593
0
LWPOLYLINE
5
475
100
AcDbEntity
8
0
100
AcDbPolyline
90
4
70
1
43
0.0
10
408.84738100984305
20
-190.00890485200443
10
394.8473810098431
20
-190.00890485200443
10
394.8473810098431
20
-176.00890485200441
10
408.84738100984305
20
-176.00890485200441
0
LWPOLYLINE
5
476
100
AcDbEntity
8
0
100
AcDbPolyline
90
4
70
1
43
0.0
10
408.84738100984305
20
-158.00890485200449
10
408.84738100984305
20
-172.00890485200443
10
394.8473810098431
20
-172.00890485200443
10
394.8473810098431
20
-158.00890485200449
0
LWPOLYLINE
5
477
100
AcDbEntity
8
0
100
AcDbPolyline
90
4
70
1
43
0.0
10
372.84738100984305
20
-158.00890485200449
10
372.84738100984305
20
-172.00890485200443
10
358.84738100984299
20
-172.00890485200443
10
358.84738100984299
20
-158.00890485200449
0
LWPOLYLINE
5
478
100
AcDbEntity
8
0
100
AcDbPolyline
90
4
70
1
43
0.0
10
426.84738100984305
20
-188.00890485200443
10
412.84738100984305
20
-188.00890485200443
10
412.84738100984305
20
-174.00890485200443
10
426.84738100984305
20
-174.00890485200443
0
LINE
5
479
100
AcDbEntity
8
0
100
AcDbLine
10
442.81446477184892
20
-218.0088910781854
30
0
11
373.84776185988221
21
-218.0088910781854
31
0
0
CIRCLE
5
480
100
AcDbEntity
8
0
100
AcDbCircle
10
422.74738100984308
20
-214.00890485200443
30
0
40
1.1000000000000001
210
0
220
0
230
1
0
LINE
5
481
100
AcDbEntity
8
0
100
AcDbLine
10
442.81446477184892
20
-218.0088910781854
30
0
11
373.84776185988221
21
-218.0088910781854
31
0
0
LWPOLYLINE
5
482
100
AcDbEntity
8
0
100
AcDbPolyline
90
4
70
1
43
0.0
10
394.8473810098431
20
-158.00890485200449
10
408.84738100984305
20
-158.00890485200449
10
408.84738100984305
20
-172.00890485200443
10
394.8473810098431
20
-172.00890485200443
0
LWPOLYLINE
5
483
100
AcDbEntity
8
0
100
AcDbPolyline
90
4
70
1
43
0.0
10
372.84738100984305
20
-190.00890485200443
10
358.84738100984299
20
-190.00890485200443
10
358.84738100984299
20
-176.00890485200441
10
372.84738100984305
20
-176.00890485200441
0
ARC
5
484
100
AcDbEntity
8
0
100
AcDbCircle
10
372.27853152041666
20
-176.90055539510655
30
0
40
41.138275929977851
210
0
220
0
230
1
100
AcDbArc
50
207.67727052752855
51
272.18609292558591
0
LWPOLYLINE
5
485
100
AcDbEntity
8
0
100
AcDbPolyline
90
4
70
1
43
0.0
10
372.84738100984305
20
-172.00890485200443
10
358.84738100984299
20
-172.00890485200443
10
358.84738100984299
20
-158.00890485200449
10
372.84738100984305
20
-158.00890485200449
0
ARC
5
486
100
AcDbEntity
8
0
100
AcDbCircle
10
394.26719475877042
20
-33.985065833831818
30
0
40
99.00724186191745
210
0
220
0
230
1
100
AcDbArc
50
261.91778495248548
51
294.27746557748748
0
ARC
5
487
100
AcDbEntity
8
0
100
AcDbCircle
10
394.26719475877042
20
-33.985065833831818
30
0
40
99.00724186191745
210
0
220
0
230
1
100
AcDbArc
50
261.91778495248548
51
294.27746557748748
0
LINE
5
488
100
AcDbEntity
8
0
100
AcDbLine
10
444.5178766214687
20
-217.05931140341909
30
0
11
444.5178766214687
21
-140.98289345097953
31
0
0
ARC
5
489
100
AcDbEntity
8
0
100
AcDbCircle
10
373.62825495818635
20
-234.24086534298254
30
0
40
102.45252917940006
210
0
220
-0
230
1
100
AcDbArc
50
86.23968334230139
51
111.63945194462919
0
LWPOLYLINE
5
490
100
AcDbEntity
8
0
100
AcDbPolyline
90
4
70
1
43
0.0
10
376.8473810098431
20
-163.00890485200449
10
390.84738100984305
20
-163.00890485200449
10
390.84738100984305
20
-177.00890485200443
10
376.8473810098431
20
-177.00890485200443
0
LWPOLYLINE
5
491
100
AcDbEntity
8
0
100
AcDbPolyline
90
4
70
1
43
0.0
10
376.8473810098431
20
-177.00890485200443
10
376.8473810098431
20
-163.00890485200449
10
390.84738100984305
20
-163.00890485200449
10
390.84738100984305
20
-177.00890485200443
0
LINE
5
492
100
AcDbEntity
8
0
100
AcDbLine
10
444.5178766214687
20
-217.05931140341909
30
0
11
444.5178766214687
21
-140.98289345097953
31
0
0
ARC
5
493
100
AcDbEntity
8
0
100
AcDbCircle
10
372.27853152041666
20
-176.90055539510655
30
0
40
41.138275929977851
210
0
220
0
230
1
100
AcDbArc
50
207.67727052752855
51
272.18609292558591
0
ARC
5
494
100
AcDbEntity
8
0
100
AcDbCircle
10
373.62825495818635
20
-234.24086534298254
30
0
40
102.45252917940006
210
0
220
-0
230
1
100
AcDbArc
50
86.23968334230139
51
111.63945194462919
0
LINE
5
495
100
AcDbEntity
8
0
100
AcDbLine
10
94.847381009843019
20
-182.00890485200443
30
0
11
94.847381009843019
21
-196.00890485200443
31
0
0
LWPOLYLINE
5
496
100
AcDbEntity
8
0
100
AcDbPolyline
90
4
70
1
43
0.0
10
80.847381009843033
20
-160.00890485200446
10
80.847381009843033
20
-146.00890485200443
10
94.847381009843019
20
-146.00890485200443
10
94.847381009843019
20
-160.00890485200446
0
LINE
5
497
100
AcDbEntity
8
0
100
AcDbLine
10
75.847381009843033
20
-139.00890485200446
30
0
11
75.847381009843033
21
-196.00890485200443
31
0
0
LINE
5
498
100
AcDbEntity
8
0
100
AcDbLine
10
94.847381009843019
20
-182.00890485200443
30
0
11
94.847381009843019
21
-196.00890485200443
31
0
0
LWPOLYLINE
5
499
100
AcDbEntity
8
0
100
AcDbPolyline
90
4
70
1
43
0.0
10
80.847381009843033
20
-160.00890485200446
10
80.847381009843033
20
-146.00890485200443
10
94.847381009843019
20
-146.00890485200443
10
94.847381009843019
20
-160.00890485200446
0
LWPOLYLINE
5
500
100
AcDbEntity
8
0
100
AcDbPolyline
90
4
70
1
43
0.0
10
80.847381009843033
20
-160.00890485200446
10
80.847381009843033
20
-146.00890485200443
10
94.847381009843019
20
-146.00890485200443
10
94.847381009843019
20
-160.00890485200446
0
LINE
5
501
100
AcDbEntity
8
0
100
AcDbLine
10
94.847381009843019
20
-182.00890485200443
30
0
11
94.847381009843019
21
-196.00890485200443
31
0
0
LINE
5
502
100
AcDbEntity
8
0
100
AcDbLine
10
75.847381009843033
20
-139.00890485200446
30
0
11
75.847381009843033
21
-196.00890485200443
31
0
0
LINE
5
503
100
AcDbEntity
8
0
100
AcDbLine
10
75.847381009843033
20
-139.00890485200446
30
0
11
75.847381009843033
21
-196.00890485200443
31
0
0
LINE
5
504
100
AcDbEntity
8
0
100
AcDbLine
10
75.847381009843033
20
-139.00890485200446
30
0
11
75.847381009843033
21
-196.00890485200443
31
0
0
LINE
5
505
100
AcDbEntity
8
0
100
AcDbLine
10
80.847381009843033
20
-196.00890485200443
30
0
11
80.847381009843033
21
-182.00890485200443
31
0
0
CIRCLE
5
506
100
AcDbEntity
8
0
100
AcDbCircle
10
93.247381009842911
20
-201.60890485200443
30
0
40
1.1000000000000001
210
0
220
0
230
1
0
LINE
5
507
100
AcDbEntity
8
0
100
AcDbLine
10
94.847381009843019
20
-196.00890485200443
30
0
11
80.847381009843033
21
-196.00890485200443
31
0
0
ARC
5
508
100
AcDbEntity
8
0
100
AcDbCircle
10
112.27853152041661
20
-176.90055539510655
30
0
40
41.138275929977851
210
0
220
0
230
1
100
AcDbArc
50
207.67727052752852
51
272.18609292558591
0
LINE
5
509
100
AcDbEntity
8
0
100
AcDbLine
10
94.847381009843019
20
-196.00890485200443
30
0
11
80.847381009843033
21
-196.00890485200443
31
0
0
CIRCLE
5
510
100
AcDbEntity
8
0
100
AcDbCircle
10
93.247381009842911
20
-201.60890485200443
30
0
40
1.1000000000000001
210
0
220
0
230
1
0
LINE
5
511
100
AcDbEntity
8
0
100
AcDbLine
10
80.847381009843033
20
-196.00890485200443
30
0
11
80.847381009843033
21
-182.00890485200443
31
0
0
CIRCLE
5
512
100
AcDbEntity
8
0
100
AcDbCircle
10
93.247381009842911
20
-201.60890485200443
30
0
40
1.1000000000000001
210
0
220
0
230
1
0
LINE
5
513
100
AcDbEntity
8
0
100
AcDbLine
10
94.847381009843019
20
-196.00890485200443
30
0
11
80.847381009843033
21
-196.00890485200443
31
0
0
LINE
5
514
100
AcDbEntity
8
0
100
AcDbLine
10
94.847381009843019
20
-182.00890485200443
30
0
11
94.847381009843019
21
-196.00890485200443
31
0
0
LWPOLYLINE
5
515
100
AcDbEntity
8
0
100
AcDbPolyline
90
4
70
1
43
0.0
10
94.847381009843019
20
-178.00890485200443
10
80.847381009843033
20
-178.00890485200443
10
80.847381009843033
20
-164.00890485200446
10
94.847381009843019
20
-164.00890485200446
0
LINE
5
516
100
AcDbEntity
8
0
100
AcDbLine
10
80.847381009843033
20
-196.00890485200443
30
0
11
80.847381009843033
21
-182.00890485200443
31
0
0
LINE
5
517
100
AcDbEntity
8
0
100
AcDbLine
10
94.847381009843019
20
-196.00890485200443
30
0
11
80.847381009843033
21
-196.00890485200443
31
0
0
CIRCLE
5
518
100
AcDbEntity
8
0
100
AcDbCircle
10
93.247381009842911
20
-201.60890485200443
30
0
40
1.1000000000000001
210
0
220
0
230
1
0
LINE
5
519
100
AcDbEntity
8
0
100
AcDbLine
10
80.847381009843033
20
-196.00890485200443
30
0
11
80.847381009843033
21
-182.00890485200443
31
0
0
LWPOLYLINE
5
520
100
AcDbEntity
8
0
100
AcDbPolyline
90
4
70
1
43
0.0
10
116.84738100984305
20
-181.00890485200441
10
130.84738100984296
20
-181.00890485200441
10
130.84738100984296
20
-195.00890485200443
10
116.84738100984305
20
-195.00890485200443
0
LWPOLYLINE
5
521
100
AcDbEntity
8
0
100
AcDbPolyline
90
4
70
1
43
0.0
10
98.847381009842934
20
-172.00890485200443
10
98.847381009842934
20
-158.00890485200449
10
112.84738100984299
20
-158.00890485200449
10
112.84738100984299
20
-172.00890485200443
0
LINE
5
522
100
AcDbEntity
8
0
100
AcDbLine
10
182.81446477184886
20
-218.0088910781854
30
0
11
113.84776185988216
21
-218.0088910781854
31
0
0
LWPOLYLINE
5
523
100
AcDbEntity
8
0
100
AcDbPolyline
90
4
70
1
43
0.0
10
166.84738100984299
20
-156.00890485200443
10
166.84738100984299
20
-170.00890485200446
10
152.84738100984299
20
-170.00890485200446
10
152.84738100984299
20
-156.00890485200443
0
LWPOLYLINE
5
524
100
AcDbEntity
8
0
100
AcDbPolyline
90
4
70
1
43
0.0
10
112.84738100984299
20
-176.00890485200441
10
112.84738100984299
20
-190.00890485200443
10
98.847381009842934
20
-190.00890485200443
10
98.847381009842934
20
-176.00890485200441
0
LINE
5
525
100
AcDbEntity
8
0
100
AcDbLine
10
184.51787662146864
20
-217.05931140341909
30
0
11
184.51787662146864
21
-140.98289345097953
31
0
0
LWPOLYLINE
5
526
100
AcDbEntity
8
0
100
AcDbPolyline
90
4
70
1
43
0.0
10
112.84738100984299
20
-158.00890485200449
10
112.84738100984299
20
-172.00890485200443
10
98.847381009842934
20
-172.00890485200443
10
98.847381009842934
20
-158.00890485200449
0
LWPOLYLINE
5
527
100
AcDbEntity
8
0
100
AcDbPolyline
90
4
70
1
43
0.0
10
152.84738100984299
20
-170.00890485200446
10
152.84738100984299
20
-156.00890485200443
10
166.84738100984299
20
-156.00890485200443
10
166.84738100984299
20
-170.00890485200446
0
LWPOLYLINE
5
528
100
AcDbEntity
8
0
100
AcDbPolyline
90
4
70
1
43
0.0
10
134.84738100984302
20
-172.00890485200443
10
134.84738100984302
20
-158.00890485200449
10
148.84738100984299
20
-158.00890485200449
10
148.84738100984299
20
-172.00890485200443
0
LWPOLYLINE
5
529
100
AcDbEntity
8
0
100
AcDbPolyline
90
4
70
1
43
0.0
10
98.847381009842934
20
-190.00890485200443
10
98.847381009842934
20
-176.00890485200441
10
112.84738100984299
20
-176.00890485200441
10
112.84738100984299
20
-190.00890485200443
0
LWPOLYLINE
5
530
100
AcDbEntity
8
0
100
AcDbPolyline
90
4
70
1
43
0.0
10
152.84738100984299
20
-188.00890485200443
10
152.84738100984299
20
-174.00890485200443
10
166.84738100984299
20
-174.00890485200443
10
166.84738100984299
20
-188.00890485200443
0
LWPOLYLINE
5
531
100
AcDbEntity
8
0
100
AcDbPolyline
90
4
70
1
43
0.0
10
98.847381009842934
20
-172.00890485200443
10
98.847381009842934
20
-158.00890485200449
10
112.84738100984299
20
-158.00890485200449
10
112.84738100984299
20
-172.00890485200443
0
LINE
5
532
100
AcDbEntity
8
0
100
AcDbLine
10
182.81446477184886
20
-218.0088910781854
30
0
11
113.84776185988216
21
-218.0088910781854
31
0
0
LWPOLYLINE
5
533
100
AcDbEntity
8
0
100
AcDbPolyline
90
4
70
1
43
0.0
10
98.847381009842934
20
-172.00890485200443
10
98.847381009842934
20
-158.00890485200449
10
112.84738100984299
20
-158.00890485200449
10
112.84738100984299
20
-172.00890485200443
0
LWPOLYLINE
5
534
100
AcDbEntity
8
0
100
AcDbPolyline
90
4
70
1
43
0.0
10
148.84738100984299
20
-158.00890485200449
10
148.84738100984299
20
-172.00890485200443
10
134.84738100984302
20
-172.00890485200443
10
134.84738100984302
20
-158.00890485200449
0
LWPOLYLINE
5
535
100
AcDbEntity
8
0
100
AcDbPolyline
90
4
70
1
43
0.0
10
152.84738100984299
20
-188.00890485200443
10
152.84738100984299
20
-174.00890485200443
10
166.84738100984299
20
-174.00890485200443
10
166.84738100984299
20
-188.00890485200443
0
LWPOLYLINE
5
536
100
AcDbEntity
8
0
100
AcDbPolyline
90
4
70
1
43
0.0
10
134.84738100984302
20
-172.00890485200443
10
134.84738100984302
20
-158.00890485200449
10
148.84738100984299
20
-158.00890485200449
10
148.84738100984299
20
-172.00890485200443
0
LINE
5
537
100
AcDbEntity
8
0
100
AcDbLine
10
182.81446477184886
20
-218.0088910781854
30
0
11
113.84776185988216
21
-218.0088910781854
31
0
0
LWPOLYLINE
5
538
100
AcDbEntity
8
0
100
AcDbPolyline
90
4
70
1
43
0.0
10
148.84738100984299
20
-176.00890485200441
10
148.84738100984299
20
-190.00890485200443
10
134.84738100984302
20
-190.00890485200443
10
134.84738100984302
20
-176.00890485200441
0
LWPOLYLINE
5
539
100
AcDbEntity
8
0
100
AcDbPolyline
90
4
70
1
43
0.0
10
116.84738100984305
20
-195.00890485200443
10
116.84738100984305
20
-181.00890485200441
10
130.84738100984296
20
-181.00890485200441
10
130.84738100984296
20
-195.00890485200443
0
LWPOLYLINE
5
540
100
AcDbEntity
8
0
100
AcDbPolyline
90
4
70
1
43
0.0
10
98.847381009842934
20
-208.00890485200443
10
98.847381009842934
20
-194.00890485200446
10
112.84738100984299
20
-194.00890485200443
10
112.84738100984299
20
-208.00890485200443
0
LWPOLYLINE
5
541
100
AcDbEntity
8
0
100
AcDbPolyline
90
4
70
1
43
0.0
10
166.84738100984299
20
-156.00890485200443
10
166.84738100984299
20
-170.00890485200446
10
152.84738100984299
20
-170.00890485200446
10
152.84738100984299
20
-156.00890485200443
0
LWPOLYLINE
5
542
100
AcDbEntity
8
0
100
AcDbPolyline
90
4
70
1
43
0.0
10
98.847381009842934
20
-194.00890485200446
10
112.84738100984299
20
-194.00890485200443
10
112.84738100984299
20
-208.00890485200443
10
98.847381009842934
20
-208.00890485200443
0
LWPOLYLINE
5
543
100
AcDbEntity
8
0
100
AcDbPolyline
90
4
70
1
43
0.0
10
166.84738100984299
20
-174.00890485200443
10
166.84738100984299
20
-188.00890485200443
10
152.84738100984299
20
-188.00890485200443
10
152.84738100984299
20
-174.00890485200443
0
LWPOLYLINE
5
544
100
AcDbEntity
8
0
100
AcDbPolyline
90
4
70
1
43
0.0
10
166.84738100984299
20
-174.00890485200443
10
166.84738100984299
20
-188.00890485200443
10
152.84738100984299
20
-188.00890485200443
10
152.84738100984299
20
-174.00890485200443
0
LWPOLYLINE
5
545
100
AcDbEntity
8
0
100
AcDbPolyline
90
4
70
1
43
0.0
10
148.84738100984299
20
-176.00890485200441
10
148.84738100984299
20
-190.00890485200443
10
134.84738100984302
20
-190.00890485200443
10
134.84738100984302
20
-176.00890485200441
0
LINE
5
546
100
AcDbEntity
8
0
100
AcDbLine
10
182.81446477184886
20
-218.0088910781854
30
0
11
113.84776185988216
21
-218.0088910781854
31
0
0
LWPOLYLINE
5
547
100
AcDbEntity
8
0
100
AcDbPolyline
90
4
70
1
43
0.0
10
148.84738100984299
20
-158.00890485200449
10
148.84738100984299
20
-172.00890485200443
10
134.84738100984302
20
-172.00890485200443
10
134.84738100984302
20
-158.00890485200449
0
LWPOLYLINE
5
548
100
AcDbEntity
8
0
100
AcDbPolyline
90
4
70
1
43
0.0
10
116.84738100984305
20
-163.00890485200449
10
130.84738100984296
20
-163.00890485200449
10
130.84738100984296
20
-177.00890485200443
10
116.84738100984305
20
-177.00890485200443
0
LWPOLYLINE
5
549
100
AcDbEntity
8
0
100
AcDbPolyline
90
4
70
1
43
0.0
10
134.84738100984302
20
-190.00890485200443
10
134.84738100984302
20
-176.00890485200441
10
148.84738100984299
20
-176.00890485200441
10
148.84738100984299
20
-190.00890485200443
0
LWPOLYLINE
5
550
100
AcDbEntity
8
0
100
AcDbPolyline
90
4
70
1
43
0.0
10
148.84738100984299
20
-176.00890485200441
10
148.84738100984299
20
-190.00890485200443
10
134.84738100984302
20
-190.00890485200443
10
134.84738100984302
20
-176.00890485200441
0
LINE
5
551
100
AcDbEntity
8
0
100
AcDbLine
10
184.51787662146864
20
-217.05931140341909
30
0
11
184.51787662146864
21
-140.98289345097953
31
0
0
LWPOLYLINE
5
552
100
AcDbEntity
8
0
100
AcDbPolyline
90
4
70
1
43
0.0
10
112.84738100984299
20
-176.00890485200441
10
112.84738100984299
20
-190.00890485200443
10
98.847381009842934
20
-190.00890485200443
10
98.847381009842934
20
-176.00890485200441
0
LWPOLYLINE
5
553
100
AcDbEntity
8
0
100
AcDbPolyline
90
4
70
1
43
0.0
10
166.84738100984299
20
-156.00890485200443
10
166.84738100984299
20
-170.00890485200446
10
152.84738100984299
20
-170.00890485200446
10
152.84738100984299
20
-156.00890485200443
0
LWPOLYLINE
5
554
100
AcDbEntity
8
0
100
AcDbPolyline
90
4
70
1
43
0.0
10
112.84738100984299
20
-208.00890485200443
10
98.847381009842934
20
-208.00890485200443
10
98.847381009842934
20
-194.00890485200446
10
112.84738100984299
20
-194.00890485200443
0
LINE
5
555
100
AcDbEntity
8
0
100
AcDbLine
10
184.51787662146864
20
-217.05931140341909
30
0
11
184.51787662146864
21
-140.98289345097953
31
0
0
LWPOLYLINE
5
556
100
AcDbEntity
8
0
100
AcDbPolyline
90
4
70
1
43
0.0
10
116.84738100984305
20
-195.00890485200443
10
116.84738100984305
20
-181.00890485200441
10
130.84738100984296
20
-181.00890485200441
10
130.84738100984296
20
-195.00890485200443
0
LWPOLYLINE
5
557
100
AcDbEntity
8
0
100
AcDbPolyline
90
4
70
1
43
0.0
10
116.84738100984305
20
-181.00890485200441
10
130.84738100984296
20
-181.00890485200441
10
130.84738100984296
20
-195.00890485200443
10
116.84738100984305
20
-195.00890485200443
0
LWPOLYLINE
5
558
100
AcDbEntity
8
0
100
AcDbPolyline
90
4
70
1
43
0.0
10
130.84738100984296
20
-177.00890485200443
10
116.84738100984305
20
-177.00890485200443
10
116.84738100984305
20
-163.00890485200449
10
130.84738100984296
20
-163.00890485200449
0
LWPOLYLINE
5
559
100
AcDbEntity
8
0
100
AcDbPolyline
90
4
70
1
43
0.0
10
116.84738100984305
20
-163.00890485200449
10
130.84738100984296
20
-163.00890485200449
10
130.84738100984296
20
-177.00890485200443
10
116.84738100984305
20
-177.00890485200443
0
ARC
5
560
100
AcDbEntity
8
0
100
AcDbCircle
10
112.27853152041661
20
-176.90055539510655
30
0
40
41.138275929977851
210
0
220
0
230
1
100
AcDbArc
50
207.67727052752852
51
272.18609292558591
0
ARC
5
561
100
AcDbEntity
8
0
100
AcDbCircle
10
113.62825495818626
20
-234.24086534298254
30
0
40
102.45252917940006
210
0
220
-0
230
1
100
AcDbArc
50
86.239683342301376
51
111.63945194462917
0
LWPOLYLINE
5
562
100
AcDbEntity
8
0
100
AcDbPolyline
90
4
70
1
43
0.0
10
98.847381009842934
20
-190.00890485200443
10
98.847381009842934
20
-176.00890485200441
10
112.84738100984299
20
-176.00890485200441
10
112.84738100984299
20
-190.00890485200443
0
LWPOLYLINE
5
563
100
AcDbEntity
8
0
100
AcDbPolyline
90
4
70
1
43
0.0
10
130.84738100984296
20
-177.00890485200443
10
116.84738100984305
20
-177.00890485200443
10
116.84738100984305
20
-163.00890485200449
10
130.84738100984296
20
-163.00890485200449
0
LINE
5
564
100
AcDbEntity
8
0
100
AcDbLine
10
184.51787662146864
20
-217.05931140341909
30
0
11
184.51787662146864
21
-140.98289345097953
31
0
0
LWPOLYLINE
5
565
100
AcDbEntity
8
0
100
AcDbPolyline
90
4
70
1
43
0.0
10
80.847381009843033
20
-178.00890485200443
10
80.847381009843033
20
-164.00890485200446
10
94.847381009843019
20
-164.00890485200446
10
94.847381009843019
20
-178.00890485200443
0
LWPOLYLINE
5
566
100
AcDbEntity
8
0
100
AcDbPolyline
90
4
70
1
43
0.0
10
80.847381009843033
20
-178.00890485200443
10
80.847381009843033
20
-164.00890485200446
10
94.847381009843019
20
-164.00890485200446
10
94.847381009843019
20
-178.00890485200443
0
LINE
5
567
100
AcDbEntity
8
0
100
AcDbLine
10
80.847381009843033
20
-182.00890485200443
30
0
11
94.847381009843019
21
-182.00890485200443
31
0
0
LINE
5
568
100
AcDbEntity
8
0
100
AcDbLine
10
80.847381009843033
20
-182.00890485200443
30
0
11
94.847381009843019
21
-182.00890485200443
31
0
0
LWPOLYLINE
5
569
100
AcDbEntity
8
0
100
AcDbPolyline
90
4
70
1
43
0.0
10
94.847381009843019
20
-178.00890485200443
10
80.847381009843033
20
-178.00890485200443
10
80.847381009843033
20
-164.00890485200446
10
94.847381009843019
20
-164.00890485200446
0
LINE
5
570
100
AcDbEntity
8
0
100
AcDbLine
10
80.847381009843033
20
-182.00890485200443
30
0
11
94.847381009843019
21
-182.00890485200443
31
0
0
LWPOLYLINE
5
571
100
AcDbEntity
8
0
100
AcDbPolyline
90
4
70
1
43
0.0
10
99.347381009843048
20
-135.50890485200443
10
116.84738100984305
20
-135.50890485200443
10
116.84738100984305
20
-153.00890485200449
10
99.347381009843048
20
-153.00890485200449
0
LWPOLYLINE
5
572
100
AcDbEntity
8
0
100
AcDbPolyline
90
4
70
1
43
0.0
10
99.347381009843048
20
-153.00890485200449
10
99.347381009843048
20
-135.50890485200443
10
116.84738100984305
20
-135.50890485200443
10
116.84738100984305
20
-153.00890485200449
0
LWPOLYLINE
5
573
100
AcDbEntity
8
0
100
AcDbPolyline
90
4
70
1
43
0.0
10
99.347381009843048
20
-153.00890485200449
10
99.347381009843048
20
-135.50890485200443
10
116.84738100984305
20
-135.50890485200443
10
116.84738100984305
20
-153.00890485200449
0
LWPOLYLINE
5
574
100
AcDbEntity
8
0
100
AcDbPolyline
90
4
70
1
43
0.0
10
99.347381009843048
20
-135.50890485200443
10
116.84738100984305
20
-135.50890485200443
10
116.84738100984305
20
-153.00890485200449
10
99.347381009843048
20
-153.00890485200449
0
ARC
5
575
100
AcDbEntity
8
0
100
AcDbCircle
10
113.62825495818626
20
-234.24086534298254
30
0
40
102.45252917940006
210
0
220
-0
230
1
100
AcDbArc
50
86.239683342301376
51
111.63945194462917
0
LWPOLYLINE
5
576
100
AcDbEntity
8
0
100
AcDbPolyline
90
4
70
1
43
0.0
10
94.847381009843019
20
-146.00890485200443
10
94.847381009843019
20
-160.00890485200446
10
80.847381009843033
20
-160.00890485200446
10
80.847381009843033
20
-146.00890485200443
0
LINE
5
577
100
AcDbEntity
8
0
100
AcDbLine
10
80.847381009843033
20
-182.00890485200443
30
0
11
94.847381009843019
21
-182.00890485200443
31
0
0
CIRCLE
5
578
100
AcDbEntity
8
0
100
AcDbCircle
10
93.247381009842911
20
-140.40890485200447
30
0
40
1.1000000000000001
210
0
220
0
230
1
0
CIRCLE
5
579
100
AcDbEntity
8
0
100
AcDbCircle
10
93.247381009842911
20
-140.40890485200447
30
0
40
1.1000000000000001
210
0
220
0
230
1
0
ARC
5
580
100
AcDbEntity
8
0
100
AcDbCircle
10
112.27853152041661
20
-176.90055539510655
30
0
40
41.138275929977851
210
0
220
0
230
1
100
AcDbArc
50
207.67727052752852
51
272.18609292558591
0
ARC
5
581
100
AcDbEntity
8
0
100
AcDbCircle
10
113.62825495818626
20
-234.24086534298254
30
0
40
102.45252917940006
210
0
220
-0
230
1
100
AcDbArc
50
86.239683342301376
51
111.63945194462917
0
ARC
5
582
100
AcDbEntity
8
0
100
AcDbCircle
10
112.27853152041661
20
-176.90055539510655
30
0
40
41.138275929977851
210
0
220
0
230
1
100
AcDbArc
50
207.67727052752852
51
272.18609292558591
0
LWPOLYLINE
5
583
100
AcDbEntity
8
0
100
AcDbPolyline
90
4
70
1
43
0.0
10
152.84738100984299
20
-206.00890485200441
10
152.84738100984299
20
-192.00890485200443
10
166.84738100984299
20
-192.00890485200443
10
166.84738100984299
20
-206.00890485200441
0
LWPOLYLINE
5
584
100
AcDbEntity
8
0
100
AcDbPolyline
90
4
70
1
43
0.0
10
98.847381009842934
20
-208.00890485200443
10
98.847381009842934
20
-194.00890485200446
10
112.84738100984299
20
-194.00890485200443
10
112.84738100984299
20
-208.00890485200443
0
LWPOLYLINE
5
585
100
AcDbEntity
8
0
100
AcDbPolyline
90
4
70
1
43
0.0
10
148.84738100984299
20
-194.00890485200443
10
148.84738100984299
20
-208.00890485200443
10
134.84738100984302
20
-208.00890485200443
10
134.84738100984302
20
-194.00890485200443
0
LWPOLYLINE
5
586
100
AcDbEntity
8
0
100
AcDbPolyline
90
4
70
1
43
0.0
10
148.84738100984299
20
-194.00890485200443
10
148.84738100984299
20
-208.00890485200443
10
134.84738100984302
20
-208.00890485200443
10
134.84738100984302
20
-194.00890485200443
0
LWPOLYLINE
5
587
100
AcDbEntity
8
0
100
AcDbPolyline
90
4
70
1
43
0.0
10
148.84738100984299
20
-208.00890485200443
10
134.84738100984302
20
-208.00890485200443
10
134.84738100984302
20
-194.00890485200443
10
148.84738100984299
20
-194.00890485200443
0
LWPOLYLINE
5
588
100
AcDbEntity
8
0
100
AcDbPolyline
90
4
70
1
43
0.0
10
130.84738100984296
20
-199.00890485200443
10
130.84738100984296
20
-213.00890485200443
10
116.84738100984305
20
-213.00890485200443
10
116.84738100984305
20
-199.00890485200443
0
LWPOLYLINE
5
589
100
AcDbEntity
8
0
100
AcDbPolyline
90
4
70
1
43
0.0
10
116.84738100984305
20
-213.00890485200443
10
116.84738100984305
20
-199.00890485200443
10
130.84738100984296
20
-199.00890485200443
10
130.84738100984296
20
-213.00890485200443
0
LWPOLYLINE
5
590
100
AcDbEntity
8
0
100
AcDbPolyline
90
4
70
1
43
0.0
10
166.84738100984299
20
-192.00890485200443
10
166.84738100984299
20
-206.00890485200441
10
152.84738100984299
20
-206.00890485200441
10
152.84738100984299
20
-192.00890485200443
0
LWPOLYLINE
5
591
100
AcDbEntity
8
0
100
AcDbPolyline
90
4
70
1
43
0.0
10
130.84738100984296
20
-213.00890485200443
10
116.84738100984305
20
-213.00890485200443
10
116.84738100984305
20
-199.00890485200443
10
130.84738100984296
20
-199.00890485200443
0
LWPOLYLINE
5
592
100
AcDbEntity
8
0
100
AcDbPolyline
90
4
70
1
43
0.0
10
134.84738100984302
20
-208.00890485200443
10
134.84738100984302
20
-194.00890485200443
10
148.84738100984299
20
-194.00890485200443
10
148.84738100984299
20
-208.00890485200443
0
CIRCLE
5
593
100
AcDbEntity
8
0
100
AcDbCircle
10
162.74738100984302
20
-214.00890485200443
30
0
40
1.1000000000000001
210
0
220
0
230
1
0
ARC
5
594
100
AcDbEntity
8
0
100
AcDbCircle
10
182.81446477184886
20
-216.00626107818539
30
0
40
2.0026300000000319
210
-0
220
0
230
1
100
AcDbArc
50
270
51
328.27561608601593
0
LWPOLYLINE
5
595
100
AcDbEntity
8
0
100
AcDbPolyline
90
4
70
1
43
0.0
10
152.84738100984299
20
-206.00890485200441
10
152.84738100984299
20
-192.00890485200443
10
166.84738100984299
20
-192.00890485200443
10
166.84738100984299
20
-206.00890485200441
0
LWPOLYLINE
5
596
100
AcDbEntity
8
0
100
AcDbPolyline
90
4
70
1
43
0.0
10
116.84738100984305
20
-213.00890485200443
10
116.84738100984305
20
-199.00890485200443
10
130.84738100984296
20
-199.00890485200443
10
130.84738100984296
20
-213.00890485200443
0
LWPOLYLINE
5
597
100
AcDbEntity
8
0
100
AcDbPolyline
90
4
70
1
43
0.0
10
152.84738100984299
20
-206.00890485200441
10
152.84738100984299
20
-192.00890485200443
10
166.84738100984299
20
-192.00890485200443
10
166.84738100984299
20
-206.00890485200441
0
ARC
5
598
100
AcDbEntity
8
0
100
AcDbCircle
10
182.81446477184886
20
-216.00626107818539
30
0
40
2.0026300000000319
210
-0
220
0
230
1
100
AcDbArc
50
270
51
328.27561608601593
0
CIRCLE
5
599
100
AcDbEntity
8
0
100
AcDbCircle
10
175.84738100984296
20
-214.00890485200443
30
0
40
1.1000000000000001
210
0
220
0
230
1
0
CIRCLE
5
600
100
AcDbEntity
8
0
100
AcDbCircle
10
162.74738100984302
20
-214.00890485200443
30
0
40
1.1000000000000001
210
0
220
0
230
1
0
CIRCLE
5
601
100
AcDbEntity
8
0
100
AcDbCircle
10
162.74738100984302
20
-214.00890485200443
30
0
40
1.1000000000000001
210
0
220
0
230
1
0
CIRCLE
5
602
100
AcDbEntity
8
0
100
AcDbCircle
10
162.74738100984302
20
-214.00890485200443
30
0
40
1.1000000000000001
210
0
220
0
230
1
0
CIRCLE
5
603
100
AcDbEntity
8
0
100
AcDbCircle
10
175.84738100984296
20
-214.00890485200443
30
0
40
1.1000000000000001
210
0
220
0
230
1
0
CIRCLE
5
604
100
AcDbEntity
8
0
100
AcDbCircle
10
175.84738100984296
20
-214.00890485200443
30
0
40
1.1000000000000001
210
0
220
0
230
1
0
ARC
5
605
100
AcDbEntity
8
0
100
AcDbCircle
10
182.81446477184886
20
-216.00626107818539
30
0
40
2.0026300000000319
210
-0
220
0
230
1
100
AcDbArc
50
270
51
328.27561608601593
0
ARC
5
606
100
AcDbEntity
8
0
100
AcDbCircle
10
182.81446477184886
20
-216.00626107818539
30
0
40
2.0026300000000319
210
-0
220
0
230
1
100
AcDbArc
50
270
51
328.27561608601593
0
CIRCLE
5
607
100
AcDbEntity
8
0
100
AcDbCircle
10
175.84738100984296
20
-214.00890485200443
30
0
40
1.1000000000000001
210
0
220
0
230
1
0
CIRCLE
5
608
100
AcDbEntity
8
0
100
AcDbCircle
10
93.247381009842911
20
-140.40890485200447
30
0
40
1.1000000000000001
210
0
220
0
230
1
0
CIRCLE
5
609
100
AcDbEntity
8
0
100
AcDbCircle
10
93.247381009842911
20
-140.40890485200447
30
0
40
1.1000000000000001
210
0
220
0
230
1
0
CIRCLE
5
610
100
AcDbEntity
8
0
100
AcDbCircle
10
175.84738100984296
20
-147.80890485200445
30
0
40
1.1000000000000001
210
0
220
0
230
1
0
LINE
5
611
100
AcDbEntity
8
0
100
AcDbLine
10
179.1182038393984
20
-126.14712812280118
30
0
11
184.51787662146864
21
-140.98289345097953
31
0
0
ARC
5
612
100
AcDbEntity
8
0
100
AcDbCircle
10
175.88803620384439
20
-127.70417387459176
30
0
40
3.5858575580953698
210
0
220
-0
230
1
100
AcDbArc
50
25.735577336209314
51
104.75770408435463
0
ARC
5
613
100
AcDbEntity
8
0
100
AcDbCircle
10
175.88803620384439
20
-127.70417387459176
30
0
40
3.5858575580953698
210
0
220
-0
230
1
100
AcDbArc
50
25.735577336209314
51
104.75770408435463
0
LINE
5
614
100
AcDbEntity
8
0
100
AcDbLine
10
179.1182038393984
20
-126.14712812280118
30
0
11
184.51787662146864
21
-140.98289345097953
31
0
0
LWPOLYLINE
5
615
100
AcDbEntity
8
0
100
AcDbPolyline
90
4
70
1
43
0.0
10
175.03108100984298
20
-129.53690485200445
10
179.81938100984294
20
-142.69290485200443
10
166.663681009843
20
-147.48090485200447
10
161.87538100984298
20
-134.32490485200447
0
LWPOLYLINE
5
616
100
AcDbEntity
8
0
100
AcDbPolyline
90
4
70
1
43
0.0
10
179.81938100984294
20
-142.69290485200443
10
166.663681009843
20
-147.48090485200447
10
161.87538100984298
20
-134.32490485200447
10
175.03108100984298
20
-129.53690485200445
0
CIRCLE
5
617
100
AcDbEntity
8
0
100
AcDbCircle
10
175.84738100984296
20
-147.80890485200445
30
0
40
1.1000000000000001
210
0
220
0
230
1
0
LINE
5
618
100
AcDbEntity
8
0
100
AcDbLine
10
179.1182038393984
20
-126.14712812280118
30
0
11
184.51787662146864
21
-140.98289345097953
31
0
0
LWPOLYLINE
5
619
100
AcDbEntity
8
0
100
AcDbPolyline
90
4
70
1
43
0.0
10
175.03108100984298
20
-129.53690485200445
10
179.81938100984294
20
-142.69290485200443
10
166.663681009843
20
-147.48090485200447
10
161.87538100984298
20
-134.32490485200447
0
CIRCLE
5
620
100
AcDbEntity
8
0
100
AcDbCircle
10
175.84738100984296
20
-147.80890485200445
30
0
40
1.1000000000000001
210
0
220
0
230
1
0
LWPOLYLINE
5
621
100
AcDbEntity
8
0
100
AcDbPolyline
90
4
70
1
43
0.0
10
179.81938100984294
20
-142.69290485200443
10
166.663681009843
20
-147.48090485200447
10
161.87538100984298
20
-134.32490485200447
10
175.03108100984298
20
-129.53690485200445
0
LWPOLYLINE
5
622
100
AcDbEntity
8
0
100
AcDbPolyline
90
4
70
1
43
0.0
10
156.52538100984302
20
-135.59990485200444
10
158.956381009843
20
-149.38690485200448
10
145.16938100984299
20
-151.81810485200444
10
142.73838100984301
20
-138.03090485200445
0
LINE
5
623
100
AcDbEntity
8
0
100
AcDbLine
10
179.1182038393984
20
-126.14712812280118
30
0
11
184.51787662146864
21
-140.98289345097953
31
0
0
CIRCLE
5
624
100
AcDbEntity
8
0
100
AcDbCircle
10
175.84738100984296
20
-147.80890485200445
30
0
40
1.1000000000000001
210
0
220
0
230
1
0
ARC
5
625
100
AcDbEntity
8
0
100
AcDbCircle
10
175.88803620384439
20
-127.70417387459176
30
0
40
3.5858575580953698
210
0
220
-0
230
1
100
AcDbArc
50
25.735577336209314
51
104.75770408435463
0
LWPOLYLINE
5
626
100
AcDbEntity
8
0
100
AcDbPolyline
90
4
70
1
43
0.0
10
158.956381009843
20
-149.38690485200448
10
145.16938100984299
20
-151.81810485200444
10
142.73838100984301
20
-138.03090485200445
10
156.52538100984302
20
-135.59990485200444
0
ARC
5
627
100
AcDbEntity
8
0
100
AcDbCircle
10
175.88803620384439
20
-127.70417387459176
30
0
40
3.5858575580953698
210
0
220
-0
230
1
100
AcDbArc
50
25.735577336209314
51
104.75770408435463
0
ARC
5
628
100
AcDbEntity
8
0
100
AcDbCircle
10
134.26719475877036
20
-33.985065833831818
30
0
40
99.00724186191745
210
0
220
0
230
1
100
AcDbArc
50
261.91778495248548
51
294.27746557748748
0
LWPOLYLINE
5
629
100
AcDbEntity
8
0
100
AcDbPolyline
90
4
70
1
43
0.0
10
158.956381009843
20
-149.38690485200448
10
145.16938100984299
20
-151.81810485200444
10
142.73838100984301
20
-138.03090485200445
10
156.52538100984302
20
-135.59990485200444
0
ARC
5
630
100
AcDbEntity
8
0
100
AcDbCircle
10
134.26719475877036
20
-33.985065833831818
30
0
40
99.00724186191745
210
0
220
0
230
1
100
AcDbArc
50
261.91778495248548
51
294.27746557748748
0
ARC
5
631
100
AcDbEntity
8
0
100
AcDbCircle
10
134.26719475877036
20
-33.985065833831818
30
0
40
99.00724186191745
210
0
220
0
230
1
100
AcDbArc
50
261.91778495248548
51
294.27746557748748
0
LWPOLYLINE
5
632
100
AcDbEntity
8
0
100
AcDbPolyline
90
4
70
1
43
0.0
10
158.956381009843
20
-149.38690485200448
10
145.16938100984299
20
-151.81810485200444
10
142.73838100984301
20
-138.03090485200445
10
156.52538100984302
20
-135.59990485200444
0
ARC
5
633
100
AcDbEntity
8
0
100
AcDbCircle
10
134.26719475877036
20
-33.985065833831818
30
0
40
99.00724186191745
210
0
220
0
230
1
100
AcDbArc
50
261.91778495248548
51
294.27746557748748
0
LWPOLYLINE
5
634
100
AcDbEntity
8
0
100
AcDbPolyline
90
4
70
1
43
0.0
10
122.98438100984299
20
-137.02590485200446
10
136.93038100984296
20
-138.24590485200446
10
135.71038100984296
20
-152.19240485200444
10
121.76438100984299
20
-150.97190485200443
0
LWPOLYLINE
5
635
100
AcDbEntity
8
0
100
AcDbPolyline
90
4
70
1
43
0.0
10
122.98438100984299
20
-137.02590485200446
10
136.93038100984296
20
-138.24590485200446
10
135.71038100984296
20
-152.19240485200444
10
121.76438100984299
20
-150.97190485200443
0
LWPOLYLINE
5
636
100
AcDbEntity
8
0
100
AcDbPolyline
90
4
70
1
43
0.0
10
122.98438100984299
20
-137.02590485200446
10
136.93038100984296
20
-138.24590485200446
10
135.71038100984296
20
-152.19240485200444
10
121.76438100984299
20
-150.97190485200443
0
LWPOLYLINE
5
637
100
AcDbEntity
8
0
100
AcDbPolyline
90
4
70
1
43
0.0
10
136.93038100984296
20
-138.24590485200446
10
135.71038100984296
20
-152.19240485200444
10
121.76438100984299
20
-150.97190485200443
10
122.98438100984299
20
-137.02590485200446
0
CIRCLE
5
638
100
AcDbEntity
8
0
100
AcDbCircle
10
162.74738100984302
20
-147.80890485200445
30
0
40
1.1000000000000001
210
0
220
0
230
1
0
CIRCLE
5
639
100
AcDbEntity
8
0
100
AcDbCircle
10
162.74738100984302
20
-147.80890485200445
30
0
40
1.1000000000000001
210
0
220
0
230
1
0
CIRCLE
5
640
100
AcDbEntity
8
0
100
AcDbCircle
10
162.74738100984302
20
-147.80890485200445
30
0
40
1.1000000000000001
210
0
220
0
230
1
0
CIRCLE
5
641
100
AcDbEntity
8
0
100
AcDbCircle
10
162.74738100984302
20
-147.80890485200445
30
0
40
1.1000000000000001
210
0
220
0
230
1
0
ARC
5
642
100
AcDbEntity
8
0
100
AcDbCircle
10
113.62825495818626
20
-234.24086534298254
30
0
40
102.45252917940006
210
0
220
-0
230
1
100
AcDbArc
50
86.239683342301376
51
111.63945194462917
0
LWPOLYLINE
5
643
100
AcDbEntity
8
0
100
AcDbPolyline
90
4
70
1
43
0.0
10
224.84738100984305
20
-146.00890485200443
10
224.84738100984305
20
-160.00890485200446
10
210.84738100984308
20
-160.00890485200446
10
210.84738100984308
20
-146.00890485200443
0
LINE
5
644
100
AcDbEntity
8
0
100
AcDbLine
10
210.84738100984308
20
-196.00890485200443
30
0
11
210.84738100984308
21
-182.00890485200443
31
0
0
LINE
5
645
100
AcDbEntity
8
0
100
AcDbLine
10
224.84738100984305
20
-182.00890485200443
30
0
11
224.84738100984305
21
-196.00890485200443
31
0
0
LINE
5
646
100
AcDbEntity
8
0
100
AcDbLine
10
210.84738100984308
20
-196.00890485200443
30
0
11
210.84738100984308
21
-182.00890485200443
31
0
0
LINE
5
647
100
AcDbEntity
8
0
100
AcDbLine
10
224.84738100984305
20
-182.00890485200443
30
0
11
224.84738100984305
21
-196.00890485200443
31
0
0
LWPOLYLINE
5
648
100
AcDbEntity
8
0
100
AcDbPolyline
90
4
70
1
43
0.0
10
246.84738100984308
20
-135.50890485200443
10
246.84738100984308
20
-153.00890485200449
10
229.34738100984308
20
-153.00890485200449
10
229.34738100984308
20
-135.50890485200443
0
ARC
5
649
100
AcDbEntity
8
0
100
AcDbCircle
10
243.62825495818629
20
-234.24086534298254
30
0
40
102.45252917940006
210
0
220
-0
230
1
100
AcDbArc
50
86.239683342301376
51
111.63945194462916
0
LWPOLYLINE
5
650
100
AcDbEntity
8
0
100
AcDbPolyline
90
4
70
1
43
0.0
10
228.84738100984296
20
-158.00890485200449
10
242.84738100984302
20
-158.00890485200449
10
242.84738100984302
20
-172.00890485200443
10
228.84738100984296
20
-172.00890485200443
0
LWPOLYLINE
5
651
100
AcDbEntity
8
0
100
AcDbPolyline
90
4
70
1
43
0.0
10
246.84738100984308
20
-135.50890485200443
10
246.84738100984308
20
-153.00890485200449
10
229.34738100984308
20
-153.00890485200449
10
229.34738100984308
20
-135.50890485200443
0
LWPOLYLINE
5
652
100
AcDbEntity
8
0
100
AcDbPolyline
90
4
70
1
43
0.0
10
229.34738100984308
20
-153.00890485200449
10
229.34738100984308
20
-135.50890485200443
10
246.84738100984308
20
-135.50890485200443
10
246.84738100984308
20
-153.00890485200449
0
LWPOLYLINE
5
653
100
AcDbEntity
8
0
100
AcDbPolyline
90
4
70
1
43
0.0
10
228.84738100984296
20
-158.00890485200449
10
242.84738100984302
20
-158.00890485200449
10
242.84738100984302
20
-172.00890485200443
10
228.84738100984296
20
-172.00890485200443
0
LWPOLYLINE
5
654
100
AcDbEntity
8
0
100
AcDbPolyline
90
4
70
1
43
0.0
10
229.34738100984308
20
-135.50890485200443
10
246.84738100984308
20
-135.50890485200443
10
246.84738100984308
20
-153.00890485200449
10
229.34738100984308
20
-153.00890485200449
0
LWPOLYLINE
5
655
100
AcDbEntity
8
0
100
AcDbPolyline
90
4
70
1
43
0.0
10
228.84738100984296
20
-158.00890485200449
10
242.84738100984302
20
-158.00890485200449
10
242.84738100984302
20
-172.00890485200443
10
228.84738100984296
20
-172.00890485200443
0
LWPOLYLINE
5
656
100
AcDbEntity
8
0
100
AcDbPolyline
90
4
70
1
43
0.0
10
228.84738100984296
20
-158.00890485200449
10
242.84738100984302
20
-158.00890485200449
10
242.84738100984302
20
-172.00890485200443
10
228.84738100984296
20
-172.00890485200443
0
LINE
5
657
100
AcDbEntity
8
0
100
AcDbLine
10
224.84738100984305
20
-182.00890485200443
30
0
11
224.84738100984305
21
-196.00890485200443
31
0
0
CIRCLE
5
658
100
AcDbEntity
8
0
100
AcDbCircle
10
223.24738100984294
20
-201.60890485200443
30
0
40
1.1000000000000001
210
0
220
0
230
1
0
LINE
5
659
100
AcDbEntity
8
0
100
AcDbLine
10
224.84738100984305
20
-196.00890485200443
30
0
11
210.84738100984308
21
-196.00890485200443
31
0
0
LINE
5
660
100
AcDbEntity
8
0
100
AcDbLine
10
224.84738100984305
20
-196.00890485200443
30
0
11
210.84738100984308
21
-196.00890485200443
31
0
0
CIRCLE
5
661
100
AcDbEntity
8
0
100
AcDbCircle
10
223.24738100984294
20
-201.60890485200443
30
0
40
1.1000000000000001
210
0
220
0
230
1
0
LINE
5
662
100
AcDbEntity
8
0
100
AcDbLine
10
224.84738100984305
20
-182.00890485200443
30
0
11
224.84738100984305
21
-196.00890485200443
31
0
0
LWPOLYLINE
5
663
100
AcDbEntity
8
0
100
AcDbPolyline
90
4
70
1
43
0.0
10
224.84738100984305
20
-178.00890485200443
10
210.84738100984308
20
-178.00890485200443
10
210.84738100984308
20
-164.00890485200446
10
224.84738100984305
20
-164.00890485200446
0
CIRCLE
5
664
100
AcDbEntity
8
0
100
AcDbCircle
10
223.24738100984294
20
-140.40890485200447
30
0
40
1.1000000000000001
210
0
220
0
230
1
0
CIRCLE
5
665
100
AcDbEntity
8
0
100
AcDbCircle
10
223.24738100984294
20
-140.40890485200447
30
0
40
1.1000000000000001
210
0
220
0
230
1
0
CIRCLE
5
666
100
AcDbEntity
8
0
100
AcDbCircle
10
223.24738100984294
20
-140.40890485200447
30
0
40
1.1000000000000001
210
0
220
0
230
1
0
LWPOLYLINE
5
667
100
AcDbEntity
8
0
100
AcDbPolyline
90
4
70
1
43
0.0
10
210.84738100984308
20
-146.00890485200443
10
224.84738100984305
20
-146.00890485200443
10
224.84738100984305
20
-160.00890485200446
10
210.84738100984308
20
-160.00890485200446
0
LWPOLYLINE
5
668
100
AcDbEntity
8
0
100
AcDbPolyline
90
4
70
1
43
0.0
10
210.84738100984308
20
-146.00890485200443
10
224.84738100984305
20
-146.00890485200443
10
224.84738100984305
20
-160.00890485200446
10
210.84738100984308
20
-160.00890485200446
0
LINE
5
669
100
AcDbEntity
8
0
100
AcDbLine
10
210.84738100984308
20
-182.00890485200443
30
0
11
224.84738100984305
21
-182.00890485200443
31
0
0
LWPOLYLINE
5
670
100
AcDbEntity
8
0
100
AcDbPolyline
90
4
70
1
43
0.0
10
224.84738100984305
20
-164.00890485200446
10
224.84738100984305
20
-178.00890485200443
10
210.84738100984308
20
-178.00890485200443
10
210.84738100984308
20
-164.00890485200446
0
LWPOLYLINE
5
671
100
AcDbEntity
8
0
100
AcDbPolyline
90
4
70
1
43
0.0
10
210.84738100984308
20
-146.00890485200443
10
224.84738100984305
20
-146.00890485200443
10
224.84738100984305
20
-160.00890485200446
10
210.84738100984308
20
-160.00890485200446
0
CIRCLE
5
672
100
AcDbEntity
8
0
100
AcDbCircle
10
223.24738100984294
20
-140.40890485200447
30
0
40
1.1000000000000001
210
0
220
0
230
1
0
LWPOLYLINE
5
673
100
AcDbEntity
8
0
100
AcDbPolyline
90
4
70
1
43
0.0
10
291.87538100984301
20
-134.32490485200447
10
305.03108100984304
20
-129.53690485200445
10
309.81938100984297
20
-142.69290485200443
10
296.66368100984306
20
-147.48090485200447
0
LWPOLYLINE
5
674
100
AcDbEntity
8
0
100
AcDbPolyline
90
4
70
1
43
0.0
10
286.52538100984304
20
-135.59990485200444
10
288.95638100984303
20
-149.38690485200448
10
275.16938100984299
20
-151.81810485200444
10
272.73838100984301
20
-138.03090485200445
0
LWPOLYLINE
5
675
100
AcDbEntity
8
0
100
AcDbPolyline
90
4
70
1
43
0.0
10
291.87538100984301
20
-134.32490485200447
10
305.03108100984304
20
-129.53690485200445
10
309.81938100984297
20
-142.69290485200443
10
296.66368100984306
20
-147.48090485200447
0
LWPOLYLINE
5
676
100
AcDbEntity
8
0
100
AcDbPolyline
90
4
70
1
43
0.0
10
282.84738100984305
20
-156.00890485200443
10
296.84738100984299
20
-156.00890485200443
10
296.84738100984299
20
-170.00890485200446
10
282.84738100984305
20
-170.00890485200446
0
LWPOLYLINE
5
677
100
AcDbEntity
8
0
100
AcDbPolyline
90
4
70
1
43
0.0
10
286.52538100984304
20
-135.59990485200444
10
288.95638100984303
20
-149.38690485200448
10
275.16938100984299
20
-151.81810485200444
10
272.73838100984301
20
-138.03090485200445
0
LWPOLYLINE
5
678
100
AcDbEntity
8
0
100
AcDbPolyline
90
4
70
1
43
0.0
10
296.66368100984306
20
-147.48090485200447
10
291.87538100984301
20
-134.32490485200447
10
305.03108100984304
20
-129.53690485200445
10
309.81938100984297
20
-142.69290485200443
0
CIRCLE
5
679
100
AcDbEntity
8
0
100
AcDbCircle
10
292.74738100984302
20
-147.80890485200445
30
0
40
1.1000000000000001
210
0
220
0
230
1
0
LWPOLYLINE
5
680
100
AcDbEntity
8
0
100
AcDbPolyline
90
4
70
1
43
0.0
10
282.84738100984305
20
-156.00890485200443
10
296.84738100984299
20
-156.00890485200443
10
296.84738100984299
20
-170.00890485200446
10
282.84738100984305
20
-170.00890485200446
0
LWPOLYLINE
5
681
100
AcDbEntity
8
0
100
AcDbPolyline
90
4
70
1
43
0.0
10
282.84738100984305
20
-156.00890485200443
10
296.84738100984299
20
-156.00890485200443
10
296.84738100984299
20
-170.00890485200446
10
282.84738100984305
20
-170.00890485200446
0
LWPOLYLINE
5
682
100
AcDbEntity
8
0
100
AcDbPolyline
90
4
70
1
43
0.0
10
296.66368100984306
20
-147.48090485200447
10
291.87538100984301
20
-134.32490485200447
10
305.03108100984304
20
-129.53690485200445
10
309.81938100984297
20
-142.69290485200443
0
CIRCLE
5
683
100
AcDbEntity
8
0
100
AcDbCircle
10
292.74738100984302
20
-147.80890485200445
30
0
40
1.1000000000000001
210
0
220
0
230
1
0
LWPOLYLINE
5
684
100
AcDbEntity
8
0
100
AcDbPolyline
90
4
70
1
43
0.0
10
286.52538100984304
20
-135.59990485200444
10
288.95638100984303
20
-149.38690485200448
10
275.16938100984299
20
-151.81810485200444
10
272.73838100984301
20
-138.03090485200445
0
LWPOLYLINE
5
685
100
AcDbEntity
8
0
100
AcDbPolyline
90
4
70
1
43
0.0
10
286.52538100984304
20
-135.59990485200444
10
288.95638100984303
20
-149.38690485200448
10
275.16938100984299
20
-151.81810485200444
10
272.73838100984301
20
-138.03090485200445
0
CIRCLE
5
686
100
AcDbEntity
8
0
100
AcDbCircle
10
292.74738100984302
20
-147.80890485200445
30
0
40
1.1000000000000001
210
0
220
0
230
1
0
LWPOLYLINE
5
687
100
AcDbEntity
8
0
100
AcDbPolyline
90
4
70
1
43
0.0
10
266.93038100984302
20
-138.24590485200446
10
265.71038100984299
20
-152.19240485200444
10
251.76438100984302
20
-150.97190485200443
10
252.98438100984302
20
-137.02590485200446
0
LWPOLYLINE
5
688
100
AcDbEntity
8
0
100
AcDbPolyline
90
4
70
1
43
0.0
10
252.98438100984302
20
-137.02590485200446
10
266.93038100984302
20
-138.24590485200446
10
265.71038100984299
20
-152.19240485200444
10
251.76438100984302
20
-150.97190485200443
0
LWPOLYLINE
5
689
100
AcDbEntity
8
0
100
AcDbPolyline
90
4
70
1
43
0.0
10
251.76438100984302
20
-150.97190485200443
10
252.98438100984302
20
-137.02590485200446
10
266.93038100984302
20
-138.24590485200446
10
265.71038100984299
20
-152.19240485200444
0
LWPOLYLINE
5
690
100
AcDbEntity
8
0
100
AcDbPolyline
90
4
70
1
43
0.0
10
265.71038100984299
20
-152.19240485200444
10
251.76438100984302
20
-150.97190485200443
10
252.98438100984302
20
-137.02590485200446
10
266.93038100984302
20
-138.24590485200446
0
LWPOLYLINE
5
691
100
AcDbEntity
8
0
100
AcDbPolyline
90
4
70
1
43
0.0
10
260.84738100984299
20
-213.00890485200443
10
246.84738100984308
20
-213.00890485200443
10
246.84738100984308
20
-199.00890485200443
10
260.84738100984299
20
-199.00890485200443
0
ARC
5
692
100
AcDbEntity
8
0
100
AcDbCircle
10
312.81446477184892
20
-216.00626107818539
30
0
40
2.0026300000000319
210
-0
220
0
230
1
100
AcDbArc
50
270
51
328.27561608601508
0
LWPOLYLINE
5
693
100
AcDbEntity
8
0
100
AcDbPolyline
90
4
70
1
43
0.0
10
296.84738100984299
20
-206.00890485200441
10
282.84738100984305
20
-206.00890485200441
10
282.84738100984305
20
-192.00890485200443
10
296.84738100984299
20
-192.00890485200443
0
CIRCLE
5
694
100
AcDbEntity
8
0
100
AcDbCircle
10
292.74738100984302
20
-214.00890485200443
30
0
40
1.1000000000000001
210
0
220
0
230
1
0
LWPOLYLINE
5
695
100
AcDbEntity
8
0
100
AcDbPolyline
90
4
70
1
43
0.0
10
296.84738100984299
20
-192.00890485200443
10
296.84738100984299
20
-206.00890485200441
10
282.84738100984305
20
-206.00890485200441
10
282.84738100984305
20
-192.00890485200443
0
LWPOLYLINE
5
696
100
AcDbEntity
8
0
100
AcDbPolyline
90
4
70
1
43
0.0
10
246.84738100984308
20
-199.00890485200443
10
260.84738100984299
20
-199.00890485200443
10
260.84738100984299
20
-213.00890485200443
10
246.84738100984308
20
-213.00890485200443
0
LWPOLYLINE
5
697
100
AcDbEntity
8
0
100
AcDbPolyline
90
4
70
1
43
0.0
10
260.84738100984299
20
-213.00890485200443
10
246.84738100984308
20
-213.00890485200443
10
246.84738100984308
20
-199.00890485200443
10
260.84738100984299
20
-199.00890485200443
0
LWPOLYLINE
5
698
100
AcDbEntity
8
0
100
AcDbPolyline
90
4
70
1
43
0.0
10
264.84738100984305
20
-172.00890485200443
10
264.84738100984305
20
-158.00890485200449
10
278.84738100984305
20
-158.00890485200449
10
278.84738100984305
20
-172.00890485200443
0
LWPOLYLINE
5
699
100
AcDbEntity
8
0
100
AcDbPolyline
90
4
70
1
43
0.0
10
246.84738100984308
20
-199.00890485200443
10
260.84738100984299
20
-199.00890485200443
10
260.84738100984299
20
-213.00890485200443
10
246.84738100984308
20
-213.00890485200443
0
CIRCLE
5
700
100
AcDbEntity
8
0
100
AcDbCircle
10
292.74738100984302
20
-214.00890485200443
30
0
40
1.1000000000000001
210
0
220
0
230
1
0
CIRCLE
5
701
100
AcDbEntity
8
0
100
AcDbCircle
10
305.84738100984299
20
-214.00890485200443
30
0
40
1.1000000000000001
210
0
220
0
230
1
0
ARC
5
702
100
AcDbEntity
8
0
100
AcDbCircle
10
312.81446477184892
20
-216.00626107818539
30
0
40
2.0026300000000319
210
-0
220
0
230
1
100
AcDbArc
50
270
51
328.27561608601508
0
CIRCLE
5
703
100
AcDbEntity
8
0
100
AcDbCircle
10
305.84738100984299
20
-214.00890485200443
30
0
40
1.1000000000000001
210
0
220
0
230
1
0
LWPOLYLINE
5
704
100
AcDbEntity
8
0
100
AcDbPolyline
90
4
70
1
43
0.0
10
296.84738100984299
20
-188.00890485200443
10
282.84738100984305
20
-188.00890485200443
10
282.84738100984305
20
-174.00890485200443
10
296.84738100984299
20
-174.00890485200443
0
LWPOLYLINE
5
705
100
AcDbEntity
8
0
100
AcDbPolyline
90
4
70
1
43
0.0
10
296.84738100984299
20
-206.00890485200441
10
282.84738100984305
20
-206.00890485200441
10
282.84738100984305
20
-192.00890485200443
10
296.84738100984299
20
-192.00890485200443
0
LWPOLYLINE
5
706
100
AcDbEntity
8
0
100
AcDbPolyline
90
4
70
1
43
0.0
10
282.84738100984305
20
-188.00890485200443
10
282.84738100984305
20
-174.00890485200443
10
296.84738100984299
20
-174.00890485200443
10
296.84738100984299
20
-188.00890485200443
0
LWPOLYLINE
5
707
100
AcDbEntity
8
0
100
AcDbPolyline
90
4
70
1
43
0.0
10
242.84738100984302
20
-176.00890485200441
10
242.84738100984302
20
-190.00890485200443
10
228.84738100984296
20
-190.00890485200443
10
228.84738100984296
20
-176.00890485200441
0
LWPOLYLINE
5
708
100
AcDbEntity
8
0
100
AcDbPolyline
90
4
70
1
43
0.0
10
228.84738100984296
20
-176.00890485200441
10
242.84738100984302
20
-176.00890485200441
10
242.84738100984302
20
-190.00890485200443
10
228.84738100984296
20
-190.00890485200443
0
LWPOLYLINE
5
709
100
AcDbEntity
8
0
100
AcDbPolyline
90
4
70
1
43
0.0
10
246.84738100984308
20
-177.00890485200443
10
246.84738100984308
20
-163.00890485200449
10
260.84738100984299
20
-163.00890485200449
10
260.84738100984299
20
-177.00890485200443
0
LWPOLYLINE
5
710
100
AcDbEntity
8
0
100
AcDbPolyline
90
4
70
1
43
0.0
10
246.84738100984308
20
-177.00890485200443
10
246.84738100984308
20
-163.00890485200449
10
260.84738100984299
20
-163.00890485200449
10
260.84738100984299
20
-177.00890485200443
0
LWPOLYLINE
5
711
100
AcDbEntity
8
0
100
AcDbPolyline
90
4
70
1
43
0.0
10
264.84738100984305
20
-190.00890485200443
10
264.84738100984305
20
-176.00890485200441
10
278.84738100984305
20
-176.00890485200441
10
278.84738100984305
20
-190.00890485200443
0
LWPOLYLINE
5
712
100
AcDbEntity
8
0
100
AcDbPolyline
90
4
70
1
43
0.0
10
264.84738100984305
20
-190.00890485200443
10
264.84738100984305
20
-176.00890485200441
10
278.84738100984305
20
-176.00890485200441
10
278.84738100984305
20
-190.00890485200443
0
LWPOLYLINE
5
713
100
AcDbEntity
8
0
100
AcDbPolyline
90
4
70
1
43
0.0
10
278.84738100984305
20
-176.00890485200441
10
278.84738100984305
20
-190.00890485200443
10
264.84738100984305
20
-190.00890485200443
10
264.84738100984305
20
-176.00890485200441
0
LWPOLYLINE
5
714
100
AcDbEntity
8
0
100
AcDbPolyline
90
4
70
1
43
0.0
10
228.84738100984296
20
-190.00890485200443
10
228.84738100984296
20
-176.00890485200441
10
242.84738100984302
20
-176.00890485200441
10
242.84738100984302
20
-190.00890485200443
0
LWPOLYLINE
5
715
100
AcDbEntity
8
0
100
AcDbPolyline
90
4
70
1
43
0.0
10
264.84738100984305
20
-190.00890485200443
10
264.84738100984305
20
-176.00890485200441
10
278.84738100984305
20
-176.00890485200441
10
278.84738100984305
20
-190.00890485200443
0
LINE
5
716
100
AcDbEntity
8
0
100
AcDbLine
10
314.51787662146864
20
-217.05931140341909
30
0
11
314.51787662146864
21
-140.98289345097953
31
0
0
LWPOLYLINE
5
717
100
AcDbEntity
8
0
100
AcDbPolyline
90
4
70
1
43
0.0
10
242.84738100984302
20
-176.00890485200441
10
242.84738100984302
20
-190.00890485200443
10
228.84738100984296
20
-190.00890485200443
10
228.84738100984296
20
-176.00890485200441
0
LWPOLYLINE
5
718
100
AcDbEntity
8
0
100
AcDbPolyline
90
4
70
1
43
0.0
10
246.84738100984308
20
-177.00890485200443
10
246.84738100984308
20
-163.00890485200449
10
260.84738100984299
20
-163.00890485200449
10
260.84738100984299
20
-177.00890485200443
0
LWPOLYLINE
5
719
100
AcDbEntity
8
0
100
AcDbPolyline
90
4
70
1
43
0.0
10
246.84738100984308
20
-195.00890485200443
10
246.84738100984308
20
-181.00890485200441
10
260.84738100984299
20
-181.00890485200441
10
260.84738100984299
20
-195.00890485200443
0
LWPOLYLINE
5
720
100
AcDbEntity
8
0
100
AcDbPolyline
90
4
70
1
43
0.0
10
260.84738100984299
20
-181.00890485200441
10
260.84738100984299
20
-195.00890485200443
10
246.84738100984308
20
-195.00890485200443
10
246.84738100984308
20
-181.00890485200441
0
LWPOLYLINE
5
721
100
AcDbEntity
8
0
100
AcDbPolyline
90
4
70
1
43
0.0
10
246.84738100984308
20
-195.00890485200443
10
246.84738100984308
20
-181.00890485200441
10
260.84738100984299
20
-181.00890485200441
10
260.84738100984299
20
-195.00890485200443
0
LWPOLYLINE
5
722
100
AcDbEntity
8
0
100
AcDbPolyline
90
4
70
1
43
0.0
10
296.84738100984299
20
-174.00890485200443
10
296.84738100984299
20
-188.00890485200443
10
282.84738100984305
20
-188.00890485200443
10
282.84738100984305
20
-174.00890485200443
0
LWPOLYLINE
5
723
100
AcDbEntity
8
0
100
AcDbPolyline
90
4
70
1
43
0.0
10
260.84738100984299
20
-163.00890485200449
10
260.84738100984299
20
-177.00890485200443
10
246.84738100984308
20
-177.00890485200443
10
246.84738100984308
20
-163.00890485200449
0
LWPOLYLINE
5
724
100
AcDbEntity
8
0
100
AcDbPolyline
90
4
70
1
43
0.0
10
278.84738100984305
20
-172.00890485200443
10
264.84738100984305
20
-172.00890485200443
10
264.84738100984305
20
-158.00890485200449
10
278.84738100984305
20
-158.00890485200449
0
LWPOLYLINE
5
725
100
AcDbEntity
8
0
100
AcDbPolyline
90
4
70
1
43
0.0
10
282.84738100984305
20
-188.00890485200443
10
282.84738100984305
20
-174.00890485200443
10
296.84738100984299
20
-174.00890485200443
10
296.84738100984299
20
-188.00890485200443
0
LWPOLYLINE
5
726
100
AcDbEntity
8
0
100
AcDbPolyline
90
4
70
1
43
0.0
10
278.84738100984305
20
-172.00890485200443
10
264.84738100984305
20
-172.00890485200443
10
264.84738100984305
20
-158.00890485200449
10
278.84738100984305
20
-158.00890485200449
0
LINE
5
727
100
AcDbEntity
8
0
100
AcDbLine
10
314.51787662146864
20
-217.05931140341909
30
0
11
314.51787662146864
21
-140.98289345097953
31
0
0
ARC
5
728
100
AcDbEntity
8
0
100
AcDbCircle
10
264.26719475877042
20
-33.985065833831818
30
0
40
99.00724186191745
210
0
220
0
230
1
100
AcDbArc
50
261.91778495248542
51
294.27746557748748
0
LINE
5
729
100
AcDbEntity
8
0
100
AcDbLine
10
314.51787662146864
20
-217.05931140341909
30
0
11
314.51787662146864
21
-140.98289345097953
31
0
0
LINE
5
730
100
AcDbEntity
8
0
100
AcDbLine
10
205.84738100984308
20
-139.00890485200446
30
0
11
205.84738100984308
21
-196.00890485200443
31
0
0
LINE
5
731
100
AcDbEntity
8
0
100
AcDbLine
10
205.84738100984308
20
-139.00890485200446
30
0
11
205.84738100984308
21
-196.00890485200443
31
0
0
ARC
5
732
100
AcDbEntity
8
0
100
AcDbCircle
10
242.27853152041664
20
-176.90055539510655
30
0
40
41.138275929977851
210
0
220
0
230
1
100
AcDbArc
50
207.67727052752855
51
272.18609292558591
0
ARC
5
733
100
AcDbEntity
8
0
100
AcDbCircle
10
243.62825495818629
20
-234.24086534298254
30
0
40
102.45252917940006
210
0
220
-0
230
1
100
AcDbArc
50
86.239683342301376
51
111.63945194462916
0
LINE
5
734
100
AcDbEntity
8
0
100
AcDbLine
10
205.84738100984308
20
-139.00890485200446
30
0
11
205.84738100984308
21
-196.00890485200443
31
0
0
ARC
5
735
100
AcDbEntity
8
0
100
AcDbCircle
10
243.62825495818629
20
-234.24086534298254
30
0
40
102.45252917940006
210
0
220
-0
230
1
100
AcDbArc
50
86.239683342301376
51
111.63945194462916
0
LINE
5
736
100
AcDbEntity
8
0
100
AcDbLine
10
205.84738100984308
20
-139.00890485200446
30
0
11
205.84738100984308
21
-196.00890485200443
31
0
0
ARC
5
737
100
AcDbEntity
8
0
100
AcDbCircle
10
243.62825495818629
20
-234.24086534298254
30
0
40
102.45252917940006
210
0
220
-0
230
1
100
AcDbArc
50
86.239683342301376
51
111.63945194462916
0
CIRCLE
5
738
100
AcDbEntity
8
0
100
AcDbCircle
10
305.84738100984299
20
-147.80890485200445
30
0
40
1.1000000000000001
210
0
220
0
230
1
0
ARC
5
739
100
AcDbEntity
8
0
100
AcDbCircle
10
264.26719475877042
20
-33.985065833831818
30
0
40
99.00724186191745
210
0
220
0
230
1
100
AcDbArc
50
261.91778495248542
51
294.27746557748748
0
LWPOLYLINE
5
740
100
AcDbEntity
8
0
100
AcDbPolyline
90
4
70
1
43
0.0
10
264.84738100984305
20
-158.00890485200449
10
278.84738100984305
20
-158.00890485200449
10
278.84738100984305
20
-172.00890485200443
10
264.84738100984305
20
-172.00890485200443
0
ARC
5
741
100
AcDbEntity
8
0
100
AcDbCircle
10
305.88803620384442
20
-127.70417387459176
30
0
40
3.5858575580953698
210
0
220
-0
230
1
100
AcDbArc
50
25.735577336209126
51
104.75770408435463
0
ARC
5
742
100
AcDbEntity
8
0
100
AcDbCircle
10
305.88803620384442
20
-127.70417387459176
30
0
40
3.5858575580953698
210
0
220
-0
230
1
100
AcDbArc
50
25.735577336209126
51
104.75770408435463
0
ARC
5
743
100
AcDbEntity
8
0
100
AcDbCircle
10
305.88803620384442
20
-127.70417387459176
30
0
40
3.5858575580953698
210
0
220
-0
230
1
100
AcDbArc
50
25.735577336209126
51
104.75770408435463
0
ARC
5
744
100
AcDbEntity
8
0
100
AcDbCircle
10
264.26719475877042
20
-33.985065833831818
30
0
40
99.00724186191745
210
0
220
0
230
1
100
AcDbArc
50
261.91778495248542
51
294.27746557748748
0
ARC
5
745
100
AcDbEntity
8
0
100
AcDbCircle
10
264.26719475877042
20
-33.985065833831818
30
0
40
99.00724186191745
210
0
220
0
230
1
100
AcDbArc
50
261.91778495248542
51
294.27746557748748
0
LINE
5
746
100
AcDbEntity
8
0
100
AcDbLine
10
309.11820383939846
20
-126.14712812280118
30
0
11
314.51787662146864
21
-140.98289345097953
31
0
0
LINE
5
747
100
AcDbEntity
8
0
100
AcDbLine
10
309.11820383939846
20
-126.14712812280118
30
0
11
314.51787662146864
21
-140.98289345097953
31
0
0
LWPOLYLINE
5
748
100
AcDbEntity
8
0
100
AcDbPolyline
90
4
70
1
43
0.0
10
282.84738100984305
20
-156.00890485200443
10
296.84738100984299
20
-156.00890485200443
10
296.84738100984299
20
-170.00890485200446
10
282.84738100984305
20
-170.00890485200446
0
CIRCLE
5
749
100
AcDbEntity
8
0
100
AcDbCircle
10
305.84738100984299
20
-147.80890485200445
30
0
40
1.1000000000000001
210
0
220
0
230
1
0
LINE
5
750
100
AcDbEntity
8
0
100
AcDbLine
10
309.11820383939846
20
-126.14712812280118
30
0
11
314.51787662146864
21
-140.98289345097953
31
0
0
CIRCLE
5
751
100
AcDbEntity
8
0
100
AcDbCircle
10
292.74738100984302
20
-147.80890485200445
30
0
40
1.1000000000000001
210
0
220
0
230
1
0
ARC
5
752
100
AcDbEntity
8
0
100
AcDbCircle
10
305.88803620384442
20
-127.70417387459176
30
0
40
3.5858575580953698
210
0
220
-0
230
1
100
AcDbArc
50
25.735577336209126
51
104.75770408435463
0
CIRCLE
5
753
100
AcDbEntity
8
0
100
AcDbCircle
10
305.84738100984299
20
-147.80890485200445
30
0
40
1.1000000000000001
210
0
220
0
230
1
0
LINE
5
754
100
AcDbEntity
8
0
100
AcDbLine
10
309.11820383939846
20
-126.14712812280118
30
0
11
314.51787662146864
21
-140.98289345097953
31
0
0
CIRCLE
5
755
100
AcDbEntity
8
0
100
AcDbCircle
10
305.84738100984299
20
-147.80890485200445
30
0
40
1.1000000000000001
210
0
220
0
230
1
0
CIRCLE
5
756
100
AcDbEntity
8
0
100
AcDbCircle
10
223.24738100984294
20
-201.60890485200443
30
0
40
1.1000000000000001
210
0
220
0
230
1
0
LWPOLYLINE
5
757
100
AcDbEntity
8
0
100
AcDbPolyline
90
4
70
1
43
0.0
10
210.84738100984308
20
-178.00890485200443
10
210.84738100984308
20
-164.00890485200446
10
224.84738100984305
20
-164.00890485200446
10
224.84738100984305
20
-178.00890485200443
0
CIRCLE
5
758
100
AcDbEntity
8
0
100
AcDbCircle
10
223.24738100984294
20
-201.60890485200443
30
0
40
1.1000000000000001
210
0
220
0
230
1
0
LINE
5
759
100
AcDbEntity
8
0
100
AcDbLine
10
224.84738100984305
20
-196.00890485200443
30
0
11
210.84738100984308
21
-196.00890485200443
31
0
0
LINE
5
760
100
AcDbEntity
8
0
100
AcDbLine
10
224.84738100984305
20
-196.00890485200443
30
0
11
210.84738100984308
21
-196.00890485200443
31
0
0
LINE
5
761
100
AcDbEntity
8
0
100
AcDbLine
10
210.84738100984308
20
-182.00890485200443
30
0
11
224.84738100984305
21
-182.00890485200443
31
0
0
LWPOLYLINE
5
762
100
AcDbEntity
8
0
100
AcDbPolyline
90
4
70
1
43
0.0
10
224.84738100984305
20
-164.00890485200446
10
224.84738100984305
20
-178.00890485200443
10
210.84738100984308
20
-178.00890485200443
10
210.84738100984308
20
-164.00890485200446
0
LINE
5
763
100
AcDbEntity
8
0
100
AcDbLine
10
210.84738100984308
20
-182.00890485200443
30
0
11
224.84738100984305
21
-182.00890485200443
31
0
0
LINE
5
764
100
AcDbEntity
8
0
100
AcDbLine
10
210.84738100984308
20
-182.00890485200443
30
0
11
224.84738100984305
21
-182.00890485200443
31
0
0
LWPOLYLINE
5
765
100
AcDbEntity
8
0
100
AcDbPolyline
90
4
70
1
43
0.0
10
228.84738100984296
20
-194.00890485200446
10
242.84738100984302
20
-194.00890485200443
10
242.84738100984302
20
-208.00890485200443
10
228.84738100984296
20
-208.00890485200443
0
LWPOLYLINE
5
766
100
AcDbEntity
8
0
100
AcDbPolyline
90
4
70
1
43
0.0
10
246.84738100984308
20
-195.00890485200443
10
246.84738100984308
20
-181.00890485200441
10
260.84738100984299
20
-181.00890485200441
10
260.84738100984299
20
-195.00890485200443
0
LWPOLYLINE
5
767
100
AcDbEntity
8
0
100
AcDbPolyline
90
4
70
1
43
0.0
10
278.84738100984305
20
-208.00890485200443
10
264.84738100984305
20
-208.00890485200443
10
264.84738100984305
20
-194.00890485200443
10
278.84738100984305
20
-194.00890485200443
0
LWPOLYLINE
5
768
100
AcDbEntity
8
0
100
AcDbPolyline
90
4
70
1
43
0.0
10
278.84738100984305
20
-208.00890485200443
10
264.84738100984305
20
-208.00890485200443
10
264.84738100984305
20
-194.00890485200443
10
278.84738100984305
20
-194.00890485200443
0
LINE
5
769
100
AcDbEntity
8
0
100
AcDbLine
10
312.81446477184892
20
-218.0088910781854
30
0
11
243.84776185988218
21
-218.0088910781854
31
0
0
LWPOLYLINE
5
770
100
AcDbEntity
8
0
100
AcDbPolyline
90
4
70
1
43
0.0
10
242.84738100984302
20
-208.00890485200443
10
228.84738100984296
20
-208.00890485200443
10
228.84738100984296
20
-194.00890485200446
10
242.84738100984302
20
-194.00890485200443
0
ARC
5
771
100
AcDbEntity
8
0
100
AcDbCircle
10
312.81446477184892
20
-216.00626107818539
30
0
40
2.0026300000000319
210
-0
220
0
230
1
100
AcDbArc
50
270
51
328.27561608601508
0
LINE
5
772
100
AcDbEntity
8
0
100
AcDbLine
10
312.81446477184892
20
-218.0088910781854
30
0
11
243.84776185988218
21
-218.0088910781854
31
0
0
LINE
5
773
100
AcDbEntity
8
0
100
AcDbLine
10
312.81446477184892
20
-218.0088910781854
30
0
11
243.84776185988218
21
-218.0088910781854
31
0
0
LWPOLYLINE
5
774
100
AcDbEntity
8
0
100
AcDbPolyline
90
4
70
1
43
0.0
10
242.84738100984302
20
-208.00890485200443
10
228.84738100984296
20
-208.00890485200443
10
228.84738100984296
20
-194.00890485200446
10
242.84738100984302
20
-194.00890485200443
0
LINE
5
775
100
AcDbEntity
8
0
100
AcDbLine
10
312.81446477184892
20
-218.0088910781854
30
0
11
243.84776185988218
21
-218.0088910781854
31
0
0
LWPOLYLINE
5
776
100
AcDbEntity
8
0
100
AcDbPolyline
90
4
70
1
43
0.0
10
242.84738100984302
20
-208.00890485200443
10
228.84738100984296
20
-208.00890485200443
10
228.84738100984296
20
-194.00890485200446
10
242.84738100984302
20
-194.00890485200443
0
LINE
5
777
100
AcDbEntity
8
0
100
AcDbLine
10
314.51787662146864
20
-217.05931140341909
30
0
11
314.51787662146864
21
-140.98289345097953
31
0
0
CIRCLE
5
778
100
AcDbEntity
8
0
100
AcDbCircle
10
305.84738100984299
20
-214.00890485200443
30
0
40
1.1000000000000001
210
0
220
0
230
1
0
LWPOLYLINE
5
779
100
AcDbEntity
8
0
100
AcDbPolyline
90
4
70
1
43
0.0
10
278.84738100984305
20
-194.00890485200443
10
278.84738100984305
20
-208.00890485200443
10
264.84738100984305
20
-208.00890485200443
10
264.84738100984305
20
-194.00890485200443
0
ARC
5
780
100
AcDbEntity
8
0
100
AcDbCircle
10
312.81446477184892
20
-216.00626107818539
30
0
40
2.0026300000000319
210
-0
220
0
230
1
100
AcDbArc
50
270
51
328.27561608601508
0
LWPOLYLINE
5
781
100
AcDbEntity
8
0
100
AcDbPolyline
90
4
70
1
43
0.0
10
278.84738100984305
20
-208.00890485200443
10
264.84738100984305
20
-208.00890485200443
10
264.84738100984305
20
-194.00890485200443
10
278.84738100984305
20
-194.00890485200443
0
LWPOLYLINE
5
782
100
AcDbEntity
8
0
100
AcDbPolyline
90
4
70
1
43
0.0
10
296.84738100984299
20
-192.00890485200443
10
296.84738100984299
20
-206.00890485200441
10
282.84738100984305
20
-206.00890485200441
10
282.84738100984305
20
-192.00890485200443
0
CIRCLE
5
783
100
AcDbEntity
8
0
100
AcDbCircle
10
292.74738100984302
20
-214.00890485200443
30
0
40
1.1000000000000001
210
0
220
0
230
1
0
CIRCLE
5
784
100
AcDbEntity
8
0
100
AcDbCircle
10
305.84738100984299
20
-214.00890485200443
30
0
40
1.1000000000000001
210
0
220
0
230
1
0
CIRCLE
5
785
100
AcDbEntity
8
0
100
AcDbCircle
10
292.74738100984302
20
-214.00890485200443
30
0
40
1.1000000000000001
210
0
220
0
230
1
0
LINE
5
786
100
AcDbEntity
8
0
100
AcDbLine
10
210.84738100984308
20
-196.00890485200443
30
0
11
210.84738100984308
21
-182.00890485200443
31
0
0
ARC
5
787
100
AcDbEntity
8
0
100
AcDbCircle
10
242.27853152041664
20
-176.90055539510655
30
0
40
41.138275929977851
210
0
220
0
230
1
100
AcDbArc
50
207.67727052752855
51
272.18609292558591
0
LINE
5
788
100
AcDbEntity
8
0
100
AcDbLine
10
210.84738100984308
20
-196.00890485200443
30
0
11
210.84738100984308
21
-182.00890485200443
31
0
0
ARC
5
789
100
AcDbEntity
8
0
100
AcDbCircle
10
242.27853152041664
20
-176.90055539510655
30
0
40
41.138275929977851
210
0
220
0
230
1
100
AcDbArc
50
207.67727052752855
51
272.18609292558591
0
ARC
5
790
100
AcDbEntity
8
0
100
AcDbCircle
10
242.27853152041664
20
-176.90055539510655
30
0
40
41.138275929977851
210
0
220
0
230
1
100
AcDbArc
50
207.67727052752855
51
272.18609292558591
0
ENDSEC
0
SECTION
2
OBJECTS
0
DICTIONARY
5
C
100
AcDbDictionary
3
ACAD_GROUP
350
D
3
ACAD_MLINESTYLE
350
17
0
DICTIONARY
5
D
100
AcDbDictionary
0
DICTIONARY
5
1A
330
C
100
AcDbDictionary
0
DICTIONARY
5
17
100
AcDbDictionary
0
ENDSEC
0
EOF
