0
SECTION
2
HEADER
9
$INSUNITS
70
4
9
$ACADVER
1
AC1014
9
$HANDSEED
5
FFFF
0
ENDSEC
0
SECTION
2
TABLES
0
TABLE
2
VPORT
5
8
100
AcDbSymbolTable
0
ENDTAB
0
TABLE
2
LTYPE
5
5
100
AcDbSymbolTable
0
LTYPE
5
14
100
AcDbSymbolTableRecord
100
AcDbLinetypeTableRecord
2
BYBLOCK
70
0
0
LTYPE
5
15
100
AcDbSymbolTableRecord
100
AcDbLinetypeTableRecord
2
BYLAYER
70
0
0
ENDTAB
0
TABLE
2
LAYER
5
2
100
AcDbSymbolTable
70
2
0
LAYER
5
50
100
AcDbSymbolTableRecord
100
AcDbLayerTableRecord
2
0
70
0
6
CONTINUOUS
0
ENDTAB
0
TABLE
2
STYLE
5
3
100
AcDbSymbolTable
70
1
0
STYLE
5
11
100
AcDbSymbolTableRecord
100
AcDbTextStyleTableRecord
2
STANDARD
70
0
0
ENDTAB
0
TABLE
2
VIEW
5
6
100
AcDbSymbolTable
70
0
0
ENDTAB
0
TABLE
2
UCS
5
7
100
AcDbSymbolTable
70
0
0
ENDTAB
0
TABLE
2
APPID
5
9
100
AcDbSymbolTable
70
2
0
APPID
5
12
100
AcDbSymbolTableRecord
100
AcDbRegAppTableRecord
2
ACAD
70
0
0
ENDTAB
0
TABLE
2
DIMSTYLE
5
A
100
AcDbSymbolTable
70
1
0
ENDTAB
0
TABLE
2
BLOCK_RECORD
5
1
100
AcDbSymbolTable
70
1
0
BLOCK_RECORD
5
1F
100
AcDbSymbolTableRecord
100
AcDbBlockTableRecord
2
*MODEL_SPACE
0
BLOCK_RECORD
5
1B
100
AcDbSymbolTableRecord
100
AcDbBlockTableRecord
2
*PAPER_SPACE
0
ENDTAB
0
ENDSEC
0
SECTION
2
BLOCKS
0
BLOCK
5
20
100
AcDbEntity
100
AcDbBlockBegin
2
*MODEL_SPACE
0
ENDBLK
5
21
100
AcDbEntity
100
AcDbBlockEnd
0
BLOCK
5
1C
100
AcDbEntity
100
AcDbBlockBegin
2
*PAPER_SPACE
0
ENDBLK
5
1D
100
AcDbEntity
100
AcDbBlockEnd
0
ENDSEC
0
SECTION
2
ENTITIES
0
LWPOLYLINE
5
100
100
AcDbEntity
8
0
100
AcDbPolyline
90
4
70
1
43
0.0
10
108.50000000000001
20
-60
10
122.5
20
-60
10
122.5
20
-74
10
108.50000000000001
20
-74
0
LWPOLYLINE
5
101
100
AcDbEntity
8
0
100
AcDbPolyline
90
4
70
1
43
0.0
10
108.50000000000001
20
-41.000000000000007
10
122.5
20
-41.000000000000007
10
122.5
20
-55
10
108.50000000000001
20
-55
0
LWPOLYLINE
5
102
100
AcDbEntity
8
0
100
AcDbPolyline
90
11
70
1
43
0.0
10
76.000001132488251
20
-30.999993785891036
10
146.50049885031808
20
-30.999989065810304
42
-0.26859106389006693
10
184.50045309547775
20
-52.999990993040711
10
184.49974553768257
20
-117.99999746756284
42
-0.19765677990832886
10
180.29800706978313
20
-122.33377563455903
42
-0.18787717108288068
10
139.37619444756288
20
-123.93704827531536
42
0.17551597404858454
10
87.767193632095371
20
-126.34662386218663
42
-0.42575466612423035
10
80.617804388374367
20
-123.18201140102495
10
74.854578870466696
20
-107.34737386503238
42
-0.087487101164001796
10
73.950000000000003
20
-102.21715913452584
10
73.949999999999989
20
-33.000000491738319
42
-0.40700116500929417
0
LWPOLYLINE
5
103
100
AcDbEntity
8
0
100
AcDbPolyline
90
4
70
1
43
0.0
10
122.5
20
-93
10
108.50000000000001
20
-93
10
108.50000000000001
20
-79
10
122.5
20
-79
0
LWPOLYLINE
5
104
100
AcDbEntity
8
0
100
AcDbPolyline
90
4
70
1
43
0.0
10
127.5
20
-55
10
141.5
20
-55
10
141.5
20
-69
10
127.5
20
-69
0
LWPOLYLINE
5
105
100
AcDbEntity
8
0
100
AcDbPolyline
90
4
70
1
43
0.0
10
127.5
20
-36
10
141.5
20
-36
10
141.5
20
-50
10
127.5
20
-50
0
LWPOLYLINE
5
106
100
AcDbEntity
8
0
100
AcDbPolyline
90
4
70
1
43
0.0
10
165.5
20
-86
10
165.5
20
-72
10
179.5
20
-72
10
179.5
20
-86
0
LWPOLYLINE
5
107
100
AcDbEntity
8
0
100
AcDbPolyline
90
4
70
1
43
0.0
10
165.5
20
-67
10
165.5
20
-53.000000000000007
10
179.5
20
-53.000000000000007
10
179.5
20
-67
0
LWPOLYLINE
5
108
100
AcDbEntity
8
0
100
AcDbPolyline
90
4
70
1
43
0.0
10
86.450000000000017
20
-83.5
10
86.450000000000017
20
-64.5
42
0.99999999999999989
10
81.450000000000017
20
-64.5
10
81.450000000000017
20
-83.5
42
0.99999999999999989
0
LWPOLYLINE
5
109
100
AcDbEntity
8
0
100
AcDbPolyline
90
4
70
1
43
0.0
10
146.5
20
-41.000000000000007
10
160.5
20
-41.000000000000007
10
160.5
20
-55
10
146.5
20
-55
0
LWPOLYLINE
5
110
100
AcDbEntity
8
0
100
AcDbPolyline
90
4
70
1
43
0.0
10
127.5
20
-88
10
127.5
20
-74
10
141.5
20
-74
10
141.5
20
-88
0
LWPOLYLINE
5
111
100
AcDbEntity
8
0
100
AcDbPolyline
90
4
70
1
43
0.0
10
146.5
20
-60
10
160.5
20
-60
10
160.5
20
-74
10
146.5
20
-74
0
LWPOLYLINE
5
112
100
AcDbEntity
8
0
100
AcDbPolyline
90
4
70
1
43
0.0
10
89.500000000000014
20
-62
10
103.50000000000001
20
-62
10
103.50000000000001
20
-76
10
89.500000000000014
20
-76
0
LWPOLYLINE
5
113
100
AcDbEntity
8
0
100
AcDbPolyline
90
4
70
1
43
0.0
10
89.500000000000014
20
-95
10
89.500000000000014
20
-81
10
103.50000000000001
20
-81
10
103.50000000000001
20
-95
0
LWPOLYLINE
5
114
100
AcDbEntity
8
0
100
AcDbPolyline
90
4
70
1
43
0.0
10
154.77330270745696
20
-123.34997862139247
10
154.75
20
-110.65000000000001
10
172.2499705412888
20
-110.61788997003966
10
172.27327324874574
20
-123.3178685914321
0
CIRCLE
5
115
100
AcDbEntity
8
0
100
AcDbCircle
10
84.500000000000014
20
-45
30
0
40
1.1000000000000001
210
0
220
0
230
1
0
ARC
5
116
100
AcDbEntity
8
0
100
AcDbCircle
10
83.500100000000003
20
-35.002800000000001
30
0
40
2.002740000000002
210
0
220
0
230
1
100
AcDbArc
50
90.002899999999485
51
177.05799999999994
0
LWPOLYLINE
5
117
100
AcDbEntity
8
0
100
AcDbPolyline
90
4
70
1
43
0.0
10
89.500000000000014
20
-57
10
89.500000000000014
20
-43
10
103.50000000000001
20
-43
10
103.50000000000001
20
-57
0
LWPOLYLINE
5
118
100
AcDbEntity
8
0
100
AcDbPolyline
90
4
70
1
43
0.0
10
124.63700000000001
20
-98.816500000000005
10
138.583
20
-100.03700000000002
10
137.363
20
-113.98299999999999
10
123.41700000000002
20
-112.76299999999999
0
CIRCLE
5
119
100
AcDbEntity
8
0
100
AcDbCircle
10
97.599999999999994
20
-37
30
0
40
1.1000000000000001
210
0
220
0
230
1
0
CIRCLE
5
120
100
AcDbEntity
8
0
100
AcDbCircle
10
165
20
-47
30
0
40
1.1000000000000001
210
0
220
0
230
1
0
LWPOLYLINE
5
121
100
AcDbEntity
8
0
100
AcDbPolyline
90
4
70
1
43
0.0
10
101.39100000000001
20
-101.62200000000001
10
115.17800000000001
20
-99.19080000000001
10
117.60899999999999
20
-112.97800000000001
10
103.822
20
-115.40900000000001
0
CIRCLE
5
122
100
AcDbEntity
8
0
100
AcDbCircle
10
147
20
-118.00000000000003
30
0
40
1.1000000000000001
210
0
220
0
230
1
0
LWPOLYLINE
5
123
100
AcDbEntity
8
0
100
AcDbPolyline
90
4
70
1
43
0.0
10
93.683700000000002
20
-103.52800000000001
10
98.472000000000008
20
-116.684
10
85.316299999999998
20
-121.47200000000001
10
80.52800000000002
20
-108.31600000000002
0
LWPOLYLINE
5
124
100
AcDbEntity
8
0
100
AcDbPolyline
90
4
70
1
43
0.0
10
146.5
20
-93
10
146.5
20
-79
10
160.5
20
-79
10
160.5
20
-93
0
CIRCLE
5
125
100
AcDbEntity
8
0
100
AcDbCircle
10
84.500000000000014
20
-103.2
30
0
40
1.1000000000000001
210
0
220
0
230
1
0
LWPOLYLINE
5
126
100
AcDbEntity
8
0
100
AcDbPolyline
90
4
70
1
43
0.0
10
165.5
20
-105
10
165.5
20
-91
10
179.5
20
-91
10
179.5
20
-105
0
CIRCLE
5
127
100
AcDbEntity
8
0
100
AcDbCircle
10
97.599999999999994
20
-103.2
30
0
40
1.1000000000000001
210
0
220
0
230
1
0
LWPOLYLINE
5
128
100
AcDbEntity
8
0
100
AcDbPolyline
90
4
70
1
43
0.0
10
271.5
20
-69
10
257.5
20
-69
10
257.5
20
-55
10
271.5
20
-55
0
LWPOLYLINE
5
129
100
AcDbEntity
8
0
100
AcDbPolyline
90
11
70
1
43
0.0
10
310.29800706978313
20
-122.33377563455906
42
0.19765677990832956
10
314.49974553768254
20
-117.99999746756284
10
314.50045309547772
20
-52.999990993040711
42
0.26859106389006693
10
276.50049885031808
20
-30.999993785891036
10
206.00000113248825
20
-30.999993785891036
42
0.40700116500929406
10
203.95000000000005
20
-33.000000491738319
10
203.95000000000005
20
-102.21715913452584
42
0.087487101164001713
10
204.8545788704667
20
-107.34737386503238
10
210.6178043883744
20
-123.18201140102495
42
0.42575466612422946
10
217.76719363209537
20
-126.34662386218662
42
-0.17551597404858457
10
269.37619444756291
20
-123.93704827531536
42
0.18787717108288055
0
LWPOLYLINE
5
130
100
AcDbEntity
8
0
100
AcDbPolyline
90
4
70
1
43
0.0
10
215.31630000000001
20
-121.47200000000001
10
210.52800000000005
20
-108.31600000000002
10
223.68370000000002
20
-103.52800000000001
10
228.47200000000001
20
-116.684
0
LWPOLYLINE
5
131
100
AcDbEntity
8
0
100
AcDbPolyline
90
4
70
1
43
0.0
10
295.50000000000006
20
-67
10
295.50000000000006
20
-53.000000000000007
10
309.5
20
-53.000000000000007
10
309.5
20
-67
0
LWPOLYLINE
5
132
100
AcDbEntity
8
0
100
AcDbPolyline
90
4
70
1
43
0.0
10
276.5
20
-55
10
276.5
20
-41.000000000000007
10
290.50000000000006
20
-41.000000000000007
10
290.50000000000006
20
-55
0
LWPOLYLINE
5
133
100
AcDbEntity
8
0
100
AcDbPolyline
90
4
70
1
43
0.0
10
257.5
20
-36
10
271.5
20
-36
10
271.5
20
-50
10
257.5
20
-50
0
LWPOLYLINE
5
134
100
AcDbEntity
8
0
100
AcDbPolyline
90
4
70
1
43
0.0
10
295.50000000000006
20
-91
10
309.5
20
-91
10
309.5
20
-105
10
295.50000000000006
20
-105
0
LWPOLYLINE
5
135
100
AcDbEntity
8
0
100
AcDbPolyline
90
4
70
1
43
0.0
10
252.5
20
-79
10
252.5
20
-93
10
238.5
20
-93
10
238.5
20
-79
0
LWPOLYLINE
5
136
100
AcDbEntity
8
0
100
AcDbPolyline
90
4
70
1
43
0.0
10
233.82200000000006
20
-115.40900000000001
10
231.39100000000002
20
-101.62200000000001
10
245.178
20
-99.19080000000001
10
247.60899999999998
20
-112.97800000000001
0
LWPOLYLINE
5
137
100
AcDbEntity
8
0
100
AcDbPolyline
90
4
70
1
43
0.0
10
252.5
20
-60
10
252.5
20
-74
10
238.5
20
-74
10
238.5
20
-60
0
LWPOLYLINE
5
138
100
AcDbEntity
8
0
100
AcDbPolyline
90
4
70
1
43
0.0
10
233.5
20
-43
10
233.5
20
-57
10
219.50000000000003
20
-57
10
219.50000000000003
20
-43
0
LWPOLYLINE
5
139
100
AcDbEntity
8
0
100
AcDbPolyline
90
4
70
1
43
0.0
10
271.5
20
-88
10
257.5
20
-88
10
257.5
20
-74
10
271.5
20
-74
0
LWPOLYLINE
5
140
100
AcDbEntity
8
0
100
AcDbPolyline
90
4
70
1
43
0.0
10
233.5
20
-76
10
219.50000000000003
20
-76
10
219.50000000000003
20
-62
10
233.5
20
-62
0
LWPOLYLINE
5
141
100
AcDbEntity
8
0
100
AcDbPolyline
90
4
70
1
43
0.0
10
295.50000000000006
20
-72
10
309.5
20
-72
10
309.5
20
-86
10
295.50000000000006
20
-86
0
LWPOLYLINE
5
142
100
AcDbEntity
8
0
100
AcDbPolyline
90
4
70
1
43
0.0
10
233.5
20
-81
10
233.5
20
-95
10
219.50000000000003
20
-95
10
219.50000000000003
20
-81
0
CIRCLE
5
143
100
AcDbEntity
8
0
100
AcDbCircle
10
227.60000000000002
20
-37
30
0
40
1.1000000000000001
210
0
220
0
230
1
0
LWPOLYLINE
5
144
100
AcDbEntity
8
0
100
AcDbPolyline
90
4
70
1
43
0.0
10
238.5
20
-55
10
238.5
20
-41.000000000000007
10
252.5
20
-41.000000000000007
10
252.5
20
-55
0
CIRCLE
5
145
100
AcDbEntity
8
0
100
AcDbCircle
10
295
20
-47
30
0
40
1.1000000000000001
210
0
220
0
230
1
0
ARC
5
146
100
AcDbEntity
8
0
100
AcDbCircle
10
213.50010000000003
20
-35.002800000000001
30
0
40
2.002740000000002
210
0
220
0
230
1
100
AcDbArc
50
90.002899999999485
51
177.05799999999994
0
LWPOLYLINE
5
147
100
AcDbEntity
8
0
100
AcDbPolyline
90
4
70
1
43
0.0
10
290.50000000000006
20
-74
10
276.5
20
-74
10
276.5
20
-60
10
290.50000000000006
20
-60
0
LWPOLYLINE
5
148
100
AcDbEntity
8
0
100
AcDbPolyline
90
4
70
1
43
0.0
10
290.50000000000006
20
-93
10
276.5
20
-93
10
276.5
20
-79
10
290.50000000000006
20
-79
0
CIRCLE
5
149
100
AcDbEntity
8
0
100
AcDbCircle
10
227.60000000000002
20
-103.2
30
0
40
1.1000000000000001
210
0
220
0
230
1
0
LWPOLYLINE
5
150
100
AcDbEntity
8
0
100
AcDbPolyline
90
4
70
1
43
0.0
10
254.63700000000003
20
-98.816500000000005
10
268.58299999999997
20
-100.03700000000002
10
267.363
20
-113.98299999999999
10
253.41700000000003
20
-112.76299999999999
0
LWPOLYLINE
5
151
100
AcDbEntity
8
0
100
AcDbPolyline
90
4
70
1
43
0.0
10
272
20
-100.09999999999999
10
272
20
-112.80000000000001
10
289.5
20
-112.80000000000001
10
289.5
20
-100.09999999999999
0
CIRCLE
5
152
100
AcDbEntity
8
0
100
AcDbCircle
10
214.50000000000003
20
-103.2
30
0
40
1.1000000000000001
210
0
220
0
230
1
0
CIRCLE
5
153
100
AcDbEntity
8
0
100
AcDbCircle
10
277
20
-118.00000000000003
30
0
40
1.1000000000000001
210
0
220
0
230
1
0
CIRCLE
5
154
100
AcDbEntity
8
0
100
AcDbCircle
10
214.50000000000003
20
-45
30
0
40
1.1000000000000001
210
0
220
0
230
1
0
ENDSEC
0
SECTION
2
OBJECTS
0
DICTIONARY
5
C
100
AcDbDictionary
3
ACAD_GROUP
350
D
3
ACAD_MLINESTYLE
350
17
0
DICTIONARY
5
D
100
AcDbDictionary
0
DICTIONARY
5
1A
330
C
100
AcDbDictionary
0
DICTIONARY
5
17
100
AcDbDictionary
0
ENDSEC
0
EOF
