0
SECTION
2
HEADER
9
$INSUNITS
70
4
9
$ACADVER
1
AC1014
9
$HANDSEED
5
FFFF
0
ENDSEC
0
SECTION
2
TABLES
0
TABLE
2
VPORT
5
8
100
AcDbSymbolTable
0
ENDTAB
0
TABLE
2
LTYPE
5
5
100
AcDbSymbolTable
0
LTYPE
5
14
100
AcDbSymbolTableRecord
100
AcDbLinetypeTableRecord
2
BYBLOCK
70
0
0
LTYPE
5
15
100
AcDbSymbolTableRecord
100
AcDbLinetypeTableRecord
2
BYLAYER
70
0
0
ENDTAB
0
TABLE
2
LAYER
5
2
100
AcDbSymbolTable
70
2
0
LAYER
5
50
100
AcDbSymbolTableRecord
100
AcDbLayerTableRecord
2
0
70
0
6
CONTINUOUS
0
ENDTAB
0
TABLE
2
STYLE
5
3
100
AcDbSymbolTable
70
1
0
STYLE
5
11
100
AcDbSymbolTableRecord
100
AcDbTextStyleTableRecord
2
STANDARD
70
0
0
ENDTAB
0
TABLE
2
VIEW
5
6
100
AcDbSymbolTable
70
0
0
ENDTAB
0
TABLE
2
UCS
5
7
100
AcDbSymbolTable
70
0
0
ENDTAB
0
TABLE
2
APPID
5
9
100
AcDbSymbolTable
70
2
0
APPID
5
12
100
AcDbSymbolTableRecord
100
AcDbRegAppTableRecord
2
ACAD
70
0
0
ENDTAB
0
TABLE
2
DIMSTYLE
5
A
100
AcDbSymbolTable
70
1
0
ENDTAB
0
TABLE
2
BLOCK_RECORD
5
1
100
AcDbSymbolTable
70
1
0
BLOCK_RECORD
5
1F
100
AcDbSymbolTableRecord
100
AcDbBlockTableRecord
2
*MODEL_SPACE
0
BLOCK_RECORD
5
1B
100
AcDbSymbolTableRecord
100
AcDbBlockTableRecord
2
*PAPER_SPACE
0
ENDTAB
0
ENDSEC
0
SECTION
2
BLOCKS
0
BLOCK
5
20
100
AcDbEntity
100
AcDbBlockBegin
2
*MODEL_SPACE
0
ENDBLK
5
21
100
AcDbEntity
100
AcDbBlockEnd
0
BLOCK
5
1C
100
AcDbEntity
100
AcDbBlockBegin
2
*PAPER_SPACE
0
ENDBLK
5
1D
100
AcDbEntity
100
AcDbBlockEnd
0
ENDSEC
0
SECTION
2
ENTITIES
0
LWPOLYLINE
5
100
100
AcDbEntity
8
0
100
AcDbPolyline
90
4
70
1
43
0.0
10
0
20
0
10
200.00000000000006
20
0
10
200.00000000000006
20
-299.99999999999994
10
5.3290705182007514e-14
20
-299.99999999999994
0
ARC
5
101
100
AcDbEntity
8
0
100
AcDbCircle
10
176.05900000000003
20
-346.976
30
0
40
232.90300000000002
210
0
220
-0
230
1
100
AcDbArc
50
89.173299999999983
51
116.852
0
ARC
5
102
100
AcDbEntity
8
0
100
AcDbCircle
10
179.49200000000002
20
-109.09800000000001
30
0
40
4.9998999999999949
210
0
220
0
230
1
100
AcDbArc
50
-90.827900000000255
51
0.00040107737947231469
0
LINE
5
103
100
AcDbEntity
8
0
100
AcDbLine
10
184.49200000000002
20
-109.09800000000001
30
0
11
184.49200000000002
21
-50.205100000000009
31
0
0
ARC
5
104
100
AcDbEntity
8
0
100
AcDbCircle
10
132.82800000000003
20
-106.79600000000001
30
0
40
76.626700000000014
210
0
220
-0
230
1
100
AcDbArc
50
47.606099999999977
51
88.755999999999986
0
ARC
5
105
100
AcDbEntity
8
0
100
AcDbCircle
10
131.97299999999998
20
-146.18899999999999
30
0
40
116.029
210
0
220
-0
230
1
100
AcDbArc
50
88.755999999999986
51
115.31299999999996
0
LINE
5
106
100
AcDbEntity
8
0
100
AcDbLine
10
82.364099999999993
20
-41.299999999999997
30
0
11
55.786300000000004
21
-41.299999999999997
31
0
0
ARC
5
107
100
AcDbEntity
8
0
100
AcDbCircle
10
55.758499999999998
20
-44.299900000000001
30
0
40
3.0000799999999987
210
0
220
-0
230
1
100
AcDbArc
50
89.467999999999989
51
188.32099999999997
0
LINE
5
108
100
AcDbEntity
8
0
100
AcDbLine
10
52.789999999999999
20
-44.734100000000005
30
0
11
52.789999999999999
21
-114.18799999999999
31
0
0
LINE
5
109
100
AcDbEntity
8
0
100
AcDbLine
10
53.561500000000002
20
-117.25900000000001
30
0
11
64.193299999999994
21
-137.08799999999999
31
0
0
ARC
5
110
100
AcDbEntity
8
0
100
AcDbCircle
10
59.290200000000006
20
-114.18799999999999
30
0
40
6.5002100000000009
210
0
220
0
230
1
100
AcDbArc
50
180.00100000003707
51
208.19900000000001
0
ARC
5
111
100
AcDbEntity
8
0
100
AcDbCircle
10
68.599900000000005
20
-134.72499999999999
30
0
40
5.0000000000000009
210
0
220
0
230
1
100
AcDbArc
50
208.19900000000018
51
296.85250000000002
0
CIRCLE
5
112
100
AcDbEntity
8
0
100
AcDbCircle
10
74.634899999999988
20
-132.22499999999999
30
0
40
1.1000000000000001
210
0
220
0
230
1
0
CIRCLE
5
113
100
AcDbEntity
8
0
100
AcDbCircle
10
124.96899999999999
20
-115.03299999999997
30
0
40
1.1000000000000001
210
0
220
0
230
1
0
CIRCLE
5
114
100
AcDbEntity
8
0
100
AcDbCircle
10
172.5
20
-109.50000000000001
30
0
40
1.1000000000000001
210
0
220
0
230
1
0
CIRCLE
5
115
100
AcDbEntity
8
0
100
AcDbCircle
10
175
20
-48.500000000000099
30
0
40
1.1000000000000001
210
0
220
0
230
1
0
CIRCLE
5
116
100
AcDbEntity
8
0
100
AcDbCircle
10
148
20
-35.5
30
0
40
1.1000000000000001
210
0
220
0
230
1
0
CIRCLE
5
117
100
AcDbEntity
8
0
100
AcDbCircle
10
102.90600000000001
20
-38.5
30
0
40
1.1000000000000001
210
0
220
0
230
1
0
CIRCLE
5
118
100
AcDbEntity
8
0
100
AcDbCircle
10
83.390000000000001
20
-45.899999999999999
30
0
40
1.1000000000000001
210
0
220
0
230
1
0
CIRCLE
5
119
100
AcDbEntity
8
0
100
AcDbCircle
10
57.390000000000008
20
-45.900000000000091
30
0
40
1.1000000000000001
210
0
220
0
230
1
0
CIRCLE
5
120
100
AcDbEntity
8
0
100
AcDbCircle
10
57.390000000000008
20
-90.029500000000183
30
0
40
1.1000000000000001
210
0
220
0
230
1
0
CIRCLE
5
121
100
AcDbEntity
8
0
100
AcDbCircle
10
83.390000000000001
20
-90.029500000000183
30
0
40
1.1000000000000001
210
0
220
0
230
1
0
CIRCLE
5
122
100
AcDbEntity
8
0
100
AcDbCircle
10
85.582100000000011
20
-102.60600000000002
30
0
40
1.1000000000000001
210
0
220
0
230
1
0
CIRCLE
5
123
100
AcDbEntity
8
0
100
AcDbCircle
10
63.766300000000001
20
-111.95500000000001
30
0
40
1.1000000000000001
210
0
220
0
230
1
0
CIRCLE
5
124
100
AcDbEntity
8
0
100
AcDbCircle
10
112.62766190490149
20
-146.66187414037205
30
0
40
1.1000000000000001
210
0
220
0
230
1
0
LINE
5
125
100
AcDbEntity
8
0
100
AcDbLine
10
12.296417933005674
20
-102.13974977377762
30
0
11
42.917205293201135
21
-115.53159633941152
31
0
0
ARC
5
126
100
AcDbEntity
8
0
100
AcDbCircle
10
36.974393053572513
20
-112.89802220363704
30
0
40
6.5002100000000063
210
-0
220
0
230
1
100
AcDbArc
50
336.09933724731223
51
359.9989999999629
0
LINE
5
127
100
AcDbEntity
8
0
100
AcDbLine
10
43.474593053572519
20
-43.444122203637157
30
0
11
43.474593053572519
21
-112.89802220363704
31
0
0
CIRCLE
5
128
100
AcDbEntity
8
0
100
AcDbCircle
10
38.874593053572525
20
-88.73952220363708
30
0
40
1.1000000000000019
210
0
220
-0
230
1
0
CIRCLE
5
129
100
AcDbEntity
8
0
100
AcDbCircle
10
12.874593053572578
20
-88.73952220363708
30
0
40
1.1000000000000019
210
0
220
-0
230
1
0
ARC
5
130
100
AcDbEntity
8
0
100
AcDbCircle
10
13.899216297082884
20
-98.47491179589764
30
0
40
4.0000000000000036
210
0
220
0
230
1
100
AcDbArc
50
180
51
246.37807942316257
0
LINE
5
131
100
AcDbEntity
8
0
100
AcDbLine
10
9.8992162970828801
20
-44.010022203637149
30
0
11
9.8992162970828801
21
-98.47491179589764
31
0
0
ARC
5
132
100
AcDbEntity
8
0
100
AcDbCircle
10
13.899216297082848
20
-44.010022203637149
30
0
40
3.9999999999999947
210
0
220
-0
230
1
100
AcDbArc
50
90
51
180
0
LINE
5
133
100
AcDbEntity
8
0
100
AcDbLine
10
13.899216297082848
20
-40.010022203637156
30
0
11
40.478293053572528
21
-40.010022203637163
31
0
0
CIRCLE
5
134
100
AcDbEntity
8
0
100
AcDbCircle
10
12.874593053572578
20
-44.610022203637158
30
0
40
1.1000000000000019
210
0
220
-0
230
1
0
CIRCLE
5
135
100
AcDbEntity
8
0
100
AcDbCircle
10
38.874593053572525
20
-44.610022203637158
30
0
40
1.1000000000000019
210
0
220
-0
230
1
0
ARC
5
136
100
AcDbEntity
8
0
100
AcDbCircle
10
40.506093053572542
20
-43.00992220363716
30
0
40
3.0000799999999899
210
-0
220
0
230
1
100
AcDbArc
50
-8.3209999999998736
51
90.532000000000167
0
LINE
5
137
100
AcDbEntity
8
0
100
AcDbLine
10
9.7164623402800672
20
-236.29744059550632
30
0
11
40.337249700475425
21
-249.68928716114016
31
0
0
ARC
5
138
100
AcDbEntity
8
0
100
AcDbCircle
10
11.319260704357269
20
-232.63260261762633
30
0
40
3.9999999999999893
210
0
220
0
230
1
100
AcDbArc
50
180
51
246.37807942316269
0
ARC
5
139
100
AcDbEntity
8
0
100
AcDbCircle
10
11.319260704357234
20
-178.16771302536603
30
0
40
3.9999999999999858
210
0
220
-0
230
1
100
AcDbArc
50
90
51
180
0
LINE
5
140
100
AcDbEntity
8
0
100
AcDbLine
10
40.894637460846809
20
-177.60181302536603
30
0
11
40.894637460846809
21
-247.05571302536569
31
0
0
LINE
5
141
100
AcDbEntity
8
0
100
AcDbLine
10
11.319260704357234
20
-174.16771302536603
30
0
11
37.898337460846818
21
-174.16771302536603
31
0
0
LINE
5
142
100
AcDbEntity
8
0
100
AcDbLine
10
7.3192607043572808
20
-178.16771302536603
30
0
11
7.3192607043572808
21
-232.63260261762633
31
0
0
CIRCLE
5
143
100
AcDbEntity
8
0
100
AcDbCircle
10
10.294637460846969
20
-178.76771302536605
30
0
40
1.1000000000000019
210
0
220
-0
230
1
0
CIRCLE
5
144
100
AcDbEntity
8
0
100
AcDbCircle
10
10.294637460846969
20
-222.8972130253658
30
0
40
1.1000000000000019
210
0
220
-0
230
1
0
CIRCLE
5
145
100
AcDbEntity
8
0
100
AcDbCircle
10
36.294637460846822
20
-178.76771302536605
30
0
40
1.1000000000000019
210
0
220
-0
230
1
0
CIRCLE
5
146
100
AcDbEntity
8
0
100
AcDbCircle
10
36.294637460846822
20
-222.8972130253658
30
0
40
1.1000000000000019
210
0
220
-0
230
1
0
ARC
5
147
100
AcDbEntity
8
0
100
AcDbCircle
10
37.926137460846832
20
-177.16761302536605
30
0
40
3.0000799999999819
210
-0
220
0
230
1
100
AcDbArc
50
-8.3209999999996196
51
90.532000000000167
0
ARC
5
148
100
AcDbEntity
8
0
100
AcDbCircle
10
34.394437460846824
20
-247.05571302536569
30
0
40
6.5002099999999716
210
-0
220
0
230
1
100
AcDbArc
50
336.09933724731223
51
359.9989999999629
0
ARC
5
149
100
AcDbEntity
8
0
100
AcDbCircle
10
131.97299999999998
20
-286.18900000000002
30
0
40
116.029
210
0
220
-0
230
1
100
AcDbArc
50
88.755999999999986
51
115.31299999999996
0
CIRCLE
5
150
100
AcDbEntity
8
0
100
AcDbCircle
10
85.582100000000011
20
-242.60600000000005
30
0
40
1.1000000000000001
210
0
220
0
230
1
0
CIRCLE
5
151
100
AcDbEntity
8
0
100
AcDbCircle
10
63.766300000000001
20
-251.95500000000004
30
0
40
1.1000000000000001
210
0
220
0
230
1
0
CIRCLE
5
152
100
AcDbEntity
8
0
100
AcDbCircle
10
74.634899999999988
20
-272.22499999999997
30
0
40
1.1000000000000001
210
0
220
0
230
1
0
LINE
5
153
100
AcDbEntity
8
0
100
AcDbLine
10
52.789999999999999
20
-184.73410000000001
30
0
11
52.789999999999999
21
-254.18799999999999
31
0
0
ARC
5
154
100
AcDbEntity
8
0
100
AcDbCircle
10
132.82800000000003
20
-246.79599999999999
30
0
40
76.626700000000014
210
0
220
-0
230
1
100
AcDbArc
50
47.606099999999969
51
88.755999999999986
0
ARC
5
155
100
AcDbEntity
8
0
100
AcDbCircle
10
68.599900000000005
20
-274.72500000000002
30
0
40
5.0000000000000098
210
0
220
0
230
1
100
AcDbArc
50
208.19900000000018
51
296.85250000000025
0
LINE
5
156
100
AcDbEntity
8
0
100
AcDbLine
10
53.561500000000002
20
-257.25900000000001
30
0
11
64.193299999999994
21
-277.08800000000002
31
0
0
CIRCLE
5
157
100
AcDbEntity
8
0
100
AcDbCircle
10
124.96899999999999
20
-255.03299999999996
30
0
40
1.1000000000000001
210
0
220
0
230
1
0
ARC
5
158
100
AcDbEntity
8
0
100
AcDbCircle
10
179.49200000000002
20
-249.09800000000001
30
0
40
4.9998999999999949
210
0
220
0
230
1
100
AcDbArc
50
-90.827900000000255
51
0.00040107737947231469
0
CIRCLE
5
159
100
AcDbEntity
8
0
100
AcDbCircle
10
112.62766190490149
20
-286.66187414037205
30
0
40
1.1000000000000001
210
0
220
0
230
1
0
ARC
5
160
100
AcDbEntity
8
0
100
AcDbCircle
10
55.758499999999998
20
-184.29990000000001
30
0
40
3.000079999999981
210
0
220
-0
230
1
100
AcDbArc
50
89.467999999999989
51
188.32100000000008
0
CIRCLE
5
161
100
AcDbEntity
8
0
100
AcDbCircle
10
102.90600000000001
20
-178.5
30
0
40
1.1000000000000001
210
0
220
0
230
1
0
ARC
5
162
100
AcDbEntity
8
0
100
AcDbCircle
10
59.290200000000006
20
-254.18799999999999
30
0
40
6.5002100000000009
210
0
220
0
230
1
100
AcDbArc
50
180.00100000003707
51
208.19900000000001
0
CIRCLE
5
163
100
AcDbEntity
8
0
100
AcDbCircle
10
175
20
-188.50000000000009
30
0
40
1.1000000000000001
210
0
220
0
230
1
0
CIRCLE
5
164
100
AcDbEntity
8
0
100
AcDbCircle
10
83.390000000000001
20
-185.90000000000001
30
0
40
1.1000000000000001
210
0
220
0
230
1
0
CIRCLE
5
165
100
AcDbEntity
8
0
100
AcDbCircle
10
172.5
20
-249.50000000000003
30
0
40
1.1000000000000001
210
0
220
0
230
1
0
LINE
5
166
100
AcDbEntity
8
0
100
AcDbLine
10
184.49200000000002
20
-249.09800000000001
30
0
11
184.49200000000002
21
-190.20510000000002
31
0
0
CIRCLE
5
167
100
AcDbEntity
8
0
100
AcDbCircle
10
57.390000000000008
20
-185.90000000000009
30
0
40
1.1000000000000001
210
0
220
0
230
1
0
ARC
5
168
100
AcDbEntity
8
0
100
AcDbCircle
10
176.05900000000003
20
-486.976
30
0
40
232.90300000000002
210
0
220
-0
230
1
100
AcDbArc
50
89.173299999999983
51
116.852
0
LINE
5
169
100
AcDbEntity
8
0
100
AcDbLine
10
82.364099999999993
20
-181.29999999999998
30
0
11
55.786300000000004
21
-181.29999999999998
31
0
0
CIRCLE
5
170
100
AcDbEntity
8
0
100
AcDbCircle
10
83.390000000000001
20
-230.02950000000021
30
0
40
1.1000000000000001
210
0
220
0
230
1
0
CIRCLE
5
171
100
AcDbEntity
8
0
100
AcDbCircle
10
148
20
-175.5
30
0
40
1.1000000000000001
210
0
220
0
230
1
0
CIRCLE
5
172
100
AcDbEntity
8
0
100
AcDbCircle
10
57.390000000000008
20
-230.02950000000021
30
0
40
1.1000000000000001
210
0
220
0
230
1
0
ENDSEC
0
SECTION
2
OBJECTS
0
DICTIONARY
5
C
100
AcDbDictionary
3
ACAD_GROUP
350
D
3
ACAD_MLINESTYLE
350
17
0
DICTIONARY
5
D
100
AcDbDictionary
0
DICTIONARY
5
1A
330
C
100
AcDbDictionary
0
DICTIONARY
5
17
100
AcDbDictionary
0
ENDSEC
0
EOF
