0
SECTION
2
HEADER
9
$INSUNITS
70
4
9
$ACADVER
1
AC1014
9
$HANDSEED
5
FFFF
0
ENDSEC
0
SECTION
2
TABLES
0
TABLE
2
VPORT
5
8
100
AcDbSymbolTable
0
ENDTAB
0
TABLE
2
LTYPE
5
5
100
AcDbSymbolTable
0
LTYPE
5
14
100
AcDbSymbolTableRecord
100
AcDbLinetypeTableRecord
2
BYBLOCK
70
0
0
LTYPE
5
15
100
AcDbSymbolTableRecord
100
AcDbLinetypeTableRecord
2
BYLAYER
70
0
0
ENDTAB
0
TABLE
2
LAYER
5
2
100
AcDbSymbolTable
70
2
0
LAYER
5
50
100
AcDbSymbolTableRecord
100
AcDbLayerTableRecord
2
0
70
0
6
CONTINUOUS
0
ENDTAB
0
TABLE
2
STYLE
5
3
100
AcDbSymbolTable
70
1
0
STYLE
5
11
100
AcDbSymbolTableRecord
100
AcDbTextStyleTableRecord
2
STANDARD
70
0
0
ENDTAB
0
TABLE
2
VIEW
5
6
100
AcDbSymbolTable
70
0
0
ENDTAB
0
TABLE
2
UCS
5
7
100
AcDbSymbolTable
70
0
0
ENDTAB
0
TABLE
2
APPID
5
9
100
AcDbSymbolTable
70
2
0
APPID
5
12
100
AcDbSymbolTableRecord
100
AcDbRegAppTableRecord
2
ACAD
70
0
0
ENDTAB
0
TABLE
2
DIMSTYLE
5
A
100
AcDbSymbolTable
70
1
0
ENDTAB
0
TABLE
2
BLOCK_RECORD
5
1
100
AcDbSymbolTable
70
1
0
BLOCK_RECORD
5
1F
100
AcDbSymbolTableRecord
100
AcDbBlockTableRecord
2
*MODEL_SPACE
0
BLOCK_RECORD
5
1B
100
AcDbSymbolTableRecord
100
AcDbBlockTableRecord
2
*PAPER_SPACE
0
ENDTAB
0
ENDSEC
0
SECTION
2
BLOCKS
0
BLOCK
5
20
100
AcDbEntity
100
AcDbBlockBegin
2
*MODEL_SPACE
0
ENDBLK
5
21
100
AcDbEntity
100
AcDbBlockEnd
0
BLOCK
5
1C
100
AcDbEntity
100
AcDbBlockBegin
2
*PAPER_SPACE
0
ENDBLK
5
1D
100
AcDbEntity
100
AcDbBlockEnd
0
ENDSEC
0
SECTION
2
ENTITIES
0
ARC
5
100
100
AcDbEntity
8
0
100
AcDbCircle
10
176.05900000000003
20
-346.976
30
0
40
232.90300000000002
210
0
220
-0
230
1
100
AcDbArc
50
89.173299999999983
51
116.85199999999998
0
ARC
5
101
100
AcDbEntity
8
0
100
AcDbCircle
10
179.49200000000002
20
-109.09800000000001
30
0
40
4.9998999999999949
210
0
220
0
230
1
100
AcDbArc
50
-90.827900000000255
51
0.00040107737947231469
0
LINE
5
102
100
AcDbEntity
8
0
100
AcDbLine
10
184.49200000000002
20
-109.09756500000022
30
0
11
184.49200000000002
21
-50.205125000000102
31
0
0
ARC
5
103
100
AcDbEntity
8
0
100
AcDbCircle
10
132.82800000000003
20
-106.79600000000001
30
0
40
76.626700000000028
210
0
220
-0
230
1
100
AcDbArc
50
47.606099999999941
51
88.755999999999958
0
ARC
5
104
100
AcDbEntity
8
0
100
AcDbCircle
10
131.98501050725889
20
-146.19027156124505
30
0
40
116.0300111353336
210
0
220
-0
230
1
100
AcDbArc
50
88.761943039003697
51
113.72475706493273
0
LINE
5
105
100
AcDbEntity
8
0
100
AcDbLine
10
85.301102499999956
20
-39.966092500000116
30
0
11
85.301102499999999
21
-97.503755492460471
31
0
0
ARC
5
106
100
AcDbEntity
8
0
100
AcDbCircle
10
85.582100000000011
20
-102.60600000000002
30
0
40
5.1099763805445981
210
0
220
0
230
1
100
AcDbArc
50
93.15228384179224
51
191.90857757628766
0
LINE
5
107
100
AcDbEntity
8
0
100
AcDbLine
10
67.875228008988927
20
-109.10601586228596
30
0
11
80.582100000000011
21
-103.66044706349997
31
0
0
ARC
5
108
100
AcDbEntity
8
0
100
AcDbCircle
10
63.76626000000001
20
-111.95488700000024
30
0
40
4.9999684857202658
210
0
220
-0
230
1
100
AcDbArc
50
34.734733834584304
51
168.12110626040351
0
LINE
5
109
100
AcDbEntity
8
0
100
AcDbLine
10
52.789999999999999
20
-114.18776500000023
30
0
11
58.873366444822949
21
-110.92567491500388
31
0
0
ARC
5
110
100
AcDbEntity
8
0
100
AcDbCircle
10
59.290200000000006
20
-114.18799999999999
30
0
40
6.5002100000000009
210
0
220
0
230
1
100
AcDbArc
50
180.00100000003707
51
208.19900000000001
0
LINE
5
111
100
AcDbEntity
8
0
100
AcDbLine
10
53.561500000000002
20
-117.25929500000022
30
0
11
64.193323000000007
21
-137.08798000000027
31
0
0
ARC
5
112
100
AcDbEntity
8
0
100
AcDbCircle
10
68.599900000000005
20
-134.72499999999999
30
0
40
5.0000000000000009
210
0
220
0
230
1
100
AcDbArc
50
208.19900000000018
51
296.85250000000002
0
LWPOLYLINE
5
113
100
AcDbEntity
8
0
100
AcDbPolyline
90
4
70
1
43
0.0
10
79.354500000000002
20
-125.15600000000001
10
66.134900000000002
20
-132.244
10
59.046700000000001
20
-119.024
10
72.266199999999998
20
-111.93600000000002
0
CIRCLE
5
114
100
AcDbEntity
8
0
100
AcDbCircle
10
74.634889999999999
20
-132.22511300000028
30
0
40
1.6000000000000036
210
0
220
0
230
1
0
CIRCLE
5
115
100
AcDbEntity
8
0
100
AcDbCircle
10
63.766300000000001
20
-111.95500000000001
30
0
40
1.6000000000000003
210
0
220
0
230
1
0
CIRCLE
5
116
100
AcDbEntity
8
0
100
AcDbCircle
10
85.582100000000011
20
-102.60600000000002
30
0
40
1.6000000000000003
210
0
220
0
230
1
0
LWPOLYLINE
5
117
100
AcDbEntity
8
0
100
AcDbPolyline
90
4
70
1
43
0.0
10
84.427300000000002
20
-123
10
79.717399999999998
20
-108.758
10
93.958700000000007
20
-104.048
10
98.668600000000012
20
-118.29000000000001
0
LWPOLYLINE
5
118
100
AcDbEntity
8
0
100
AcDbPolyline
90
4
70
1
43
0.0
10
116.55900000000001
20
-99.973799999999997
10
118.77600000000001
20
-114.809
10
103.94100000000002
20
-117.02600000000002
10
101.72399999999999
20
-102.191
0
CIRCLE
5
119
100
AcDbEntity
8
0
100
AcDbCircle
10
124.96899999999999
20
-115.03299999999999
30
0
40
1.6000000000000003
210
0
220
0
230
1
0
LWPOLYLINE
5
120
100
AcDbEntity
8
0
100
AcDbPolyline
90
4
70
1
43
0.0
10
123.05
20
-111.09999999999999
10
155.03999999999999
20
-111.09999999999999
10
155.03999999999999
20
-96.900000000000006
10
123.05
20
-96.900000000000006
0
LWPOLYLINE
5
121
100
AcDbEntity
8
0
100
AcDbPolyline
90
4
70
1
43
0.0
10
165
20
-105.5
10
165
20
-90.5
10
180
20
-90.5
10
180
20
-105.5
0
CIRCLE
5
122
100
AcDbEntity
8
0
100
AcDbCircle
10
172.5
20
-109.50000000000001
30
0
40
1.6000000000000003
210
0
220
0
230
1
0
LWPOLYLINE
5
123
100
AcDbEntity
8
0
100
AcDbPolyline
90
4
70
1
43
0.0
10
180
20
-71.5
10
180
20
-86.5
10
165
20
-86.5
10
165
20
-71.5
0
LWPOLYLINE
5
124
100
AcDbEntity
8
0
100
AcDbPolyline
90
4
70
1
43
0.0
10
180
20
-67.5
10
165
20
-67.5
10
165
20
-52.5
10
180
20
-52.5
0
CIRCLE
5
125
100
AcDbEntity
8
0
100
AcDbCircle
10
175
20
-48.500000000000007
30
0
40
1.6000000000000003
210
0
220
0
230
1
0
LWPOLYLINE
5
126
100
AcDbEntity
8
0
100
AcDbPolyline
90
4
70
1
43
0.0
10
161
20
-40.5
10
161
20
-55.500000000000007
10
146
20
-55.500000000000007
10
146
20
-40.5
0
LWPOLYLINE
5
127
100
AcDbEntity
8
0
100
AcDbPolyline
90
4
70
1
43
0.0
10
146
20
-59.5
10
161
20
-59.5
10
161
20
-74.5
10
146
20
-74.5
0
LWPOLYLINE
5
128
100
AcDbEntity
8
0
100
AcDbPolyline
90
4
70
1
43
0.0
10
161
20
-78.5
10
161
20
-93.5
10
146
20
-93.5
10
146
20
-78.5
0
LWPOLYLINE
5
129
100
AcDbEntity
8
0
100
AcDbPolyline
90
4
70
1
43
0.0
10
142
20
-73.5
10
142
20
-88.5
10
127.00000000000001
20
-88.5
10
127.00000000000001
20
-73.5
0
LWPOLYLINE
5
130
100
AcDbEntity
8
0
100
AcDbPolyline
90
4
70
1
43
0.0
10
142
20
-69.5
10
127.00000000000001
20
-69.5
10
127.00000000000001
20
-54.5
10
142
20
-54.5
0
LWPOLYLINE
5
131
100
AcDbEntity
8
0
100
AcDbPolyline
90
4
70
1
43
0.0
10
142
20
-50.500000000000007
10
127.00000000000001
20
-50.500000000000007
10
127.00000000000001
20
-35.5
10
142
20
-35.5
0
CIRCLE
5
132
100
AcDbEntity
8
0
100
AcDbCircle
10
148
20
-35.5
30
0
40
1.6000000000000003
210
0
220
0
230
1
0
LWPOLYLINE
5
133
100
AcDbEntity
8
0
100
AcDbPolyline
90
4
70
1
43
0.0
10
123
20
-40.5
10
123
20
-55.500000000000007
10
108
20
-55.500000000000007
10
108
20
-40.5
0
CIRCLE
5
134
100
AcDbEntity
8
0
100
AcDbCircle
10
102.90600000000001
20
-38.5
30
0
40
1.6000000000000003
210
0
220
0
230
1
0
LWPOLYLINE
5
135
100
AcDbEntity
8
0
100
AcDbPolyline
90
4
70
1
43
0.0
10
108
20
-59.5
10
123
20
-59.5
10
123
20
-74.5
10
108
20
-74.5
0
LWPOLYLINE
5
136
100
AcDbEntity
8
0
100
AcDbPolyline
90
4
70
1
43
0.0
10
108
20
-78.5
10
123
20
-78.5
10
123
20
-93.5
10
108
20
-93.5
0
LWPOLYLINE
5
137
100
AcDbEntity
8
0
100
AcDbPolyline
90
4
70
1
43
0.0
10
104
20
-80.5
10
104
20
-95.5
10
89
20
-95.5
10
89
20
-80.5
0
LWPOLYLINE
5
138
100
AcDbEntity
8
0
100
AcDbPolyline
90
4
70
1
43
0.0
10
104
20
-76.5
10
89
20
-76.5
10
89
20
-61.5
10
104
20
-61.5
0
LWPOLYLINE
5
139
100
AcDbEntity
8
0
100
AcDbPolyline
90
4
70
1
43
0.0
10
104
20
-57.5
10
89
20
-57.5
10
89
20
-42.5
10
104
20
-42.5
0
LWPOLYLINE
5
140
100
AcDbEntity
8
0
100
AcDbPolyline
90
4
70
1
43
0.0
10
89
20
-181.5
10
104
20
-181.5
10
104
20
-196.5
10
89
20
-196.5
0
ARC
5
141
100
AcDbEntity
8
0
100
AcDbCircle
10
68.599900000000005
20
-254.72499999999997
30
0
40
5.0000000000000098
210
0
220
0
230
1
100
AcDbArc
50
208.19900000000018
51
296.85249999999991
0
LWPOLYLINE
5
142
100
AcDbEntity
8
0
100
AcDbPolyline
90
4
70
1
43
0.0
10
104
20
-177.5
10
89
20
-177.5
10
89
20
-162.5
10
104
20
-162.5
0
CIRCLE
5
143
100
AcDbEntity
8
0
100
AcDbCircle
10
74.634889999999999
20
-252.22511300000025
30
0
40
1.6000000000000036
210
0
220
0
230
1
0
LWPOLYLINE
5
144
100
AcDbEntity
8
0
100
AcDbPolyline
90
4
70
1
43
0.0
10
89
20
-200.49999999999997
10
104
20
-200.49999999999997
10
104
20
-215.49999999999997
10
89
20
-215.49999999999997
0
LWPOLYLINE
5
145
100
AcDbEntity
8
0
100
AcDbPolyline
90
4
70
1
43
0.0
10
98.668600000000012
20
-238.29000000000002
10
84.427300000000002
20
-242.99999999999997
10
79.717399999999998
20
-228.75799999999998
10
93.958700000000007
20
-224.04799999999997
0
LWPOLYLINE
5
146
100
AcDbEntity
8
0
100
AcDbPolyline
90
4
70
1
43
0.0
10
79.354500000000002
20
-245.15600000000001
10
66.134900000000002
20
-252.244
10
59.046700000000001
20
-239.024
10
72.266199999999998
20
-231.93600000000001
0
ARC
5
147
100
AcDbEntity
8
0
100
AcDbCircle
10
132.82800000000003
20
-226.79599999999999
30
0
40
76.626700000000056
210
0
220
-0
230
1
100
AcDbArc
50
47.606099999999948
51
88.755999999999958
0
LWPOLYLINE
5
148
100
AcDbEntity
8
0
100
AcDbPolyline
90
4
70
1
43
0.0
10
146
20
-194.5
10
146
20
-179.5
10
161
20
-179.5
10
161
20
-194.5
0
CIRCLE
5
149
100
AcDbEntity
8
0
100
AcDbCircle
10
172.5
20
-229.5
30
0
40
1.6000000000000003
210
0
220
0
230
1
0
LWPOLYLINE
5
150
100
AcDbEntity
8
0
100
AcDbPolyline
90
4
70
1
43
0.0
10
127.00000000000001
20
-193.49999999999997
10
142
20
-193.49999999999997
10
142
20
-208.49999999999997
10
127.00000000000001
20
-208.49999999999997
0
LWPOLYLINE
5
151
100
AcDbEntity
8
0
100
AcDbPolyline
90
4
70
1
43
0.0
10
123
20
-175.49999999999997
10
108
20
-175.49999999999997
10
108
20
-160.49999999999997
10
123
20
-160.49999999999997
0
LWPOLYLINE
5
152
100
AcDbEntity
8
0
100
AcDbPolyline
90
4
70
1
43
0.0
10
165
20
-191.5
10
180
20
-191.5
10
180
20
-206.5
10
165
20
-206.5
0
LWPOLYLINE
5
153
100
AcDbEntity
8
0
100
AcDbPolyline
90
4
70
1
43
0.0
10
127.00000000000001
20
-189.5
10
127.00000000000001
20
-174.5
10
142
20
-174.5
10
142
20
-189.5
0
LWPOLYLINE
5
154
100
AcDbEntity
8
0
100
AcDbPolyline
90
4
70
1
43
0.0
10
108
20
-179.5
10
123
20
-179.5
10
123
20
-194.5
10
108
20
-194.5
0
LWPOLYLINE
5
155
100
AcDbEntity
8
0
100
AcDbPolyline
90
4
70
1
43
0.0
10
146
20
-160.49999999999997
10
161
20
-160.49999999999997
10
161
20
-175.49999999999997
10
146
20
-175.49999999999997
0
ARC
5
156
100
AcDbEntity
8
0
100
AcDbCircle
10
179.49200000000002
20
-229.09799999999996
30
0
40
4.9998999999999949
210
0
220
0
230
1
100
AcDbArc
50
-90.827900000000255
51
0.00040107737947231469
0
CIRCLE
5
157
100
AcDbEntity
8
0
100
AcDbCircle
10
102.90600000000001
20
-158.49999999999997
30
0
40
1.6000000000000003
210
0
220
0
230
1
0
LWPOLYLINE
5
158
100
AcDbEntity
8
0
100
AcDbPolyline
90
4
70
1
43
0.0
10
165
20
-225.49999999999997
10
165
20
-210.49999999999997
10
180
20
-210.49999999999997
10
180
20
-225.49999999999997
0
CIRCLE
5
159
100
AcDbEntity
8
0
100
AcDbCircle
10
148
20
-155.5
30
0
40
1.6000000000000003
210
0
220
0
230
1
0
LWPOLYLINE
5
160
100
AcDbEntity
8
0
100
AcDbPolyline
90
4
70
1
43
0.0
10
116.55900000000001
20
-219.97379999999998
10
118.77600000000001
20
-234.80899999999997
10
103.94100000000002
20
-237.02600000000001
10
101.72399999999999
20
-222.19099999999997
0
LWPOLYLINE
5
161
100
AcDbEntity
8
0
100
AcDbPolyline
90
4
70
1
43
0.0
10
155.03999999999999
20
-216.89999999999998
10
155.03999999999999
20
-231.09999999999999
10
123.05
20
-231.09999999999999
10
123.05
20
-216.89999999999998
0
LWPOLYLINE
5
162
100
AcDbEntity
8
0
100
AcDbPolyline
90
4
70
1
43
0.0
10
161
20
-198.49999999999997
10
161
20
-213.49999999999997
10
146
20
-213.49999999999997
10
146
20
-198.49999999999997
0
LINE
5
163
100
AcDbEntity
8
0
100
AcDbLine
10
52.789999999999999
20
-234.18776500000021
30
0
11
58.873366444822949
21
-230.92567491500387
31
0
0
LWPOLYLINE
5
164
100
AcDbEntity
8
0
100
AcDbPolyline
90
4
70
1
43
0.0
10
123
20
-198.49999999999997
10
123
20
-213.49999999999997
10
108
20
-213.49999999999997
10
108
20
-198.49999999999997
0
LWPOLYLINE
5
165
100
AcDbEntity
8
0
100
AcDbPolyline
90
4
70
1
43
0.0
10
165
20
-187.5
10
165
20
-172.5
10
180
20
-172.5
10
180
20
-187.5
0
LWPOLYLINE
5
166
100
AcDbEntity
8
0
100
AcDbPolyline
90
4
70
1
43
0.0
10
142
20
-155.5
10
142
20
-170.49999999999997
10
127.00000000000001
20
-170.49999999999997
10
127.00000000000001
20
-155.5
0
CIRCLE
5
167
100
AcDbEntity
8
0
100
AcDbCircle
10
175
20
-168.49999999999997
30
0
40
1.6000000000000003
210
0
220
0
230
1
0
CIRCLE
5
168
100
AcDbEntity
8
0
100
AcDbCircle
10
124.96899999999999
20
-235.03299999999996
30
0
40
1.6000000000000003
210
0
220
0
230
1
0
CIRCLE
5
169
100
AcDbEntity
8
0
100
AcDbCircle
10
63.766300000000001
20
-231.95499999999998
30
0
40
1.6000000000000003
210
0
220
0
230
1
0
CIRCLE
5
170
100
AcDbEntity
8
0
100
AcDbCircle
10
85.582100000000011
20
-222.60599999999999
30
0
40
1.6000000000000003
210
0
220
0
230
1
0
ARC
5
171
100
AcDbEntity
8
0
100
AcDbCircle
10
176.05900000000003
20
-466.976
30
0
40
232.90300000000002
210
0
220
-0
230
1
100
AcDbArc
50
89.173299999999983
51
116.85199999999998
0
ARC
5
172
100
AcDbEntity
8
0
100
AcDbCircle
10
131.98501050725889
20
-266.19027156124503
30
0
40
116.0300111353336
210
0
220
-0
230
1
100
AcDbArc
50
88.761943039003697
51
113.72475706493273
0
LINE
5
173
100
AcDbEntity
8
0
100
AcDbLine
10
67.875228008988927
20
-229.10601586228594
30
0
11
80.582100000000011
21
-223.66044706349996
31
0
0
ARC
5
174
100
AcDbEntity
8
0
100
AcDbCircle
10
63.76626000000001
20
-231.95488700000021
30
0
40
4.9999684857202551
210
0
220
-0
230
1
100
AcDbArc
50
34.734733834584155
51
168.12110626040368
0
LINE
5
175
100
AcDbEntity
8
0
100
AcDbLine
10
53.561500000000002
20
-237.25929500000021
30
0
11
64.193323000000007
21
-257.08798000000024
31
0
0
ARC
5
176
100
AcDbEntity
8
0
100
AcDbCircle
10
59.290200000000006
20
-234.18799999999999
30
0
40
6.5002100000000009
210
0
220
0
230
1
100
AcDbArc
50
180.00100000003707
51
208.19900000000001
0
LINE
5
177
100
AcDbEntity
8
0
100
AcDbLine
10
85.301102499999956
20
-159.96609250000009
30
0
11
85.301102499999999
21
-217.50375549246044
31
0
0
LINE
5
178
100
AcDbEntity
8
0
100
AcDbLine
10
184.49200000000002
20
-229.0975650000002
30
0
11
184.49200000000002
21
-170.20512500000009
31
0
0
ARC
5
179
100
AcDbEntity
8
0
100
AcDbCircle
10
85.582100000000011
20
-222.60599999999999
30
0
40
5.1099763805446159
210
0
220
0
230
1
100
AcDbArc
50
93.15228384179224
51
191.90857757628783
0
ENDSEC
0
SECTION
2
OBJECTS
0
DICTIONARY
5
C
100
AcDbDictionary
3
ACAD_GROUP
350
D
3
ACAD_MLINESTYLE
350
17
0
DICTIONARY
5
D
100
AcDbDictionary
0
DICTIONARY
5
1A
330
C
100
AcDbDictionary
0
DICTIONARY
5
17
100
AcDbDictionary
0
ENDSEC
0
EOF
