0
SECTION
2
HEADER
9
$INSUNITS
70
4
9
$ACADVER
1
AC1014
9
$HANDSEED
5
FFFF
0
ENDSEC
0
SECTION
2
TABLES
0
TABLE
2
VPORT
5
8
100
AcDbSymbolTable
0
ENDTAB
0
TABLE
2
LTYPE
5
5
100
AcDbSymbolTable
0
LTYPE
5
14
100
AcDbSymbolTableRecord
100
AcDbLinetypeTableRecord
2
BYBLOCK
70
0
0
LTYPE
5
15
100
AcDbSymbolTableRecord
100
AcDbLinetypeTableRecord
2
BYLAYER
70
0
0
ENDTAB
0
TABLE
2
LAYER
5
2
100
AcDbSymbolTable
70
2
0
LAYER
5
50
100
AcDbSymbolTableRecord
100
AcDbLayerTableRecord
2
0
70
0
6
CONTINUOUS
0
ENDTAB
0
TABLE
2
STYLE
5
3
100
AcDbSymbolTable
70
1
0
STYLE
5
11
100
AcDbSymbolTableRecord
100
AcDbTextStyleTableRecord
2
STANDARD
70
0
0
ENDTAB
0
TABLE
2
VIEW
5
6
100
AcDbSymbolTable
70
0
0
ENDTAB
0
TABLE
2
UCS
5
7
100
AcDbSymbolTable
70
0
0
ENDTAB
0
TABLE
2
APPID
5
9
100
AcDbSymbolTable
70
2
0
APPID
5
12
100
AcDbSymbolTableRecord
100
AcDbRegAppTableRecord
2
ACAD
70
0
0
ENDTAB
0
TABLE
2
DIMSTYLE
5
A
100
AcDbSymbolTable
70
1
0
ENDTAB
0
TABLE
2
BLOCK_RECORD
5
1
100
AcDbSymbolTable
70
1
0
BLOCK_RECORD
5
1F
100
AcDbSymbolTableRecord
100
AcDbBlockTableRecord
2
*MODEL_SPACE
0
BLOCK_RECORD
5
1B
100
AcDbSymbolTableRecord
100
AcDbBlockTableRecord
2
*PAPER_SPACE
0
ENDTAB
0
ENDSEC
0
SECTION
2
BLOCKS
0
BLOCK
5
20
100
AcDbEntity
100
AcDbBlockBegin
2
*MODEL_SPACE
0
ENDBLK
5
21
100
AcDbEntity
100
AcDbBlockEnd
0
BLOCK
5
1C
100
AcDbEntity
100
AcDbBlockBegin
2
*PAPER_SPACE
0
ENDBLK
5
1D
100
AcDbEntity
100
AcDbBlockEnd
0
ENDSEC
0
SECTION
2
ENTITIES
0
LWPOLYLINE
5
100
100
AcDbEntity
8
0
100
AcDbPolyline
90
13
70
1
43
0.0
10
189.41935622692372
20
-124.09724310056063
42
0.12136173351820198
10
80.859640143095689
20
-149.18547544534766
42
-0.40742287297638774
10
74.193341502512553
20
-147.08767691575068
10
63.56148887780941
20
-127.25957922290632
42
-0.12366161690820598
10
62.789990000990045
20
-124.18811345006657
10
68.87336621340026
20
-120.92567601519227
42
-0.65804201561983433
10
77.875228008988927
20
-119.10601586228596
10
90.582100000000011
20
-113.66044706349997
42
-0.45971758204516366
10
95.301102499999999
20
-107.50375549246047
10
95.301102499999985
20
-49.966092500000087
42
-0.10935266243326085
10
144.49158022224043
20
-40.187360449788855
42
-0.18150498696004869
10
194.49154210089739
20
-60.205103466380656
10
194.49150017219461
20
-119.09783005704995
42
-0.41845416368030025
0
CIRCLE
5
101
100
AcDbEntity
8
0
100
AcDbCircle
10
84.634900000000002
20
-142.22499999999999
30
0
40
1.1000000000000001
210
0
220
0
230
1
0
CIRCLE
5
102
100
AcDbEntity
8
0
100
AcDbCircle
10
73.766300000000001
20
-121.95500000000001
30
0
40
1.1000000000000001
210
0
220
0
230
1
0
LWPOLYLINE
5
103
100
AcDbEntity
8
0
100
AcDbPolyline
90
4
70
1
43
0.0
10
82.021000000000015
20
-122.74799999999999
10
88.542199999999994
20
-134.91
10
76.380200000000002
20
-141.43200000000002
10
69.858999999999995
20
-129.26999999999998
0
LWPOLYLINE
5
104
100
AcDbEntity
8
0
100
AcDbPolyline
90
4
70
1
43
0.0
10
94.808500000000009
20
-132.24200000000002
10
107.91060000000002
20
-127.90799999999999
10
103.57750000000001
20
-114.80600000000001
10
90.475399999999993
20
-119.14000000000001
0
CIRCLE
5
105
100
AcDbEntity
8
0
100
AcDbCircle
10
95.582100000000011
20
-112.60600000000002
30
0
40
1.1000000000000001
210
0
220
0
230
1
0
LWPOLYLINE
5
106
100
AcDbEntity
8
0
100
AcDbPolyline
90
4
70
1
43
0.0
10
114.44600000000001
20
-126.34399999999999
10
112.40600000000001
20
-112.696
10
126.05400000000002
20
-110.65600000000002
10
128.09399999999999
20
-124.304
0
CIRCLE
5
107
100
AcDbEntity
8
0
100
AcDbCircle
10
134.96899999999999
20
-125.03299999999997
30
0
40
1.1000000000000001
210
0
220
0
230
1
0
LWPOLYLINE
5
108
100
AcDbEntity
8
0
100
AcDbPolyline
90
4
70
1
43
0.0
10
133.55000000000001
20
-120.5
10
133.55000000000001
20
-107.5
10
150.05000000000001
20
-107.5
10
150.05000000000001
20
-120.5
0
LWPOLYLINE
5
109
100
AcDbEntity
8
0
100
AcDbPolyline
90
4
70
1
43
0.0
10
99.599999999999994
20
-104.90000000000001
10
99.599999999999994
20
-91.099999999999994
10
113.40000000000002
20
-91.099999999999994
10
113.40000000000002
20
-104.90000000000001
0
LWPOLYLINE
5
110
100
AcDbEntity
8
0
100
AcDbPolyline
90
4
70
1
43
0.0
10
99.599999999999994
20
-85.900000000000006
10
113.40000000000002
20
-85.900000000000006
10
113.40000000000002
20
-72.100000000000009
10
99.599999999999994
20
-72.100000000000009
0
LWPOLYLINE
5
111
100
AcDbEntity
8
0
100
AcDbPolyline
90
4
70
1
43
0.0
10
99.599999999999994
20
-66.900000000000006
10
113.40000000000002
20
-66.900000000000006
10
113.40000000000002
20
-53.100000000000009
10
99.599999999999994
20
-53.100000000000009
0
CIRCLE
5
112
100
AcDbEntity
8
0
100
AcDbCircle
10
112.90600000000001
20
-48.5
30
0
40
1.1000000000000001
210
0
220
0
230
1
0
LWPOLYLINE
5
113
100
AcDbEntity
8
0
100
AcDbPolyline
90
4
70
1
43
0.0
10
118.59999999999999
20
-64.900000000000006
10
118.59999999999999
20
-51.100000000000001
10
132.40000000000003
20
-51.100000000000001
10
132.40000000000003
20
-64.900000000000006
0
LWPOLYLINE
5
114
100
AcDbEntity
8
0
100
AcDbPolyline
90
4
70
1
43
0.0
10
132.40000000000003
20
-70.100000000000009
10
118.59999999999999
20
-70.100000000000009
10
118.59999999999999
20
-83.900000000000006
10
132.40000000000003
20
-83.900000000000006
0
LWPOLYLINE
5
115
100
AcDbEntity
8
0
100
AcDbPolyline
90
4
70
1
43
0.0
10
132.40000000000003
20
-89.099999999999994
10
132.40000000000003
20
-102.90000000000001
10
118.59999999999999
20
-102.90000000000001
10
118.59999999999999
20
-89.099999999999994
0
LWPOLYLINE
5
116
100
AcDbEntity
8
0
100
AcDbPolyline
90
4
70
1
43
0.0
10
137.59999999999999
20
-97.900000000000006
10
151.40000000000001
20
-97.900000000000006
10
151.40000000000001
20
-84.099999999999994
10
137.59999999999999
20
-84.099999999999994
0
LWPOLYLINE
5
117
100
AcDbEntity
8
0
100
AcDbPolyline
90
4
70
1
43
0.0
10
137.59999999999999
20
-78.900000000000006
10
151.40000000000001
20
-78.900000000000006
10
151.40000000000001
20
-65.100000000000009
10
137.59999999999999
20
-65.100000000000009
0
LWPOLYLINE
5
118
100
AcDbEntity
8
0
100
AcDbPolyline
90
4
70
1
43
0.0
10
137.59999999999999
20
-59.900000000000006
10
151.40000000000001
20
-59.900000000000006
10
151.40000000000001
20
-46.100000000000001
10
137.59999999999999
20
-46.100000000000001
0
LWPOLYLINE
5
119
100
AcDbEntity
8
0
100
AcDbPolyline
90
4
70
1
43
0.0
10
156.59999999999999
20
-64.900000000000006
10
156.59999999999999
20
-51.100000000000001
10
170.40000000000003
20
-51.100000000000001
10
170.40000000000003
20
-64.900000000000006
0
LWPOLYLINE
5
120
100
AcDbEntity
8
0
100
AcDbPolyline
90
4
70
1
43
0.0
10
170.40000000000003
20
-70.100000000000009
10
156.59999999999999
20
-70.100000000000009
10
156.59999999999999
20
-83.900000000000006
10
170.40000000000003
20
-83.900000000000006
0
CIRCLE
5
121
100
AcDbEntity
8
0
100
AcDbCircle
10
158
20
-45.500000000000007
30
0
40
1.1000000000000001
210
0
220
0
230
1
0
LWPOLYLINE
5
122
100
AcDbEntity
8
0
100
AcDbPolyline
90
4
70
1
43
0.0
10
170.40000000000003
20
-89.099999999999994
10
170.40000000000003
20
-102.90000000000001
10
156.59999999999999
20
-102.90000000000001
10
156.59999999999999
20
-89.099999999999994
0
LWPOLYLINE
5
123
100
AcDbEntity
8
0
100
AcDbPolyline
90
4
70
1
43
0.0
10
175.59999999999999
20
-114.90000000000002
10
175.59999999999999
20
-101.09999999999999
10
189.40000000000001
20
-101.09999999999999
10
189.40000000000001
20
-114.90000000000002
0
LWPOLYLINE
5
124
100
AcDbEntity
8
0
100
AcDbPolyline
90
4
70
1
43
0.0
10
175.59999999999999
20
-95.90000000000002
10
189.40000000000001
20
-95.90000000000002
10
189.40000000000001
20
-82.100000000000009
10
175.59999999999999
20
-82.100000000000009
0
LWPOLYLINE
5
125
100
AcDbEntity
8
0
100
AcDbPolyline
90
4
70
1
43
0.0
10
175.59999999999999
20
-76.900000000000006
10
189.40000000000001
20
-76.900000000000006
10
189.40000000000001
20
-63.100000000000009
10
175.59999999999999
20
-63.100000000000009
0
CIRCLE
5
126
100
AcDbEntity
8
0
100
AcDbCircle
10
182.5
20
-119.50000000000001
30
0
40
1.1000000000000001
210
0
220
0
230
1
0
LWPOLYLINE
5
127
100
AcDbEntity
8
0
100
AcDbPolyline
90
4
70
1
43
0.0
10
113.40000000000002
20
-202.10000000000002
10
99.599999999999994
20
-202.10000000000002
10
99.599999999999994
20
-215.90000000000001
10
113.40000000000002
20
-215.90000000000001
0
CIRCLE
5
128
100
AcDbEntity
8
0
100
AcDbCircle
10
134.96899999999999
20
-255.03299999999996
30
0
40
1.1000000000000001
210
0
220
0
230
1
0
CIRCLE
5
129
100
AcDbEntity
8
0
100
AcDbCircle
10
84.634900000000002
20
-272.22499999999997
30
0
40
1.1000000000000001
210
0
220
0
230
1
0
LWPOLYLINE
5
130
100
AcDbEntity
8
0
100
AcDbPolyline
90
4
70
1
43
0.0
10
156.59999999999999
20
-232.89999999999998
10
170.40000000000003
20
-232.89999999999998
10
170.40000000000003
20
-219.09999999999997
10
156.59999999999999
20
-219.09999999999997
0
LWPOLYLINE
5
131
100
AcDbEntity
8
0
100
AcDbPolyline
90
4
70
1
43
0.0
10
148.03999999999999
20
-237.5
10
148.03999999999999
20
-250.49999999999997
10
164.54000000000002
20
-250.49999999999997
10
164.54000000000002
20
-237.5
0
LWPOLYLINE
5
132
100
AcDbEntity
8
0
100
AcDbPolyline
90
4
70
1
43
0.0
10
76.380200000000002
20
-271.43200000000002
10
88.542199999999994
20
-264.90999999999997
10
82.021000000000015
20
-252.74799999999999
10
69.858999999999995
20
-259.26999999999998
0
LWPOLYLINE
5
133
100
AcDbEntity
8
0
100
AcDbPolyline
90
4
70
1
43
0.0
10
151.40000000000001
20
-195.09999999999997
10
137.59999999999999
20
-195.09999999999997
10
137.59999999999999
20
-208.90000000000001
10
151.40000000000001
20
-208.90000000000001
0
LWPOLYLINE
5
134
100
AcDbEntity
8
0
100
AcDbPolyline
90
4
70
1
43
0.0
10
151.40000000000001
20
-214.09999999999997
10
137.59999999999999
20
-214.09999999999997
10
137.59999999999999
20
-227.89999999999998
10
151.40000000000001
20
-227.89999999999998
0
LWPOLYLINE
5
135
100
AcDbEntity
8
0
100
AcDbPolyline
90
13
70
1
43
0.0
10
95.301102499999985
20
-179.96609250000006
10
95.301102499999999
20
-237.50375549246044
42
0.45971758204516372
10
90.582100000000011
20
-243.66044706349996
10
77.875228008988927
20
-249.10601586228594
42
0.65804201561983666
10
68.87336621340026
20
-250.92567601519224
10
62.789990000990045
20
-254.18811345006651
42
0.12366161690820737
10
63.56148887780941
20
-257.25957922290632
10
74.193341502512553
20
-277.08767691575065
42
0.4074228729763873
10
80.859640143095675
20
-279.18547544534772
42
-0.12136173351820198
10
189.41935622692372
20
-254.09724310056063
42
0.41845416368030025
10
194.49150017219461
20
-249.09783005704995
10
194.49154210089739
20
-190.20510346638062
42
0.18150498696004866
10
144.49158022224043
20
-170.18736044978883
42
0.10935266243326086
0
LWPOLYLINE
5
136
100
AcDbEntity
8
0
100
AcDbPolyline
90
4
70
1
43
0.0
10
114.44600000000001
20
-256.34399999999999
10
112.40600000000001
20
-242.69599999999997
10
126.05400000000002
20
-240.65600000000001
10
128.09399999999999
20
-254.30399999999997
0
LWPOLYLINE
5
137
100
AcDbEntity
8
0
100
AcDbPolyline
90
4
70
1
43
0.0
10
189.40000000000001
20
-212.09999999999997
10
189.40000000000001
20
-225.90000000000001
10
175.59999999999999
20
-225.90000000000001
10
175.59999999999999
20
-212.09999999999997
0
LWPOLYLINE
5
138
100
AcDbEntity
8
0
100
AcDbPolyline
90
4
70
1
43
0.0
10
113.40000000000002
20
-183.09999999999999
10
99.599999999999994
20
-183.09999999999999
10
99.599999999999994
20
-196.89999999999998
10
113.40000000000002
20
-196.89999999999998
0
LWPOLYLINE
5
139
100
AcDbEntity
8
0
100
AcDbPolyline
90
4
70
1
43
0.0
10
103.57750000000001
20
-244.80599999999998
10
107.91060000000002
20
-257.90799999999996
10
94.808500000000009
20
-262.24200000000002
10
90.475399999999993
20
-249.14000000000001
0
LWPOLYLINE
5
140
100
AcDbEntity
8
0
100
AcDbPolyline
90
4
70
1
43
0.0
10
99.599999999999994
20
-234.89999999999998
10
113.40000000000002
20
-234.89999999999998
10
113.40000000000002
20
-221.09999999999999
10
99.599999999999994
20
-221.09999999999999
0
LWPOLYLINE
5
141
100
AcDbEntity
8
0
100
AcDbPolyline
90
4
70
1
43
0.0
10
137.59999999999999
20
-189.89999999999998
10
151.40000000000001
20
-189.89999999999998
10
151.40000000000001
20
-176.09999999999999
10
137.59999999999999
20
-176.09999999999999
0
CIRCLE
5
142
100
AcDbEntity
8
0
100
AcDbCircle
10
182.5
20
-249.5
30
0
40
1.1000000000000001
210
0
220
0
230
1
0
CIRCLE
5
143
100
AcDbEntity
8
0
100
AcDbCircle
10
95.582100000000011
20
-242.60599999999999
30
0
40
1.1000000000000001
210
0
220
0
230
1
0
LWPOLYLINE
5
144
100
AcDbEntity
8
0
100
AcDbPolyline
90
4
70
1
43
0.0
10
189.40000000000001
20
-193.09999999999999
10
175.59999999999999
20
-193.09999999999999
10
175.59999999999999
20
-206.89999999999998
10
189.40000000000001
20
-206.89999999999998
0
LWPOLYLINE
5
145
100
AcDbEntity
8
0
100
AcDbPolyline
90
4
70
1
43
0.0
10
170.40000000000003
20
-200.09999999999997
10
170.40000000000003
20
-213.90000000000001
10
156.59999999999999
20
-213.90000000000001
10
156.59999999999999
20
-200.09999999999997
0
LWPOLYLINE
5
146
100
AcDbEntity
8
0
100
AcDbPolyline
90
4
70
1
43
0.0
10
118.59999999999999
20
-194.89999999999998
10
132.40000000000003
20
-194.89999999999998
10
132.40000000000003
20
-181.09999999999999
10
118.59999999999999
20
-181.09999999999999
0
CIRCLE
5
147
100
AcDbEntity
8
0
100
AcDbCircle
10
73.766300000000001
20
-251.95499999999998
30
0
40
1.1000000000000001
210
0
220
0
230
1
0
CIRCLE
5
148
100
AcDbEntity
8
0
100
AcDbCircle
10
158
20
-175.49999999999997
30
0
40
1.1000000000000001
210
0
220
0
230
1
0
LWPOLYLINE
5
149
100
AcDbEntity
8
0
100
AcDbPolyline
90
4
70
1
43
0.0
10
170.40000000000003
20
-181.09999999999999
10
156.59999999999999
20
-181.09999999999999
10
156.59999999999999
20
-194.89999999999998
10
170.40000000000003
20
-194.89999999999998
0
LWPOLYLINE
5
150
100
AcDbEntity
8
0
100
AcDbPolyline
90
4
70
1
43
0.0
10
132.40000000000003
20
-219.09999999999997
10
132.40000000000003
20
-232.89999999999998
10
118.59999999999999
20
-232.89999999999998
10
118.59999999999999
20
-219.09999999999997
0
LWPOLYLINE
5
151
100
AcDbEntity
8
0
100
AcDbPolyline
90
4
70
1
43
0.0
10
132.40000000000003
20
-200.09999999999997
10
118.59999999999999
20
-200.09999999999997
10
118.59999999999999
20
-213.90000000000001
10
132.40000000000003
20
-213.90000000000001
0
CIRCLE
5
152
100
AcDbEntity
8
0
100
AcDbCircle
10
112.90600000000001
20
-178.49999999999997
30
0
40
1.1000000000000001
210
0
220
0
230
1
0
LWPOLYLINE
5
153
100
AcDbEntity
8
0
100
AcDbPolyline
90
4
70
1
43
0.0
10
189.40000000000001
20
-231.09999999999999
10
175.59999999999999
20
-231.09999999999999
10
175.59999999999999
20
-244.90000000000003
10
189.40000000000001
20
-244.90000000000003
0
LINE
5
154
100
AcDbEntity
8
0
100
AcDbLine
10
83.967941171510603
20
-103.99988959427093
30
0
11
53.347153811315088
21
-117.39173615990484
31
0
0
ARC
5
155
100
AcDbEntity
8
0
100
AcDbCircle
10
82.365142807433415
20
-100.33505161639093
30
0
40
4.0000000000000089
210
-0
220
0
230
1
100
AcDbArc
50
293.62192057683706
51
360
0
LINE
5
156
100
AcDbEntity
8
0
100
AcDbLine
10
86.365142807433415
20
-45.870162024130359
30
0
11
86.365142807433429
21
-100.33505161639096
31
0
0
ARC
5
157
100
AcDbEntity
8
0
100
AcDbCircle
10
82.365142807433429
20
-45.870162024130359
30
0
40
3.9999999999999858
210
0
220
-0
230
1
100
AcDbArc
50
0
51
90
0
LINE
5
158
100
AcDbEntity
8
0
100
AcDbLine
10
82.365142807433429
20
-41.870162024130352
30
0
11
55.786066050943717
21
-41.870162024130366
31
0
0
ARC
5
159
100
AcDbEntity
8
0
100
AcDbCircle
10
55.75826605094371
20
-44.870062024130362
30
0
40
3.0000799999999987
210
0
220
-0
230
1
100
AcDbArc
50
89.467999999999989
51
188.32100000000008
0
LINE
5
160
100
AcDbEntity
8
0
100
AcDbLine
10
52.789766050943712
20
-45.304262024130367
30
0
11
52.789766050943712
21
-114.75816202413036
31
0
0
ARC
5
161
100
AcDbEntity
8
0
100
AcDbCircle
10
59.289966050943718
20
-114.75816202413036
30
0
40
6.5002100000000009
210
0
220
0
230
1
100
AcDbArc
50
180.00100000003707
51
203.90066275268774
0
CIRCLE
5
162
100
AcDbEntity
8
0
100
AcDbCircle
10
83.38976605094372
20
-90.599662024130367
30
0
40
1.1000000000000019
210
0
220
-0
230
1
0
CIRCLE
5
163
100
AcDbEntity
8
0
100
AcDbCircle
10
57.38976605094372
20
-90.599662024130367
30
0
40
1.1000000000000019
210
0
220
-0
230
1
0
CIRCLE
5
164
100
AcDbEntity
8
0
100
AcDbCircle
10
57.38976605094372
20
-46.47016202413036
30
0
40
1.1000000000000019
210
0
220
-0
230
1
0
CIRCLE
5
165
100
AcDbEntity
8
0
100
AcDbCircle
10
83.38976605094372
20
-46.47016202413036
30
0
40
1.1000000000000019
210
0
220
-0
230
1
0
LWPOLYLINE
5
166
100
AcDbEntity
8
0
100
AcDbPolyline
90
8
70
1
43
0.0
10
80.52748108112668
20
-71.9251075260471
42
0.4803850355233838
10
80.527481081127206
20
-65.680104863023189
10
80.527481081127689
20
-59.302603862223222
42
0.99999935951023045
10
75.527481081127661
20
-59.302608526851515
10
75.527481081127178
20
-65.68010952765151
42
0.48038388730708853
10
75.527481081126709
20
-71.925102861417997
10
75.527481081126226
20
-78.302603862217978
42
1.000000197686262
10
80.527481081126169
20
-78.302608526847095
0
LINE
5
167
100
AcDbEntity
8
0
100
AcDbLine
10
83.558930120992656
20
-166.94478980434153
30
0
11
83.558930120992656
21
-236.39868980434144
31
0
0
ARC
5
168
100
AcDbEntity
8
0
100
AcDbCircle
10
77.058730120992635
20
-236.39868980434144
30
0
40
6.5002100000000373
210
-0
220
0
230
1
100
AcDbArc
50
336.09933724731189
51
359.9989999999629
0
LINE
5
169
100
AcDbEntity
8
0
100
AcDbLine
10
52.380755000425765
20
-225.64041737448204
30
0
11
83.001542360621272
21
-239.03226394011597
31
0
0
ARC
5
170
100
AcDbEntity
8
0
100
AcDbCircle
10
53.983553364502974
20
-221.97557939660203
30
0
40
4.0000000000000213
210
0
220
0
230
1
100
AcDbArc
50
180
51
246.37807942316272
0
LINE
5
171
100
AcDbEntity
8
0
100
AcDbLine
10
49.983553364502953
20
-167.5106898043415
30
0
11
49.983553364502953
21
-221.97557939660203
31
0
0
ARC
5
172
100
AcDbEntity
8
0
100
AcDbCircle
10
53.983553364502939
20
-167.5106898043415
30
0
40
3.9999999999999858
210
0
220
-0
230
1
100
AcDbArc
50
90
51
180
0
LINE
5
173
100
AcDbEntity
8
0
100
AcDbLine
10
53.983553364502939
20
-163.5106898043415
30
0
11
80.562630120992651
21
-163.5106898043415
31
0
0
ARC
5
174
100
AcDbEntity
8
0
100
AcDbCircle
10
80.590430120992664
20
-166.51058980434152
30
0
40
3.0000799999999987
210
-0
220
0
230
1
100
AcDbArc
50
-8.3209999999995699
51
90.532000000000139
0
CIRCLE
5
175
100
AcDbEntity
8
0
100
AcDbCircle
10
78.958930120992633
20
-168.11068980434152
30
0
40
1.1000000000000019
210
0
220
-0
230
1
0
CIRCLE
5
176
100
AcDbEntity
8
0
100
AcDbCircle
10
52.958930120992669
20
-168.11068980434152
30
0
40
1.1000000000000019
210
0
220
-0
230
1
0
CIRCLE
5
177
100
AcDbEntity
8
0
100
AcDbCircle
10
78.958930120992633
20
-212.2401898043415
30
0
40
1.1000000000000019
210
0
220
-0
230
1
0
CIRCLE
5
178
100
AcDbEntity
8
0
100
AcDbCircle
10
52.958930120992669
20
-212.2401898043415
30
0
40
1.1000000000000019
210
0
220
-0
230
1
0
LWPOLYLINE
5
179
100
AcDbEntity
8
0
100
AcDbPolyline
90
4
70
1
43
0.0
10
71.096930120992695
20
-183.34268980434155
10
71.096930120992624
20
-215.34268980434152
10
58.096930120992667
20
-215.34268980434149
10
58.096930120992702
20
-183.34268980434155
0
ENDSEC
0
SECTION
2
OBJECTS
0
DICTIONARY
5
C
100
AcDbDictionary
3
ACAD_GROUP
350
D
3
ACAD_MLINESTYLE
350
17
0
DICTIONARY
5
D
100
AcDbDictionary
0
DICTIONARY
5
1A
330
C
100
AcDbDictionary
0
DICTIONARY
5
17
100
AcDbDictionary
0
ENDSEC
0
EOF
