0
SECTION
2
HEADER
9
$INSUNITS
70
4
9
$ACADVER
1
AC1014
9
$HANDSEED
5
FFFF
0
ENDSEC
0
SECTION
2
TABLES
0
TABLE
2
VPORT
5
8
100
AcDbSymbolTable
0
ENDTAB
0
TABLE
2
LTYPE
5
5
100
AcDbSymbolTable
0
LTYPE
5
14
100
AcDbSymbolTableRecord
100
AcDbLinetypeTableRecord
2
BYBLOCK
70
0
0
LTYPE
5
15
100
AcDbSymbolTableRecord
100
AcDbLinetypeTableRecord
2
BYLAYER
70
0
0
ENDTAB
0
TABLE
2
LAYER
5
2
100
AcDbSymbolTable
70
2
0
LAYER
5
50
100
AcDbSymbolTableRecord
100
AcDbLayerTableRecord
2
0
70
0
6
CONTINUOUS
0
ENDTAB
0
TABLE
2
STYLE
5
3
100
AcDbSymbolTable
70
1
0
STYLE
5
11
100
AcDbSymbolTableRecord
100
AcDbTextStyleTableRecord
2
STANDARD
70
0
0
ENDTAB
0
TABLE
2
VIEW
5
6
100
AcDbSymbolTable
70
0
0
ENDTAB
0
TABLE
2
UCS
5
7
100
AcDbSymbolTable
70
0
0
ENDTAB
0
TABLE
2
APPID
5
9
100
AcDbSymbolTable
70
2
0
APPID
5
12
100
AcDbSymbolTableRecord
100
AcDbRegAppTableRecord
2
ACAD
70
0
0
ENDTAB
0
TABLE
2
DIMSTYLE
5
A
100
AcDbSymbolTable
70
1
0
ENDTAB
0
TABLE
2
BLOCK_RECORD
5
1
100
AcDbSymbolTable
70
1
0
BLOCK_RECORD
5
1F
100
AcDbSymbolTableRecord
100
AcDbBlockTableRecord
2
*MODEL_SPACE
0
BLOCK_RECORD
5
1B
100
AcDbSymbolTableRecord
100
AcDbBlockTableRecord
2
*PAPER_SPACE
0
ENDTAB
0
ENDSEC
0
SECTION
2
BLOCKS
0
BLOCK
5
20
100
AcDbEntity
100
AcDbBlockBegin
2
*MODEL_SPACE
0
ENDBLK
5
21
100
AcDbEntity
100
AcDbBlockEnd
0
BLOCK
5
1C
100
AcDbEntity
100
AcDbBlockBegin
2
*PAPER_SPACE
0
ENDBLK
5
1D
100
AcDbEntity
100
AcDbBlockEnd
0
ENDSEC
0
SECTION
2
ENTITIES
0
LWPOLYLINE
5
100
100
AcDbEntity
8
0
100
AcDbPolyline
90
13
70
1
43
0.0
10
180.63176449357127
20
-108.05033645704754
42
0.12136173351820205
10
72.072048409743246
20
-133.13856880183454
42
-0.40742287297638818
10
65.405749769160082
20
-131.04077027223755
10
54.77389714445696
20
-111.21267257939321
42
-0.12366161690820598
10
54.002398267637588
20
-108.14120680655344
10
60.085774480047817
20
-104.87876937167917
42
-0.65804201561983544
10
69.08763627563647
20
-103.05910921877286
10
81.794508266647554
20
-97.613540419986876
42
-0.45971758204516366
10
86.513510766647542
20
-91.456848848947374
10
86.513510766647499
20
-33.919185856487019
42
-0.10935266243326096
10
135.70398848888797
20
-24.140453806275765
42
-0.1815049869600488
10
185.70395036754493
20
-44.158196822867581
10
185.70390843884212
20
-103.05092341353686
42
-0.41845416368030025
0
CIRCLE
5
101
100
AcDbEntity
8
0
100
AcDbCircle
10
75.847308266647545
20
-126.17809335648687
30
0
40
1.1000000000000001
210
0
220
0
230
1
0
CIRCLE
5
102
100
AcDbEntity
8
0
100
AcDbCircle
10
64.978708266647544
20
-105.90809335648689
30
0
40
1.1000000000000001
210
0
220
0
230
1
0
LWPOLYLINE
5
103
100
AcDbEntity
8
0
100
AcDbPolyline
90
4
70
1
43
0.0
10
73.233408266647558
20
-106.70109335648688
10
79.754608266647551
20
-118.86309335648689
10
67.592608266647545
20
-125.38509335648691
10
61.071408266647545
20
-113.22309335648688
0
LWPOLYLINE
5
104
100
AcDbEntity
8
0
100
AcDbPolyline
90
4
70
1
43
0.0
10
86.020908266647552
20
-116.19509335648689
10
99.12300826664756
20
-111.86109335648688
10
94.789908266647558
20
-98.759093356486915
10
81.687808266647551
20
-103.09309335648692
0
CIRCLE
5
105
100
AcDbEntity
8
0
100
AcDbCircle
10
86.794508266647554
20
-96.559093356486926
30
0
40
1.1000000000000001
210
0
220
0
230
1
0
LWPOLYLINE
5
106
100
AcDbEntity
8
0
100
AcDbPolyline
90
4
70
1
43
0.0
10
105.65840826664756
20
-110.29709335648688
10
103.61840826664755
20
-96.649093356486901
10
117.26640826664755
20
-94.609093356486923
10
119.30640826664754
20
-108.25709335648689
0
CIRCLE
5
107
100
AcDbEntity
8
0
100
AcDbCircle
10
126.18140826664754
20
-108.98609335648686
30
0
40
1.1000000000000001
210
0
220
0
230
1
0
LWPOLYLINE
5
108
100
AcDbEntity
8
0
100
AcDbPolyline
90
4
70
1
43
0.0
10
124.76240826664753
20
-104.45309335648689
10
124.76240826664753
20
-91.453093356486903
10
141.26240826664755
20
-91.453093356486903
10
141.26240826664755
20
-104.45309335648689
0
LWPOLYLINE
5
109
100
AcDbEntity
8
0
100
AcDbPolyline
90
4
70
1
43
0.0
10
90.812408266647537
20
-88.853093356486909
10
90.812408266647537
20
-75.053093356486897
10
104.61240826664756
20
-75.053093356486897
10
104.61240826664756
20
-88.853093356486909
0
LWPOLYLINE
5
110
100
AcDbEntity
8
0
100
AcDbPolyline
90
4
70
1
43
0.0
10
90.812408266647537
20
-69.853093356486909
10
104.61240826664756
20
-69.853093356486909
10
104.61240826664756
20
-56.053093356486912
10
90.812408266647537
20
-56.053093356486912
0
LWPOLYLINE
5
111
100
AcDbEntity
8
0
100
AcDbPolyline
90
4
70
1
43
0.0
10
90.812408266647537
20
-50.853093356486916
10
104.61240826664756
20
-50.853093356486916
10
104.61240826664758
20
-37.053093356486919
10
90.812408266647552
20
-37.053093356486919
0
CIRCLE
5
112
100
AcDbEntity
8
0
100
AcDbCircle
10
104.11840826664758
20
-32.45309335648691
30
0
40
1.1000000000000001
210
0
220
0
230
1
0
LWPOLYLINE
5
113
100
AcDbEntity
8
0
100
AcDbPolyline
90
4
70
1
43
0.0
10
109.81240826664754
20
-48.853093356486909
10
109.81240826664757
20
-35.053093356486919
10
123.61240826664756
20
-35.053093356486919
10
123.61240826664755
20
-48.853093356486909
0
LWPOLYLINE
5
114
100
AcDbEntity
8
0
100
AcDbPolyline
90
4
70
1
43
0.0
10
123.61240826664755
20
-54.053093356486919
10
109.81240826664754
20
-54.053093356486919
10
109.81240826664754
20
-67.853093356486909
10
123.61240826664755
20
-67.853093356486909
0
LWPOLYLINE
5
115
100
AcDbEntity
8
0
100
AcDbPolyline
90
4
70
1
43
0.0
10
123.61240826664755
20
-73.053093356486897
10
123.61240826664755
20
-86.853093356486909
10
109.81240826664754
20
-86.853093356486909
10
109.81240826664754
20
-73.053093356486897
0
LWPOLYLINE
5
116
100
AcDbEntity
8
0
100
AcDbPolyline
90
4
70
1
43
0.0
10
128.81240826664754
20
-81.853093356486909
10
142.61240826664755
20
-81.853093356486909
10
142.61240826664755
20
-68.053093356486897
10
128.81240826664754
20
-68.053093356486897
0
LWPOLYLINE
5
117
100
AcDbEntity
8
0
100
AcDbPolyline
90
4
70
1
43
0.0
10
128.81240826664754
20
-62.853093356486923
10
142.61240826664755
20
-62.853093356486923
10
142.61240826664755
20
-49.053093356486919
10
128.81240826664754
20
-49.053093356486919
0
LWPOLYLINE
5
118
100
AcDbEntity
8
0
100
AcDbPolyline
90
4
70
1
43
0.0
10
128.81240826664754
20
-43.853093356486923
10
142.61240826664755
20
-43.853093356486923
10
142.61240826664755
20
-30.053093356486929
10
128.81240826664754
20
-30.053093356486929
0
LWPOLYLINE
5
119
100
AcDbEntity
8
0
100
AcDbPolyline
90
4
70
1
43
0.0
10
147.81240826664754
20
-48.853093356486923
10
147.81240826664754
20
-35.053093356486926
10
161.61240826664761
20
-35.053093356486926
10
161.61240826664761
20
-48.853093356486923
0
LWPOLYLINE
5
120
100
AcDbEntity
8
0
100
AcDbPolyline
90
4
70
1
43
0.0
10
161.61240826664761
20
-54.053093356486919
10
147.81240826664754
20
-54.053093356486919
10
147.81240826664754
20
-67.853093356486909
10
161.61240826664761
20
-67.853093356486923
0
CIRCLE
5
121
100
AcDbEntity
8
0
100
AcDbCircle
10
149.21240826664754
20
-29.453093356486931
30
0
40
1.1000000000000001
210
0
220
0
230
1
0
LWPOLYLINE
5
122
100
AcDbEntity
8
0
100
AcDbPolyline
90
4
70
1
43
0.0
10
161.61240826664761
20
-73.053093356486926
10
161.61240826664761
20
-86.853093356486937
10
147.81240826664754
20
-86.853093356486909
10
147.81240826664754
20
-73.053093356486897
0
LWPOLYLINE
5
123
100
AcDbEntity
8
0
100
AcDbPolyline
90
4
70
1
43
0.0
10
166.81240826664751
20
-98.853093356486937
10
166.81240826664754
20
-85.053093356486912
10
180.61240826664758
20
-85.053093356486912
10
180.61240826664755
20
-98.853093356486937
0
LWPOLYLINE
5
124
100
AcDbEntity
8
0
100
AcDbPolyline
90
4
70
1
43
0.0
10
166.81240826664754
20
-79.853093356486937
10
180.61240826664758
20
-79.853093356486937
10
180.61240826664758
20
-66.053093356486926
10
166.81240826664754
20
-66.053093356486926
0
LWPOLYLINE
5
125
100
AcDbEntity
8
0
100
AcDbPolyline
90
4
70
1
43
0.0
10
166.81240826664754
20
-60.853093356486937
10
180.61240826664758
20
-60.853093356486937
10
180.61240826664758
20
-47.053093356486926
10
166.81240826664754
20
-47.053093356486926
0
CIRCLE
5
126
100
AcDbEntity
8
0
100
AcDbCircle
10
173.71240826664751
20
-103.45309335648693
30
0
40
1.1000000000000001
210
0
220
0
230
1
0
LWPOLYLINE
5
127
100
AcDbEntity
8
0
100
AcDbPolyline
90
4
70
1
43
0.0
10
104.61240826664755
20
-186.0530933564869
10
90.812408266647523
20
-186.05309335648687
10
90.812408266647523
20
-199.85309335648685
10
104.61240826664755
20
-199.85309335648691
0
CIRCLE
5
128
100
AcDbEntity
8
0
100
AcDbCircle
10
126.18140826664751
20
-238.98609335648683
30
0
40
1.1000000000000001
210
0
220
0
230
1
0
CIRCLE
5
129
100
AcDbEntity
8
0
100
AcDbCircle
10
75.847308266647516
20
-256.17809335648678
30
0
40
1.1000000000000001
210
0
220
0
230
1
0
LWPOLYLINE
5
130
100
AcDbEntity
8
0
100
AcDbPolyline
90
4
70
1
43
0.0
10
147.81240826664751
20
-216.85309335648691
10
161.61240826664755
20
-216.85309335648691
10
161.61240826664755
20
-203.05309335648687
10
147.81240826664751
20
-203.05309335648687
0
LWPOLYLINE
5
131
100
AcDbEntity
8
0
100
AcDbPolyline
90
4
70
1
43
0.0
10
139.25240826664751
20
-221.4530933564869
10
139.25240826664751
20
-234.45309335648685
10
155.75240826664751
20
-234.45309335648685
10
155.75240826664751
20
-221.4530933564869
0
LWPOLYLINE
5
132
100
AcDbEntity
8
0
100
AcDbPolyline
90
4
70
1
43
0.0
10
67.592608266647531
20
-255.38509335648683
10
79.754608266647523
20
-248.86309335648684
10
73.233408266647544
20
-236.70109335648681
10
61.071408266647524
20
-243.22309335648683
0
LWPOLYLINE
5
133
100
AcDbEntity
8
0
100
AcDbPolyline
90
4
70
1
43
0.0
10
142.61240826664752
20
-179.0530933564869
10
128.81240826664751
20
-179.0530933564869
10
128.81240826664751
20
-192.85309335648691
10
142.61240826664752
20
-192.85309335648691
0
LWPOLYLINE
5
134
100
AcDbEntity
8
0
100
AcDbPolyline
90
4
70
1
43
0.0
10
142.61240826664752
20
-198.05309335648687
10
128.81240826664751
20
-198.05309335648687
10
128.81240826664751
20
-211.85309335648691
10
142.61240826664752
20
-211.85309335648691
0
LWPOLYLINE
5
135
100
AcDbEntity
8
0
100
AcDbPolyline
90
13
70
1
43
0.0
10
86.513510766647514
20
-163.91918585648693
10
86.513510766647528
20
-221.45684884894732
42
0.45971758204516366
10
81.79450826664754
20
-227.6135404199868
10
69.087636275636456
20
-233.05910921877279
42
0.65804201561983666
10
60.085774480047782
20
-234.87876937167908
10
54.00239826763756
20
-238.14120680655336
42
0.12366161690820737
10
54.773897144456932
20
-241.21267257939314
10
65.405749769160067
20
-261.04077027223747
42
0.40742287297638685
10
72.07204840974326
20
-263.13856880183454
42
-0.12136173351820198
10
180.63176449357127
20
-238.05033645704751
42
0.41845416368030025
10
185.70390843884212
20
-233.05092341353682
10
185.70395036754491
20
-174.15819682286752
42
0.18150498696004871
10
135.70398848888794
20
-154.14045380627573
42
0.10935266243326086
0
LWPOLYLINE
5
136
100
AcDbEntity
8
0
100
AcDbPolyline
90
4
70
1
43
0.0
10
105.65840826664754
20
-240.29709335648687
10
103.61840826664753
20
-226.64909335648684
10
117.26640826664752
20
-224.60909335648688
10
119.30640826664751
20
-238.25709335648685
0
LWPOLYLINE
5
137
100
AcDbEntity
8
0
100
AcDbPolyline
90
4
70
1
43
0.0
10
180.61240826664755
20
-196.05309335648687
10
180.61240826664755
20
-209.85309335648691
10
166.81240826664751
20
-209.85309335648691
10
166.81240826664751
20
-196.05309335648687
0
LWPOLYLINE
5
138
100
AcDbEntity
8
0
100
AcDbPolyline
90
4
70
1
43
0.0
10
104.61240826664755
20
-167.0530933564869
10
90.812408266647523
20
-167.05309335648684
10
90.812408266647523
20
-180.85309335648685
10
104.61240826664755
20
-180.85309335648688
0
LWPOLYLINE
5
139
100
AcDbEntity
8
0
100
AcDbPolyline
90
4
70
1
43
0.0
10
94.789908266647544
20
-228.75909335648683
10
99.123008266647545
20
-241.86109335648683
10
86.020908266647524
20
-246.19509335648684
10
81.687808266647522
20
-233.09309335648686
0
LWPOLYLINE
5
140
100
AcDbEntity
8
0
100
AcDbPolyline
90
4
70
1
43
0.0
10
90.812408266647523
20
-218.85309335648685
10
104.61240826664755
20
-218.85309335648688
10
104.61240826664755
20
-205.0530933564869
10
90.812408266647523
20
-205.05309335648687
0
LWPOLYLINE
5
141
100
AcDbEntity
8
0
100
AcDbPolyline
90
4
70
1
43
0.0
10
128.81240826664751
20
-173.85309335648688
10
142.61240826664752
20
-173.85309335648688
10
142.61240826664752
20
-160.0530933564869
10
128.81240826664751
20
-160.0530933564869
0
CIRCLE
5
142
100
AcDbEntity
8
0
100
AcDbCircle
10
173.71240826664751
20
-233.45309335648687
30
0
40
1.1000000000000001
210
0
220
0
230
1
0
CIRCLE
5
143
100
AcDbEntity
8
0
100
AcDbCircle
10
86.79450826664754
20
-226.55909335648684
30
0
40
1.1000000000000001
210
0
220
0
230
1
0
LWPOLYLINE
5
144
100
AcDbEntity
8
0
100
AcDbPolyline
90
4
70
1
43
0.0
10
180.61240826664755
20
-177.0530933564869
10
166.81240826664751
20
-177.0530933564869
10
166.81240826664751
20
-190.85309335648688
10
180.61240826664755
20
-190.85309335648688
0
LWPOLYLINE
5
145
100
AcDbEntity
8
0
100
AcDbPolyline
90
4
70
1
43
0.0
10
161.61240826664755
20
-184.0530933564869
10
161.61240826664755
20
-197.85309335648691
10
147.81240826664751
20
-197.85309335648691
10
147.81240826664751
20
-184.0530933564869
0
LWPOLYLINE
5
146
100
AcDbEntity
8
0
100
AcDbPolyline
90
4
70
1
43
0.0
10
109.81240826664752
20
-178.85309335648688
10
123.61240826664753
20
-178.85309335648688
10
123.61240826664753
20
-165.0530933564869
10
109.81240826664752
20
-165.0530933564869
0
CIRCLE
5
147
100
AcDbEntity
8
0
100
AcDbCircle
10
64.97870826664753
20
-235.90809335648683
30
0
40
1.1000000000000001
210
0
220
0
230
1
0
CIRCLE
5
148
100
AcDbEntity
8
0
100
AcDbCircle
10
149.21240826664751
20
-159.45309335648687
30
0
40
1.1000000000000001
210
0
220
0
230
1
0
LWPOLYLINE
5
149
100
AcDbEntity
8
0
100
AcDbPolyline
90
4
70
1
43
0.0
10
161.61240826664755
20
-165.0530933564869
10
147.81240826664751
20
-165.0530933564869
10
147.81240826664751
20
-178.85309335648688
10
161.61240826664755
20
-178.85309335648688
0
LWPOLYLINE
5
150
100
AcDbEntity
8
0
100
AcDbPolyline
90
4
70
1
43
0.0
10
123.61240826664753
20
-203.05309335648687
10
123.61240826664753
20
-216.85309335648691
10
109.81240826664752
20
-216.85309335648691
10
109.81240826664752
20
-203.05309335648687
0
LWPOLYLINE
5
151
100
AcDbEntity
8
0
100
AcDbPolyline
90
4
70
1
43
0.0
10
123.61240826664753
20
-184.0530933564869
10
109.81240826664752
20
-184.0530933564869
10
109.81240826664752
20
-197.85309335648691
10
123.61240826664753
20
-197.85309335648691
0
CIRCLE
5
152
100
AcDbEntity
8
0
100
AcDbCircle
10
104.11840826664755
20
-162.45309335648687
30
0
40
1.1000000000000001
210
0
220
0
230
1
0
LWPOLYLINE
5
153
100
AcDbEntity
8
0
100
AcDbPolyline
90
4
70
1
43
0.0
10
180.61240826664755
20
-215.0530933564869
10
166.81240826664751
20
-215.0530933564869
10
166.81240826664751
20
-228.85309335648688
10
180.61240826664755
20
-228.85309335648688
0
CIRCLE
5
154
100
AcDbEntity
8
0
100
AcDbCircle
10
176.21240826664757
20
-42.453093356487024
30
0
40
1.0999999999999985
210
0
220
0
230
1
0
CIRCLE
5
155
100
AcDbEntity
8
0
100
AcDbCircle
10
176.21240826664751
20
-172.45309335648699
30
0
40
1.1000000000000139
210
0
220
0
230
1
0
LINE
5
156
100
AcDbEntity
8
0
100
AcDbLine
10
39.734261514221018
20
-235.36512662073034
30
0
11
9.1134741540255337
21
-248.75697318636423
31
0
0
CIRCLE
5
157
100
AcDbEntity
8
0
100
AcDbCircle
10
39.156086393654128
20
-177.83539905058984
30
0
40
1.1000000000000019
210
0
220
-0
230
1
0
CIRCLE
5
158
100
AcDbEntity
8
0
100
AcDbCircle
10
13.156086393654167
20
-177.83539905058984
30
0
40
1.1000000000000019
210
0
220
-0
230
1
0
LWPOLYLINE
5
159
100
AcDbEntity
8
0
100
AcDbPolyline
90
4
70
1
43
0.0
10
35.007085790155166
20
-215.66784322099437
42
0.99999999999999989
10
32.80708579015517
20
-215.66784322099437
10
32.807085790154964
20
-216.66784322099417
42
0.99999999999999989
10
35.007085790154974
20
-216.6678432209946
0
ARC
5
160
100
AcDbEntity
8
0
100
AcDbCircle
10
38.131463150143844
20
-177.23539905058985
30
0
40
3.9999999999999858
210
0
220
-0
230
1
100
AcDbArc
50
0
51
90
0
ARC
5
161
100
AcDbEntity
8
0
100
AcDbCircle
10
38.131463150143823
20
-231.70028864285032
30
0
40
4.0000000000000089
210
-0
220
0
230
1
100
AcDbArc
50
-66.37807942316293
51
0
0
LWPOLYLINE
5
162
100
AcDbEntity
8
0
100
AcDbPolyline
90
4
70
1
43
0.0
10
32.807085790157103
20
-195.6678432209944
10
32.807085790157117
20
-196.66784322099443
42
0.99999999999999989
10
35.007085790157106
20
-196.66784322099443
10
35.007085790157113
20
-195.6678432209944
42
0.99999999999999989
0
ARC
5
163
100
AcDbEntity
8
0
100
AcDbCircle
10
11.524586393654159
20
-176.23529905058984
30
0
40
3.000079999999981
210
0
220
-0
230
1
100
AcDbArc
50
89.468000000000018
51
188.3209999999996
0
LINE
5
164
100
AcDbEntity
8
0
100
AcDbLine
10
38.131463150143844
20
-173.23539905058988
30
0
11
11.552386393654164
21
-173.23539905058982
31
0
0
ARC
5
165
100
AcDbEntity
8
0
100
AcDbCircle
10
15.056286393654155
20
-246.12339905058974
30
0
40
6.500209999999992
210
0
220
0
230
1
100
AcDbArc
50
180.00100000003707
51
203.90066275268788
0
LINE
5
166
100
AcDbEntity
8
0
100
AcDbLine
10
8.5560863936541676
20
-176.66949905058985
30
0
11
8.5560863936541587
21
-246.12339905058974
31
0
0
CIRCLE
5
167
100
AcDbEntity
8
0
100
AcDbCircle
10
13.156086393654167
20
-221.96489905058979
30
0
40
1.1000000000000019
210
0
220
-0
230
1
0
CIRCLE
5
168
100
AcDbEntity
8
0
100
AcDbCircle
10
39.156086393654128
20
-221.96489905058979
30
0
40
1.1000000000000019
210
0
220
-0
230
1
0
CIRCLE
5
169
100
AcDbEntity
8
0
100
AcDbCircle
10
33.826305068784414
20
-206.16784322099443
30
0
40
4.5
210
0
220
-0
230
1
0
LINE
5
170
100
AcDbEntity
8
0
100
AcDbLine
10
42.13146315014383
20
-177.23539905058985
30
0
11
42.13146315014383
21
-231.70028864285032
31
0
0
LINE
5
171
100
AcDbEntity
8
0
100
AcDbLine
10
39.734261514221018
20
-105.36512662073034
30
0
11
9.1134741540255337
21
-118.75697318636423
31
0
0
CIRCLE
5
172
100
AcDbEntity
8
0
100
AcDbCircle
10
39.156086393654128
20
-47.835399050589842
30
0
40
1.1000000000000019
210
0
220
-0
230
1
0
CIRCLE
5
173
100
AcDbEntity
8
0
100
AcDbCircle
10
13.156086393654167
20
-47.835399050589835
30
0
40
1.1000000000000019
210
0
220
-0
230
1
0
LWPOLYLINE
5
174
100
AcDbEntity
8
0
100
AcDbPolyline
90
4
70
1
43
0.0
10
35.007085790155166
20
-84.667843220994357
42
0.99999999999999989
10
32.80708579015517
20
-84.667843220994371
10
32.807085790154964
20
-85.667843220994158
42
0.99999999999999989
10
35.007085790154974
20
-85.667843220994584
0
ARC
5
175
100
AcDbEntity
8
0
100
AcDbCircle
10
38.131463150143844
20
-47.235399050589841
30
0
40
3.9999999999999858
210
0
220
-0
230
1
100
AcDbArc
50
0
51
90
0
ARC
5
176
100
AcDbEntity
8
0
100
AcDbCircle
10
38.131463150143823
20
-101.70028864285032
30
0
40
4.0000000000000089
210
-0
220
0
230
1
100
AcDbArc
50
-66.37807942316293
51
0
0
LWPOLYLINE
5
177
100
AcDbEntity
8
0
100
AcDbPolyline
90
4
70
1
43
0.0
10
32.807085790157103
20
-64.667843220994399
10
32.807085790157117
20
-65.667843220994399
42
0.99999999999999989
10
35.007085790157106
20
-65.667843220994399
10
35.007085790157113
20
-64.667843220994399
42
0.99999999999999989
0
ARC
5
178
100
AcDbEntity
8
0
100
AcDbCircle
10
11.524586393654159
20
-46.235299050589838
30
0
40
3.0000799999999987
210
0
220
-0
230
1
100
AcDbArc
50
89.468000000000018
51
188.321
0
LINE
5
179
100
AcDbEntity
8
0
100
AcDbLine
10
38.131463150143844
20
-43.235399050589848
30
0
11
11.552386393654164
21
-43.235399050589834
31
0
0
ARC
5
180
100
AcDbEntity
8
0
100
AcDbCircle
10
15.056286393654155
20
-116.12339905058974
30
0
40
6.500209999999992
210
0
220
0
230
1
100
AcDbArc
50
180.00100000003707
51
203.90066275268788
0
LINE
5
181
100
AcDbEntity
8
0
100
AcDbLine
10
8.5560863936541676
20
-46.669499050589842
30
0
11
8.5560863936541587
21
-116.12339905058974
31
0
0
CIRCLE
5
182
100
AcDbEntity
8
0
100
AcDbCircle
10
13.156086393654167
20
-91.964899050589793
30
0
40
1.1000000000000019
210
0
220
-0
230
1
0
CIRCLE
5
183
100
AcDbEntity
8
0
100
AcDbCircle
10
39.156086393654128
20
-91.964899050589793
30
0
40
1.1000000000000019
210
0
220
-0
230
1
0
CIRCLE
5
184
100
AcDbEntity
8
0
100
AcDbCircle
10
33.826305068784414
20
-75.167843220994399
30
0
40
4.5
210
0
220
-0
230
1
0
LINE
5
185
100
AcDbEntity
8
0
100
AcDbLine
10
42.13146315014383
20
-47.235399050589841
30
0
11
42.13146315014383
21
-101.70028864285032
31
0
0
LWPOLYLINE
5
186
100
AcDbEntity
8
0
100
AcDbPolyline
90
4
70
1
43
0.0
10
0
20
0
10
200
20
0
10
200
20
-300
10
0
20
-300
0
ENDSEC
0
SECTION
2
OBJECTS
0
DICTIONARY
5
C
100
AcDbDictionary
3
ACAD_GROUP
350
D
3
ACAD_MLINESTYLE
350
17
0
DICTIONARY
5
D
100
AcDbDictionary
0
DICTIONARY
5
1A
330
C
100
AcDbDictionary
0
DICTIONARY
5
17
100
AcDbDictionary
0
ENDSEC
0
EOF
